<svg height="496.002pt" viewBox="0 0 496.002 496.002" width="496.002pt" xmlns="http://www.w3.org/2000/svg"><path d="m152 48.003906h288v232h-288zm0 0" fill="#fdf14d"/><path d="m152 48.003906h256v232h-256zm0 0" fill="#fdf57a"/><path d="m280 424.003906h208v32h-208zm0 0" fill="#ed1c24"/><path d="m280 456.003906h208v32h-208zm0 0" fill="#b2151b"/><path d="m296 376.003906h176v48h-176zm0 0" fill="#beb85c"/><path d="m296 376.003906h144v48h-144zm0 0" fill="#fdf57a"/><path d="m152 272.003906h288v32h-288zm0 0" fill="#808080"/><path d="m152 272.003906h256v32h-256zm0 0" fill="#999"/><path d="m56 264.003906h176v176h-176zm0 0" fill="#8c6239"/><path d="m56 264.003906h144v176h-144zm0 0" fill="#a67c52"/><path d="m8 312.003906h176v176h-176zm0 0" fill="#2b8838"/><path d="m8 312.003906h144v176h-144zm0 0" fill="#39b54a"/><path d="m408 144.003906 40-56-40-40-56 40zm0 0" fill="#f14950"/><path d="m392 32.003906 24-24.003906 72 72-24 24.003906zm0 0" fill="#b2151b"/><path d="m392 32.003906 15.996094-16 72 72-16 16zm0 0" fill="#ed1c24"/><path d="m320 104 24-24 72 72-24 24zm0 0" fill="#b2151b"/><path d="m320 104.003906 15.996094-16 72 72-16 16zm0 0" fill="#ed1c24"/><path d="m160 264.003906h-16v-216c0-4.417968 3.574219-8 8-8h216v16h-208zm0 0"/><path d="m440 288.003906h-208v-16h200v-136h16v144c0 4.414063-3.574219 8-8 8zm0 0"/><path d="m370.335938 274.347656 64.003906-64.003906 11.3125 11.316406-64 64zm0 0"/><path d="m384 280.003906h-16v-64c0-4.417968 3.574219-8 8-8h64v16h-56zm0 0"/><path d="m440 320.003906h-208v-16h200v-16h-200v-16h208c4.425781 0 8 3.582032 8 8v32c0 4.414063-3.574219 8-8 8zm0 0"/><path d="m392 184.003906c-2.046875 0-4.097656-.785156-5.65625-2.347656l-72-72c-3.128906-3.125-3.128906-8.183594 0-11.308594l24-24c3.128906-3.128906 8.183594-3.128906 11.3125 0l72 72c3.128906 3.125 3.128906 8.183594 0 11.308594l-24 24c-1.558594 1.5625-3.609375 2.347656-5.65625 2.347656zm-60.6875-80 60.6875 60.6875 12.6875-12.6875-60.6875-60.691406zm0 0"/><path d="m464 112.003906c-2.046875 0-4.097656-.785156-5.65625-2.347656l-72-72c-3.128906-3.125-3.128906-8.183594 0-11.308594l24-24c3.128906-3.128906 8.183594-3.128906 11.3125 0l72 72c3.128906 3.125 3.128906 8.183594 0 11.308594l-24 24c-1.558594 1.5625-3.609375 2.347656-5.65625 2.347656zm-60.6875-80 60.6875 60.6875 12.6875-12.6875-60.6875-60.691406zm0 0"/><path d="m347.347656 81.484375 56.007813-39.980469 9.296875 13.019532-56.007813 39.984374zm0 0"/><path d="m401.472656 139.359375 39.996094-55.996094 13.011719 9.296875-39.996094 55.996094zm0 0"/><path d="m306.339844 178.347656 47.996094-47.996094 11.3125 11.3125-47.996094 48zm0 0"/><path d="m184 496.003906h-176c-4.425781 0-8-3.585937-8-8v-176c0-4.417968 3.574219-8 8-8h176c4.425781 0 8 3.582032 8 8v176c0 4.414063-3.574219 8-8 8zm-168-16h160v-160h-160zm0 0"/><path d="m232 448.003906h-48v-16h40v-160h-160v40h-16v-48c0-4.417968 3.574219-8 8-8h176c4.425781 0 8 3.582032 8 8v176c0 4.414063-3.574219 8-8 8zm0 0"/><path d="m488 496.003906h-208c-4.425781 0-8-3.585937-8-8v-64c0-4.417968 3.574219-8 8-8h208c4.425781 0 8 3.582032 8 8v64c0 4.414063-3.574219 8-8 8zm-200-16h192v-48h-192zm0 0"/><path d="m472 432.003906h-176c-4.425781 0-8-3.585937-8-8v-48c0-4.417968 3.574219-8 8-8h176c4.425781 0 8 3.582032 8 8v48c0 4.414063-3.574219 8-8 8zm-168-16h160v-32h-160zm0 0"/><path d="m280 448.003906h208v16h-208zm0 0"/><path d="m48 352.003906h96v16h-96zm0 0"/><path d="m32 384.003906h128v16h-128zm0 0"/><path d="m72 464.003906h-32c-4.425781 0-8-3.585937-8-8v-32c0-4.417968 3.574219-8 8-8h32c4.425781 0 8 3.582032 8 8v32c0 4.414063-3.574219 8-8 8zm-24-16h16v-16h-16zm0 0"/><path d="m152 464.003906h-32c-4.425781 0-8-3.585937-8-8v-32c0-4.417968 3.574219-8 8-8h32c4.425781 0 8 3.582032 8 8v32c0 4.414063-3.574219 8-8 8zm-24-16h16v-16h-16zm0 0"/><path d="m176 72.003906h16v96h-16zm0 0"/><path d="m176 184.003906h16v16h-16zm0 0"/></svg>