<svg id="Layer_3" enable-background="new 0 0 64 64" height="512" viewBox="0 0 64 64" width="512" xmlns="http://www.w3.org/2000/svg"><g><g><ellipse cx="32" cy="37" fill="#4d5d7a" rx="12" ry="19"/></g><g><path d="m39 30c0-3.982-1.003-7.675-2.711-10.729-1.334-.809-2.776-1.271-4.289-1.271-6.627 0-12 8.507-12 19 0 4.53 1.005 8.684 2.676 11.949.274.018.546.051.824.051 8.56 0 15.5-8.507 15.5-19z" fill="#8892a0"/></g><g><path d="m28 55 4 7 4-7" fill="#8892a0"/></g><g><path d="m27 30h10l3 7h-16z" fill="#f9d18b"/></g><g><path d="m23.303 50.066c2.561.615 5.185.934 7.82.934h1.754c2.635 0 5.259-.319 7.82-.934 1.196-1.996 2.121-4.396 2.683-7.066h-.38c-3.325.665-6.708 1-10.099 1h-1.639c-2.836 0-5.668-.234-8.466-.701l-1.796-.299h-.38c.562 2.67 1.487 5.07 2.683 7.066z" fill="#f9d18b"/></g><g><path d="m32 18 19.319 6.687c3.999 1.385 6.681 5.151 6.681 9.383 0 5.484-4.446 9.93-9.93 9.93-4.232 0-7.999-2.682-9.383-6.681z" fill="#f5b953"/></g><g><path d="m32 18-19.319 6.687c-3.999 1.385-6.681 5.151-6.681 9.383 0 5.484 4.446 9.93 9.93 9.93 4.232 0 7.999-2.682 9.383-6.681z" fill="#f5b953"/></g><g><path d="m6.209 32.08c4.634 3.649 11.114 5.92 18.291 5.92.185 0 .367-.008.551-.011.094-.22.183-.442.262-.671l6.687-19.318-19.319 6.687c-3.357 1.162-5.779 4.006-6.472 7.393z" fill="#f9d18b"/></g><g><path d="m49.007 23.887-17.007-5.887 5.914 17.083c5.317-2.52 9.328-6.494 11.093-11.196z" fill="#f9d18b"/></g><g><path d="m36.472 20c.95-1.061 1.528-2.463 1.528-4 0-3.314-2.686-6-6-6s-6 2.686-6 6c0 1.537.578 2.939 1.528 4" fill="#4d5d7a"/></g><g><circle cx="44" cy="4" fill="#4d5d7a" r="2"/></g><g><circle cx="20" cy="4" fill="#4d5d7a" r="2"/></g><g><path d="m32 57c-5.665 0-10.635-5.543-12.368-13.794l1.957-.411c1.534 7.3 5.718 12.205 10.411 12.205s8.877-4.905 10.411-12.206l1.957.411c-1.733 8.252-6.703 13.795-12.368 13.795z"/></g><g><path d="m32 63c-.359 0-.69-.192-.868-.504l-4-7 1.736-.992 3.132 5.48 3.132-5.48 1.736.992-4 7c-.178.312-.509.504-.868.504z"/></g><g><path d="m48.07 45c-4.655 0-8.806-2.956-10.328-7.354l-6.687-19.318c-.125-.362-.033-.764.238-1.034.271-.271.673-.362 1.034-.238l19.318 6.687c4.399 1.522 7.355 5.672 7.355 10.327 0 6.027-4.903 10.93-10.93 10.93zm-14.451-25.381 6.013 17.373c1.244 3.593 4.635 6.008 8.438 6.008 4.924 0 8.93-4.006 8.93-8.93 0-3.803-2.415-7.194-6.009-8.438z"/></g><g><path d="m15.93 45c-6.027 0-10.93-4.903-10.93-10.93 0-4.655 2.956-8.806 7.354-10.328l19.318-6.687c.361-.125.763-.034 1.034.238.271.271.363.672.238 1.034l-6.687 19.318c-1.522 4.399-5.672 7.355-10.327 7.355zm14.451-25.381-17.373 6.013c-3.593 1.244-6.008 4.635-6.008 8.438 0 4.924 4.006 8.93 8.93 8.93 3.803 0 7.194-2.415 8.438-6.009z"/></g><g><path d="m37.217 20.667-1.49-1.334c.821-.917 1.273-2.101 1.273-3.333 0-2.757-2.243-5-5-5s-5 2.243-5 5c0 1.232.452 2.416 1.273 3.333l-1.49 1.334c-1.15-1.284-1.783-2.942-1.783-4.667 0-3.86 3.14-7 7-7s7 3.14 7 7c0 1.725-.633 3.382-1.783 4.667z"/></g><g><path d="m32.901 45h-1.639c-2.883 0-5.787-.24-8.63-.714l-1.796-.299.329-1.973 1.796.299c2.735.456 5.528.687 8.301.687h1.639c3.318 0 6.65-.33 9.903-.98l.393 1.961c-3.383.676-6.847 1.019-10.296 1.019z"/></g><g><path d="m32.877 52h-1.754c-2.817 0-5.632-.347-8.366-1.03l.485-1.94c2.575.644 5.227.97 7.88.97h1.754c2.654 0 5.305-.326 7.88-.97l.485 1.94c-2.732.683-5.547 1.03-8.364 1.03z"/></g><g><path d="m25 36h14v2h-14z"/></g><g><path d="m28 29h8v2h-8z"/></g><g><path d="m44 7c-1.654 0-3-1.346-3-3s1.346-3 3-3 3 1.346 3 3-1.346 3-3 3zm0-4c-.551 0-1 .449-1 1s.449 1 1 1 1-.449 1-1-.449-1-1-1z"/></g><g><path d="m33.895 10.447-1.789-.895.317-.633c1.825-3.651 5.495-5.919 9.577-5.919v2c-3.319 0-6.304 1.845-7.789 4.814z"/></g><g><path d="m20 7c-1.654 0-3-1.346-3-3s1.346-3 3-3 3 1.346 3 3-1.346 3-3 3zm0-4c-.551 0-1 .449-1 1s.449 1 1 1 1-.449 1-1-.449-1-1-1z"/></g><g><path d="m30.105 10.447-.316-.633c-1.485-2.969-4.47-4.814-7.789-4.814v-2c4.082 0 7.752 2.268 9.578 5.919l.317.633z"/></g><g><path d="m44 43h-2v-9.68l-9.814-13.739 1.628-1.162 10 14c.121.169.186.373.186.581z"/></g><g><path d="m49 32c-.191 0-.379-.055-.541-.159l-14-9 1.081-1.683 13.695 8.804 7.64-.955.248 1.984-8 1c-.04.007-.081.009-.123.009z"/></g><g><path d="m48 44h-2v-5.5l-3.6-2.7 1.2-1.6 4 3c.252.188.4.485.4.8z"/></g><g><path d="m47 37h10v2h-10z"/></g><g><path d="m58 35h-6c-.265 0-.52-.105-.707-.293l-3-3 1.414-1.414 2.707 2.707h5.586z"/></g><g><path d="m22 43h-2v-10c0-.208.065-.412.186-.581l10-14 1.628 1.162-9.814 13.739z"/></g><g><path d="m15 32c-.042 0-.083-.002-.124-.008l-8-1 .248-1.984 7.64.955 13.695-8.804 1.081 1.683-14 9c-.161.103-.349.158-.54.158z"/></g><g><path d="m18 44h-2v-6c0-.315.148-.611.4-.8l4-3 1.2 1.6-3.6 2.7z"/></g><g><path d="m7 37h10v2h-10z"/></g><g><path d="m12 35h-6v-2h5.586l2.707-2.707 1.414 1.414-3 3c-.187.188-.442.293-.707.293z"/></g></g></svg>