<svg id="Layer_3" enable-background="new 0 0 64 64" height="512" viewBox="0 0 64 64" width="512" xmlns="http://www.w3.org/2000/svg"><g><g><path d="m33 47h-2l-.9-18.002c-.054-1.087.812-1.998 1.9-1.998 1.088 0 1.954.911 1.9 1.998z" fill="#8892a0"/></g><g><path d="m30 30-6.168-6.642c-4.499-4.845-10.017-8.632-16.155-11.087-.447-.179-.924-.271-1.406-.271h-.484c-2.092 0-3.787 1.695-3.787 3.787 0 .789.247 1.559.705 2.201l4.295 6.012v1.234c0 3.443 2.203 6.501 5.47 7.589l.53.177-1.933 1.16c-1.903 1.142-3.067 3.198-3.067 5.416 0 1.56.578 3.066 1.621 4.225l4.948 5.498c1.547 1.719 3.752 2.701 6.065 2.701 2.728 0 5.275-1.363 6.788-3.633l3.578-5.367" fill="#3d98f7"/></g><g><path d="m34 30 6.168-6.642c4.499-4.845 10.017-8.632 16.155-11.087.447-.179.925-.271 1.406-.271h.484c2.092 0 3.787 1.695 3.787 3.787 0 .789-.247 1.559-.705 2.201l-4.295 6.012v1.234c0 3.443-2.203 6.501-5.47 7.589l-.53.177 1.933 1.16c1.903 1.142 3.067 3.198 3.067 5.416 0 1.56-.578 3.066-1.621 4.225l-4.948 5.498c-1.548 1.719-3.752 2.701-6.065 2.701-2.728 0-5.275-1.363-6.788-3.633l-3.578-5.367" fill="#3d98f7"/></g><g><path d="m17 17v5c0 2.209 1.791 4 4 4h5" fill="#78b75b"/></g><g><circle cx="10" cy="19" fill="#78b75b" r="2"/></g><g><circle cx="21" cy="44" fill="#78b75b" r="4"/></g><g><path d="m47 17v5c0 2.209-1.791 4-4 4h-5" fill="#78b75b"/></g><g><circle cx="54" cy="19" fill="#78b75b" r="2"/></g><g><circle cx="43" cy="44" fill="#78b75b" r="4"/></g><g><path d="m33 48h-2c-.533 0-.972-.418-.999-.95l-.9-18.002c-.04-.79.25-1.572.795-2.145 1.091-1.146 3.116-1.146 4.207 0 .545.573.835 1.355.795 2.146l-.9 18.002c-.026.531-.465.949-.998.949zm-1.049-2h.098l.853-17.052c.012-.25-.075-.486-.248-.667-.344-.362-.964-.362-1.308 0-.172.181-.26.417-.248.667z"/></g><g><path d="m20.634 53c-2.592 0-5.074-1.105-6.808-3.032l-4.948-5.498c-1.211-1.345-1.878-3.084-1.878-4.894 0-2.555 1.361-4.958 3.552-6.273l.212-.127c-2.9-1.544-4.764-4.574-4.764-7.942v-.914l-4.109-5.752c-.583-.816-.891-1.778-.891-2.781 0-2.64 2.147-4.787 4.787-4.787h.484c.612 0 1.21.115 1.778.343 6.235 2.494 11.946 6.414 16.516 11.334l6.167 6.642-1.466 1.361-6.166-6.641c-4.37-4.706-9.832-8.454-15.794-10.839-.331-.133-.679-.2-1.035-.2h-.484c-1.537 0-2.787 1.25-2.787 2.787 0 .584.179 1.144.519 1.62l4.294 6.013c.122.168.187.372.187.58v1.234c0 3.018 1.923 5.687 4.787 6.641l.53.177c.371.124.635.452.678.84s-.145.766-.479.966l-1.934 1.16c-1.593.955-2.582 2.702-2.582 4.558 0 1.315.485 2.579 1.365 3.557l4.948 5.498c1.355 1.506 3.295 2.37 5.321 2.37 2.399 0 4.625-1.192 5.956-3.188l3.578-5.367 1.664 1.109-3.578 5.367c-1.702 2.553-4.551 4.078-7.62 4.078z"/></g><g><path d="m26 27h-5c-2.757 0-5-2.243-5-5v-5h2v5c0 1.654 1.346 3 3 3h5z"/></g><g><path d="m10 22c-1.654 0-3-1.346-3-3s1.346-3 3-3 3 1.346 3 3-1.346 3-3 3zm0-4c-.551 0-1 .449-1 1s.449 1 1 1 1-.449 1-1-.449-1-1-1z"/></g><g><path d="m21 49c-2.757 0-5-2.243-5-5s2.243-5 5-5 5 2.243 5 5-2.243 5-5 5zm0-8c-1.654 0-3 1.346-3 3s1.346 3 3 3 3-1.346 3-3-1.346-3-3-3z"/></g><g><path d="m26 31h-6c-4.411 0-8-3.589-8-8h2c0 3.309 2.691 6 6 6h6z"/></g><g><path d="m14 47.556h-2v-3.556c0-4.962 4.038-9 9-9h9v2h-9c-3.86 0-7 3.14-7 7z"/></g><g><path d="m43.366 53c-3.069 0-5.918-1.525-7.62-4.079l-3.578-5.367 1.664-1.109 3.578 5.367c1.331 1.996 3.557 3.188 5.956 3.188 2.026 0 3.966-.864 5.321-2.37l4.948-5.498c.88-.977 1.365-2.24 1.365-3.556 0-1.856-.989-3.603-2.581-4.559l-1.934-1.16c-.334-.201-.522-.578-.479-.966s.307-.716.678-.84l.53-.177c2.863-.954 4.786-3.623 4.786-6.64v-1.234c0-.208.065-.412.187-.581l4.294-6.013c.34-.476.519-1.036.519-1.62 0-1.536-1.25-2.786-2.787-2.786h-.484c-.356 0-.704.067-1.034.199-5.963 2.385-11.424 6.133-15.794 10.839l-6.167 6.642-1.466-1.361 6.167-6.642c4.57-4.921 10.281-8.84 16.517-11.335.567-.227 1.165-.342 1.777-.342h.484c2.64 0 4.787 2.147 4.787 4.787 0 1.003-.308 1.965-.891 2.782l-4.109 5.751v.914c0 3.368-1.864 6.398-4.764 7.942l.212.127c2.191 1.315 3.552 3.718 3.552 6.273 0 1.81-.667 3.548-1.878 4.895l-4.948 5.498c-1.734 1.926-4.216 3.031-6.808 3.031z"/></g><g><path d="m43 27h-5v-2h5c1.654 0 3-1.346 3-3v-5h2v5c0 2.757-2.243 5-5 5z"/></g><g><path d="m54 22c-1.654 0-3-1.346-3-3s1.346-3 3-3 3 1.346 3 3-1.346 3-3 3zm0-4c-.551 0-1 .449-1 1s.449 1 1 1 1-.449 1-1-.449-1-1-1z"/></g><g><path d="m43 49c-2.757 0-5-2.243-5-5s2.243-5 5-5 5 2.243 5 5-2.243 5-5 5zm0-8c-1.654 0-3 1.346-3 3s1.346 3 3 3 3-1.346 3-3-1.346-3-3-3z"/></g><g><path d="m44 31h-6v-2h6c3.309 0 6-2.691 6-6h2c0 4.411-3.589 8-8 8z"/></g><g><path d="m52 47.556h-2v-3.556c0-3.86-3.14-7-7-7h-9v-2h9c4.962 0 9 4.038 9 9z"/></g><g><path d="m33 27h-2v-.515c0-5.205-2.027-10.098-5.707-13.778l1.414-1.414c4.058 4.058 6.293 9.454 6.293 15.192z"/></g><g><path d="m33 27h-2v-.515c0-5.739 2.235-11.134 6.293-15.192l1.414 1.414c-3.68 3.68-5.707 8.574-5.707 13.778z"/></g></g></svg>