<svg id="Layer_3" enable-background="new 0 0 64 64" height="512" viewBox="0 0 64 64" width="512" xmlns="http://www.w3.org/2000/svg"><g><g><circle cx="32" cy="13" fill="#efbe9a" r="8"/></g><g><path d="m34 15 7 2c0 1.194-.764 2.255-1.897 2.632l-1.257.419c-1.885.629-3.859.949-5.846.949-1.987 0-3.961-.32-5.846-.949l-1.257-.419c-1.133-.377-1.897-1.438-1.897-2.632l7-2 .684-2.051c.189-.567.719-.949 1.316-.949.597 0 1.127.382 1.316.949z" fill="#8892a0"/></g><g><path d="m30 27.775c-.398.363-.699.833-.859 1.364-.861-.701-1.944-1.139-3.141-1.139-2.761 0-5 2.239-5 5 0 1.197.438 2.28 1.139 3.141-1.234.372-2.139 1.504-2.139 2.859s.905 2.487 2.139 2.859c-.701.861-1.139 1.944-1.139 3.141 0 2.761 2.239 5 5 5 1.197 0 2.28-.438 3.141-1.139.372 1.234 1.504 2.139 2.859 2.139s2.487-.905 2.859-2.139c.861.701 1.944 1.139 3.141 1.139 2.761 0 5-2.239 5-5 0-1.197-.438-2.28-1.139-3.141 1.234-.372 2.139-1.504 2.139-2.859s-.905-2.487-2.139-2.859c.701-.861 1.139-1.944 1.139-3.141 0-2.761-2.239-5-5-5-1.197 0-2.28.438-3.141 1.139-.16-.531-.461-1.001-.859-1.364" fill="#976947"/></g><g><path d="m34.859 29.139c-.16-.531-.461-1.001-.859-1.364h-4c-.398.363-.699.833-.859 1.364-.861-.701-1.944-1.139-3.141-1.139-2.761 0-5 2.239-5 5 0 1.197.438 2.28 1.139 3.141-1.234.372-2.139 1.504-2.139 2.859s.905 2.487 2.139 2.859c-.701.861-1.139 1.944-1.139 3.141 0 .099.023.192.029.29.692.085 1.392.143 2.109.143 8.808 0 15.948-6.589 15.948-14.717 0-.901-.101-1.778-.269-2.634-.267-.044-.537-.082-.817-.082-1.197 0-2.28.438-3.141 1.139z" fill="#c18e59"/></g><g><path d="m30 21v9c0 1.105.895 2 2 2 1.105 0 2-.895 2-2v-9" fill="#efbe9a"/></g><g><path d="m30 50v12h-6c0-1.657 1.343-3 3-3v-9" fill="#efbe9a"/></g><g><path d="m34 50v12h6c0-1.657-1.343-3-3-3v-9" fill="#efbe9a"/></g><g><path d="m39.795 17.5-1.731-1c.612-1.059.936-2.27.936-3.5 0-3.86-3.14-7-7-7s-7 3.14-7 7c0 1.23.324 2.441.936 3.5l-1.731 1c-.788-1.362-1.205-2.918-1.205-4.5 0-4.962 4.038-9 9-9s9 4.038 9 9c0 1.582-.417 3.138-1.205 4.5z"/></g><g><path d="m32 22c-2.098 0-4.172-.336-6.163-1l-1.256-.419c-1.543-.514-2.581-1.953-2.581-3.581 0-.446.296-.839.725-.961l6.493-1.855.517-1.551c.326-.977 1.236-1.633 2.265-1.633s1.939.656 2.265 1.632l.517 1.551 6.493 1.855c.429.123.725.516.725.962 0 1.628-1.038 3.067-2.582 3.581l-1.255.419c-1.991.664-4.065 1-6.163 1zm-7.852-4.288c.197.45.577.809 1.065.972l1.257.419c3.572 1.191 7.487 1.191 11.06 0l1.256-.419c.488-.163.869-.521 1.065-.972l-6.126-1.75c-.317-.091-.569-.332-.674-.646l-.684-2.051c-.105-.316-.63-.317-.735 0l-.684 2.051c-.104.313-.356.555-.674.646z"/></g><g><path d="m23 17h18v2h-18z"/></g><g><path d="m32 52c-1.326 0-2.52-.644-3.251-1.684-.849.45-1.782.684-2.749.684-3.309 0-6-2.691-6-6 0-.967.234-1.9.684-2.749-1.041-.731-1.684-1.925-1.684-3.251s.643-2.52 1.684-3.251c-.45-.849-.684-1.782-.684-2.749 0-3.309 2.691-6 6-6 .968 0 1.902.234 2.752.685.167-.235.358-.453.573-.649l1.348 1.478c-.271.247-.469.562-.575.914-.097.319-.346.569-.665.667-.317.099-.666.03-.924-.181-.734-.598-1.601-.914-2.509-.914-2.206 0-4 1.794-4 4 0 .908.316 1.775.914 2.509.21.259.278.605.181.924-.098.319-.348.569-.667.665-.854.257-1.428 1.022-1.428 1.902s.574 1.645 1.427 1.902c.32.096.57.346.667.665.098.319.03.666-.181.924-.597.734-.913 1.601-.913 2.509 0 2.206 1.794 4 4 4 .908 0 1.775-.316 2.509-.914.259-.21.607-.278.924-.181.319.098.569.348.665.667.257.854 1.022 1.428 1.902 1.428s1.645-.574 1.902-1.427c.096-.32.346-.57.665-.667.317-.098.665-.03.924.181.734.597 1.601.913 2.509.913 2.206 0 4-1.794 4-4 0-.908-.316-1.775-.914-2.509-.21-.259-.278-.605-.181-.924.098-.319.348-.569.667-.665.854-.257 1.428-1.022 1.428-1.902s-.574-1.645-1.427-1.902c-.32-.096-.57-.346-.667-.665-.098-.319-.03-.666.181-.924.597-.734.913-1.601.913-2.509 0-2.206-1.794-4-4-4-.908 0-1.775.316-2.509.914-.259.211-.607.279-.924.181-.319-.098-.568-.348-.665-.667-.106-.352-.305-.667-.575-.914l1.348-1.478c.215.196.407.414.573.649.85-.451 1.784-.685 2.752-.685 3.309 0 6 2.691 6 6 0 .967-.234 1.9-.684 2.749 1.041.731 1.684 1.925 1.684 3.251s-.643 2.52-1.684 3.251c.45.849.684 1.782.684 2.749 0 3.309-2.691 6-6 6-.967 0-1.9-.234-2.749-.684-.731 1.04-1.925 1.684-3.251 1.684z"/></g><g><path d="m32 33c-1.654 0-3-1.346-3-3v-9h2v9c0 .551.449 1 1 1s1-.449 1-1v-9h2v9c0 1.654-1.346 3-3 3z"/></g><g><path d="m30 63h-6c-.552 0-1-.448-1-1 0-1.86 1.277-3.428 3-3.874v-8.126h2v9c0 .552-.448 1-1 1-.739 0-1.385.403-1.731 1h3.731v-11h2v12c0 .552-.448 1-1 1z"/></g><g><path d="m40 63h-6c-.552 0-1-.448-1-1v-12h2v11h3.731c-.346-.597-.993-1-1.731-1-.552 0-1-.448-1-1v-9h2v8.126c1.723.445 3 2.013 3 3.874 0 .552-.448 1-1 1z"/></g><g><path d="m29.5 1.379h2v4.243h-2z" transform="matrix(.707 -.707 .707 .707 6.458 22.592)"/></g><g><path d="m31.379 2.5h4.243v2h-4.243z" transform="matrix(.707 -.707 .707 .707 7.337 24.713)"/></g><g><path d="m28.5 12c-.827 0-1.5-.673-1.5-1.5s.673-1.5 1.5-1.5 1.5.673 1.5 1.5-.673 1.5-1.5 1.5z"/></g><g><path d="m35.5 12c-.827 0-1.5-.673-1.5-1.5s.673-1.5 1.5-1.5 1.5.673 1.5 1.5-.673 1.5-1.5 1.5z"/></g></g></svg>