<svg id="Layer_3" enable-background="new 0 0 64 64" height="512" viewBox="0 0 64 64" width="512" xmlns="http://www.w3.org/2000/svg"><g><g><path d="m42 9c0 1.281.509 2.509 1.414 3.414l2.893 2.893c2.365 2.365 3.693 5.571 3.693 8.915 0 4.296-3.482 7.778-7.778 7.778h-4.716c-1.357 1.276-3.16 2-5.048 2-1.595 0-3.147-.517-4.423-1.474l-.069-.051c-1.223-.917-2.7-1.431-4.225-1.472-4.256.087-8.189 2.314-10.451 5.933l-1.29 2.064 1.166-3.498c1.833-5.5 5.504-10.201 10.394-13.313 2.247-1.43 4.854-2.189 7.517-2.189h1.124c3.713 0 7.274 1.475 9.899 4.101l1.485 1.485c.265.265.625.414 1 .414.782 0 1.415-.633 1.415-1.414v-.586c0-2.561-1.017-5.017-2.828-6.828l-2.343-2.343c-1.812-1.812-2.829-4.268-2.829-6.829 0-2.209 1.791-4 4-4" fill="#a1cdfb"/></g><g><g><path d="m38 8c0 2.561 1.017 5.017 2.828 6.828l2.343 2.343c.136.136.259.283.386.427.446-1.344.717-2.764.805-4.235l-.949-.949c-.904-.905-1.413-2.133-1.413-3.414v-5c-2.209 0-4 1.791-4 4z" fill="#c7e2fc"/></g><g><path d="m18.651 26.274c2.62 1.718 5.749 2.726 9.116 2.726 5.204 0 9.847-2.391 12.9-6.131-2.423-1.842-5.388-2.869-8.466-2.869h-1.124c-2.663 0-5.27.759-7.516 2.189-1.816 1.155-3.462 2.532-4.91 4.085z" fill="#c7e2fc"/></g></g><g><path d="m47 9c1.874 1.249 3 3.353 3 5.606v.394l1.198-1.797c.523-.785.802-1.706.802-2.648 0-1.596-.798-3.086-2.126-3.972l-.874-.583" fill="#f5b953"/></g><g><circle cx="45" cy="6" fill="#ebf7fe" r="4"/></g><g><path d="m45 11c-2.757 0-5-2.243-5-5s2.243-5 5-5 5 2.243 5 5-2.243 5-5 5zm0-8c-1.654 0-3 1.346-3 3s1.346 3 3 3 3-1.346 3-3-1.346-3-3-3z"/></g><g><path d="m11.999 40c-.143 0-.288-.03-.425-.096-.459-.216-.683-.74-.522-1.221l1.166-3.498c1.899-5.699 5.737-10.615 10.806-13.841 2.41-1.533 5.195-2.344 8.053-2.344h1.124c4.007 0 7.773 1.561 10.606 4.394l1.485 1.485c.238.238.708.045.708-.293v-.586c0-2.312-.9-4.486-2.535-6.121l-2.344-2.344c-2.013-2.013-3.121-4.688-3.121-7.535 0-2.757 2.243-5 5-5v2c-1.654 0-3 1.346-3 3 0 2.312.9 4.486 2.535 6.121l2.344 2.344c2.013 2.013 3.121 4.688 3.121 7.535v.586c0 1.331-1.083 2.414-2.414 2.414-.636 0-1.258-.258-1.707-.707l-1.485-1.485c-2.456-2.455-5.72-3.808-9.193-3.808h-1.124c-2.478 0-4.891.703-6.979 2.032-3.909 2.487-7.026 6.063-8.97 10.24 2.432-2.091 5.551-3.272 8.872-3.272v2c-4.036 0-7.723 2.043-9.862 5.466l-1.29 2.064c-.188.301-.513.47-.849.47z"/></g><g><path d="m32.457 35c-1.799 0-3.583-.595-5.022-1.675-1.165-.872-2.523-1.325-3.892-1.325h-.543c-.553 0-1-.447-1-1 0-2.847 1.275-5.5 3.498-7.279l1.877-1.502 1.25 1.562-1.877 1.501c-1.487 1.19-2.435 2.879-2.683 4.734 1.619.104 3.2.683 4.5 1.658 1.165.873 2.523 1.326 3.892 1.326 1.946 0 3.76-.871 4.975-2.391l1.787-2.234 1.562 1.25-1.787 2.233c-1.597 1.996-3.979 3.142-6.537 3.142z"/></g><g><path d="m42.222 33h-5.222v-2h5.222c3.737 0 6.778-3.041 6.778-6.778 0-3.101-1.207-6.015-3.399-8.207l-2.894-2.894c-1.085-1.085-1.707-2.587-1.707-4.121h2c0 1.008.408 1.994 1.121 2.707l2.894 2.894c2.57 2.57 3.985 5.986 3.985 9.621 0 4.84-3.938 8.778-8.778 8.778z"/></g><g><path d="m31.164 30.986-.328-1.973 1.068-.178c2.373-.395 4.096-2.429 4.096-4.835h2c0 3.388-2.426 6.251-5.768 6.809z"/></g><g><path d="m39 63h-5c-.553 0-1-.447-1-1v-28h2v27h4z"/></g><g><path d="m50 16c-.097 0-.194-.014-.29-.043-.422-.128-.71-.517-.71-.957v-.395c0-1.923-.955-3.707-2.555-4.773l1.109-1.664c1.469.979 2.534 2.407 3.065 4.037.25-.513.38-1.074.38-1.65 0-1.265-.628-2.438-1.681-3.14l-.874-.583 1.109-1.664.874.583c1.612 1.072 2.573 2.868 2.573 4.804 0 1.143-.335 2.25-.97 3.202l-1.198 1.798c-.188.283-.504.445-.832.445z"/></g><g><path d="m45.5 7c-.827 0-1.5-.673-1.5-1.5s.673-1.5 1.5-1.5 1.5.673 1.5 1.5-.673 1.5-1.5 1.5z"/></g><g><path d="m44 49h-2v-2h-13.323c-1.476 0-2.677-1.201-2.677-2.677 0-.341.064-.676.191-.993l3.88-9.701 1.857.742-3.88 9.7c-.031.081-.048.166-.048.252 0 .373.304.677.677.677h14.323c.553 0 1 .447 1 1z"/></g><g><path d="m27 29v-2c1.543 0 2.976-.767 3.832-2.051l.336-.504 1.664 1.109-.336.504c-1.228 1.842-3.283 2.942-5.496 2.942z"/></g></g></svg>