<svg id="Layer_3" enable-background="new 0 0 64 64" height="512" viewBox="0 0 64 64" width="512" xmlns="http://www.w3.org/2000/svg"><g><g><path d="m21 19c0-6.075 4.925-11 11-11s11 4.925 11 11" fill="#8892a0"/></g><g><path d="m11 29-8-4 .765-5.355c.135-.944.943-1.645 1.897-1.645 1.209 0 2.117 1.106 1.879 2.292l-.541 2.708 7 2" fill="#8892a0"/></g><g><path d="m53 29 8-4-.765-5.355c-.135-.944-.943-1.645-1.897-1.645-1.209 0-2.117 1.106-1.879 2.292l.541 2.708-7 2" fill="#8892a0"/></g><g><path d="m9 34h-5l-1.537 7.685c-.24 1.198.676 2.315 1.898 2.315.946 0 1.753-.684 1.909-1.617l.73-4.383h2" fill="#8892a0"/></g><g><path d="m14 53-4 5h-1c-1.105 0-2 .895-2 2 0 1.105.895 2 2 2h3l5-6" fill="#8892a0"/></g><g><path d="m55 34h5l1.537 7.685c.24 1.198-.676 2.315-1.898 2.315-.946 0-1.753-.684-1.909-1.617l-.73-4.383h-2" fill="#8892a0"/></g><g><path d="m50 53 4 5h1c1.105 0 2 .895 2 2 0 1.105-.895 2-2 2h-3l-5-6" fill="#8892a0"/></g><g><circle cx="32" cy="39" fill="#c66b60" r="23"/></g><g><path d="m9 39c0 2.509.407 4.921 1.15 7.182 3.986 3.497 9.207 5.621 14.926 5.621 12.51 0 22.651-10.141 22.651-22.651 0-2.918-.558-5.703-1.562-8.265-3.905-3.059-8.82-4.887-14.165-4.887-12.703 0-23 10.297-23 23z" fill="#e47c6e"/></g><g><path d="m32 62c2.087 0 4.107-.283 6.029-.804l-6.029-41.196-6.029 41.196c1.922.521 3.942.804 6.029.804z" fill="#4d5d7a"/></g><g><circle cx="23" cy="26" fill="#4d5d7a" r="3"/></g><g><circle cx="20" cy="50" fill="#4d5d7a" r="3"/></g><g><circle cx="18" cy="38" fill="#4d5d7a" r="5"/></g><g><circle cx="41" cy="26" fill="#4d5d7a" r="3"/></g><g><circle cx="44" cy="50" fill="#4d5d7a" r="3"/></g><g><circle cx="46" cy="38" fill="#4d5d7a" r="5"/></g><g><path d="m32 63c-13.233 0-24-10.767-24-24s10.767-24 24-24 24 10.767 24 24-10.767 24-24 24zm0-46c-12.131 0-22 9.869-22 22s9.869 22 22 22 22-9.869 22-22-9.869-22-22-22z"/></g><g><path d="m44 19h-2c0-5.514-4.486-10-10-10s-10 4.486-10 10h-2c0-6.617 5.383-12 12-12s12 5.383 12 12z"/></g><g><path d="m33 8h-2v-1c0-2.206-1.794-4-4-4s-4 1.794-4 4h-2c0-3.309 2.691-6 6-6s6 2.691 6 6z"/></g><g><path d="m33 8h-2v-1c0-3.309 2.691-6 6-6s6 2.691 6 6h-2c0-2.206-1.794-4-4-4s-4 1.794-4 4z"/></g><g><path d="m37.011 61.145-5.011-34.239-5.011 34.239-1.979-.29 6-41c.072-.491.494-.855.99-.855s.918.364.989.855l6 41z"/></g><g><path d="m10.553 29.895-8-4c-.385-.192-.604-.61-.543-1.036l.765-5.354c.204-1.428 1.445-2.505 2.887-2.505.877 0 1.699.389 2.255 1.066.557.678.777 1.561.605 2.421l-.361 1.804 6.113 1.747-.549 1.923-7-2c-.501-.143-.809-.647-.706-1.158l.542-2.708c.073-.37-.088-.636-.19-.761-.102-.124-.332-.334-.709-.334-.453 0-.844.338-.907.787l-.663 4.641 7.355 3.678z"/></g><g><path d="m6.99 18.142-1.98-.283.435-3.04c.392-2.747 2.78-4.819 5.555-4.819v2c-1.786 0-3.323 1.333-3.575 3.101z"/></g><g><path d="m53.447 29.895-.895-1.789 7.355-3.678-.663-4.641c-.062-.449-.453-.787-.906-.787-.377 0-.606.21-.709.335s-.264.391-.19.762l.542 2.707c.103.511-.205 1.015-.706 1.158l-7 2-.549-1.923 6.113-1.747-.361-1.803c-.172-.861.049-1.744.605-2.422s1.378-1.067 2.255-1.067c1.442 0 2.684 1.077 2.888 2.504l.765 5.354c.061.426-.158.844-.543 1.036z"/></g><g><path d="m57.01 18.142-.435-3.04c-.252-1.769-1.789-3.102-3.575-3.102v-2c2.775 0 5.163 2.072 5.556 4.819l.435 3.04z"/></g><g><path d="m4.36 45c-.883 0-1.71-.392-2.27-1.074s-.781-1.571-.608-2.437l1.537-7.686c.094-.467.504-.803.981-.803h5v2h-4.181l-1.376 6.881c-.075.377.089.648.194.776.105.129.339.343.723.343.459 0 .848-.329.923-.781l.73-4.383c.081-.482.498-.836.987-.836h2v2h-1.153l-.591 3.547c-.236 1.421-1.454 2.453-2.896 2.453z"/></g><g><path d="m1 52v-2c1.103 0 2-.897 2-2v-4h2v4c0 2.206-1.794 4-4 4z"/></g><g><path d="m12 63h-3c-1.654 0-3-1.346-3-3s1.346-3 3-3h.52l3.699-4.625 1.562 1.249-4 5c-.19.238-.477.376-.781.376h-1c-.552 0-1 .449-1 1s.448 1 1 1h2.531l4.7-5.64 1.537 1.28-5 6c-.19.228-.471.36-.768.36z"/></g><g><path d="m1 59h6v2h-6z"/></g><g><path d="m59.64 45c-1.441 0-2.659-1.032-2.896-2.453l-.591-3.547h-1.153v-2h2c.489 0 .906.354.986.835l.73 4.383c.076.453.465.782.924.782.385 0 .618-.214.723-.342s.27-.399.194-.777l-1.376-6.881h-4.181v-2h5c.477 0 .887.336.98.804l1.537 7.685c.173.866-.049 1.754-.608 2.437s-1.387 1.074-2.269 1.074z"/></g><g><path d="m63 52c-2.206 0-4-1.794-4-4v-4h2v4c0 1.103.897 2 2 2z"/></g><g><path d="m55 63h-3c-.297 0-.578-.132-.769-.36l-5-6 1.537-1.28 4.7 5.64h2.532c.552 0 1-.449 1-1s-.448-1-1-1h-1c-.304 0-.591-.138-.781-.375l-4-5 1.562-1.249 3.699 4.624h.52c1.654 0 3 1.346 3 3s-1.346 3-3 3z"/></g><g><path d="m57 59h6v2h-6z"/></g><g><path d="m23 30c-2.206 0-4-1.794-4-4s1.794-4 4-4 4 1.794 4 4-1.794 4-4 4zm0-6c-1.103 0-2 .897-2 2s.897 2 2 2 2-.897 2-2-.897-2-2-2z"/></g><g><path d="m20 54c-2.206 0-4-1.794-4-4s1.794-4 4-4 4 1.794 4 4-1.794 4-4 4zm0-6c-1.103 0-2 .897-2 2s.897 2 2 2 2-.897 2-2-.897-2-2-2z"/></g><g><path d="m18 44c-3.309 0-6-2.691-6-6s2.691-6 6-6 6 2.691 6 6-2.691 6-6 6zm0-10c-2.206 0-4 1.794-4 4s1.794 4 4 4 4-1.794 4-4-1.794-4-4-4z"/></g><g><path d="m41 30c-2.206 0-4-1.794-4-4s1.794-4 4-4 4 1.794 4 4-1.794 4-4 4zm0-6c-1.103 0-2 .897-2 2s.897 2 2 2 2-.897 2-2-.897-2-2-2z"/></g><g><path d="m44 54c-2.206 0-4-1.794-4-4s1.794-4 4-4 4 1.794 4 4-1.794 4-4 4zm0-6c-1.103 0-2 .897-2 2s.897 2 2 2 2-.897 2-2-.897-2-2-2z"/></g><g><path d="m46 44c-3.309 0-6-2.691-6-6s2.691-6 6-6 6 2.691 6 6-2.691 6-6 6zm0-10c-2.206 0-4 1.794-4 4s1.794 4 4 4 4-1.794 4-4-1.794-4-4-4z"/></g></g></svg>