<svg id="Layer_3" enable-background="new 0 0 64 64" height="512" viewBox="0 0 64 64" width="512" xmlns="http://www.w3.org/2000/svg"><g><g><path d="m28 31-4-19c0-4.418 3.582-8 8-8s8 3.582 8 8l-4 19" fill="#2d4d83"/></g><g><path d="m44 39c0-3.997-3.477-7.38-8.285-8.554l-.715-11.446h-6l-.715 11.446c-4.808 1.174-8.285 4.557-8.285 8.554l4-2c-2.561 2.561-4 6.035-4 9.657v.343l4-4 .123.615c.553 2.767 2.353 5.123 4.877 6.385h6c2.524-1.262 4.324-3.618 4.877-6.385l.123-.615 4 4v-.343c0-3.622-1.439-7.096-4-9.657z" fill="#976947"/></g><g><path d="m36.944 30.811c-.4-.136-.807-.262-1.229-.365l-.554-8.863c-.465-.929-1.007-1.793-1.618-2.583h-4.543l-.715 11.446c-4.808 1.174-8.285 4.557-8.285 8.554l4-2c-2.005 2.005-3.309 4.571-3.787 7.327.632.229 1.289.389 1.958.502l1.829-1.829.123.615c.093.466.234.915.395 1.354 6.57-.31 11.882-6.417 12.426-14.158z" fill="#c18e59"/></g><g><circle cx="32" cy="4" fill="#a1cdfb" r="2"/></g><g><circle cx="32" cy="15" fill="#efbe9a" r="5"/></g><g><path d="m10 41 10-2 4-2c-2.135 2.135-3.476 4.908-3.868 7.868l-.132.132-5.02 5.346c-1.077 1.601-2.905 2.654-4.98 2.654-3.314 0-6-2.686-6-6s2.686-6 6-6z" fill="#4472b2"/></g><g><path d="m22.253 33.749-10.814 2.163c-.974.684-2.159 1.088-3.439 1.088-3.314 0-6-2.686-6-6s2.686-6 6-6c1.28 0 2.465.404 3.439 1.088l16.561 2.912" fill="#2d4d83"/></g><g><path d="m26 21.25-5-6.25c0-3.314-2.686-6-6-6s-6 2.686-6 6 2.686 6 6 6l12 5.538" fill="#4472b2"/></g><g><path d="m54 41-10-2-4-2c2.135 2.135 3.476 4.908 3.868 7.868l.132.132 5.02 5.346c1.077 1.601 2.905 2.654 4.98 2.654 3.314 0 6-2.686 6-6s-2.686-6-6-6z" fill="#4472b2"/></g><g><path d="m41.746 33.749 10.815 2.163c.974.684 2.159 1.088 3.439 1.088 3.314 0 6-2.686 6-6s-2.686-6-6-6c-1.28 0-2.465.404-3.439 1.088l-16.561 2.912" fill="#2d4d83"/></g><g><circle cx="56" cy="31" fill="#a1cdfb" r="4"/></g><g><circle cx="54" cy="47" fill="#a1cdfb" r="4"/></g><g><path d="m38 21.25 5-6.25c0-3.314 2.686-6 6-6s6 2.686 6 6-2.686 6-6 6l-12 5.538" fill="#4472b2"/></g><g><circle cx="49" cy="15" fill="#a1cdfb" r="4"/></g><g><circle cx="8" cy="31" fill="#a1cdfb" r="4"/></g><g><circle cx="10" cy="47" fill="#a1cdfb" r="4"/></g><g><circle cx="15" cy="15" fill="#a1cdfb" r="4"/></g><g><path d="m30 17 2 9 2-9z" fill="#4d5d7a"/></g><g><circle cx="10" cy="47" fill="#fff" r="2"/></g><g><circle cx="8" cy="31" fill="#fff" r="2"/></g><g><circle cx="15" cy="15" fill="#fff" r="2"/></g><g><circle cx="54" cy="47" fill="#fff" r="2"/></g><g><circle cx="56" cy="31" fill="#fff" r="2"/></g><g><circle cx="49" cy="15" fill="#fff" r="2"/></g><g><path d="m33.199 20.88-.398-1.959c1.854-.377 3.199-2.026 3.199-3.921 0-2.206-1.794-4-4-4s-4 1.794-4 4c0 1.895 1.345 3.544 3.199 3.921l-.398 1.959c-2.782-.565-4.801-3.038-4.801-5.88 0-3.309 2.691-6 6-6s6 2.691 6 6c0 2.842-2.019 5.315-4.801 5.88z"/></g><g><path d="m32 7c-1.654 0-3-1.346-3-3s1.346-3 3-3 3 1.346 3 3-1.346 3-3 3zm0-4c-.551 0-1 .448-1 1s.449 1 1 1 1-.448 1-1-.449-1-1-1z"/></g><g><path d="m31 6h2v4h-2z"/></g><g><path d="m32 27c-.469 0-.875-.325-.976-.783l-2-9c-.066-.296.006-.605.196-.843.19-.236.477-.374.78-.374h4c.303 0 .59.138.78.374.189.237.262.547.196.843l-2 9c-.101.458-.507.783-.976.783zm-.753-9 .753 3.391.753-3.391z"/></g><g><path d="m35 51h-6c-.155 0-.308-.036-.447-.105-2.459-1.229-4.274-3.352-5.108-5.925l-2.738 2.737c-.287.285-.716.372-1.09.217-.373-.154-.617-.52-.617-.924v-.343c0-2.445.595-4.8 1.716-6.897l-.269.135c-.31.155-.678.139-.973-.044-.294-.183-.474-.504-.474-.851 0-4.596 4.034-8.584 9.811-9.698l.379 1.963c-4.025.777-7.037 3.122-7.922 5.983l2.286-1.143c.439-.219.971-.088 1.258.31s.243.945-.104 1.292c-1.845 1.846-3.051 4.161-3.504 6.677l2.09-2.091c.261-.262.643-.359.997-.25.353.106.619.399.691.761l.123.614c.481 2.407 1.984 4.43 4.14 5.582h5.514c2.155-1.152 3.658-3.175 4.14-5.582l.123-.614c.072-.361.338-.654.691-.761.352-.108.735-.012.997.25l2.09 2.091c-.454-2.516-1.659-4.831-3.504-6.677-.347-.347-.391-.894-.104-1.292.287-.397.818-.528 1.258-.31l2.286 1.143c-.885-2.861-3.897-5.206-7.922-5.983l.379-1.963c5.773 1.114 9.807 5.102 9.807 9.698 0 .347-.18.668-.474.851-.295.183-.663.199-.973.044l-.269-.135c1.121 2.097 1.716 4.452 1.716 6.897v.343c0 .404-.244.77-.617.924-.376.155-.804.068-1.09-.217l-2.738-2.737c-.833 2.573-2.648 4.695-5.108 5.925-.139.069-.292.105-.447.105z"/></g><g><path d="m20.484 26h16.031v2h-16.031z" transform="matrix(.063 -.998 .998 .063 -.229 53.757)"/></g><g><path d="m34.5 18.984h2v16.031h-2z" transform="matrix(.998 -.062 .062 .998 -1.615 2.267)"/></g><g><path d="m26.447 62.895-.895-1.789 3.448-1.724v-9.382h2v10c0 .379-.214.725-.553.895z"/></g><g><path d="m37.553 62.895-4-2c-.339-.17-.553-.516-.553-.895v-10h2v9.382l3.447 1.724z"/></g><g><path d="m36.979 31.206-1.957-.412 3.978-18.895c-.045-3.154-2.19-5.893-5.249-6.679l.498-1.938c3.975 1.024 6.751 4.609 6.751 8.718 0 .069-.007.139-.021.206z"/></g><g><path d="m27.021 31.206-4-19c-.014-.067-.021-.137-.021-.206 0-4.109 2.776-7.694 6.751-8.717l.498 1.938c-3.058.786-5.204 3.524-5.249 6.678l3.978 18.895z"/></g><g><path d="m37.419 27.446-.838-1.816 12-5.538c.131-.061.274-.092.419-.092 2.757 0 5-2.243 5-5s-2.243-5-5-5-5 2.243-5 5c0 .228-.077.447-.219.625l-5 6.25-1.562-1.25 4.79-5.987c.19-3.693 3.253-6.638 6.991-6.638 3.86 0 7 3.141 7 7 0 3.784-3.018 6.876-6.772 6.996z"/></g><g><path d="m26.581 27.446-11.809-5.45c-3.754-.12-6.772-3.212-6.772-6.996 0-3.859 3.14-7 7-7 3.738 0 6.801 2.945 6.991 6.638l4.79 5.987-1.562 1.25-5-6.25c-.142-.178-.219-.397-.219-.625 0-2.757-2.243-5-5-5s-5 2.243-5 5 2.243 5 5 5c.145 0 .288.031.419.092l12 5.538z"/></g><g><path d="m56 38c-1.37 0-2.69-.396-3.833-1.146l-10.617-2.125.393-1.961 10.815 2.163c.136.027.265.082.378.162.844.594 1.835.907 2.864.907 2.757 0 5-2.243 5-5s-2.243-5-5-5c-1.029 0-2.02.313-2.865.906-.12.084-.257.142-.401.167l-16.561 2.912-.347-1.971 16.351-2.875c1.141-.745 2.457-1.139 3.823-1.139 3.86 0 7 3.141 7 7s-3.14 7-7 7z"/></g><g><path d="m54 54c-2.305 0-4.453-1.129-5.763-3.025l-4.966-5.29 1.458-1.369 5.02 5.347c.037.039.07.081.101.126.932 1.384 2.483 2.211 4.15 2.211 2.757 0 5-2.243 5-5s-2.243-5-5-5c-.066 0-.131-.007-.196-.02l-10-2 .393-1.961 9.906 1.981c3.812.056 6.897 3.175 6.897 7 0 3.859-3.14 7-7 7z"/></g><g><path d="m8 38c-3.86 0-7-3.141-7-7s3.14-7 7-7c1.366 0 2.682.394 3.823 1.14l16.351 2.875-.347 1.971-16.561-2.912c-.144-.025-.281-.083-.401-.167-.845-.594-1.836-.907-2.865-.907-2.757 0-5 2.243-5 5s2.243 5 5 5c1.029 0 2.02-.313 2.865-.906.113-.08.242-.135.378-.162l10.814-2.163.393 1.961-10.616 2.124c-1.144.75-2.464 1.146-3.834 1.146z"/></g><g><path d="m10 54c-3.86 0-7-3.141-7-7 0-3.825 3.085-6.944 6.897-6.999l9.906-1.981.393 1.961-10 2c-.065.012-.13.019-.196.019-2.757 0-5 2.243-5 5s2.243 5 5 5c1.667 0 3.218-.827 4.151-2.212.03-.045.063-.087.101-.126l5.02-5.347 1.458 1.369-4.966 5.29c-1.311 1.897-3.459 3.026-5.764 3.026z"/></g><g><path d="m10 50c-1.654 0-3-1.346-3-3s1.346-3 3-3 3 1.346 3 3-1.346 3-3 3zm0-4c-.551 0-1 .448-1 1s.449 1 1 1 1-.448 1-1-.449-1-1-1z"/></g><g><path d="m8 34c-1.654 0-3-1.346-3-3s1.346-3 3-3 3 1.346 3 3-1.346 3-3 3zm0-4c-.551 0-1 .448-1 1s.449 1 1 1 1-.448 1-1-.449-1-1-1z"/></g><g><path d="m15 18c-1.654 0-3-1.346-3-3s1.346-3 3-3 3 1.346 3 3-1.346 3-3 3zm0-4c-.551 0-1 .448-1 1s.449 1 1 1 1-.448 1-1-.449-1-1-1z"/></g><g><path d="m54 50c-1.654 0-3-1.346-3-3s1.346-3 3-3 3 1.346 3 3-1.346 3-3 3zm0-4c-.551 0-1 .448-1 1s.449 1 1 1 1-.448 1-1-.449-1-1-1z"/></g><g><path d="m56 34c-1.654 0-3-1.346-3-3s1.346-3 3-3 3 1.346 3 3-1.346 3-3 3zm0-4c-.551 0-1 .448-1 1s.449 1 1 1 1-.448 1-1-.449-1-1-1z"/></g><g><path d="m49 18c-1.654 0-3-1.346-3-3s1.346-3 3-3 3 1.346 3 3-1.346 3-3 3zm0-4c-.551 0-1 .448-1 1s.449 1 1 1 1-.448 1-1-.449-1-1-1z"/></g></g></svg>