<svg id="Layer_3" enable-background="new 0 0 64 64" height="512" viewBox="0 0 64 64" width="512" xmlns="http://www.w3.org/2000/svg"><g><g><path d="m18 56-.05-.05c-3.213-3.213-5.297-7.381-5.94-11.879l-.01-.071-4 4v-2.041c0-4.478 1.669-8.795 4.681-12.108l2.856-3.141c1.585-1.744 2.463-4.016 2.463-6.372v-.102c0-1.471-.342-2.921-1-4.236-.658-1.315-1-2.766-1-4.236v-.107c0-3.622 1.439-7.096 4-9.657 2.561-2.561 6.035-4 9.657-4h4.686c3.622 0 7.096 1.439 9.657 4 2.561 2.561 4 6.035 4 9.657v.107c0 1.471-.342 2.921-1 4.236-.658 1.315-1 2.766-1 4.236v.102c0 2.356.878 4.628 2.463 6.372l2.856 3.141c3.012 3.313 4.681 7.63 4.681 12.108v2.041l-4-4-.01.07c-.643 4.498-2.727 8.666-5.94 11.879l-.05.051" fill="#4d5d7a"/></g><g><path d="m35.75 9c3.605 0 6.809 2.619 7.205 6.202.379 3.419-1.71 6.405-4.708 7.422 5.165 4.469 8.753 13.901 8.753 22.376 0 11.598-6.716 17-15 17s-15-5.402-15-17c0-8.475 3.588-17.907 8.752-22.376-2.998-1.017-5.086-4.003-4.708-7.422.397-3.583 3.601-6.202 7.206-6.202h.579c.646 0 1.171.525 1.171 1.172 0 1.811.719 3.548 2 4.828 1.281-1.281 2-3.017 2-4.828 0-.647.525-1.172 1.172-1.172z" fill="#ebf7fe"/></g><g><path d="m36 27.016c0-5.003-1.002-9.693-2.747-13.751-.322.634-.74 1.222-1.253 1.735-1.281-1.281-2-3.017-2-4.828 0-.647-.525-1.172-1.172-1.172h-.578c-3.605 0-6.809 2.619-7.205 6.202-.379 3.419 1.71 6.405 4.708 7.422-5.165 4.469-8.753 13.901-8.753 22.376 0 3.765.717 6.867 1.957 9.353 9.707-2.47 17.043-13.767 17.043-27.337z" fill="#fff"/></g><g><path d="m45 56c-2.761 0-5 2.239-5 5v1h10v-1c0-2.761-2.239-5-5-5z" fill="#f5b953"/></g><g><path d="m19 56c2.761 0 5 2.239 5 5v1h-10v-1c0-2.761 2.239-5 5-5z" fill="#f5b953"/></g><g><path d="m36 19-4-1-4 1 4 5z" fill="#f5b953"/></g><g><path d="m32 63c-3.208 0-6.074-.748-8.517-2.222l1.033-1.713c2.128 1.285 4.645 1.935 7.484 1.935s5.356-.65 7.483-1.935l1.033 1.713c-2.442 1.474-5.308 2.222-8.516 2.222z"/></g><g><path d="m44.932 56.559-1.66-1.117c1.81-2.69 2.728-6.204 2.728-10.442 0-8.312-3.535-17.405-8.406-21.619-.271-.235-.396-.596-.327-.948.068-.352.32-.64.66-.755 2.689-.913 4.349-3.531 4.035-6.366-.33-2.979-3.059-5.312-6.212-5.312h-.578c-.095 0-.172.077-.172.171 0 2.091-.814 4.057-2.293 5.536-.375.375-1.039.375-1.414 0-1.479-1.479-2.293-3.445-2.293-5.536 0-.094-.077-.171-.172-.171h-.578c-3.153 0-5.882 2.333-6.212 5.312-.313 2.835 1.346 5.453 4.035 6.366.34.115.592.403.66.755s-.056.713-.327.948c-4.871 4.214-8.406 13.307-8.406 21.619 0 4.238.918 7.752 2.729 10.441l-1.66 1.117c-2.037-3.026-3.069-6.914-3.069-11.558 0-8.211 3.299-17.186 7.991-22.078-2.721-1.563-4.3-4.59-3.941-7.831.449-4.042 3.973-7.091 8.2-7.091h.578c1.197 0 2.172.974 2.172 2.171 0 1.182.35 2.311 1 3.268.65-.957 1-2.085 1-3.268 0-1.197.975-2.171 2.172-2.171h.578c4.227 0 7.751 3.049 8.2 7.091.358 3.241-1.221 6.268-3.941 7.831 4.692 4.892 7.991 13.867 7.991 22.078 0 4.644-1.032 8.532-3.068 11.559z"/></g><g><path d="m50 63h-10c-.553 0-1-.447-1-1v-1c0-3.309 2.691-6 6-6s6 2.691 6 6v1c0 .553-.447 1-1 1zm-9-2h8c0-2.206-1.794-4-4-4s-4 1.794-4 4z"/></g><g><path d="m17.293 56.707-.05-.05c-2.903-2.902-4.951-6.616-5.879-10.607l-2.657 2.657c-.286.286-.716.373-1.09.217-.374-.154-.617-.52-.617-.924v-2.041c0-4.736 1.755-9.275 4.94-12.781l2.856-3.141c1.422-1.562 2.204-3.586 2.204-5.699v-.102c0-1.308-.31-2.618-.895-3.789-.723-1.447-1.105-3.067-1.105-4.683v-.107c0-3.916 1.524-7.596 4.293-10.364 2.769-2.769 6.449-4.293 10.364-4.293h4.686c3.915 0 7.596 1.524 10.364 4.293 2.769 2.768 4.293 6.448 4.293 10.364v.107c0 1.616-.382 3.235-1.105 4.683-.585 1.171-.895 2.481-.895 3.789v.102c0 2.113.782 4.137 2.203 5.699l2.856 3.141c3.186 3.506 4.941 8.045 4.941 12.781v2.041c0 .404-.243.77-.617.924-.373.156-.804.069-1.09-.217l-2.661-2.661c-.938 4.022-2.982 7.719-5.875 10.611l-1.464-1.364c3.09-3.09 5.1-7.108 5.707-11.364.054-.375.319-.723.679-.842.36-.122.761-.062 1.028.206l2.289 2.289c-.091-4.102-1.65-8.016-4.417-11.059l-2.856-3.141c-1.756-1.931-2.723-4.433-2.723-7.044v-.102c0-1.616.382-3.235 1.105-4.683.585-1.171.895-2.481.895-3.789v-.107c0-3.381-1.316-6.56-3.707-8.95-2.391-2.391-5.569-3.707-8.95-3.707h-4.686c-3.381 0-6.56 1.316-8.95 3.707-2.391 2.39-3.707 5.568-3.707 8.95v.107c0 1.308.31 2.618.895 3.789.723 1.447 1.105 3.067 1.105 4.683v.102c0 2.611-.967 5.113-2.723 7.044l-2.856 3.141c-2.767 3.043-4.326 6.957-4.417 11.059l2.289-2.289c.269-.269.665-.362 1.025-.241.359.121.62.435.672.811.617 4.322 2.627 8.341 5.667 11.381z"/></g><g><path d="m24 63h-10c-.553 0-1-.447-1-1v-1c0-3.309 2.691-6 6-6s6 2.691 6 6v1c0 .553-.447 1-1 1zm-9-2h8c0-2.206-1.794-4-4-4s-4 1.794-4 4z"/></g><g><path d="m29 16h-2c0-.551-.448-1-1-1s-1 .449-1 1h-2c0-1.654 1.346-3 3-3s3 1.346 3 3z"/></g><g><path d="m41 16h-2c0-.551-.448-1-1-1s-1 .449-1 1h-2c0-1.654 1.346-3 3-3s3 1.346 3 3z"/></g><g><path d="m32 25c-.304 0-.591-.138-.781-.375l-4-5c-.212-.266-.275-.622-.166-.944.108-.323.374-.568.705-.65l4-1c.158-.04.326-.04.484 0l4 1c.331.083.597.328.705.65.109.323.046.679-.166.944l-4 5c-.19.237-.477.375-.781.375zm-2.246-5.408 2.246 2.807 2.246-2.807-2.246-.561z"/></g><g><path d="m18 59h2v3h-2z"/></g><g><path d="m44 59h2v3h-2z"/></g></g></svg>