<svg id="Layer_3" enable-background="new 0 0 64 64" height="512" viewBox="0 0 64 64" width="512" xmlns="http://www.w3.org/2000/svg"><g><g><path d="m44 23c0 2.631.612 5.225 1.789 7.578l1.073 2.146c.748 1.497 1.138 3.147 1.138 4.821 0 1.556-.337 3.085-.977 4.485 1.933 2.591 2.977 5.737 2.977 8.97v.017c0 2.61-.681 5.176-1.976 7.442l-.039.068c-1.228 2.148-3.512 3.473-5.985 3.473h-2l-1.448-.362c-.794-.199-1.463-.67-1.916-1.299-1.237 1.068-2.82 1.661-4.464 1.661h-.343c-1.644 0-3.228-.593-4.464-1.661-.453.629-1.122 1.1-1.916 1.299l-1.449.362h-2c-2.473 0-4.757-1.325-5.985-3.473l-.039-.068c-1.295-2.267-1.976-4.832-1.976-7.442v-.017c0-3.233 1.044-6.379 2.977-8.97-.64-1.4-.977-2.929-.977-4.485 0-1.674.39-3.324 1.138-4.821l1.073-2.146c1.177-2.353 1.789-4.947 1.789-7.578" fill="#736254"/></g><g><path d="m20 23c0 2.63-.612 5.225-1.789 7.578l-1.073 2.146c-.748 1.497-1.138 3.147-1.138 4.821 0 1.556.337 3.085.977 4.485-1.933 2.591-2.977 5.737-2.977 8.97v.017c0 1.287.167 2.563.49 3.798.989.119 1.993.185 3.01.185 14.081 0 25.683-11.74 27.3-26.875-.525-1.653-.8-3.38-.8-5.125" fill="#907d6b"/></g><g><path d="m25 48 .229.076c1.835.612 3.757.924 5.692.924h.079l1-2-5-2" fill="#c3bfb8"/></g><g><path d="m39 48-.229.076c-1.835.612-3.757.924-5.692.924h-.079l-1-2 5-2" fill="#c3bfb8"/></g><g><path d="m45 58c0-1.657-1.343-2-3-2s-3 .343-3 2 1.343 4 3 4 3-2.343 3-4z" fill="#c3bfb8"/></g><g><path d="m19 58c0-1.657 1.343-2 3-2s3 .343 3 2-1.343 4-3 4-3-2.343-3-4z" fill="#c3bfb8"/></g><g><circle cx="32" cy="16" fill="#736254" r="14"/></g><g><path d="m43 16.255c0-3.209-2.409-6.041-5.611-6.243-2.248-.142-4.248.956-5.389 2.674-1.141-1.718-3.141-2.816-5.389-2.674-3.202.202-5.611 3.034-5.611 6.243v2.745c0 6.075 4.925 11 11 11 6.075 0 11-4.925 11-11z" fill="#eae6e1"/></g><g><ellipse cx="26" cy="18" fill="#c1ad93" rx="4" ry="3"/></g><g><ellipse cx="38" cy="18" fill="#c1ad93" rx="4" ry="3"/></g><g><circle cx="32" cy="24" fill="#c1ad93" r="2"/></g><g><path d="m32 31c-8.271 0-15-6.729-15-15s6.729-15 15-15 15 6.729 15 15-6.729 15-15 15zm0-28c-7.168 0-13 5.832-13 13s5.832 13 13 13 13-5.832 13-13-5.832-13-13-13z"/></g><g><path d="m32 31c-6.617 0-12-5.383-12-12v-2.745c0-3.828 2.876-7.009 6.549-7.24 2.037-.14 4.039.652 5.451 2.091 1.412-1.438 3.399-2.23 5.452-2.091 3.672.231 6.548 3.412 6.548 7.24v2.745c0 6.617-5.383 12-12 12zm-4.995-20c-.109 0-.22.004-.33.011-2.622.165-4.675 2.468-4.675 5.244v2.745c0 5.514 4.486 10 10 10s10-4.486 10-10v-2.745c0-2.775-2.053-5.079-4.674-5.244-1.826-.119-3.491.719-4.493 2.228-.371.559-1.295.559-1.666 0-.941-1.418-2.479-2.239-4.162-2.239z"/></g><g><path d="m27.5 19c-.827 0-1.5-.673-1.5-1.5s.673-1.5 1.5-1.5 1.5.673 1.5 1.5-.673 1.5-1.5 1.5z"/></g><g><path d="m26 22c-2.757 0-5-1.794-5-4s2.243-4 5-4 5 1.794 5 4-2.243 4-5 4zm0-6c-1.626 0-3 .916-3 2s1.374 2 3 2 3-.916 3-2-1.374-2-3-2z"/></g><g><path d="m36.5 19c-.827 0-1.5-.673-1.5-1.5s.673-1.5 1.5-1.5 1.5.673 1.5 1.5-.673 1.5-1.5 1.5z"/></g><g><path d="m38 22c-2.757 0-5-1.794-5-4s2.243-4 5-4 5 1.794 5 4-2.243 4-5 4zm0-6c-1.626 0-3 .916-3 2s1.374 2 3 2 3-.916 3-2-1.374-2-3-2z"/></g><g><path d="m32 27c-1.654 0-3-1.346-3-3s1.346-3 3-3 3 1.346 3 3-1.346 3-3 3zm0-4c-.552 0-1 .448-1 1s.448 1 1 1 1-.448 1-1-.448-1-1-1z"/></g><g><path d="m31 26h2v4h-2z"/></g><g><path d="m25 49c-2.83 0-5.494-1.371-7.134-3.667l-.672-.94c-1.435-2.01-2.194-4.378-2.194-6.848 0-1.819.43-3.641 1.243-5.269l1.073-2.146c1.102-2.202 1.684-4.668 1.684-7.13h2c0 2.771-.655 5.546-1.895 8.025l-1.073 2.146c-.675 1.351-1.032 2.864-1.032 4.374 0 2.051.63 4.017 1.821 5.686l.672.94c1.166 1.632 3.001 2.657 4.984 2.81l1.276-1.914-.703-.844c-2.612-3.135-4.348-6.919-5.018-10.943l-.02-.112 1.973-.334.02.115c.612 3.677 2.196 7.132 4.582 9.994l1.181 1.418c.283.34.31.826.063 1.194l-2 3c-.185.278-.497.445-.831.445z"/></g><g><path d="m31 50c-2.126 0-4.147-.328-6.088-.976l-.229-.076.633-1.896.229.076c1.566.522 3.192.812 4.841.863l.233-.467-3.99-1.596.742-1.857 5 2c.26.104.464.312.563.573s.085.553-.04.803l-1 2c-.169.339-.515.553-.894.553z"/></g><g><path d="m39.009 49c-.334 0-.655-.167-.841-.445l-2-3c-.246-.368-.22-.854.063-1.194l1.181-1.417c2.386-2.863 3.97-6.318 4.582-9.992l.02-.118 1.973.334-.02.115c-.67 4.021-2.405 7.806-5.018 10.941l-.703.843 1.275 1.913c1.988-.153 3.82-1.179 4.985-2.809l.672-.94c1.192-1.669 1.822-3.635 1.822-5.686 0-1.51-.357-3.022-1.032-4.374l-1.073-2.146c-1.24-2.479-1.895-5.254-1.895-8.025h2c0 2.462.582 4.928 1.684 7.131l1.073 2.146c.813 1.627 1.243 3.449 1.243 5.268 0 2.47-.759 4.838-2.194 6.848l-.672.94c-1.64 2.296-4.304 3.667-7.125 3.667z"/></g><g><path d="m33.079 50c-.379 0-.804-.214-.974-.553l-1-2c-.125-.25-.14-.541-.04-.803s.304-.469.563-.573l5-2 .742 1.857-3.99 1.596.232.466c1.686-.057 3.293-.346 4.842-.862l.229-.076.633 1.896-.229.076c-1.94.648-3.961.976-6.008.976z"/></g><g><path d="m42 63c-2.404 0-4-3.01-4-5s1.346-3 4-3 4 1.01 4 3-1.596 5-4 5zm0-6c-2 0-2 .531-2 1 0 1.239 1.034 3 2 3s2-1.761 2-3c0-.469 0-1-2-1z"/></g><g><path d="m41 56h2v6h-2z"/></g><g><path d="m42 63h-2c-.082 0-.163-.01-.243-.03l-1.448-.362c-1.949-.487-3.309-2.23-3.309-4.238v-.567c0-1.464.728-2.822 1.945-3.635.66-.44 1.055-1.177 1.055-1.971v-1.197h2v1.197c0 1.464-.728 2.822-1.945 3.635-.66.44-1.055 1.177-1.055 1.971v.567c0 1.089.738 2.033 1.794 2.298l1.329.332h1.877c2.109 0 4.07-1.138 5.116-2.969 1.246-2.18 1.884-4.583 1.884-7.014 0-3.025-.994-6.009-2.8-8.417l1.6-1.199c2.063 2.751 3.2 6.161 3.2 9.6 0 2.796-.729 5.541-2.108 7.955-1.44 2.521-4.066 4.044-6.892 4.044z"/></g><g><path d="m22 63c-2.404 0-4-3.01-4-5s1.346-3 4-3 4 1.01 4 3-1.596 5-4 5zm0-6c-2 0-2 .531-2 1 0 1.239 1.034 3 2 3s2-1.761 2-3c0-.469 0-1-2-1z"/></g><g><path d="m24 63h-2c-2.826 0-5.452-1.523-6.853-3.977-1.418-2.482-2.147-5.227-2.147-8.006 0-3.455 1.137-6.865 3.2-9.616l1.6 1.199c-1.806 2.408-2.8 5.391-2.8 8.4 0 2.448.638 4.851 1.845 6.963 1.085 1.899 3.046 3.037 5.155 3.037h1.877l1.328-.332c1.057-.265 1.795-1.209 1.795-2.298v-.567c0-.794-.395-1.53-1.055-1.971-1.217-.812-1.945-2.171-1.945-3.635v-1.197h2v1.197c0 .794.395 1.53 1.055 1.971 1.217.812 1.945 2.171 1.945 3.635v.567c0 2.008-1.36 3.751-3.31 4.237l-1.447.362c-.08.021-.161.031-.243.031z"/></g><g><path d="m21 56h2v6h-2z"/></g><g><path d="m32.172 63h-.344c-2.061 0-4.078-.836-5.535-2.293l1.414-1.414c1.085 1.085 2.587 1.707 4.121 1.707h.344c1.534 0 3.036-.622 4.121-1.707l1.414 1.414c-1.457 1.457-3.475 2.293-5.535 2.293z"/></g></g></svg>