<svg id="Layer_3" enable-background="new 0 0 64 64" height="512" viewBox="0 0 64 64" width="512" xmlns="http://www.w3.org/2000/svg"><g><g><path d="m39 55.741c-2.179.814-4.537 1.259-7 1.259s-4.821-.445-7-1.259v1.259c0 1.105-.895 2-2 2h-18.637c-1.305 0-2.363-1.058-2.363-2.363 0-.985.611-1.866 1.533-2.212l.015-.006c4.267-1.599 8.786-2.419 13.343-2.419h.109v-1.771c-3.112-3.526-5-8.157-5-13.229 0-6.786 3.388-12.772 8.555-16.388-.417-1.323-.614-2.743-.54-4.219.307-6.153 5.443-11.194 11.601-11.386 6.803-.213 12.384 5.238 12.384 11.993 0 1.259-.196 2.472-.555 3.612 5.167 3.616 8.555 9.602 8.555 16.388 0 5.072-1.888 9.703-5 13.229v1.771h.109c4.557 0 9.076.82 13.343 2.419l.015.006c.922.346 1.533 1.227 1.533 2.212 0 1.305-1.058 2.363-2.363 2.363h-18.637c-1.105 0-2-.895-2-2z" fill="#4d5d7a"/></g><g><path d="m40 23c0-6.731-2.08-12.906-5.543-17.735-.915-.191-1.863-.29-2.842-.259-6.157.192-11.294 5.234-11.601 11.386-.074 1.477.123 2.897.54 4.22-5.166 3.616-8.554 9.602-8.554 16.388 0 5.072 1.888 9.703 5 13.229v.714c12.832-.887 23-13.055 23-27.943z" fill="#8892a0"/></g><g><path d="m28 33v1.031c0 5.308.33 10.61.988 15.876l.012.093h-2l-.024-.071c-1.971-5.914-2.976-12.107-2.976-18.341v-.588" fill="#fff"/></g><g><path d="m36 33v1.031c0 5.308-.33 10.61-.988 15.876l-.012.093h2l.024-.071c1.971-5.914 2.976-12.107 2.976-18.341v-.588" fill="#fff"/></g><g><path d="m36 21c-1.539 0-2.938.584-4 1.537-1.062-.953-2.461-1.537-4-1.537-3.314 0-6 2.686-6 6s2.686 6 6 6c1.539 0 2.938-.584 4-1.537 1.062.953 2.461 1.537 4 1.537 3.314 0 6-2.686 6-6s-2.686-6-6-6z" fill="#a1cdfb"/></g><g><path d="m28 29c4.937 0 8.94-3.534 8.995-7.911-.324-.054-.655-.089-.995-.089-1.539 0-2.938.584-4 1.537-1.062-.953-2.461-1.537-4-1.537-3.298 0-5.972 2.661-5.998 5.953 1.593 1.269 3.691 2.047 5.998 2.047z" fill="#c7e2fc"/></g><g><circle cx="27" cy="16" fill="#fff" r="3"/></g><g><circle cx="37" cy="16" fill="#fff" r="3"/></g><g><path d="m36 34c-1.437 0-2.829-.444-4-1.263-1.171.819-2.563 1.263-4 1.263-3.859 0-7-3.14-7-7s3.141-7 7-7c1.437 0 2.829.444 4 1.263 1.171-.819 2.563-1.263 4-1.263 3.859 0 7 3.14 7 7s-3.141 7-7 7zm-4-3.537c.238 0 .478.085.667.255.923.827 2.106 1.282 3.333 1.282 2.757 0 5-2.243 5-5s-2.243-5-5-5c-1.227 0-2.41.455-3.333 1.281-.379.341-.955.341-1.334 0-.923-.826-2.106-1.281-3.333-1.281-2.757 0-5 2.243-5 5s2.243 5 5 5c1.227 0 2.41-.455 3.333-1.281.189-.171.429-.256.667-.256z"/></g><g><path d="m29 51h-2c-.432 0-.813-.276-.949-.686-2.032-6.095-3.051-12.372-3.051-18.726v-.588h2v.588c0 5.923.916 11.778 2.725 17.412h.147c-.582-5.006-.872-10.011-.872-14.969v-1.031h2v1.031c0 5.247.33 10.546.98 15.752.036.285-.047.617-.236.832-.19.216-.457.385-.744.385z"/></g><g><path d="m37 51h-2c-.287 0-.561-.124-.75-.339s-.278-.501-.242-.787c.662-5.296.992-10.596.992-15.843v-1.031h2v1.031c0 4.983-.293 10.014-.871 14.969h.146c1.816-5.679 2.725-11.512 2.725-17.412v-.588h2v.588c0 6.354-1.019 12.631-3.028 18.658-.136.408-.541.754-.972.754z"/></g><g><path d="m31 26h2v6h-2z"/></g><g><path d="m59.638 60h-18.638c-1.654 0-3-1.346-3-3v-4h2v4c0 .551.448 1 1 1h18.638c.751 0 1.362-.611 1.362-1.363 0-.564-.355-1.077-.885-1.275-4.182-1.57-8.553-2.362-13.006-2.362h-.109c-.553 0-1-.448-1-1v-1.771c0-.244.089-.479.25-.662 3.063-3.469 4.75-7.932 4.75-12.567 0-6.187-3.039-12.007-8.129-15.569-.357-.25-.512-.704-.381-1.12.338-1.072.51-2.186.51-3.311 0-3.003-1.188-5.809-3.345-7.9-2.156-2.089-4.988-3.188-8.008-3.095-5.68.177-10.351 4.762-10.633 10.437-.066 1.316.101 2.618.495 3.869.131.417-.023.87-.381 1.12-5.089 3.562-8.128 9.382-8.128 15.569 0 4.634 1.687 9.097 4.75 12.567.161.183.25.418.25.662v1.771c0 .552-.447 1-1 1h-.109c-4.452 0-8.823.792-12.991 2.356-.545.204-.9.717-.9 1.281 0 .752.611 1.363 1.362 1.363h18.638c.552 0 1-.449 1-1v-4h2v4c0 1.654-1.346 3-3 3h-18.638c-1.853 0-3.362-1.509-3.362-3.363 0-1.394.877-2.659 2.182-3.148 4.129-1.549 8.433-2.38 12.818-2.479v-.408c-3.228-3.793-5-8.608-5-13.602 0-6.601 3.128-12.823 8.402-16.787-.321-1.262-.451-2.56-.386-3.871.335-6.708 5.855-12.126 12.568-12.336 3.56-.118 6.914 1.188 9.462 3.658 2.55 2.471 3.954 5.787 3.954 9.336 0 1.086-.136 2.164-.402 3.213 5.274 3.964 8.402 10.186 8.402 16.787 0 4.995-1.772 9.81-5 13.602v.408c4.385.099 8.688.93 12.804 2.473 1.319.496 2.196 1.761 2.196 3.154 0 1.854-1.509 3.363-3.362 3.363z"/></g><g><path d="m32 58c-2.528 0-5.001-.445-7.35-1.323l.699-1.873c4.25 1.587 9.051 1.587 13.301 0l.699 1.873c-2.348.878-4.821 1.323-7.349 1.323z"/></g><g><path d="m27 20c-2.206 0-4-1.794-4-4s1.794-4 4-4 4 1.794 4 4-1.794 4-4 4zm0-6c-1.103 0-2 .897-2 2s.897 2 2 2 2-.897 2-2-.897-2-2-2z"/></g><g><path d="m37 20c-2.206 0-4-1.794-4-4s1.794-4 4-4 4 1.794 4 4-1.794 4-4 4zm0-6c-1.103 0-2 .897-2 2s.897 2 2 2 2-.897 2-2-.897-2-2-2z"/></g><g><path d="m27.5 18c-.827 0-1.5-.673-1.5-1.5s.673-1.5 1.5-1.5 1.5.673 1.5 1.5-.673 1.5-1.5 1.5z"/></g><g><path d="m36.5 18c-.827 0-1.5-.673-1.5-1.5s.673-1.5 1.5-1.5 1.5.673 1.5 1.5-.673 1.5-1.5 1.5z"/></g><g><path d="m45.201 35.601-.175-.232c-1.693-2.257-4.118-3.927-6.829-4.701l-2.472-.706.549-1.923 2.472.706c3.129.894 5.927 2.819 7.879 5.423l.174.231z"/></g><g><path d="m47.397 30.798-.105-.08c-2.412-1.809-5.267-2.991-8.252-3.417l-2.182-.312.283-1.979 2.182.312c3.317.474 6.488 1.787 9.171 3.798l.108.082z"/></g><g><path d="m18.799 35.601-1.598-1.202.175-.232c1.951-2.603 4.749-4.528 7.878-5.422l2.472-.706.549 1.923-2.472.706c-2.711.774-5.136 2.444-6.828 4.7z"/></g><g><path d="m16.603 30.798-1.205-1.597.105-.08c2.686-2.013 5.856-3.327 9.174-3.8l2.182-.312.283 1.979-2.182.312c-2.985.427-5.84 1.609-8.255 3.419z"/></g><g><path d="m3.555 58.832-1.109-1.664c2.126-1.418 4.603-2.168 7.159-2.168h1.395v2h-1.395c-2.161 0-4.252.633-6.05 1.832z"/></g><g><path d="m60.445 58.832c-1.798-1.199-3.889-1.832-6.05-1.832h-1.395v-2h1.395c2.557 0 5.033.75 7.16 2.168z"/></g></g></svg>