<?xml version="1.0" encoding="iso-8859-1"?>
<!-- Generator: Adobe Illustrator 22.1.0, SVG Export Plug-In . SVG Version: 6.00 Build 0)  -->
<svg xmlns="http://www.w3.org/2000/svg" xmlns:xlink="http://www.w3.org/1999/xlink" version="1.1" id="Layer_3" x="0px" y="0px" viewBox="0 0 64 64" style="enable-background:new 0 0 64 64;" xml:space="preserve" width="512" height="512">
<g>
	<path style="fill:#4D4D4D;" d="M9,56.253v-6.507c1.764-0.463,3-1.517,3-2.747c0-1.657-2.239-3-5-3s-5,1.343-5,3   c0,1.23,1.236,2.283,3,2.747v6.507C3.236,56.717,2,57.77,2,59c0,1.657,2.239,3,5,3s5-1.343,5-3C12,57.77,10.764,56.717,9,56.253z"/>
	<path style="fill:#808080;" d="M7,56.253v-6.507c1.764-0.463,3-1.517,3-2.747c0-1.451-1.718-2.661-4-2.94   C3.718,44.339,2,45.549,2,47c0,1.23,1.236,2.283,3,2.747v6.507C3.236,56.717,2,57.77,2,59c0,1.451,1.718,2.661,4,2.94   c2.282-0.278,4-1.488,4-2.94C10,57.77,8.764,56.717,7,56.253z"/>
	<path style="fill:#754C24;" d="M44.96,53h6.093c1.792,0,3.559-0.426,5.162-1.244l0,0c2.234-1.14,4.045-2.989,5.162-5.269L61.616,46   l0,0c1.136,3.479-0.316,7.291-3.457,9.071l-1.71,0.97C55.339,56.67,54.092,57,52.823,57H43"/>
	<path style="fill:#8C6239;" d="M56.159,55.071c2.349-1.332,3.753-3.8,3.837-6.415c-1.027,1.286-2.309,2.349-3.78,3.1   C54.612,52.574,52.845,53,51.053,53h-2H44.96L43,57h7.823c1.269,0,2.517-0.33,3.626-0.959L56.159,55.071z"/>
	<path style="fill:#A67C52;" d="M41,60L41,60c3.201-3.201,5-7.544,5-12.071v-3.835c0-3.941-1.363-7.76-3.859-10.81L37,27H25   l-5.141,6.284C17.363,36.334,16,40.153,16,44.094v3.835c0,4.528,1.799,8.87,5,12.071l0,0H41z"/>
	<path style="fill:#C69C6D;" d="M43,44.094c0-3.941-1.363-7.76-3.859-10.81L34,27h-9l-5.141,6.284   C17.363,36.334,16,40.153,16,44.094v3.835c0,4.528,1.799,8.87,5,12.071h17c3.201-3.201,5-7.544,5-12.071V44.094z"/>
	<path style="fill:#C69C6D;" d="M21,42v20h6V50c0-2.209,1.791-4,4-4h0c2.209,0,4,1.791,4,4v12h6V42"/>
	<circle style="fill:#C1272D;" cx="31" cy="36" r="2"/>
	<ellipse style="fill:#ED1C24;" cx="30" cy="36" rx="1" ry="1.723"/>
	<path style="fill:#F7931E;" d="M36.862,26.845C35.29,28.185,33.248,29,31,29h0c-2.247,0-4.288-0.814-5.86-2.153l0,0l-2.836,3.457   l0,0l0.251,0.251C24.76,32.761,27.753,34,30.873,34h0c2.671,0,5.263-0.909,7.349-2.578l1.445-1.156l0,0L36.862,26.845z"/>
	<path style="fill:#FBB03B;" d="M34.003,28.484C32.574,29.436,30.86,30,29,30c-1.916,0-3.68-0.596-5.134-1.601l-1.563,1.905   l0.251,0.25C24.76,32.76,27.753,34,30.873,34h0c1.459,0,2.891-0.28,4.233-0.798c0.384-0.24,0.76-0.495,1.117-0.78l1.445-1.156l0,0   l-2.636-3.216C34.7,28.216,34.356,28.36,34.003,28.484z"/>
	<path style="fill:#A67C52;" d="M25.821,8.71C27.272,7.633,29.067,7,31,7h0c1.09,0,2.136,0.201,3.101,0.57l3.229,2.163   c1.307,1.387,2.166,3.207,2.335,5.239l0.34,4.077C40.538,24.377,36.354,29,31,29h0c-5.354,0-9.538-4.623-9.005-9.95l0.34-4.077   c0.09-1.08,0.375-2.099,0.818-3.026L25.821,8.71z"/>
	<path style="fill:#C69C6D;" d="M30,28.945c4.864-0.533,8.504-4.905,8.005-9.895l-0.34-4.077c-0.169-2.032-1.028-3.852-2.335-5.239   L32.101,7.57c-0.665-0.254-1.37-0.422-2.1-0.506c-1.549,0.178-2.982,0.758-4.18,1.646l-2.668,3.236   c-0.443,0.927-0.728,1.947-0.818,3.026l-0.34,4.077C21.496,24.04,25.136,28.412,30,28.945z"/>
	<ellipse style="fill:#8C6239;" cx="22" cy="10" rx="5" ry="2"/>
	<ellipse style="fill:#A67C52;" cx="20.5" cy="10" rx="3.5" ry="1.898"/>
	<ellipse style="fill:#8C6239;" cx="36" cy="6" rx="2" ry="5"/>
	<ellipse style="fill:#A67C52;" cx="35" cy="6" rx="1" ry="4.306"/>
	<g>
		<rect x="30" y="23" style="fill:#8C6239;" width="2" height="6"/>
	</g>
	<g>
		<rect x="27" y="14" style="fill:#1A1A1A;" width="2" height="2"/>
	</g>
	<g>
		<rect x="33" y="14" style="fill:#1A1A1A;" width="2" height="2"/>
	</g>
	<g>
		<path style="fill:#A67C52;" d="M41,63h-6c-0.552,0-1-0.447-1-1V50c0-1.654-1.346-3-3-3s-3,1.346-3,3v12c0,0.553-0.448,1-1,1h-6    c-0.552,0-1-0.447-1-1V42h2v19h4V50c0-2.757,2.243-5,5-5s5,2.243,5,5v11h4V42h2v20C42,62.553,41.552,63,41,63z"/>
	</g>
	<circle style="fill:#42210B;" cx="31" cy="23" r="2"/>
	<ellipse style="fill:#603813;" cx="30" cy="23" rx="1" ry="1.723"/>
</g>
</svg>
