<?xml version="1.0" encoding="iso-8859-1"?>
<!-- Generator: Adobe Illustrator 19.0.0, SVG Export Plug-In . SVG Version: 6.00 Build 0)  -->
<svg version="1.1" id="Capa_1" xmlns="http://www.w3.org/2000/svg" xmlns:xlink="http://www.w3.org/1999/xlink" x="0px" y="0px"
	 viewBox="0 0 496 496" style="enable-background:new 0 0 496 496;" xml:space="preserve">
<rect x="184" y="312" style="fill:#B6B3B8;" width="128" height="32"/>
<rect x="120" y="344" style="fill:#4F4D4F;" width="256" height="32"/>
<path d="M376,384H120c-4.8,0-8-3.2-8-8v-32c0-4.8,3.2-8,8-8h256c4.8,0,8,3.2,8,8v32C384,380.8,380.8,384,376,384z M128,368h240v-16
	H128V368z"/>
<rect x="8" y="8" style="fill:#D94A56;" width="480" height="304"/>
<rect id="SVGCleanerId_0" x="40" y="40" style="fill:#FFFFFF;" width="416" height="240"/>
<g>
	<rect id="SVGCleanerId_0_1_" x="40" y="40" style="fill:#FFFFFF;" width="416" height="240"/>
</g>
<circle style="fill:#D94A56;" cx="160" cy="160" r="88"/>
<path style="fill:#C7B299;" d="M152,360l-24,16l8,40l32,48v24h88v-24l32-48v-48l-16-24h-16l-16-24h-16l-16-24h-16l-16,24v-88
	c0-8.8-7.2-16-16-16l0,0c-8.8,0-16,7.2-16,16v104l16,48"/>
<path d="M256,496h-88c-4.8,0-8-3.2-8-8v-21.6l-30.4-45.6c-0.8-0.8-0.8-1.6-0.8-3.2l-8-40c-0.8-3.2,0.8-6.4,3.2-8l19.2-12.8
	l-6.4-18.4c0-0.8-0.8-1.6-0.8-2.4V232c0-13.6,10.4-24,24-24s24,10.4,24,24v61.6l1.6-2.4c1.6-2.4,4-3.2,6.4-3.2h16
	c2.4,0,4.8,1.6,6.4,3.2L228,312h12c2.4,0,4.8,1.6,6.4,3.2L260,336h12c2.4,0,4.8,1.6,6.4,3.2l16,24c0.8,1.6,1.6,3.2,1.6,4.8v48
	c0,1.6-0.8,3.2-1.6,4.8L264,466.4V488C264,492.8,260.8,496,256,496z M176,480h72v-16c0-1.6,0.8-3.2,1.6-4.8l30.4-45.6v-43.2L268,352
	h-12c-2.4,0-4.8-1.6-6.4-3.2L236,328h-12c-2.4,0-4.8-1.6-6.4-3.2L204,304h-7.2l-13.6,20.8c-2.4,4-7.2,4.8-11.2,2.4
	c-2.4-1.6-4-4.8-4-7.2v-88c0-4.8-3.2-8-8-8s-8,3.2-8,8v102.4l15.2,46.4l-15.2,5.6l-4.8-14.4l-11.2,7.2l6.4,32.8l31.2,46.4
	c0.8,1.6,1.6,3.2,1.6,4.8V480H176z"/>
<path d="M472,320H264v-16h208c4.8,0,8-3.2,8-8V24c0-4.8-3.2-8-8-8H24c-4.8,0-8,3.2-8,8v272c0,4.8,3.2,8,8,8h120v16H24
	c-13.6,0-24-10.4-24-24V24C0,10.4,10.4,0,24,0h448c13.6,0,24,10.4,24,24v272C496,309.6,485.6,320,472,320z"/>
<path d="M456,288H232v-16h216V48H48v224h96v16H40c-4.8,0-8-3.2-8-8V40c0-4.8,3.2-8,8-8h416c4.8,0,8,3.2,8,8v240
	C464,284.8,460.8,288,456,288z"/>
<path d="M177.6,254.4l-3.2-16c43.2-8,72-49.6,64-93.6s-49.6-72-93.6-64s-72,49.6-64,93.6c6.4,32.8,31.2,58.4,64,64l-3.2,16
	c-52-9.6-86.4-60-76.8-112s60-86.4,112-76.8s86.4,60,76.8,112C247.2,216.8,216.8,247.2,177.6,254.4z"/>
<polygon style="fill:#789DC3;" points="208,160 128,200 128,120 "/>
<path d="M128,208c-4.8,0-8-3.2-8-8v-80c0-4.8,3.2-8,8-8c1.6,0,2.4,0,3.2,0.8l80,40c4,1.6,5.6,6.4,3.2,10.4c-0.8,1.6-2.4,3.2-3.2,3.2
	l-80,40C130.4,208,129.6,208,128,208z M136,132.8v54.4l54.4-27.2L136,132.8z"/>
<path style="fill:#D3D2D6;" d="M296,136l-24,32h128c13.6,0,24-10.4,24-24V96c0-13.6-10.4-24-24-24h-80c-13.6,0-24,10.4-24,24V136z"
	/>
<path d="M400,176H272c-4.8,0-8-3.2-8-8c0-1.6,0.8-3.2,1.6-4.8l22.4-29.6V96c0-17.6,14.4-32,32-32h80c17.6,0,32,14.4,32,32v48
	C432,161.6,417.6,176,400,176z M288,160h112c8.8,0,16-7.2,16-16V96c0-8.8-7.2-16-16-16h-80c-8.8,0-16,7.2-16,16v40
	c0,1.6-0.8,3.2-1.6,4.8L288,160z"/>
<rect x="320" y="96" width="80" height="16"/>
<rect x="320" y="128" width="48" height="16"/>
<rect x="304" y="312" width="16" height="32"/>
<g>
</g>
<g>
</g>
<g>
</g>
<g>
</g>
<g>
</g>
<g>
</g>
<g>
</g>
<g>
</g>
<g>
</g>
<g>
</g>
<g>
</g>
<g>
</g>
<g>
</g>
<g>
</g>
<g>
</g>
</svg>
