<?xml version="1.0" encoding="iso-8859-1"?>
<!-- Generator: Adobe Illustrator 19.0.0, SVG Export Plug-In . SVG Version: 6.00 Build 0)  -->
<svg version="1.1" id="Capa_1" xmlns="http://www.w3.org/2000/svg" xmlns:xlink="http://www.w3.org/1999/xlink" x="0px" y="0px"
	 viewBox="0 0 496 496" style="enable-background:new 0 0 496 496;" xml:space="preserve">
<path style="fill:#7D828C;" d="M160.396,240l-71.2-72c-11.2-10.4-16.8-24-16.8-39.2V128c0-31.2,24.8-56,56-56h0.8
	c15.2,0,28.8,5.6,39.2,16.8l72,71.2l48-48l-68.8-68.8c-22.4-22.4-52.8-35.2-84.8-35.2h-6.4c-66.4,0-120,53.6-120,120v6.4
	c0,32,12.8,62.4,35.2,84.8l68.8,68.8"/>
<path d="M106.796,293.6l-68.8-68.8c-24-24-37.6-56.8-37.6-90.4V128c0-70.4,57.6-128,128-128h6.4c33.6,0,66.4,13.6,90.4,37.6
	l68.8,68.8c3.2,3.2,3.2,8,0,11.2l-48,48c-3.2,3.2-8,3.2-11.2,0l-71.2-71.2c-8.8-8.8-21.6-14.4-33.6-14.4h-1.6c-26.4,0-48,21.6-48,48
	v0.8c0,12.8,4.8,24.8,14.4,33.6l72,71.2l-11.2,11.2l-71.2-71.2c-13.6-11.2-20-28-20-44.8V128c0-35.2,28.8-64,64-64h0.8
	c16.8,0,33.6,6.4,45.6,18.4l65.6,65.6l36.8-36.8l-63.2-63.2c-20.8-20-49.6-32-79.2-32h-6.4c-61.6,0-112,50.4-112,112v6.4
	c0,29.6,12,58.4,32.8,79.2l68.8,68.8L106.796,293.6z"/>
<path style="fill:#7D828C;" d="M256.396,336l72,72c10.4,10.4,24.8,16.8,40,16l0,0c31.2,0,56-24.8,56-56v-0.8
	c0-15.2-5.6-28.8-16-39.2l-72-72l48-48l68.8,68.8c22.4,22.4,35.2,52.8,35.2,84.8v6.4c0,66.4-53.6,120-120,120h-6.4
	c-32,0-62.4-12.8-84.8-35.2l-68.8-68.8"/>
<path d="M368.396,496h-6.4c-33.6,0-66.4-13.6-90.4-37.6l-68.8-68.8l11.2-11.2l68.8,68.8c20.8,20.8,49.6,32.8,79.2,32.8h6.4
	c61.6,0,112-50.4,112-112v-6.4c0-29.6-12-58.4-32.8-79.2l-63.2-63.2l-36.8,36.8l65.6,65.6c12,12,18.4,28,18.4,45.6v0.8
	c0,35.2-28.8,64-64,64h-0.8c-16.8,0-33.6-6.4-45.6-18.4l-72-72l11.2-11.2l72,72c8.8,8.8,21.6,14.4,33.6,14.4h2.4
	c26.4,0,48-21.6,48-48V368c0-12.8-4.8-24.8-14.4-33.6l-72-72c-3.2-3.2-3.2-8,0-11.2l48-48c3.2-3.2,8-3.2,11.2,0l68.8,68.8
	c24,24,37.6,56.8,37.6,90.4v5.6C496.396,438.4,438.796,496,368.396,496z"/>
<path d="M368.396,464h-3.2c-25.6,0-49.6-10.4-68-28l-70.4-70.4l11.2-11.2l70.4,70.4c15.2,15.2,35.2,23.2,56.8,23.2h3.2
	c44,0,80-36,80-80v-3.2c0-21.6-8-41.6-23.2-56.8l-70.4-70.4l11.2-11.2l70.4,70.4c18.4,17.6,28,42.4,28,68v3.2
	C464.396,420.8,421.196,464,368.396,464z"/>
<path d="M130.796,269.6l-70.4-70.4c-17.6-17.6-28-42.4-28-68V128c0-52.8,43.2-96,96-96h3.2c25.6,0,49.6,10.4,68,28l70.4,70.4
	l-11.2,11.2l-70.4-70.4c-15.2-15.2-35.2-23.2-56.8-23.2h-3.2c-44,0-80,36-80,80v3.2c0,21.6,8,41.6,23.2,56.8l70.4,70.4
	L130.796,269.6z"/>
<rect x="101.192" y="240" transform="matrix(-0.7071 0.7071 -0.7071 -0.7071 599.3925 247.7235)" width="294.397" height="16"/>
<rect x="77.212" y="216" transform="matrix(-0.7071 0.7071 -0.7071 -0.7071 541.4842 223.7099)" width="294.397" height="16"/>
<path d="M101.996,309.6l-11.2-11.2l219.2-219.2c1.6-1.6,2.4-3.2,2.4-5.6V72c0-4.8-3.2-8-8-8h-8V48h8c13.6,0,24,10.4,24,24v1.6
	c0,6.4-2.4,12.8-7.2,16.8L101.996,309.6z"/>
<path d="M200.396,448h-8c-13.6,0-24-10.4-24-24v-1.6c0-6.4,2.4-12.8,7.2-16.8l219.2-219.2l11.2,11.2l-219.2,219.2
	c-1.6,1.6-2.4,3.2-2.4,5.6v1.6c0,4.8,3.2,8,8,8h8V448z"/>
<rect x="125.197" y="264" transform="matrix(-0.7071 0.7071 -0.7071 -0.7071 657.3419 271.7201)" width="294.397" height="16"/>
<g>
</g>
<g>
</g>
<g>
</g>
<g>
</g>
<g>
</g>
<g>
</g>
<g>
</g>
<g>
</g>
<g>
</g>
<g>
</g>
<g>
</g>
<g>
</g>
<g>
</g>
<g>
</g>
<g>
</g>
</svg>
