<?xml version="1.0" encoding="iso-8859-1"?>
<!-- Generator: Adobe Illustrator 19.0.0, SVG Export Plug-In . SVG Version: 6.00 Build 0)  -->
<svg version="1.1" id="Capa_1" xmlns="http://www.w3.org/2000/svg" xmlns:xlink="http://www.w3.org/1999/xlink" x="0px" y="0px"
	 viewBox="0 0 496 496" style="enable-background:new 0 0 496 496;" xml:space="preserve">
<polyline style="fill:#6B5936;" points="248,376 136,488 488,488 488,120 248,120 "/>
<path d="M488,496H136c-4.8,0-8-3.2-8-8c0-2.4,0.8-4,2.4-5.6l112-112l11.2,11.2L155.2,480H480V128H248v-16h240c4.8,0,8,3.2,8,8v368
	C496,492.8,492.8,496,488,496z"/>
<polyline style="fill:#A88C55;" points="248,152 456,152 456,456 168,456 "/>
<path d="M456,464H168v-16h280V160H248v-16h208c4.8,0,8,3.2,8,8v304C464,460.8,460.8,464,456,464z"/>
<rect x="8" y="8" style="fill:#6B5936;" width="240" height="368"/>
<path d="M248,384H8c-4.8,0-8-3.2-8-8V8c0-4.8,3.2-8,8-8h240c4.8,0,8,3.2,8,8v368C256,380.8,252.8,384,248,384z M16,368h224V16H16
	V368z"/>
<rect x="40" y="40" style="fill:#A88C55;" width="176" height="304"/>
<path d="M216,352H40c-4.8,0-8-3.2-8-8V40c0-4.8,3.2-8,8-8h176c4.8,0,8,3.2,8,8v304C224,348.8,220.8,352,216,352z M48,336h160V48H48
	V336z"/>
<polygon style="fill:#4F4228;" points="136,488 136,376 248,376 "/>
<path d="M136,496c-4.8,0-8-3.2-8-8V376c0-4.8,3.2-8,8-8h112c4.8,0,8,3.2,8,8c0,2.4-0.8,4-2.4,5.6l-112,112
	C140,495.2,138.4,496,136,496z M144,384v84.8l84.8-84.8H144z"/>
<path style="fill:#6B5936;" d="M424,232c0-26.4-21.6-48-48-48c-1.6,0-4,0-5.6,0c-24.8,4-42.4,24.8-42.4,49.6v2.4
	c0,12.8,4.8,24.8,14.4,33.6L376,304l33.6-33.6c8.8-8.8,14.4-21.6,14.4-33.6V232z"/>
<path d="M376,312c-2.4,0-4-0.8-5.6-2.4L336.8,276c-10.4-10.4-16.8-24.8-16.8-39.2v-2.4c-0.8-28.8,20.8-53.6,49.6-57.6
	c30.4-4,58.4,18.4,62.4,48.8c0,2.4,0.8,4.8,0.8,6.4v4c0,15.2-5.6,28.8-16.8,40l-33.6,33.6C380,311.2,378.4,312,376,312z M376,192
	c-1.6,0-3.2,0-4.8,0c-20.8,3.2-35.2,20.8-35.2,41.6v2.4c0,10.4,4,20.8,12,28l28,28l28-28c7.2-7.2,12-17.6,12-28v-4
	c0-11.2-4.8-22.4-13.6-29.6C395.2,195.2,385.6,192,376,192z"/>
<path d="M352,432c-17.6,0-32-14.4-32-32v-40c0-8.8-7.2-16-16-16s-16,7.2-16,16v72h-16v-72c0-17.6,14.4-32,32-32s32,14.4,32,32v40
	c0,8.8,7.2,16,16,16s16-7.2,16-16v-72h16v72C384,417.6,369.6,432,352,432z"/>
<path style="fill:#589137;" d="M136,40v56c0,13.6-10.4,24-24,24l0,0c-13.6,0-24,10.4-24,24v32c0,13.6-10.4,24-24,24H40V40H136z"/>
<path d="M64,208H40c-4.8,0-8-3.2-8-8V40c0-4.8,3.2-8,8-8h96c4.8,0,8,3.2,8,8v56c0,17.6-14.4,32-32,32c-8.8,0-16,7.2-16,16v32
	C96,193.6,81.6,208,64,208z M48,192h16c8.8,0,16-7.2,16-16v-32c0-17.6,14.4-32,32-32c8.8,0,16-7.2,16-16V48H48V192z"/>
<circle style="fill:#A88C55;" cx="376" cy="232" r="24"/>
<path d="M376,264c-17.6,0-32-14.4-32-32s14.4-32,32-32s32,14.4,32,32S393.6,264,376,264z M376,216c-8.8,0-16,7.2-16,16s7.2,16,16,16
	s16-7.2,16-16S384.8,216,376,216z"/>
<path style="fill:#6B5936;" d="M184,208c0-17.6-14.4-32-32-32c-2.4,0-4,0-6.4,0.8c-15.2,3.2-25.6,16.8-25.6,32.8v0.8
	c0,8.8,3.2,17.6,8.8,24.8L152,264l23.2-28.8c5.6-7.2,8.8-16,8.8-24.8V208z"/>
<path d="M152,272c-2.4,0-4.8-0.8-6.4-3.2L122.4,240c-6.4-8.8-10.4-19.2-10.4-29.6c-0.8-20,12.8-36.8,32-40.8
	c21.6-4.8,42.4,9.6,47.2,31.2c0.8,2.4,0.8,5.6,0.8,8v1.6c0,11.2-4,21.6-10.4,29.6l-23.2,28.8C156.8,271.2,154.4,272,152,272z
	 M152,184c-1.6,0-3.2,0-4.8,0.8c-11.2,2.4-19.2,12.8-19.2,24.8c0,7.2,2.4,14.4,7.2,20.8L152,252l16.8-21.6c4.8-5.6,7.2-12.8,7.2-20
	V208c0-7.2-3.2-13.6-8.8-18.4C163.2,185.6,157.6,184,152,184L152,184z"/>
<rect x="144" y="200" width="16" height="16"/>
<rect x="144" y="288" width="16" height="16"/>
<g>
</g>
<g>
</g>
<g>
</g>
<g>
</g>
<g>
</g>
<g>
</g>
<g>
</g>
<g>
</g>
<g>
</g>
<g>
</g>
<g>
</g>
<g>
</g>
<g>
</g>
<g>
</g>
<g>
</g>
</svg>
