<?xml version="1.0" encoding="iso-8859-1"?>
<!-- Generator: Adobe Illustrator 19.0.0, SVG Export Plug-In . SVG Version: 6.00 Build 0)  -->
<svg version="1.1" id="Capa_1" xmlns="http://www.w3.org/2000/svg" xmlns:xlink="http://www.w3.org/1999/xlink" x="0px" y="0px"
	 viewBox="0 0 496 496" style="enable-background:new 0 0 496 496;" xml:space="preserve">
<path style="fill:#735236;" d="M112,456h64c17.6,0,32,14.4,32,32l0,0l0,0H80l0,0l0,0C80,470.4,94.4,456,112,456z"/>
<path d="M208,496H80c-4.8,0-8-3.2-8-8c0-22.4,17.6-40,40-40h64c22.4,0,40,17.6,40,40C216,492.8,212.8,496,208,496z M89.6,480h109.6
	c-3.2-9.6-12.8-16-22.4-16h-64C101.6,464,92.8,470.4,89.6,480z"/>
<rect x="112" y="328" style="fill:#482D18;" width="64" height="128"/>
<path d="M176,464h-64c-4.8,0-8-3.2-8-8V328c0-4.8,3.2-8,8-8h64c4.8,0,8,3.2,8,8v128C184,460.8,180.8,464,176,464z M120,448h48V336
	h-48V448z"/>
<rect x="128" y="8" style="fill:#482D18;" width="32" height="320"/>
<path d="M160,336h-32c-4.8,0-8-3.2-8-8V8c0-4.8,3.2-8,8-8h32c4.8,0,8,3.2,8,8v320C168,332.8,164.8,336,160,336z M136,320h16V16h-16
	V320z"/>
<rect x="160" y="24" style="fill:#735236;" width="256" height="48"/>
<path d="M416,80H160c-4.8,0-8-3.2-8-8V24c0-4.8,3.2-8,8-8h256c4.8,0,8,3.2,8,8v48C424,76.8,420.8,80,416,80z M168,64h240V32H168V64z
	"/>
<polygon style="fill:#737272;" points="352,168 384,168 288,104 192,168 224,168 224,248 352,248 "/>
<path d="M352,256H224c-4.8,0-8-3.2-8-8v-72h-24c-4.8,0-8-3.2-8-8c0-2.4,1.6-4.8,3.2-6.4l96-64c2.4-1.6,6.4-1.6,8.8,0l96,64
	c4,2.4,4.8,7.2,2.4,11.2c-1.6,1.6-4,3.2-6.4,3.2h-24v72C360,252.8,356.8,256,352,256z M232,240h112v-72c0-4.8,3.2-8,8-8h5.6
	L288,113.6L218.4,160h5.6c4.8,0,8,3.2,8,8V240z"/>
<rect x="272" y="184" style="fill:#BABDBF;" width="32" height="64"/>
<path d="M304,256h-32c-4.8,0-8-3.2-8-8v-64c0-4.8,3.2-8,8-8h32c4.8,0,8,3.2,8,8v64C312,252.8,308.8,256,304,256z M280,240h16v-48
	h-16V240z"/>
<rect x="160" y="24" style="fill:#482D18;" width="32" height="48"/>
<path d="M192,80h-32c-4.8,0-8-3.2-8-8V24c0-4.8,3.2-8,8-8h32c4.8,0,8,3.2,8,8v48C200,76.8,196.8,80,192,80z M168,64h16V32h-16V64z"
	/>
<rect x="384" y="24" style="fill:#482D18;" width="32" height="48"/>
<path d="M416,80h-32c-4.8,0-8-3.2-8-8V24c0-4.8,3.2-8,8-8h32c4.8,0,8,3.2,8,8v48C424,76.8,420.8,80,416,80z M392,64h16V32h-16V64z"
	/>
<rect x="200" y="72" width="16" height="88"/>
<rect x="360" y="72" width="16" height="96"/>
<rect x="208" y="248" style="fill:#BABDBF;" width="160" height="32"/>
<path d="M368,288H208c-4.8,0-8-3.2-8-8v-32c0-4.8,3.2-8,8-8h160c4.8,0,8,3.2,8,8v32C376,284.8,372.8,288,368,288z M216,272h144v-16
	H216V272z"/>
<rect x="136" y="352" width="16" height="104"/>
<rect x="128" y="296" style="fill:#735236;" width="32" height="32"/>
<path d="M160,336h-32c-4.8,0-8-3.2-8-8v-32c0-4.8,3.2-8,8-8h32c4.8,0,8,3.2,8,8v32C168,332.8,164.8,336,160,336z M136,320h16v-16
	h-16V320z"/>
<rect x="128" y="8" style="fill:#735236;" width="32" height="32"/>
<path d="M160,48h-32c-4.8,0-8-3.2-8-8V8c0-4.8,3.2-8,8-8h32c4.8,0,8,3.2,8,8v32C168,44.8,164.8,48,160,48z M136,32h16V16h-16V32z"/>
<g>
</g>
<g>
</g>
<g>
</g>
<g>
</g>
<g>
</g>
<g>
</g>
<g>
</g>
<g>
</g>
<g>
</g>
<g>
</g>
<g>
</g>
<g>
</g>
<g>
</g>
<g>
</g>
<g>
</g>
</svg>
