<?xml version="1.0" encoding="iso-8859-1"?>
<!-- Generator: Adobe Illustrator 19.0.0, SVG Export Plug-In . SVG Version: 6.00 Build 0)  -->
<svg version="1.1" id="Capa_1" xmlns="http://www.w3.org/2000/svg" xmlns:xlink="http://www.w3.org/1999/xlink" x="0px" y="0px"
	 viewBox="0 0 496 496" style="enable-background:new 0 0 496 496;" xml:space="preserve">
<path style="fill:#6B5936;" d="M88,360L88,360c0-17.6,14.4-32,32-32h256c17.6,0,32,14.4,32,32l0,0"/>
<path d="M416,360h-16c0-13.6-10.4-24-24-24H120c-13.6,0-24,10.4-24,24H80c0-22.4,17.6-40,40-40h256C398.4,320,416,337.6,416,360z"/>
<path style="fill:#A88C55;" d="M312,360h104c13.6,0,24,10.4,24,24v48c0,13.6-10.4,24-24,24l0,0H80c-13.6,0-24-10.4-24-24l0,0v-48
	c0-13.6,10.4-24,24-24h104"/>
<path d="M416,464H80c-17.6,0-32-14.4-32-32v-48c0-17.6,14.4-32,32-32h104v16H80c-8.8,0-16,7.2-16,16v48c0,8.8,7.2,16,16,16h336
	c8.8,0,16-7.2,16-16v-48c0-8.8-7.2-16-16-16H312v-16h104c17.6,0,32,14.4,32,32v48C448,449.6,433.6,464,416,464z"/>
<path style="fill:#6B5936;" d="M88,456h320l0,0l0,0c0,17.6-14.4,32-32,32H120C102.4,488,88,473.6,88,456L88,456L88,456z"/>
<path d="M376,496H120c-22.4,0-40-17.6-40-40c0-4.8,3.2-8,8-8h320c4.8,0,8,3.2,8,8C416,478.4,398.4,496,376,496z M97.6,464
	c3.2,9.6,12.8,16,22.4,16h256c10.4,0,19.2-6.4,22.4-16H97.6z"/>
<path style="fill:#A88C55;" d="M360,184h16c8.8,0,16-7.2,16-16V40c0-8.8-7.2-16-16-16H120c-8.8,0-16,7.2-16,16v128
	c0,8.8,7.2,16,16,16h16"/>
<path d="M376,192h-16v-16h16c4.8,0,8-3.2,8-8V40c0-4.8-3.2-8-8-8H120c-4.8,0-8,3.2-8,8v128c0,4.8,3.2,8,8,8h16v16h-16
	c-13.6,0-24-10.4-24-24V40c0-13.6,10.4-24,24-24h256c13.6,0,24,10.4,24,24v128C400,181.6,389.6,192,376,192z"/>
<path style="fill:#6B5936;" d="M360,328V184c0-17.6-14.4-32-32-32H168c-17.6,0-32,14.4-32,32v144"/>
<path d="M368,328h-16V184c0-13.6-10.4-24-24-24H168c-13.6,0-24,10.4-24,24v144h-16V184c0-22.4,17.6-40,40-40h160
	c22.4,0,40,17.6,40,40V328z"/>
<path style="fill:#6B5936;" d="M152,8h192l0,0v64c0,26.4-21.6,48-48,48h-96c-26.4,0-48-21.6-48-48V8L152,8z"/>
<path d="M296,128h-96c-31.2,0-56-24.8-56-56V8c0-4.8,3.2-8,8-8h192c4.8,0,8,3.2,8,8v64C352,103.2,327.2,128,296,128z M160,16v56
	c0,22.4,17.6,40,40,40h96c22.4,0,40-17.6,40-40V16H160z"/>
<rect x="184" y="56" style="fill:#A88C55;" width="32" height="400"/>
<path d="M216,464h-32c-4.8,0-8-3.2-8-8V56c0-4.8,3.2-8,8-8h32c4.8,0,8,3.2,8,8v400C224,460.8,220.8,464,216,464z M192,448h16V64h-16
	V448z"/>
<rect x="280" y="56" style="fill:#A88C55;" width="32" height="400"/>
<path d="M312,464h-32c-4.8,0-8-3.2-8-8V56c0-4.8,3.2-8,8-8h32c4.8,0,8,3.2,8,8v400C320,460.8,316.8,464,312,464z M288,448h16V64h-16
	V448z"/>
<rect x="216" y="144" width="64" height="16"/>
<rect x="216" y="320" width="64" height="16"/>
<rect x="216" y="352" width="64" height="16"/>
<rect x="136" y="176" width="48" height="16"/>
<rect x="216" y="176" width="64" height="16"/>
<rect x="312" y="176" width="48" height="16"/>
<rect x="152" y="48" width="88" height="16"/>
<rect x="256" y="48" width="88" height="16"/>
<rect x="160" y="208" width="80" height="16"/>
<rect x="160" y="240" width="80" height="16"/>
<rect x="160" y="272" width="80" height="16"/>
<rect x="256" y="208" width="80" height="16"/>
<rect x="256" y="240" width="80" height="16"/>
<rect x="256" y="272" width="80" height="16"/>
<rect x="104" y="216" style="fill:#A88C55;" width="32" height="112"/>
<path d="M136,336h-32c-4.8,0-8-3.2-8-8V216c0-4.8,3.2-8,8-8h32c4.8,0,8,3.2,8,8v112C144,332.8,140.8,336,136,336z M112,320h16v-96
	h-16V320z"/>
<rect x="360" y="216" style="fill:#A88C55;" width="32" height="112"/>
<path d="M392,336h-32c-4.8,0-8-3.2-8-8V216c0-4.8,3.2-8,8-8h32c4.8,0,8,3.2,8,8v112C400,332.8,396.8,336,392,336z M368,320h16v-96
	h-16V320z"/>
<rect x="40" y="216" style="fill:#6B5936;" width="64" height="32"/>
<path d="M104,256H40c-4.8,0-8-3.2-8-8v-32c0-4.8,3.2-8,8-8h64c4.8,0,8,3.2,8,8v32C112,252.8,108.8,256,104,256z M48,240h48v-16H48
	V240z"/>
<rect x="392" y="216" style="fill:#6B5936;" width="64" height="32"/>
<path d="M456,256h-64c-4.8,0-8-3.2-8-8v-32c0-4.8,3.2-8,8-8h64c4.8,0,8,3.2,8,8v32C464,252.8,460.8,256,456,256z M400,240h48v-16
	h-48V240z"/>
<g>
</g>
<g>
</g>
<g>
</g>
<g>
</g>
<g>
</g>
<g>
</g>
<g>
</g>
<g>
</g>
<g>
</g>
<g>
</g>
<g>
</g>
<g>
</g>
<g>
</g>
<g>
</g>
<g>
</g>
</svg>
