<?xml version="1.0" encoding="iso-8859-1"?>
<!-- Generator: Adobe Illustrator 19.0.0, SVG Export Plug-In . SVG Version: 6.00 Build 0)  -->
<svg version="1.1" id="Capa_1" xmlns="http://www.w3.org/2000/svg" xmlns:xlink="http://www.w3.org/1999/xlink" x="0px" y="0px"
	 viewBox="0 0 496.251 496.251" style="enable-background:new 0 0 496.251 496.251;" xml:space="preserve">
<polyline style="fill:#858486;" points="24.126,424.251 24.126,456.251 392.126,456.251 392.126,424.251 "/>
<path d="M392.126,464.251h-368c-4.8,0-8-3.2-8-8v-32h16v24h352v-24h16v32C400.126,461.051,396.926,464.251,392.126,464.251z"/>
<path style="fill:#F48827;" d="M472.126,424.251h16v-80c0-8.8-7.2-16-16-16h-64v-104l-16-40h-144l-16,16h-208c-8.8,0-16,7.2-16,16
	v208h48"/>
<path d="M488.126,432.251h-16v-16h8v-72c0-4.8-3.2-8-8-8h-64c-4.8,0-8-3.2-8-8v-102.4l-13.6-33.6h-135.2l-13.6,13.6
	c-1.6,1.6-3.2,2.4-5.6,2.4h-208c-4.8,0-8,3.2-8,8v200h40v16h-48c-4.8,0-8-3.2-8-8v-208c0-13.6,10.4-24,24-24h204.8l13.6-13.6
	c1.6-1.6,3.2-2.4,5.6-2.4h144c3.2,0,6.4,1.6,7.2,4.8l16,40c0,0.8,0.8,1.6,0.8,3.2v96h56c13.6,0,24,10.4,24,24v80
	C496.126,429.051,492.926,432.251,488.126,432.251z"/>
<path style="fill:#FFBC3D;" d="M408.126,232.251v-8l-16-40h-144l-16,16h-208c-8.8,0-16,7.2-16,16v16H408.126z"/>
<path d="M408.126,240.251h-400c-4.8,0-8-3.2-8-8v-16c0-13.6,10.4-24,24-24h204.8l13.6-13.6c1.6-1.6,3.2-2.4,5.6-2.4h144
	c3.2,0,6.4,1.6,7.2,4.8l16,40c0,0.8,0.8,1.6,0.8,3.2v8C416.126,237.051,412.926,240.251,408.126,240.251z M16.126,224.251h383.2
	l-12.8-32h-135.2l-13.6,13.6c-1.6,1.6-3.2,2.4-5.6,2.4h-208c-4.8,0-8,3.2-8,8V224.251z"/>
<circle style="fill:#4F4D4F;" cx="424.126" cy="440.251" r="48"/>
<path d="M424.126,496.251c-31.2,0-56-24.8-56-56s24.8-56,56-56s56,24.8,56,56l0,0C480.126,471.451,455.326,496.251,424.126,496.251z
	 M424.126,400.251c-22.4,0-40,17.6-40,40s17.6,40,40,40s40-17.6,40-40S446.526,400.251,424.126,400.251z"/>
<circle style="fill:#B6B3B8;" cx="424.126" cy="440.251" r="24"/>
<path d="M424.126,472.251c-17.6,0-32-14.4-32-32s14.4-32,32-32s32,14.4,32,32S441.726,472.251,424.126,472.251z M424.126,424.251
	c-8.8,0-16,7.2-16,16s7.2,16,16,16s16-7.2,16-16S432.926,424.251,424.126,424.251z"/>
<circle style="fill:#4F4D4F;" cx="104.126" cy="440.251" r="48"/>
<path d="M104.126,496.251c-31.2,0-56-24.8-56-56s24.8-56,56-56s56,24.8,56,56l0,0C160.126,471.451,135.326,496.251,104.126,496.251z
	 M104.126,400.251c-22.4,0-40,17.6-40,40s17.6,40,40,40s40-17.6,40-40S126.526,400.251,104.126,400.251z"/>
<circle style="fill:#B6B3B8;" cx="104.126" cy="440.251" r="24"/>
<path d="M104.126,472.251c-17.6,0-32-14.4-32-32s14.4-32,32-32s32,14.4,32,32S121.726,472.251,104.126,472.251z M104.126,424.251
	c-8.8,0-16,7.2-16,16s7.2,16,16,16s16-7.2,16-16S112.926,424.251,104.126,424.251z"/>
<rect x="152.126" y="416.251" width="224" height="16"/>
<path d="M456.126,304.251h-24v-16h16v-56c0-4.8-3.2-8-8-8h-32v-16h32c13.6,0,24,10.4,24,24v64
	C464.126,301.051,460.926,304.251,456.126,304.251z"/>
<rect x="280.126" y="264.251" style="fill:#FFBC3D;" width="96" height="160"/>
<path d="M376.126,432.251h-96c-4.8,0-8-3.2-8-8v-160c0-4.8,3.2-8,8-8h96c4.8,0,8,3.2,8,8v160
	C384.126,429.051,380.926,432.251,376.126,432.251z M288.126,416.251h80v-144h-80V416.251z"/>
<rect x="344.126" y="296.251" style="fill:#789DC3;" width="32" height="32"/>
<path d="M376.126,336.251h-32c-4.8,0-8-3.2-8-8v-32c0-4.8,3.2-8,8-8h32c4.8,0,8,3.2,8,8v32
	C384.126,333.051,380.926,336.251,376.126,336.251z M352.126,320.251h16v-16h-16V320.251z"/>
<rect x="344.126" y="360.251" style="fill:#789DC3;" width="32" height="64"/>
<path d="M376.126,432.251h-32c-4.8,0-8-3.2-8-8v-64c0-4.8,3.2-8,8-8h32c4.8,0,8,3.2,8,8v64
	C384.126,429.051,380.926,432.251,376.126,432.251z M352.126,416.251h16v-48h-16V416.251z"/>
<rect x="280.126" y="296.251" style="fill:#789DC3;" width="32" height="32"/>
<path d="M312.126,336.251h-32c-4.8,0-8-3.2-8-8v-32c0-4.8,3.2-8,8-8h32c4.8,0,8,3.2,8,8v32
	C320.126,333.051,316.926,336.251,312.126,336.251z M288.126,320.251h16v-16h-16V320.251z"/>
<rect x="280.126" y="360.251" style="fill:#789DC3;" width="32" height="64"/>
<path d="M312.126,432.251h-32c-4.8,0-8-3.2-8-8v-64c0-4.8,3.2-8,8-8h32c4.8,0,8,3.2,8,8v64
	C320.126,429.051,316.926,432.251,312.126,432.251z M288.126,416.251h16v-48h-16V416.251z"/>
<rect x="200.126" y="280.251" style="fill:#789DC3;" width="48" height="48"/>
<path d="M248.126,336.251h-48c-4.8,0-8-3.2-8-8v-48c0-4.8,3.2-8,8-8h48c4.8,0,8,3.2,8,8v48
	C256.126,333.051,252.926,336.251,248.126,336.251z M208.126,320.251h32v-32h-32V320.251z"/>
<rect x="120.126" y="280.251" style="fill:#789DC3;" width="48" height="48"/>
<path d="M168.126,336.251h-48c-4.8,0-8-3.2-8-8v-48c0-4.8,3.2-8,8-8h48c4.8,0,8,3.2,8,8v48
	C176.126,333.051,172.926,336.251,168.126,336.251z M128.126,320.251h32v-32h-32V320.251z"/>
<rect x="40.126" y="280.251" style="fill:#789DC3;" width="48" height="48"/>
<path d="M88.126,336.251h-48c-4.8,0-8-3.2-8-8v-48c0-4.8,3.2-8,8-8h48c4.8,0,8,3.2,8,8v48
	C96.126,333.051,92.926,336.251,88.126,336.251z M48.126,320.251h32v-32h-32V320.251z"/>
<rect x="32.126" y="352.251" width="224" height="16"/>
<path style="fill:#858486;" d="M472.126,328.251h-16v32h32v-16C488.126,335.451,480.926,328.251,472.126,328.251z"/>
<path d="M488.126,368.251h-32c-4.8,0-8-3.2-8-8v-32c0-4.8,3.2-8,8-8h16c13.6,0,24,10.4,24,24v16
	C496.126,365.051,492.926,368.251,488.126,368.251z M464.126,352.251h16v-8c0-4.8-3.2-8-8-8h-8V352.251z"/>
<path style="fill:#B6B3B8;" d="M472.126,104.251c8.8,0,16-7.2,16-16s-7.2-16-16-16l0,0c13.6-17.6,9.6-42.4-8-56s-42.4-9.6-56,8
	c-5.6,7.2-8,15.2-8,24c0,0,0,0,0,0.8c-10.4-11.2-28-12-39.2-0.8c-7.2,7.2-10.4,17.6-8,27.2c-7.2-4.8-17.6-3.2-22.4,4
	s-3.2,17.6,4,22.4c2.4,1.6,5.6,2.4,8.8,2.4H472.126z"/>
<path d="M472.126,112.251h-128c-13.6,0-24-10.4-24-24s10.4-24,24-24l0,0c2.4-20,20-33.6,40-32c3.2,0,7.2,1.6,10.4,2.4
	c7.2-25.6,33.6-40,59.2-32.8c20,6.4,34.4,24.8,34.4,46.4c0,6.4-1.6,12.8-4,19.2c11.2,6.4,15.2,21.6,8.8,32.8
	C488.926,107.451,480.926,112.251,472.126,112.251z M344.126,80.251c-4.8,0-8,3.2-8,8s3.2,8,8,8h128c4.8,0,8-3.2,8-8s-3.2-8-8-8
	c-3.2,0-6.4-1.6-8-4.8c-1.6-2.4-0.8-5.6,0.8-8c4.8-5.6,7.2-12,7.2-19.2c0-17.6-14.4-32-32-32s-32,14.4-32,32l0,0c0,4.8-3.2,8-8,8
	c-2.4,0-4-0.8-5.6-2.4c-4-3.2-8.8-5.6-14.4-5.6c-11.2,0-20,8.8-20,19.2c0,1.6,0,4,0.8,5.6c0.8,4-1.6,8.8-5.6,9.6
	c-2.4,0.8-4.8,0-6.4-0.8C347.326,81.051,345.726,80.251,344.126,80.251z"/>
<path d="M456.126,56.251h-16c0-4.8-3.2-8-8-8v-16C445.726,32.251,456.126,42.651,456.126,56.251z"/>
<circle style="fill:#F24E29;" cx="224.126" cy="80.251" r="40"/>
<path d="M224.126,128.251c-26.4,0-48-21.6-48-48s21.6-48,48-48s48,21.6,48,48S250.526,128.251,224.126,128.251z M224.126,48.251
	c-17.6,0-32,14.4-32,32s14.4,32,32,32s32-14.4,32-32S241.726,48.251,224.126,48.251z"/>
<path style="fill:#B6B3B8;" d="M104.126,72.251c8.8,0,16-7.2,16-16s-7.2-16-16-16c-3.2,0-6.4,0.8-8.8,2.4c-3.2-8-12-12.8-20-9.6
	c-0.8,0-2.4,0.8-3.2,1.6c0-0.8,0-1.6,0-2.4c0-13.6-10.4-24-24-24s-24,10.4-24,24c0,2.4,0.8,5.6,1.6,8c-0.8,0-0.8,0-1.6,0
	c-8.8,0-16,7.2-16,16s7.2,16,16,16H104.126z"/>
<path d="M104.126,80.251h-80c-13.6,0-24-10.4-24-24c0-10.4,6.4-19.2,16-22.4c0-0.8,0-0.8,0-1.6c0-17.6,14.4-32,32-32
	c14.4,0,27.2,9.6,31.2,24c7.2,0,14.4,3.2,19.2,8.8c12.8-3.2,25.6,4.8,28.8,17.6c3.2,12.8-4.8,25.6-17.6,28.8
	C108.126,80.251,105.726,80.251,104.126,80.251z M24.126,48.251c-4.8,0-8,4-8,8c0,4.8,4,8,8,8h80c4.8,0,8-3.2,8-8s-3.2-8-8-8
	c-1.6,0-3.2,0.8-4.8,1.6c-4,2.4-8.8,1.6-11.2-2.4c0-0.8-0.8-0.8-0.8-1.6c-1.6-4-6.4-6.4-10.4-4.8c-0.8,0-0.8,0-1.6,0.8
	c-3.2,1.6-8,0.8-10.4-3.2c-0.8-1.6-0.8-3.2-0.8-4.8v-0.8c0.8-8.8-6.4-16.8-15.2-17.6c-8.8,0-16,6.4-16.8,15.2c0,0.8,0,0.8,0,1.6
	c0,1.6,0,4,0.8,5.6c1.6,4-0.8,8.8-4.8,10.4c-0.8,0-2.4,0-3.2,0H24.126L24.126,48.251z"/>
<polyline style="fill:#D94A56;" points="56.126,200.251 56.126,136.251 8.126,152.251 56.126,168.251 "/>
<path d="M64.126,200.251h-16v-26.4l-42.4-14.4c-4-1.6-6.4-5.6-4.8-10.4c0.8-2.4,2.4-4,4.8-4.8l48-16c4-1.6,8.8,0.8,10.4,4.8
	c0,1.6,0,2.4,0,3.2V200.251z M33.726,152.251l14.4,4.8v-9.6L33.726,152.251z"/>
<g>
</g>
<g>
</g>
<g>
</g>
<g>
</g>
<g>
</g>
<g>
</g>
<g>
</g>
<g>
</g>
<g>
</g>
<g>
</g>
<g>
</g>
<g>
</g>
<g>
</g>
<g>
</g>
<g>
</g>
</svg>
