<?xml version="1.0" encoding="iso-8859-1"?>
<!-- Generator: Adobe Illustrator 19.0.0, SVG Export Plug-In . SVG Version: 6.00 Build 0)  -->
<svg version="1.1" id="Capa_1" xmlns="http://www.w3.org/2000/svg" xmlns:xlink="http://www.w3.org/1999/xlink" x="0px" y="0px"
	 viewBox="0 0 496 496" style="enable-background:new 0 0 496 496;" xml:space="preserve">
<polyline style="fill:#D3D2D6;" points="40,456 40,488 456,488 456,456 "/>
<path d="M456,496H40c-4.8,0-8-3.2-8-8v-32h16v24h400v-24h16v32C464,492.8,460.8,496,456,496z"/>
<polygon style="fill:#D94A56;" points="456,152 456,168 40,168 40,152 8,152 8,456 488,456 488,152 "/>
<rect x="40" y="200" style="fill:#FFFFFF;" width="416" height="224"/>
<path d="M456,432H40c-4.8,0-8-3.2-8-8V200c0-4.8,3.2-8,8-8h416c4.8,0,8,3.2,8,8v224C464,428.8,460.8,432,456,432z M48,416h400V208
	H48V416z"/>
<path d="M488,464H8c-4.8,0-8-3.2-8-8V152c0-4.8,3.2-8,8-8h32c4.8,0,8,3.2,8,8v8h400v-8c0-4.8,3.2-8,8-8h32c4.8,0,8,3.2,8,8v304
	C496,460.8,492.8,464,488,464z M16,448h464V160h-16v8c0,4.8-3.2,8-8,8H40c-4.8,0-8-3.2-8-8v-8H16V448z"/>
<rect x="40" y="96" style="fill:#D3D2D6;" width="96" height="72"/>
<path d="M136,176H40c-4.8,0-8-3.2-8-8V96c0-4.8,3.2-8,8-8h96c4.8,0,8,3.2,8,8v72C144,172.8,140.8,176,136,176z M48,160h80v-56H48
	V160z"/>
<rect x="360" y="96" style="fill:#D3D2D6;" width="96" height="72"/>
<path d="M456,176h-96c-4.8,0-8-3.2-8-8V96c0-4.8,3.2-8,8-8h96c4.8,0,8,3.2,8,8v72C464,172.8,460.8,176,456,176z M368,160h80v-56h-80
	V160z"/>
<path style="fill:#789DC3;" d="M144,56l-40-24l40-24h208c13.6,0,24,10.4,24,24l0,0c0,13.6-10.4,24-24,24H144z"/>
<path d="M352,64H144c-1.6,0-3.2,0-4-0.8l-40-24c-4-2.4-4.8-7.2-3.2-11.2c0.8-0.8,1.6-2.4,2.4-2.4l40-24C140.8,0,142.4,0,144,0h208
	c17.6,0,32,14.4,32,32S369.6,64,352,64z M146.4,48H352c8.8,0,16-7.2,16-16s-7.2-16-16-16H146.4L120,32L146.4,48z"/>
<polygon style="fill:#DCC8A6;" points="144,56 104,32 144,8 152,8 152,56 "/>
<path d="M152,64h-8c-1.6,0-3.2,0-4-0.8l-40-24c-4-2.4-4.8-7.2-3.2-11.2c0.8-0.8,1.6-2.4,2.4-2.4l40-24C140.8,0,142.4,0,144,0h8
	c4.8,0,8,3.2,8,8v48C160,60.8,156.8,64,152,64z M119.2,32L144,46.4V17.6L119.2,32z"/>
<path d="M144,272c-2.4,0-4-0.8-5.6-2.4l-16-16l11.2-11.2l10.4,10.4l26.4-26.4l11.2,11.2l-32,32C148,271.2,146.4,272,144,272z"/>
<path d="M336,400c-2.4,0-4-0.8-5.6-2.4l-16-16l11.2-11.2l10.4,10.4l26.4-26.4l11.2,11.2l-32,32C340,399.2,338.4,400,336,400z"/>
<rect x="64" y="136" width="16" height="32"/>
<rect x="96" y="136" width="16" height="32"/>
<rect x="160" y="136" width="16" height="32"/>
<rect x="192" y="136" width="16" height="32"/>
<rect x="288" y="136" width="16" height="32"/>
<rect x="320" y="136" width="16" height="32"/>
<rect x="384" y="136" width="16" height="32"/>
<rect x="416" y="136" width="16" height="32"/>
<rect x="224" y="136" width="16" height="32"/>
<rect x="256" y="136" width="16" height="32"/>
<rect x="392" y="232" style="fill:#D3D2D6;" width="32" height="32"/>
<path d="M424,272h-32c-4.8,0-8-3.2-8-8v-32c0-4.8,3.2-8,8-8h32c4.8,0,8,3.2,8,8v32C432,268.8,428.8,272,424,272z M400,256h16v-16
	h-16V256z"/>
<rect x="328" y="232" style="fill:#D3D2D6;" width="32" height="32"/>
<path d="M360,272h-32c-4.8,0-8-3.2-8-8v-32c0-4.8,3.2-8,8-8h32c4.8,0,8,3.2,8,8v32C368,268.8,364.8,272,360,272z M336,256h16v-16
	h-16V256z"/>
<rect x="392" y="296" style="fill:#D3D2D6;" width="32" height="32"/>
<path d="M424,336h-32c-4.8,0-8-3.2-8-8v-32c0-4.8,3.2-8,8-8h32c4.8,0,8,3.2,8,8v32C432,332.8,428.8,336,424,336z M400,320h16v-16
	h-16V320z"/>
<rect x="328" y="296" style="fill:#D3D2D6;" width="32" height="32"/>
<path d="M360,336h-32c-4.8,0-8-3.2-8-8v-32c0-4.8,3.2-8,8-8h32c4.8,0,8,3.2,8,8v32C368,332.8,364.8,336,360,336z M336,320h16v-16
	h-16V320z"/>
<rect x="264" y="232" style="fill:#D3D2D6;" width="32" height="32"/>
<path d="M296,272h-32c-4.8,0-8-3.2-8-8v-32c0-4.8,3.2-8,8-8h32c4.8,0,8,3.2,8,8v32C304,268.8,300.8,272,296,272z M272,256h16v-16
	h-16V256z"/>
<rect x="264" y="296" style="fill:#D3D2D6;" width="32" height="32"/>
<path d="M296,336h-32c-4.8,0-8-3.2-8-8v-32c0-4.8,3.2-8,8-8h32c4.8,0,8,3.2,8,8v32C304,332.8,300.8,336,296,336z M272,320h16v-16
	h-16V320z"/>
<rect x="200" y="232" style="fill:#D3D2D6;" width="32" height="32"/>
<path d="M232,272h-32c-4.8,0-8-3.2-8-8v-32c0-4.8,3.2-8,8-8h32c4.8,0,8,3.2,8,8v32C240,268.8,236.8,272,232,272z M208,256h16v-16
	h-16V256z"/>
<rect x="200" y="296" style="fill:#D3D2D6;" width="32" height="32"/>
<path d="M232,336h-32c-4.8,0-8-3.2-8-8v-32c0-4.8,3.2-8,8-8h32c4.8,0,8,3.2,8,8v32C240,332.8,236.8,336,232,336z M208,320h16v-16
	h-16V320z"/>
<rect x="136" y="296" style="fill:#D3D2D6;" width="32" height="32"/>
<path d="M168,336h-32c-4.8,0-8-3.2-8-8v-32c0-4.8,3.2-8,8-8h32c4.8,0,8,3.2,8,8v32C176,332.8,172.8,336,168,336z M144,320h16v-16
	h-16V320z"/>
<rect x="72" y="296" style="fill:#D3D2D6;" width="32" height="32"/>
<path d="M104,336H72c-4.8,0-8-3.2-8-8v-32c0-4.8,3.2-8,8-8h32c4.8,0,8,3.2,8,8v32C112,332.8,108.8,336,104,336z M80,320h16v-16H80
	V320z"/>
<rect x="264" y="360" style="fill:#D3D2D6;" width="32" height="32"/>
<path d="M296,400h-32c-4.8,0-8-3.2-8-8v-32c0-4.8,3.2-8,8-8h32c4.8,0,8,3.2,8,8v32C304,396.8,300.8,400,296,400z M272,384h16v-16
	h-16V384z"/>
<rect x="200" y="360" style="fill:#D3D2D6;" width="32" height="32"/>
<path d="M232,400h-32c-4.8,0-8-3.2-8-8v-32c0-4.8,3.2-8,8-8h32c4.8,0,8,3.2,8,8v32C240,396.8,236.8,400,232,400z M208,384h16v-16
	h-16V384z"/>
<rect x="136" y="360" style="fill:#D3D2D6;" width="32" height="32"/>
<path d="M168,400h-32c-4.8,0-8-3.2-8-8v-32c0-4.8,3.2-8,8-8h32c4.8,0,8,3.2,8,8v32C176,396.8,172.8,400,168,400z M144,384h16v-16
	h-16V384z"/>
<rect x="72" y="360" style="fill:#D3D2D6;" width="32" height="32"/>
<path d="M104,400H72c-4.8,0-8-3.2-8-8v-32c0-4.8,3.2-8,8-8h32c4.8,0,8,3.2,8,8v32C112,396.8,108.8,400,104,400z M80,384h16v-16H80
	V384z"/>
<circle style="fill:#D94A56;" cx="88" cy="96" r="16"/>
<path d="M88,120c-13.6,0-24-10.4-24-24s10.4-24,24-24s24,10.4,24,24S101.6,120,88,120z M88,88c-4.8,0-8,3.2-8,8s3.2,8,8,8s8-3.2,8-8
	S92.8,88,88,88z"/>
<circle style="fill:#D94A56;" cx="408" cy="96" r="16"/>
<path d="M408,120c-13.6,0-24-10.4-24-24s10.4-24,24-24s24,10.4,24,24S421.6,120,408,120z M408,88c-4.8,0-8,3.2-8,8s3.2,8,8,8
	s8-3.2,8-8S412.8,88,408,88z"/>
<rect x="80" y="56" width="16" height="24"/>
<rect x="400" y="56" width="16" height="24"/>
<path style="fill:#D94A56;" d="M352,8h-24v48h24c13.6,0,24-10.4,24-24S365.6,8,352,8z"/>
<path d="M352,64h-24c-4.8,0-8-3.2-8-8V8c0-4.8,3.2-8,8-8h24c17.6,0,32,14.4,32,32S369.6,64,352,64z M336,48h16c8.8,0,16-7.2,16-16
	s-7.2-16-16-16h-16V48z"/>
<rect x="152" y="8" style="fill:#46709C;" width="32" height="48"/>
<path d="M184,64h-32c-4.8,0-8-3.2-8-8V8c0-4.8,3.2-8,8-8h32c4.8,0,8,3.2,8,8v48C192,60.8,188.8,64,184,64z M160,48h16V16h-16V48z"/>
<g>
</g>
<g>
</g>
<g>
</g>
<g>
</g>
<g>
</g>
<g>
</g>
<g>
</g>
<g>
</g>
<g>
</g>
<g>
</g>
<g>
</g>
<g>
</g>
<g>
</g>
<g>
</g>
<g>
</g>
</svg>
