<?xml version="1.0" encoding="iso-8859-1"?>
<!-- Generator: Adobe Illustrator 19.0.0, SVG Export Plug-In . SVG Version: 6.00 Build 0)  -->
<svg version="1.1" id="Capa_1" xmlns="http://www.w3.org/2000/svg" xmlns:xlink="http://www.w3.org/1999/xlink" x="0px" y="0px"
	 viewBox="0 0 496.125 496.125" style="enable-background:new 0 0 496.125 496.125;" xml:space="preserve">
<polyline style="fill:#CBDBD7;" points="104.062,264.125 104.062,488.125 392.062,488.125 392.062,264.125 "/>
<path d="M392.062,496.125h-288c-4.8,0-8-3.2-8-8v-224h16v216h272v-216h16v224C400.062,492.925,396.862,496.125,392.062,496.125z"/>
<path id="SVGCleanerId_0" d="M120.062,288.125h-48c-4.8,0-8-3.2-8-8v-48c0-4.8,3.2-8,8-8h48c4.8,0,8,3.2,8,8v48
	C128.062,284.925,124.862,288.125,120.062,288.125z M80.062,272.125h32v-32h-32V272.125z"/>
<rect x="72.062" y="232.125" style="fill:#3E606F;" width="48" height="48"/>
<g>
	<path id="SVGCleanerId_0_1_" d="M120.062,288.125h-48c-4.8,0-8-3.2-8-8v-48c0-4.8,3.2-8,8-8h48c4.8,0,8,3.2,8,8v48
		C128.062,284.925,124.862,288.125,120.062,288.125z M80.062,272.125h32v-32h-32V272.125z"/>
</g>
<path id="SVGCleanerId_1" d="M424.062,288.125h-48c-4.8,0-8-3.2-8-8v-48c0-4.8,3.2-8,8-8h48c4.8,0,8,3.2,8,8v48
	C432.062,284.925,428.862,288.125,424.062,288.125z M384.062,272.125h32v-32h-32V272.125z"/>
<rect x="376.062" y="232.125" style="fill:#3E606F;" width="48" height="48"/>
<g>
	<path id="SVGCleanerId_1_1_" d="M424.062,288.125h-48c-4.8,0-8-3.2-8-8v-48c0-4.8,3.2-8,8-8h48c4.8,0,8,3.2,8,8v48
		C432.062,284.925,428.862,288.125,424.062,288.125z M384.062,272.125h32v-32h-32V272.125z"/>
</g>
<rect x="120.062" y="232.125" style="fill:#91AAB4;" width="256" height="32"/>
<path d="M376.062,272.125h-256c-4.8,0-8-3.2-8-8v-32c0-4.8,3.2-8,8-8h256c4.8,0,8,3.2,8,8v32
	C384.062,268.925,380.862,272.125,376.062,272.125z M128.062,256.125h240v-16h-240V256.125z"/>
<polygon style="fill:#737272;" points="168.062,456.125 168.062,360.125 136.062,360.125 248.062,296.125 360.062,360.125 
	328.062,360.125 328.062,456.125 "/>
<path d="M328.062,464.125h-160c-4.8,0-8-3.2-8-8v-88h-24c-4.8,0-8-3.2-8-8c0-3.2,1.6-5.6,4-7.2l112-64c2.4-1.6,5.6-1.6,8,0l112,64
	c4,2.4,4.8,7.2,3.2,11.2c-1.6,2.4-4,4-7.2,4h-24v88C336.062,460.925,332.862,464.125,328.062,464.125z M176.062,448.125h144v-88
	c0-4.8,3.2-8,8-8h1.6l-81.6-46.4l-81.6,46.4h1.6c4.8,0,8,3.2,8,8V448.125z"/>
<rect x="224.062" y="376.125" style="fill:#BABDBF;" width="48" height="80"/>
<path d="M272.062,464.125h-48c-4.8,0-8-3.2-8-8v-80c0-4.8,3.2-8,8-8h48c4.8,0,8,3.2,8,8v80
	C280.062,460.925,276.862,464.125,272.062,464.125z M232.062,448.125h32v-64h-32V448.125z"/>
<rect x="168.062" y="424.125" style="fill:#BABDBF;" width="56" height="32"/>
<path d="M224.062,464.125h-56c-4.8,0-8-3.2-8-8v-32c0-4.8,3.2-8,8-8h56c4.8,0,8,3.2,8,8v32
	C232.062,460.925,228.862,464.125,224.062,464.125z M176.062,448.125h40v-16h-40V448.125z"/>
<rect x="272.062" y="424.125" style="fill:#BABDBF;" width="56" height="32"/>
<path d="M328.062,464.125h-56c-4.8,0-8-3.2-8-8v-32c0-4.8,3.2-8,8-8h56c4.8,0,8,3.2,8,8v32
	C336.062,460.925,332.862,464.125,328.062,464.125z M280.062,448.125h40v-16h-40V448.125z"/>
<path style="fill:#BF412C;" d="M304.062,64.125c0-31.2-24.8-56-56-56c-0.8,0-0.8,0-1.6,0c-30.4,1.6-54.4,27.2-54.4,58.4v0.8
	c0,13.6,3.2,27.2,9.6,39.2l46.4,93.6l46.4-93.6c6.4-12,9.6-25.6,9.6-39.2V64.125z"/>
<path d="M248.062,208.125c-3.2,0-5.6-1.6-7.2-4.8l-46.4-93.6c-6.4-13.6-10.4-28-10.4-43.2v0c0-35.2,27.2-64,62.4-66.4
	c35.2-0.8,64.8,26.4,65.6,62.4c0,0.8,0,1.6,0,1.6v3.2c0,15.2-3.2,29.6-10.4,43.2l-46.4,93.6
	C253.662,206.525,251.262,208.125,248.062,208.125z M248.062,16.125c-0.8,0-0.8,0-1.6,0c-26.4,1.6-47.2,24-46.4,50.4v0.8
	c0,12.8,3.2,24.8,8.8,36l39.2,79.2l39.2-79.2c5.6-11.2,8.8-23.2,8.8-36v-3.2C296.062,37.725,274.462,16.125,248.062,16.125z"/>
<circle style="fill:#7F2B1D;" cx="248.062" cy="64.125" r="24"/>
<path d="M248.062,96.125c-17.6,0-32-14.4-32-32s14.4-32,32-32s32,14.4,32,32S265.662,96.125,248.062,96.125z M248.062,48.125
	c-8.8,0-16,7.2-16,16s7.2,16,16,16c8.8,0,16-7.2,16-16S256.862,48.125,248.062,48.125z"/>
<path style="fill:#BF412C;" d="M72.062,40.125c0-17.6-14.4-32-32-32c-2.4,0-4,0-6.4,0.8c-15.2,3.2-25.6,16.8-25.6,32.8l0,0
	c0,9.6,3.2,18.4,8,26.4l24,36l24-36c5.6-8,8-16.8,8-26.4V40.125z"/>
<path d="M40.062,112.125c-2.4,0-4.8-1.6-6.4-3.2l-24-36c-6.4-9.6-9.6-20-9.6-31.2c0-19.2,12.8-36.8,32-40.8
	c21.6-4.8,42.4,9.6,47.2,31.2c0.8,2.4,0.8,5.6,0.8,8v1.6c0,11.2-3.2,21.6-9.6,31.2l-24,36
	C44.862,110.525,42.462,112.125,40.062,112.125z M40.062,16.125c-1.6,0-3.2,0-4.8,0.8c-11.2,2.4-19.2,12.8-19.2,24.8
	c0,8,2.4,16,6.4,22.4l17.6,25.6l17.6-25.6c4-7.2,6.4-14.4,6.4-22.4v-1.6c0-7.2-3.2-13.6-8.8-18.4
	C51.262,17.725,45.662,16.125,40.062,16.125z"/>
<rect x="192.062" y="192.125" width="16" height="16"/>
<rect x="160.062" y="192.125" width="16" height="16"/>
<rect x="128.062" y="192.125" width="16" height="16"/>
<rect x="96.062" y="192.125" width="16" height="16"/>
<path d="M75.262,196.125c-4-7.2-4-16.8,0-24l13.6,8c-1.6,2.4-1.6,5.6,0,8L75.262,196.125z"/>
<rect x="96.062" y="160.125" width="16" height="16"/>
<rect x="128.062" y="160.125" width="16" height="16"/>
<path d="M164.862,164.125l-13.6-8c1.6-2.4,1.6-5.6,0-8l13.6-8C168.862,147.325,168.862,156.925,164.862,164.125z"/>
<rect x="128.062" y="128.125" width="16" height="16"/>
<rect x="96.062" y="128.125" width="16" height="16"/>
<rect x="64.062" y="128.125" width="16" height="16"/>
<rect x="32.062" y="128.125" width="16" height="16"/>
<path style="fill:#BF412C;" d="M424.062,40.125c0-17.6,14.4-32,32-32c2.4,0,4,0,6.4,0.8c15.2,3.2,25.6,16.8,25.6,32.8l0,0
	c0,9.6-3.2,18.4-8,26.4l-24,36l-24-36c-5.6-8-8-16.8-8-26.4V40.125z"/>
<path d="M456.062,112.125c-2.4,0-4.8-1.6-6.4-3.2l-24-36c-6.4-9.6-9.6-20-9.6-31.2v-1.6c0-22.4,17.6-40,40-40c2.4,0,5.6,0,8,0.8
	c19.2,4,32,20.8,32,40.8c0,11.2-3.2,21.6-9.6,31.2l-24,36C460.862,110.525,458.462,112.125,456.062,112.125z M456.062,16.125
	c-5.6,0-11.2,1.6-15.2,5.6c-5.6,4.8-8.8,11.2-8.8,18.4v1.6c0,8,2.4,16,6.4,22.4l17.6,25.6l17.6-25.6c4-7.2,6.4-14.4,6.4-22.4
	c0-12-8-22.4-19.2-24.8C459.262,16.125,457.662,16.125,456.062,16.125z"/>
<rect x="288.062" y="192.125" width="16" height="16"/>
<rect x="320.062" y="192.125" width="16" height="16"/>
<rect x="352.062" y="192.125" width="16" height="16"/>
<rect x="384.062" y="192.125" width="16" height="16"/>
<path d="M420.862,196.125l-13.6-8c1.6-2.4,1.6-5.6,0-8l13.6-8C424.862,179.325,424.862,188.925,420.862,196.125z"/>
<rect x="384.062" y="160.125" width="16" height="16"/>
<rect x="352.062" y="160.125" width="16" height="16"/>
<path d="M331.262,164.125c-4-7.2-4-16.8,0-24l13.6,8c-1.6,2.4-1.6,5.6,0,8L331.262,164.125z"/>
<rect x="352.062" y="128.125" width="16" height="16"/>
<rect x="384.062" y="128.125" width="16" height="16"/>
<rect x="416.062" y="128.125" width="16" height="16"/>
<rect x="448.062" y="128.125" width="16" height="16"/>
<g>
</g>
<g>
</g>
<g>
</g>
<g>
</g>
<g>
</g>
<g>
</g>
<g>
</g>
<g>
</g>
<g>
</g>
<g>
</g>
<g>
</g>
<g>
</g>
<g>
</g>
<g>
</g>
<g>
</g>
</svg>
