<?xml version="1.0" encoding="iso-8859-1"?>
<!-- Generator: Adobe Illustrator 19.0.0, SVG Export Plug-In . SVG Version: 6.00 Build 0)  -->
<svg version="1.1" id="Capa_1" xmlns="http://www.w3.org/2000/svg" xmlns:xlink="http://www.w3.org/1999/xlink" x="0px" y="0px"
	 viewBox="0 0 496.2 496.2" style="enable-background:new 0 0 496.2 496.2;" xml:space="preserve">
<polyline style="fill:#BABDBF;" points="408.1,128.2 408.1,8.2 344.1,8.2 344.1,80.2 "/>
<path d="M416.1,128.2h-16v-112h-48v64h-16v-72c0-4.8,3.2-8,8-8h64c4.8,0,8,3.2,8,8V128.2z"/>
<polyline style="fill:#737272;" points="24.1,456.2 24.1,176.2 248.1,8.2 472.1,176.2 472.1,456.2 "/>
<path d="M480.1,456.2h-16v-276l-216-161.6l-216,161.6v276h-16v-280c0-2.4,0.8-4.8,3.2-6.4l224-168c3.2-2.4,6.4-2.4,9.6,0l224,168
	c2.4,1.6,3.2,4,3.2,6.4V456.2z"/>
<rect x="8.1" y="456.2" style="fill:#BABDBF;" width="480" height="32"/>
<path d="M488.1,496.2H8.1c-4.8,0-8-3.2-8-8v-32c0-4.8,3.2-8,8-8h480c4.8,0,8,3.2,8,8v32C496.1,493,492.9,496.2,488.1,496.2z
	 M16.1,480.2h464v-16h-464V480.2z"/>
<rect x="184.1" y="216.2" style="fill:#BABDBF;" width="128" height="240"/>
<path d="M312.1,464.2h-128c-4.8,0-8-3.2-8-8v-240c0-4.8,3.2-8,8-8h128c4.8,0,8,3.2,8,8v240C320.1,461,316.9,464.2,312.1,464.2z
	 M192.1,448.2h112v-224h-112V448.2z"/>
<rect x="344.1" y="8.2" style="fill:#D9D9D9;" width="64" height="32"/>
<path d="M408.1,48.2h-64c-4.8,0-8-3.2-8-8v-32c0-4.8,3.2-8,8-8h64c4.8,0,8,3.2,8,8v32C416.1,45,412.9,48.2,408.1,48.2z M352.1,32.2
	h48v-16h-48V32.2z"/>
<rect x="56.1" y="256.2" style="fill:#BABDBF;" width="96" height="80"/>
<path d="M152.1,344.2h-96c-4.8,0-8-3.2-8-8v-80c0-4.8,3.2-8,8-8h96c4.8,0,8,3.2,8,8v80C160.1,341,156.9,344.2,152.1,344.2z
	 M64.1,328.2h80v-64h-80V328.2z"/>
<rect x="56.1" y="256.2" style="fill:#D9D9D9;" width="96" height="32"/>
<path d="M152.1,296.2h-96c-4.8,0-8-3.2-8-8v-32c0-4.8,3.2-8,8-8h96c4.8,0,8,3.2,8,8v32C160.1,293,156.9,296.2,152.1,296.2z
	 M64.1,280.2h80v-16h-80V280.2z"/>
<rect x="192.1" y="40.2" width="112" height="16"/>
<rect x="152.1" y="72.2" width="192" height="16"/>
<path style="fill:#BF412C;" d="M488.1,376.2v4.8c0,27.2-11.2,54.4-30.4,73.6l-3.2,3.2c-19.2,19.2-45.6,30.4-73.6,30.4h-25.6
	c-27.2,0-54.4-11.2-73.6-30.4l-3.2-3.2c-19.2-19.2-30.4-45.6-30.4-73.6v-4.8c0-20.8,6.4-41.6,18.4-58.4l101.6-149.6l101.6,149.6
	C481.7,334.6,488.1,355.4,488.1,376.2z"/>
<path d="M380.9,496.2h-25.6c-29.6,0-58.4-12-79.2-32.8l-3.2-3.2c-20.8-20.8-32.8-49.6-32.8-79.2v-4.8c0-22.4,6.4-44.8,19.2-63.2
	l101.6-149.6c2.4-4,8-4,12-1.6c0.8,0.8,0.8,0.8,1.6,1.6L476.1,313c12.8,18.4,19.2,40.8,19.2,63.2v4.8c0,29.6-12,58.4-32.8,79.2
	l-3.2,3.2C439.3,484.2,410.5,496.2,380.9,496.2z M368.1,182.6l-95.2,140c-11.2,16-16.8,34.4-16.8,54.4v4.8c0,25.6,10.4,49.6,28,68
	l3.2,3.2c17.6,18.4,42.4,28,68,28h25.6c25.6,0,49.6-10.4,68-28l3.2-3.2c18.4-17.6,28-42.4,28-68v-5.6c0-19.2-5.6-38.4-16.8-54.4
	L368.1,182.6z"/>
<path style="fill:#E37B40;" d="M424.1,368.2l-24,24l-32-112l-32,112l-24-24l-13.6,13.6c-12,12-18.4,28-18.4,45.6v3.2
	c0,13.6,4,26.4,12,36.8c18.4,13.6,40,21.6,63.2,21.6h25.6c23.2,0,44.8-8,63.2-21.6c8-10.4,12-24,12-36.8v-3.2
	c0-16.8-6.4-33.6-18.4-45.6L424.1,368.2z"/>
<path d="M380.9,496.2h-25.6c-24.8,0-48.8-8-68-23.2c-0.8-0.8-0.8-0.8-1.6-1.6c-8.8-12-13.6-26.4-13.6-41.6v-3.2
	c0-19.2,7.2-37.6,20.8-51.2l13.6-13.6c3.2-3.2,8-3.2,11.2,0l14.4,14.4l28-98.4c1.6-4,5.6-6.4,9.6-5.6c2.4,0.8,4.8,3.2,5.6,5.6
	l28,99.2l14.4-14.4c3.2-3.2,8-3.2,11.2,0l13.6,13.6c13.6,13.6,20.8,32,20.8,51.2v3.2c0,15.2-4.8,29.6-13.6,41.6
	c-0.8,0.8-0.8,1.6-1.6,1.6C429.7,488.2,405.7,496.2,380.9,496.2z M297.7,461c16.8,12.8,36.8,19.2,57.6,19.2h25.6
	c20.8,0,40.8-6.4,57.6-19.2c6.4-9.6,9.6-20,9.6-31.2v-3.2c0-15.2-5.6-28.8-16-39.2l-8-8l-18.4,18.4c-3.2,3.2-8,3.2-11.2,0
	c-0.8-0.8-1.6-2.4-2.4-3.2l-24-84.8l-24,84.8c-1.6,4-5.6,6.4-9.6,5.6c-1.6,0-2.4-0.8-3.2-2.4l-19.2-18.4l-8,8
	c-10.4,10.4-16.8,24.8-16,39.2v3.2C288.1,441,291.3,451.4,297.7,461z"/>
<circle style="fill:#BF412C;" cx="368.1" cy="432.2" r="24"/>
<path d="M368.1,464.2c-17.6,0-32-14.4-32-32s14.4-32,32-32s32,14.4,32,32S385.7,464.2,368.1,464.2z M368.1,416.2
	c-8.8,0-16,7.2-16,16s7.2,16,16,16s16-7.2,16-16S376.9,416.2,368.1,416.2z"/>
<g>
</g>
<g>
</g>
<g>
</g>
<g>
</g>
<g>
</g>
<g>
</g>
<g>
</g>
<g>
</g>
<g>
</g>
<g>
</g>
<g>
</g>
<g>
</g>
<g>
</g>
<g>
</g>
<g>
</g>
</svg>
