<?xml version="1.0" encoding="iso-8859-1"?>
<!-- Generator: Adobe Illustrator 19.0.0, SVG Export Plug-In . SVG Version: 6.00 Build 0)  -->
<svg version="1.1" id="Capa_1" xmlns="http://www.w3.org/2000/svg" xmlns:xlink="http://www.w3.org/1999/xlink" x="0px" y="0px"
	 viewBox="0 0 496 496" style="enable-background:new 0 0 496 496;" xml:space="preserve">
<path style="fill:#858486;" d="M96,440h112c13.6,0,24,10.4,24,24v24l0,0H72l0,0v-24C72,450.4,82.4,440,96,440z"/>
<path d="M232,496H72c-4.8,0-8-3.2-8-8v-24c0-17.6,14.4-32,32-32h112c17.6,0,32,14.4,32,32v24C240,492.8,236.8,496,232,496z M80,480
	h144v-16c0-8.8-7.2-16-16-16H96c-8.8,0-16,7.2-16,16V480z"/>
<polyline style="fill:#D94A56;" points="136,232 136,200 168,200 168,232 "/>
<path d="M176,232h-16v-24h-16v24h-16v-32c0-4.8,3.2-8,8-8h32c4.8,0,8,3.2,8,8V232z"/>
<polygon style="fill:#789DC3;" points="280,200 24,200 64,8 240,8 "/>
<path d="M280,208H24c-4.8,0-8-3.2-8-8c0-0.8,0-0.8,0-1.6l40-192c0.8-4,4-6.4,8-6.4h176c4,0,7.2,2.4,8,6.4l40,192
	c0.8,4-1.6,8.8-6.4,9.6C280.8,208,280.8,208,280,208z M33.6,192h236l-36-176H70.4L33.6,192z"/>
<ellipse style="fill:#F48827;" cx="152" cy="400" rx="56" ry="24"/>
<path d="M152,432c-32,0-64-11.2-64-32s32-32,64-32s64,11.2,64,32S184,432,152,432z M152,384c-29.6,0-48,10.4-48,16s18.4,16,48,16
	s48-10.4,48-16S181.6,384,152,384z"/>
<ellipse style="fill:#42A24F;" cx="160" cy="352" rx="48" ry="24"/>
<path d="M160,384c-32,0-56-13.6-56-32s24-32,56-32s56,13.6,56,32S192,384,160,384z M160,336c-24.8,0-40,9.6-40,16s15.2,16,40,16
	s40-9.6,40-16S184.8,336,160,336z"/>
<ellipse style="fill:#42A24F;" cx="152" cy="256" rx="40" ry="24"/>
<path d="M152,288c-27.2,0-48-14.4-48-32s20.8-32,48-32s48,14.4,48,32S179.2,288,152,288z M152,240c-18.4,0-32,8.8-32,16
	s13.6,16,32,16s32-8.8,32-16S170.4,240,152,240z"/>
<ellipse style="fill:#F48827;" cx="144" cy="304" rx="48" ry="24"/>
<path d="M144,336c-32,0-56-13.6-56-32s24-32,56-32s56,13.6,56,32S176,336,144,336z M144,288c-24.8,0-40,9.6-40,16s15.2,16,40,16
	s40-9.6,40-16S168.8,288,144,288z"/>
<polygon style="fill:#D3D2D6;" points="57.6,40 30.4,168 273.6,168 246.4,40 "/>
<path d="M273.6,176H30.4c-4.8,0-8-3.2-8-8c0-0.8,0-0.8,0-1.6l26.4-128c1.6-4,4.8-6.4,8.8-6.4h189.6c4,0,7.2,2.4,8,6.4l26.4,128
	c0.8,4-1.6,8.8-6.4,9.6C274.4,176,273.6,176,273.6,176z M40.8,160H264L240,48H64L40.8,160z"/>
<rect x="64" y="144" width="16" height="24"/>
<rect x="96" y="144" width="16" height="24"/>
<rect x="128" y="144" width="16" height="24"/>
<rect x="160" y="144" width="16" height="24"/>
<rect x="192" y="144" width="16" height="24"/>
<rect x="96" y="40" width="16" height="24"/>
<rect x="128" y="40" width="16" height="24"/>
<rect x="160" y="40" width="16" height="24"/>
<rect x="192" y="40" width="16" height="24"/>
<rect x="224" y="144" width="16" height="24"/>
<path style="fill:#789DC3;" d="M288,440h152l0,0v48l0,0H288c-13.6,0-24-10.4-24-24l0,0C264,450.4,274.4,440,288,440z"/>
<path d="M440,496H288c-17.6,0-32-14.4-32-32s14.4-32,32-32h152c4.8,0,8,3.2,8,8v48C448,492.8,444.8,496,440,496z M288,448
	c-8.8,0-16,7.2-16,16s7.2,16,16,16h144v-32H288z"/>
<rect x="288" y="440" width="16" height="48"/>
<path style="fill:#D94A56;" d="M320,392h152l0,0v48l0,0H320c-13.6,0-24-10.4-24-24l0,0C296,402.4,306.4,392,320,392z"/>
<path d="M472,448H320c-17.6,0-32-14.4-32-32s14.4-32,32-32h152c4.8,0,8,3.2,8,8v48C480,444.8,476.8,448,472,448z M320,400
	c-8.8,0-16,7.2-16,16s7.2,16,16,16h144v-32H320z"/>
<path style="fill:#789DC3;" d="M288,344h152l0,0v48l0,0H288c-13.6,0-24-10.4-24-24l0,0C264,354.4,274.4,344,288,344z"/>
<path d="M440,400H288c-17.6,0-32-14.4-32-32s14.4-32,32-32h152c4.8,0,8,3.2,8,8v48C448,396.8,444.8,400,440,400z M288,352
	c-8.8,0-16,7.2-16,16s7.2,16,16,16h144v-32H288z"/>
<path style="fill:#D94A56;" d="M320,296h152l0,0v48l0,0H320c-13.6,0-24-10.4-24-24l0,0C296,306.4,306.4,296,320,296z"/>
<path d="M472,352H320c-17.6,0-32-14.4-32-32s14.4-32,32-32h152c4.8,0,8,3.2,8,8v48C480,348.8,476.8,352,472,352z M320,304
	c-8.8,0-16,7.2-16,16s7.2,16,16,16h144v-32H320z"/>
<rect x="320" y="392" width="16" height="48"/>
<rect x="288" y="344" width="16" height="48"/>
<rect x="320" y="296" width="16" height="48"/>
<g>
</g>
<g>
</g>
<g>
</g>
<g>
</g>
<g>
</g>
<g>
</g>
<g>
</g>
<g>
</g>
<g>
</g>
<g>
</g>
<g>
</g>
<g>
</g>
<g>
</g>
<g>
</g>
<g>
</g>
</svg>
