<?xml version="1.0" encoding="iso-8859-1"?>
<!-- Generator: Adobe Illustrator 19.0.0, SVG Export Plug-In . SVG Version: 6.00 Build 0)  -->
<svg version="1.1" id="Capa_1" xmlns="http://www.w3.org/2000/svg" xmlns:xlink="http://www.w3.org/1999/xlink" x="0px" y="0px"
	 viewBox="0 0 496 496" style="enable-background:new 0 0 496 496;" xml:space="preserve">
<ellipse style="fill:#BFBD9F;" cx="248" cy="248" rx="72" ry="240"/>
<path d="M248,496c-52,0-80-128-80-248S196,0,248,0s80,128,80,248S300,496,248,496z M248,16c-30.4,0-64,95.2-64,232s33.6,232,64,232
	s64-95.2,64-232S278.4,16,248,16z"/>
<ellipse style="fill:#778C7A;" cx="248" cy="248" rx="40" ry="56"/>
<path d="M248,312c-26.4,0-48-28.8-48-64s21.6-64,48-64s48,28.8,48,64S274.4,312,248,312z M248,200c-17.6,0-32,21.6-32,48
	s14.4,48,32,48s32-21.6,32-48S265.6,200,248,200z"/>
<rect x="240" y="8" width="16" height="40"/>
<rect x="240" y="448" width="16" height="40"/>
<rect x="89.597" y="240" transform="matrix(-0.7071 0.7071 -0.7071 -0.7071 598.7167 248.0034)" width="316.797" height="16"/>
<path style="fill:#425955;" d="M388.8,139.2L432,96l-32-32l-43.2,43.2c-3.2,3.2-4.8,7.2-4.8,11.2v9.6c0,8.8,7.2,16,16,16h9.6
	C381.6,144,385.6,142.4,388.8,139.2z"/>
<path d="M377.6,152H368c-13.6,0-24-10.4-24-24v-9.6c0-6.4,2.4-12.8,7.2-16.8l43.2-43.2c3.2-3.2,8-3.2,11.2,0l32,32
	c3.2,3.2,3.2,8,0,11.2l-43.2,43.2C389.6,149.6,384,152,377.6,152z M400,75.2l-37.6,37.6c-1.6,1.6-2.4,3.2-2.4,5.6v9.6
	c0,4.8,3.2,8,8,8h9.6c2.4,0,4-0.8,5.6-2.4L420.8,96L400,75.2z"/>
<rect x="384.278" y="81.486" transform="matrix(-0.7071 0.7071 -0.7071 -0.7071 743.4019 -99.355)" width="16" height="45.6"/>
<path style="fill:#425955;" d="M107.2,356.8L64,400l32,32l43.2-43.2c3.2-3.2,4.8-7.2,4.8-11.2V368c0-8.8-7.2-16-16-16h-9.6
	C114.4,352,110.4,353.6,107.2,356.8z"/>
<path d="M96,440c-2.4,0-4-0.8-5.6-2.4l-32-32c-3.2-3.2-3.2-8,0-11.2l43.2-43.2c4.8-4.8,10.4-7.2,16.8-7.2h9.6c13.6,0,24,10.4,24,24
	v9.6c0,6.4-2.4,12.8-7.2,16.8l-43.2,43.2C100,439.2,98.4,440,96,440z M75.2,400L96,420.8l37.6-37.6c1.6-1.6,2.4-3.2,2.4-5.6V368
	c0-4.8-3.2-8-8-8h-9.6c-2.4,0-4,0.8-5.6,2.4L75.2,400z"/>
<rect x="96.318" y="369.48" transform="matrix(-0.7071 0.7071 -0.7071 -0.7071 455.4656 595.8993)" width="16" height="45.6"/>
<rect x="239.995" y="89.602" transform="matrix(-0.7071 0.7071 -0.7071 -0.7071 598.7167 248.0034)" width="16" height="316.797"/>
<path style="fill:#425955;" d="M139.2,107.2L96,64L64,96l43.2,43.2c3.2,3.2,7.2,4.8,11.2,4.8h9.6c8.8,0,16-7.2,16-16v-9.6
	C144,114.4,142.4,110.4,139.2,107.2z"/>
<path d="M128,152h-9.6c-6.4,0-12.8-2.4-16.8-7.2l-43.2-43.2c-3.2-3.2-3.2-8,0-11.2l32-32c3.2-3.2,8-3.2,11.2,0l43.2,43.2
	c4.8,4.8,7.2,10.4,7.2,16.8v9.6C152,141.6,141.6,152,128,152z M75.2,96l37.6,37.6c1.6,1.6,3.2,2.4,5.6,2.4h9.6c4.8,0,8-3.2,8-8v-9.6
	c0-2.4-0.8-4-2.4-5.6L96,75.2L75.2,96z"/>
<rect x="81.481" y="95.717" transform="matrix(-0.7071 0.7071 -0.7071 -0.7071 251.3583 103.3183)" width="45.6" height="16"/>
<path style="fill:#425955;" d="M356.8,388.8L400,432l32-32l-43.2-43.2c-3.2-3.2-7.2-4.8-11.2-4.8H368c-8.8,0-16,7.2-16,16v9.6
	C352,381.6,353.6,385.6,356.8,388.8z"/>
<path d="M400,440c-2.4,0-4-0.8-5.6-2.4l-43.2-43.2c-4.8-4.8-7.2-10.4-7.2-16.8V368c0-13.6,10.4-24,24-24h9.6
	c6.4,0,12.8,2.4,16.8,7.2l43.2,43.2c3.2,3.2,3.2,8,0,11.2l-32,32C404,439.2,402.4,440,400,440z M368,360c-4.8,0-8,3.2-8,8v9.6
	c0,2.4,0.8,4,2.4,5.6l37.6,37.6l20.8-20.8l-37.6-37.6c-1.6-1.6-3.2-2.4-5.6-2.4L368,360L368,360z"/>
<rect x="369.483" y="383.717" transform="matrix(-0.7071 0.7071 -0.7071 -0.7071 946.6545 391.3172)" width="45.6" height="16"/>
<path d="M32,296H16v-9.6c0-2.4-0.8-4-2.4-5.6l-6.4-6.4C2.4,269.6,0,264,0,257.6v-2.4c0-6.4,2.4-12.8,7.2-16.8l6.4-6.4
	c1.6-2.4,2.4-4.8,2.4-6.4v-2.4c0-2.4-0.8-4-2.4-5.6l-6.4-6.4C2.4,205.6,0,200,0,193.6v-2.4c0-6.4,2.4-12.8,7.2-16.8l11.2-11.2
	l11.2,11.2l-11.2,11.2c-1.6,0.8-2.4,3.2-2.4,4.8v2.4c0,2.4,0.8,4,2.4,5.6l6.4,6.4c4.8,5.6,7.2,11.2,7.2,17.6v2.4
	c0,6.4-2.4,12.8-7.2,16.8l-6.4,6.4c-1.6,2.4-2.4,4.8-2.4,6.4v2.4c0,2.4,0.8,4,2.4,5.6l6.4,6.4c4.8,5.6,7.2,11.2,7.2,17.6V296z"/>
<path d="M80,328H64v-9.6c0-2.4-0.8-4-2.4-5.6l-6.4-6.4c-4.8-4.8-7.2-10.4-7.2-16.8v-2.4c0-6.4,2.4-12.8,7.2-16.8l6.4-6.4
	c1.6-2.4,2.4-4.8,2.4-6.4v-2.4c0-2.4-0.8-4-2.4-5.6l-6.4-6.4c-4.8-5.6-7.2-11.2-7.2-17.6v-2.4c0-6.4,2.4-12.8,7.2-16.8l11.2-11.2
	l11.2,11.2l-11.2,11.2c-1.6,0.8-2.4,3.2-2.4,4.8v2.4c0,2.4,0.8,4,2.4,5.6l6.4,6.4c4.8,4.8,7.2,10.4,7.2,16.8v2.4
	c0,6.4-2.4,12.8-7.2,16.8l-6.4,6.4c-1.6,3.2-2.4,5.6-2.4,7.2v2.4c0,2.4,0.8,4,2.4,5.6l6.4,6.4c4.8,4.8,7.2,10.4,7.2,16.8V328z"/>
<path d="M448,296h-16v-9.6c0-2.4-0.8-4-2.4-5.6l-6.4-6.4c-4.8-4.8-7.2-10.4-7.2-16.8v-2.4c0-6.4,2.4-12.8,7.2-16.8l6.4-6.4
	c1.6-1.6,2.4-3.2,2.4-5.6V224c0-2.4-0.8-4-2.4-5.6l-6.4-6.4c-4.8-6.4-7.2-12-7.2-18.4v-2.4c0-6.4,2.4-12.8,7.2-16.8l11.2-11.2
	l11.2,11.2l-11.2,11.2c-1.6,1.6-2.4,3.2-2.4,5.6v2.4c0,2.4,0.8,4,2.4,5.6l6.4,6.4c4.8,4.8,7.2,10.4,7.2,16.8v2.4
	c0,6.4-2.4,12.8-7.2,16.8l-6.4,6.4c-1.6,1.6-2.4,3.2-2.4,5.6v2.4c0,2.4,0.8,4,2.4,5.6l6.4,6.4c4.8,4.8,7.2,10.4,7.2,16.8L448,296
	L448,296z"/>
<path d="M496,328h-16v-9.6c0-2.4-0.8-4-2.4-5.6l-6.4-6.4c-4.8-4.8-7.2-10.4-7.2-16.8v-2.4c0-6.4,2.4-12.8,7.2-16.8l6.4-6.4
	c1.6-1.6,2.4-3.2,2.4-5.6V256c0-2.4-0.8-4-2.4-5.6l-6.4-6.4c-4.8-6.4-7.2-12-7.2-18.4v-2.4c0-6.4,2.4-12.8,7.2-16.8l11.2-11.2
	l11.2,11.2l-11.2,11.2c-1.6,1.6-2.4,3.2-2.4,5.6v2.4c0,2.4,0.8,4,2.4,5.6l6.4,6.4c4.8,4.8,7.2,10.4,7.2,16.8v2.4
	c0,6.4-2.4,12.8-7.2,16.8l-6.4,6.4c-1.6,1.6-2.4,3.2-2.4,5.6v2.4c0,2.4,0.8,4,2.4,5.6l6.4,6.4c4.8,4.8,7.2,10.4,7.2,16.8L496,328
	L496,328z"/>
<g>
</g>
<g>
</g>
<g>
</g>
<g>
</g>
<g>
</g>
<g>
</g>
<g>
</g>
<g>
</g>
<g>
</g>
<g>
</g>
<g>
</g>
<g>
</g>
<g>
</g>
<g>
</g>
<g>
</g>
</svg>
