<?xml version="1.0" encoding="iso-8859-1"?>
<!-- Generator: Adobe Illustrator 19.0.0, SVG Export Plug-In . SVG Version: 6.00 Build 0)  -->
<svg version="1.1" id="Capa_1" xmlns="http://www.w3.org/2000/svg" xmlns:xlink="http://www.w3.org/1999/xlink" x="0px" y="0px"
	 viewBox="0 0 496 496" style="enable-background:new 0 0 496 496;" xml:space="preserve">
<polygon style="fill:#789DC3;" points="216,360 488,360 488,64 432,8 216,8 "/>
<rect x="240" y="32" style="fill:#FFFFFF;" width="224" height="304"/>
<rect x="8" y="120" style="fill:#42A24F;" width="288" height="368"/>
<path d="M296,496H8c-4.8,0-8-3.2-8-8V120c0-4.8,3.2-8,8-8h288c4.8,0,8,3.2,8,8v368C304,492.8,300.8,496,296,496z M16,480h272V128H16
	V480z"/>
<rect x="40" y="152" style="fill:#FFFFFF;" width="224" height="48"/>
<path d="M264,208H40c-4.8,0-8-3.2-8-8v-48c0-4.8,3.2-8,8-8h224c4.8,0,8,3.2,8,8v48C272,204.8,268.8,208,264,208z M48,192h208v-32H48
	V192z"/>
<rect x="40" y="232" style="fill:#D3D2D6;" width="32" height="32"/>
<path d="M72,272H40c-4.8,0-8-3.2-8-8v-32c0-4.8,3.2-8,8-8h32c4.8,0,8,3.2,8,8v32C80,268.8,76.8,272,72,272z M48,256h16v-16H48V256z"
	/>
<rect x="104" y="232" style="fill:#D3D2D6;" width="32" height="32"/>
<path d="M136,272h-32c-4.8,0-8-3.2-8-8v-32c0-4.8,3.2-8,8-8h32c4.8,0,8,3.2,8,8v32C144,268.8,140.8,272,136,272z M112,256h16v-16
	h-16V256z"/>
<rect x="40" y="296" style="fill:#D3D2D6;" width="32" height="32"/>
<path d="M72,336H40c-4.8,0-8-3.2-8-8v-32c0-4.8,3.2-8,8-8h32c4.8,0,8,3.2,8,8v32C80,332.8,76.8,336,72,336z M48,320h16v-16H48V320z"
	/>
<rect x="104" y="296" style="fill:#D3D2D6;" width="32" height="32"/>
<path d="M136,336h-32c-4.8,0-8-3.2-8-8v-32c0-4.8,3.2-8,8-8h32c4.8,0,8,3.2,8,8v32C144,332.8,140.8,336,136,336z M112,320h16v-16
	h-16V320z"/>
<rect x="168" y="296" style="fill:#D3D2D6;" width="32" height="32"/>
<path d="M200,336h-32c-4.8,0-8-3.2-8-8v-32c0-4.8,3.2-8,8-8h32c4.8,0,8,3.2,8,8v32C208,332.8,204.8,336,200,336z M176,320h16v-16
	h-16V320z"/>
<rect x="232" y="296" style="fill:#D3D2D6;" width="32" height="32"/>
<path d="M264,336h-32c-4.8,0-8-3.2-8-8v-32c0-4.8,3.2-8,8-8h32c4.8,0,8,3.2,8,8v32C272,332.8,268.8,336,264,336z M240,320h16v-16
	h-16V320z"/>
<rect x="40" y="360" style="fill:#D3D2D6;" width="32" height="32"/>
<path d="M72,400H40c-4.8,0-8-3.2-8-8v-32c0-4.8,3.2-8,8-8h32c4.8,0,8,3.2,8,8v32C80,396.8,76.8,400,72,400z M48,384h16v-16H48V384z"
	/>
<rect x="104" y="360" style="fill:#D3D2D6;" width="32" height="32"/>
<path d="M136,400h-32c-4.8,0-8-3.2-8-8v-32c0-4.8,3.2-8,8-8h32c4.8,0,8,3.2,8,8v32C144,396.8,140.8,400,136,400z M112,384h16v-16
	h-16V384z"/>
<rect x="40" y="424" style="fill:#FFFFFF;" width="96" height="32"/>
<path d="M136,464H40c-4.8,0-8-3.2-8-8v-32c0-4.8,3.2-8,8-8h96c4.8,0,8,3.2,8,8v32C144,460.8,140.8,464,136,464z M48,448h80v-16H48
	V448z"/>
<rect x="168" y="360" style="fill:#D3D2D6;" width="32" height="32"/>
<path d="M200,400h-32c-4.8,0-8-3.2-8-8v-32c0-4.8,3.2-8,8-8h32c4.8,0,8,3.2,8,8v32C208,396.8,204.8,400,200,400z M176,384h16v-16
	h-16V384z"/>
<rect x="232" y="360" style="fill:#FFFFFF;" width="32" height="96"/>
<path d="M264,464h-32c-4.8,0-8-3.2-8-8v-96c0-4.8,3.2-8,8-8h32c4.8,0,8,3.2,8,8v96C272,460.8,268.8,464,264,464z M240,448h16v-80
	h-16V448z"/>
<rect x="168" y="424" style="fill:#D3D2D6;" width="32" height="32"/>
<path d="M200,464h-32c-4.8,0-8-3.2-8-8v-32c0-4.8,3.2-8,8-8h32c4.8,0,8,3.2,8,8v32C208,460.8,204.8,464,200,464z M176,448h16v-16
	h-16V448z"/>
<rect x="168" y="232" style="fill:#FFFFFF;" width="96" height="32"/>
<path d="M264,272h-96c-4.8,0-8-3.2-8-8v-32c0-4.8,3.2-8,8-8h96c4.8,0,8,3.2,8,8v32C272,268.8,268.8,272,264,272z M176,256h80v-16
	h-80V256z"/>
<rect x="328" y="392" style="fill:#F48827;" width="48" height="96"/>
<path d="M376,496h-48c-4.8,0-8-3.2-8-8v-96c0-4.8,3.2-8,8-8h48c4.8,0,8,3.2,8,8v96C384,492.8,380.8,496,376,496z M336,480h32v-80
	h-32V480z"/>
<rect x="408" y="312" style="fill:#D94A56;" width="48" height="176"/>
<path d="M456,496h-48c-4.8,0-8-3.2-8-8V312c0-4.8,3.2-8,8-8h48c4.8,0,8,3.2,8,8v176C464,492.8,460.8,496,456,496z M416,480h32V320
	h-32V480z"/>
<rect x="287.877" y="315.718" transform="matrix(-0.7071 0.7071 -0.7071 -0.7071 768.8208 328.9799)" width="56.799" height="16"/>
<path d="M357.6,293.6l-11.2-11.2l32-32c3.2-3.2,8-3.2,11.2,0l18.4,18.4l42.4-42.4l11.2,11.2l-48,48c-3.2,3.2-8,3.2-11.2,0L384,267.2
	L357.6,293.6z"/>
<rect x="328" y="448" width="48" height="16"/>
<rect x="408" y="448" width="48" height="16"/>
<path d="M464,272h-16v-32h-32v-16h40c4.8,0,8,3.2,8,8V272z"/>
<circle style="fill:#D94A56;" cx="344" cy="296" r="16"/>
<path d="M344,320c-13.6,0-24-10.4-24-24s10.4-24,24-24s24,10.4,24,24S357.6,320,344,320z M344,288c-4.8,0-8,3.2-8,8s3.2,8,8,8
	s8-3.2,8-8S348.8,288,344,288z"/>
<path d="M488,368h-32v-16h24V67.2L428.8,16H224v104h-16V8c0-4.8,3.2-8,8-8h216c2.4,0,4,0.8,5.6,2.4l56,56c1.6,1.6,2.4,3.2,2.4,5.6
	v296C496,364.8,492.8,368,488,368z"/>
<rect x="296" y="352" width="112" height="16"/>
<polygon style="fill:#46709C;" points="432,8 432,64 488,64 "/>
<path d="M488,72h-56c-4.8,0-8-3.2-8-8V8c0-4.8,3.2-8,8-8c2.4,0,4,0.8,5.6,2.4l56,56c3.2,3.2,3.2,8,0,11.2C492,71.2,490.4,72,488,72z
	 M440,56h28.8L440,27.2V56z"/>
<rect x="240" y="32" width="64" height="16"/>
<rect x="240" y="64" width="168" height="16"/>
<rect x="320" y="112" width="144" height="16"/>
<rect x="320" y="144" width="64" height="16"/>
<rect x="320" y="176" width="144" height="16"/>
<rect x="320" y="208" width="64" height="16"/>
<g>
</g>
<g>
</g>
<g>
</g>
<g>
</g>
<g>
</g>
<g>
</g>
<g>
</g>
<g>
</g>
<g>
</g>
<g>
</g>
<g>
</g>
<g>
</g>
<g>
</g>
<g>
</g>
<g>
</g>
</svg>
