<?xml version="1.0" encoding="iso-8859-1"?>
<!-- Generator: Adobe Illustrator 19.0.0, SVG Export Plug-In . SVG Version: 6.00 Build 0)  -->
<svg version="1.1" id="Capa_1" xmlns="http://www.w3.org/2000/svg" xmlns:xlink="http://www.w3.org/1999/xlink" x="0px" y="0px"
	 viewBox="0 0 496 496" style="enable-background:new 0 0 496 496;" xml:space="preserve">
<polyline style="fill:#6B5936;" points="264,136 296,136 296,56 264,56 "/>
<path d="M296,144h-32v-16h24V64h-24V48h32c4.8,0,8,3.2,8,8v80C304,140.8,300.8,144,296,144z"/>
<polyline style="fill:#6B5936;" points="312,136 312,168 360,168 360,136 "/>
<path d="M360,176h-48c-4.8,0-8-3.2-8-8v-32h16v24h32v-24h16v32C368,172.8,364.8,176,360,176z"/>
<rect x="296" y="56" style="fill:#A88C55;" width="80" height="80"/>
<path d="M376,144h-80c-4.8,0-8-3.2-8-8V56c0-4.8,3.2-8,8-8h80c4.8,0,8,3.2,8,8v80C384,140.8,380.8,144,376,144z M304,128h64V64h-64
	V128z"/>
<path style="fill:#A88C55;" d="M376,488v-22.4c0-6.4-2.4-12.8-7.2-16.8l-1.6-1.6c-4.8-4.8-7.2-10.4-7.2-16.8V249.6
	c0-6.4,2.4-12.8,7.2-16.8l1.6-1.6c4.8-4.8,7.2-10.4,7.2-16.8V168h-80v320H376z"/>
<path d="M376,496h-80c-4.8,0-8-3.2-8-8V168c0-4.8,3.2-8,8-8h80c4.8,0,8,3.2,8,8v46.4c0,8.8-3.2,16.8-9.6,22.4l-1.6,1.6
	c-3.2,3.2-4.8,7.2-4.8,11.2v180c0,4,1.6,8,4.8,11.2l1.6,1.6c5.6,6.4,9.6,14.4,9.6,22.4V488C384,492.8,380.8,496,376,496z M304,480
	h64v-14.4c0-4-1.6-8-4.8-11.2l-1.6-1.6c-5.6-6.4-9.6-14.4-9.6-22.4V249.6c0-8.8,3.2-16.8,9.6-22.4l1.6-1.6c3.2-3.2,4.8-7.2,4.8-11.2
	V176h-64V480z"/>
<rect x="296" y="192" width="80" height="16"/>
<rect x="296" y="80" width="80" height="16"/>
<polygon style="fill:#A4A5A6;" points="120,184 264,152 264,40 120,8 "/>
<path d="M120,192c-4.8,0-8-3.2-8-8V8c0-4.8,3.2-8,8-8c0.8,0,0.8,0,1.6,0l144,32c4,0.8,6.4,4,6.4,8v112c0,4-2.4,7.2-6.4,8l-144,32
	C120.8,192,120.8,192,120,192z M128,17.6v156l128-28.8V46.4L128,17.6z"/>
<rect x="296" y="448" width="80" height="16"/>
<polyline style="fill:#7D828C;" points="152,16 120,8 120,184 152,176 152,16 264,40 264,72 152,48 "/>
<path d="M120,192c-4.8,0-8-3.2-8-8V8c0-4.8,3.2-8,8-8c0.8,0,1.6,0,1.6,0l32,8l112,24c4,0.8,6.4,4,6.4,8v32c0,2.4-0.8,4.8-3.2,6.4
	c-1.6,1.6-4,1.6-6.4,1.6L160,57.6V176c0,4-2.4,7.2-6.4,8l-32,8C121.6,192,120.8,192,120,192z M128,18.4v155.2l16-4V22.4L128,18.4z
	 M160,41.6l96,20.8v-16l-96-20.8V41.6z"/>
<g>
</g>
<g>
</g>
<g>
</g>
<g>
</g>
<g>
</g>
<g>
</g>
<g>
</g>
<g>
</g>
<g>
</g>
<g>
</g>
<g>
</g>
<g>
</g>
<g>
</g>
<g>
</g>
<g>
</g>
</svg>
