<?xml version="1.0" encoding="iso-8859-1"?>
<!-- Generator: Adobe Illustrator 19.0.0, SVG Export Plug-In . SVG Version: 6.00 Build 0)  -->
<svg version="1.1" id="Capa_1" xmlns="http://www.w3.org/2000/svg" xmlns:xlink="http://www.w3.org/1999/xlink" x="0px" y="0px"
	 viewBox="0 0 496 496" style="enable-background:new 0 0 496 496;" xml:space="preserve">
<path style="fill:#778C7A;" d="M360,344v-24h-32v24h-32v96c0,26.4,21.6,48,48,48l0,0c26.4,0,48-21.6,48-48v-96H360z"/>
<path d="M344,496c-31.2,0-56-24.8-56-56v-96c0-4.8,3.2-8,8-8h24v-16c0-4.8,3.2-8,8-8h32c4.8,0,8,3.2,8,8v16h24c4.8,0,8,3.2,8,8v96
	C400,471.2,375.2,496,344,496z M304,352v88c0,22.4,17.6,40,40,40s40-17.6,40-40v-88h-24c-4.8,0-8-3.2-8-8v-16h-16v16
	c0,4.8-3.2,8-8,8H304z"/>
<path style="fill:#778C7A;" d="M200,336h48c8.8,0,16,7.2,16,16v96l-40,40h-80l-40-40v-96c0-8.8,7.2-16,16-16h48v-16h32V336z"/>
<path d="M224,496h-80c-2.4,0-4-0.8-5.6-2.4l-40-40c-1.6-1.6-2.4-3.2-2.4-5.6v-96c0-13.6,10.4-24,24-24h40v-8c0-4.8,3.2-8,8-8h32
	c4.8,0,8,3.2,8,8v8h40c13.6,0,24,10.4,24,24v96c0,2.4-0.8,4-2.4,5.6l-40,40C228,495.2,226.4,496,224,496z M147.2,480h73.6l35.2-35.2
	V352c0-4.8-3.2-8-8-8h-48c-4.8,0-8-3.2-8-8v-8h-16v8c0,4.8-3.2,8-8,8h-48c-4.8,0-8,3.2-8,8v92.8L147.2,480z"/>
<path d="M264,376h-64c-4.8,0-8-3.2-8-8V104c0-3.2,1.6-5.6,4-7.2l36-21.6V16h-96v59.2l36,21.6c2.4,1.6,4,4,4,7.2v264c0,4.8-3.2,8-8,8
	h-64v-16h56V108.8l-36-21.6c-2.4-1.6-4-4-4-7.2V8c0-4.8,3.2-8,8-8h112c4.8,0,8,3.2,8,8v72c0,3.2-1.6,5.6-4,7.2l-36,21.6V360h56V376z
	"/>
<polygon style="fill:#BFBD9F;" points="200,320 200,104 240,80 240,8 128,8 128,80 168,104 168,320 "/>
<path d="M200,328h-32c-4.8,0-8-3.2-8-8V108.8l-36-21.6c-2.4-1.6-4-4-4-7.2V8c0-4.8,3.2-8,8-8h112c4.8,0,8,3.2,8,8v72
	c0,3.2-1.6,5.6-4,7.2l-36,21.6V320C208,324.8,204.8,328,200,328z M176,312h16V104c0-3.2,1.6-5.6,4-7.2l36-21.6V16h-96v59.2l36,21.6
	c2.4,1.6,4,4,4,7.2V312z"/>
<path d="M192,88h-16c-1.6,0-3.2-0.8-4.8-1.6l-24-16c-1.6-1.6-3.2-4-3.2-6.4V32c0-4.8,3.2-8,8-8h64c4.8,0,8,3.2,8,8v32
	c0,2.4-1.6,4.8-3.2,6.4l-24,16C195.2,87.2,193.6,88,192,88z M178.4,72h11.2L208,60V40h-48v20L178.4,72z"/>
<rect x="136" y="448" width="16" height="40"/>
<rect x="216" y="448" width="16" height="40"/>
<path d="M368,368h-16V112h-16v256h-16V104c0-4.8,3.2-8,8-8h32c4.8,0,8,3.2,8,8V368z"/>
<rect x="328" y="104" style="fill:#BFBD9F;" width="32" height="216"/>
<path d="M360,328h-32c-4.8,0-8-3.2-8-8V104c0-4.8,3.2-8,8-8h32c4.8,0,8,3.2,8,8v216C368,324.8,364.8,328,360,328z M336,312h16V112
	h-16V312z"/>
<rect x="312" y="8" style="fill:#BFBD9F;" width="64" height="96"/>
<path d="M376,112h-64c-4.8,0-8-3.2-8-8V8c0-4.8,3.2-8,8-8h64c4.8,0,8,3.2,8,8v96C384,108.8,380.8,112,376,112z M320,96h48V16h-48V96
	z"/>
<rect x="296" y="432" width="96" height="16"/>
<rect x="312" y="32" width="64" height="16"/>
<g>
</g>
<g>
</g>
<g>
</g>
<g>
</g>
<g>
</g>
<g>
</g>
<g>
</g>
<g>
</g>
<g>
</g>
<g>
</g>
<g>
</g>
<g>
</g>
<g>
</g>
<g>
</g>
<g>
</g>
</svg>
