<?xml version="1.0" encoding="iso-8859-1"?>
<!-- Generator: Adobe Illustrator 19.0.0, SVG Export Plug-In . SVG Version: 6.00 Build 0)  -->
<svg version="1.1" id="Capa_1" xmlns="http://www.w3.org/2000/svg" xmlns:xlink="http://www.w3.org/1999/xlink" x="0px" y="0px"
	 viewBox="0 0 496 496" style="enable-background:new 0 0 496 496;" xml:space="preserve">
<path style="fill:#C7B299;" d="M88,8L88,8c17.6,0,32,14.4,32,32v16c0,17.6-14.4,32-32,32l0,0c-17.6,0-32-14.4-32-32V40
	C56,22.4,70.4,8,88,8z"/>
<path d="M88,96c-22.4,0-40-17.6-40-40V40C48,17.6,65.6,0,88,0s40,17.6,40,40v16C128,78.4,110.4,96,88,96z M88,16
	c-13.6,0-24,10.4-24,24v16c0,13.6,10.4,24,24,24s24-10.4,24-24V40C112,26.4,101.6,16,88,16z"/>
<polyline style="fill:#3E606F;" points="136,264 136,488 104,488 104,320 72,320 72,488 40,488 40,264 "/>
<path d="M136,496h-32c-4.8,0-8-3.2-8-8V328H80v160c0,4.8-3.2,8-8,8H40c-4.8,0-8-3.2-8-8V264h16v216h16V320c0-4.8,3.2-8,8-8h32
	c4.8,0,8,3.2,8,8v160h16V264h16v224C144,492.8,140.8,496,136,496z"/>
<path style="fill:#C7B299;" d="M408,8L408,8c17.6,0,32,14.4,32,32v16c0,17.6-14.4,32-32,32l0,0c-17.6,0-32-14.4-32-32V40
	C376,22.4,390.4,8,408,8z"/>
<path d="M408,96c-22.4,0-40-17.6-40-40V40c0-22.4,17.6-40,40-40s40,17.6,40,40v16C448,78.4,430.4,96,408,96z M408,16
	c-13.6,0-24,10.4-24,24v16c0,13.6,10.4,24,24,24s24-10.4,24-24V40C432,26.4,421.6,16,408,16z"/>
<path style="fill:#91AAB4;" d="M456,328h-96v-48h-32V160c0-22.4,17.6-40,40-40h80c22.4,0,40,17.6,40,40v120h-32V328z"/>
<path d="M456,336h-96c-4.8,0-8-3.2-8-8v-40h-24c-4.8,0-8-3.2-8-8V160c0-26.4,21.6-48,48-48h80c26.4,0,48,21.6,48,48v120
	c0,4.8-3.2,8-8,8h-24v40C464,332.8,460.8,336,456,336z M368,320h80v-40c0-4.8,3.2-8,8-8h24V160c0-17.6-14.4-32-32-32h-80
	c-17.6,0-32,14.4-32,32v112h24c4.8,0,8,3.2,8,8V320z"/>
<polyline style="fill:#998675;" points="360,360 360,488 392,488 392,360 "/>
<path d="M392,496h-32c-4.8,0-8-3.2-8-8V360h16v120h16V360h16v128C400,492.8,396.8,496,392,496z"/>
<polyline style="fill:#998675;" points="424,360 424,488 456,488 456,360 "/>
<path d="M456,496h-32c-4.8,0-8-3.2-8-8V360h16v120h16V360h16v128C464,492.8,460.8,496,456,496z"/>
<path style="fill:#C7B299;" d="M248,216L248,216c13.6,0,24,10.4,24,24v16c0,13.6-10.4,24-24,24l0,0c-13.6,0-24-10.4-24-24v-16
	C224,226.4,234.4,216,248,216z"/>
<path d="M248,288c-17.6,0-32-14.4-32-32v-16c0-17.6,14.4-32,32-32s32,14.4,32,32v16C280,273.6,265.6,288,248,288z M248,224
	c-8.8,0-16,7.2-16,16v16c0,8.8,7.2,16,16,16c8.8,0,16-7.2,16-16v-16C264,231.2,256.8,224,248,224z"/>
<path style="fill:#91AAB4;" d="M280,392h32v-56c0-13.6-10.4-24-24-24h-80c-13.6,0-24,10.4-24,24v56h32v64h64V392z"/>
<path d="M280,464h-64c-4.8,0-8-3.2-8-8v-56h-24c-4.8,0-8-3.2-8-8v-56c0-17.6,14.4-32,32-32h80c17.6,0,32,14.4,32,32v56
	c0,4.8-3.2,8-8,8h-24v56C288,460.8,284.8,464,280,464z M224,448h48v-56c0-4.8,3.2-8,8-8h24v-48c0-8.8-7.2-16-16-16h-80
	c-8.8,0-16,7.2-16,16v48h24c4.8,0,8,3.2,8,8V448z"/>
<rect x="248" y="480" width="32" height="16"/>
<rect x="216" y="448" width="64" height="16"/>
<path d="M248,496h-32v-16h24v-72h16v80C256,492.8,252.8,496,248,496z"/>
<path style="fill:#91AAB4;" d="M136,264H40v16H8V160c0-22.4,17.6-40,40-40h80c22.4,0,40,17.6,40,40v120h-32V264z"/>
<path d="M168,288h-32c-4.8,0-8-3.2-8-8v-8H48v8c0,4.8-3.2,8-8,8H8c-4.8,0-8-3.2-8-8V160c0-26.4,21.6-48,48-48h80
	c26.4,0,48,21.6,48,48v120C176,284.8,172.8,288,168,288z M144,272h16V160c0-17.6-14.4-32-32-32H48c-17.6,0-32,14.4-32,32v112h16v-8
	c0-4.8,3.2-8,8-8h96c4.8,0,8,3.2,8,8V272z"/>
<rect x="40" y="456" style="fill:#C7B299;" width="32" height="32"/>
<path d="M72,496H40c-4.8,0-8-3.2-8-8v-32c0-4.8,3.2-8,8-8h32c4.8,0,8,3.2,8,8v32C80,492.8,76.8,496,72,496z M48,480h16v-16H48V480z"
	/>
<rect x="8" y="248" style="fill:#C7B299;" width="32" height="32"/>
<path d="M40,288H8c-4.8,0-8-3.2-8-8v-32c0-4.8,3.2-8,8-8h32c4.8,0,8,3.2,8,8v32C48,284.8,44.8,288,40,288z M16,272h16v-16H16V272z"
	/>
<rect x="136" y="248" style="fill:#C7B299;" width="32" height="32"/>
<path d="M168,288h-32c-4.8,0-8-3.2-8-8v-32c0-4.8,3.2-8,8-8h32c4.8,0,8,3.2,8,8v32C176,284.8,172.8,288,168,288z M144,272h16v-16
	h-16V272z"/>
<rect x="328" y="248" style="fill:#C7B299;" width="32" height="32"/>
<path d="M360,288h-32c-4.8,0-8-3.2-8-8v-32c0-4.8,3.2-8,8-8h32c4.8,0,8,3.2,8,8v32C368,284.8,364.8,288,360,288z M336,272h16v-16
	h-16V272z"/>
<rect x="456" y="248" style="fill:#C7B299;" width="32" height="32"/>
<path d="M488,288h-32c-4.8,0-8-3.2-8-8v-32c0-4.8,3.2-8,8-8h32c4.8,0,8,3.2,8,8v32C496,284.8,492.8,288,488,288z M464,272h16v-16
	h-16V272z"/>
<rect x="104" y="456" style="fill:#C7B299;" width="32" height="32"/>
<path d="M136,496h-32c-4.8,0-8-3.2-8-8v-32c0-4.8,3.2-8,8-8h32c4.8,0,8,3.2,8,8v32C144,492.8,140.8,496,136,496z M112,480h16v-16
	h-16V480z"/>
<rect x="216" y="456" style="fill:#C7B299;" width="32" height="32"/>
<path d="M248,496h-32c-4.8,0-8-3.2-8-8v-32c0-4.8,3.2-8,8-8h32c4.8,0,8,3.2,8,8v32C256,492.8,252.8,496,248,496z M224,480h16v-16
	h-16V480z"/>
<rect x="248" y="456" style="fill:#998675;" width="32" height="32"/>
<path d="M280,496h-32c-4.8,0-8-3.2-8-8v-32c0-4.8,3.2-8,8-8h32c4.8,0,8,3.2,8,8v32C288,492.8,284.8,496,280,496z M256,480h16v-16
	h-16V480z"/>
<rect x="360" y="456" style="fill:#C7B299;" width="32" height="32"/>
<path d="M392,496h-32c-4.8,0-8-3.2-8-8v-32c0-4.8,3.2-8,8-8h32c4.8,0,8,3.2,8,8v32C400,492.8,396.8,496,392,496z M368,480h16v-16
	h-16V480z"/>
<rect x="424" y="456" style="fill:#C7B299;" width="32" height="32"/>
<path d="M456,496h-32c-4.8,0-8-3.2-8-8v-32c0-4.8,3.2-8,8-8h32c4.8,0,8,3.2,8,8v32C464,492.8,460.8,496,456,496z M432,480h16v-16
	h-16V480z"/>
<path style="fill:#BF412C;" d="M312,41.6V40c0-17.6-14.4-32-32-32h-2.4c-8.8,0-16.8,3.2-22.4,9.6L248,24l-6.4-6.4
	c-6.4-6.4-14.4-9.6-23.2-9.6H216c-17.6,0-32,14.4-32,32v1.6c0,9.6,4,18.4,11.2,24L248,120l52.8-54.4C308,59.2,312,50.4,312,41.6z"/>
<path d="M248,128c-2.4,0-4-0.8-5.6-2.4l-52.8-54.4C180.8,64,176,52.8,176,41.6V40c0-22.4,17.6-40,40-40h2.4c10.4,0,20.8,4,28,12
	l1.6,0.8l0.8-0.8c8-8,17.6-12,28.8-12h2.4c22.4,0,40,17.6,40,40v1.6c0,11.2-4.8,22.4-13.6,30.4l-52.8,54.4
	C252,127.2,250.4,128,248,128z M216,16c-13.6,0-24,10.4-24,24v1.6c0,7.2,3.2,13.6,8,18.4l48,48.8L295.2,60
	c5.6-4.8,8.8-11.2,8.8-18.4V40c0-13.6-10.4-24-24-24h-2.4c-6.4,0-12.8,2.4-16.8,7.2l-6.4,6.4c-3.2,3.2-8,3.2-11.2,0l-6.4-6.4
	c-5.6-4.8-12-7.2-18.4-7.2H216z"/>
<rect x="128" y="176" width="16" height="88"/>
<rect x="32" y="176" width="16" height="88"/>
<rect x="352" y="176" width="16" height="104"/>
<rect x="448" y="176" width="16" height="104"/>
<rect x="208" y="344" width="16" height="48"/>
<rect x="272" y="344" width="16" height="48"/>
<rect x="360" y="328" style="fill:#3E606F;" width="96" height="32"/>
<path d="M456,368h-96c-4.8,0-8-3.2-8-8v-32c0-4.8,3.2-8,8-8h96c4.8,0,8,3.2,8,8v32C464,364.8,460.8,368,456,368z M368,352h80v-16
	h-80V352z"/>
<g>
</g>
<g>
</g>
<g>
</g>
<g>
</g>
<g>
</g>
<g>
</g>
<g>
</g>
<g>
</g>
<g>
</g>
<g>
</g>
<g>
</g>
<g>
</g>
<g>
</g>
<g>
</g>
<g>
</g>
</svg>
