<?xml version="1.0" encoding="iso-8859-1"?>
<!-- Generator: Adobe Illustrator 19.0.0, SVG Export Plug-In . SVG Version: 6.00 Build 0)  -->
<svg version="1.1" id="Capa_1" xmlns="http://www.w3.org/2000/svg" xmlns:xlink="http://www.w3.org/1999/xlink" x="0px" y="0px"
	 viewBox="0 0 496 496" style="enable-background:new 0 0 496 496;" xml:space="preserve">
<polyline style="fill:#858486;" points="168,440 168,392 136,392 136,440 "/>
<path d="M176,440h-16v-40h-16v40h-16v-48c0-4.8,3.2-8,8-8h32c4.8,0,8,3.2,8,8V440z"/>
<polyline style="fill:#858486;" points="360,440 360,392 328,392 328,440 "/>
<path d="M368,440h-16v-40h-16v40h-16v-48c0-4.8,3.2-8,8-8h32c4.8,0,8,3.2,8,8V440z"/>
<path style="fill:#789DC3;" d="M128,8h240c40,0,72,32,72,72v240c0,40-32,72-72,72H128c-40,0-72-32-72-72V80C56,40,88,8,128,8z"/>
<path d="M368,400H128c-44,0-80-36-80-80V80c0-44,36-80,80-80h240c44,0,80,36,80,80v240C448,364,412,400,368,400z M128,16
	c-35.2,0-64,28.8-64,64v240c0,35.2,28.8,64,64,64h240c35.2,0,64-28.8,64-64V80c0-35.2-28.8-64-64-64H128z"/>
<path style="fill:#FFFFFF;" d="M128,40h240c22.4,0,40,17.6,40,40v240c0,22.4-17.6,40-40,40H128c-22.4,0-40-17.6-40-40V80
	C88,57.6,105.6,40,128,40z"/>
<path d="M368,368H128c-26.4,0-48-21.6-48-48V80c0-26.4,21.6-48,48-48h240c26.4,0,48,21.6,48,48v240C416,346.4,394.4,368,368,368z
	 M128,48c-17.6,0-32,14.4-32,32v240c0,17.6,14.4,32,32,32h240c17.6,0,32-14.4,32-32V80c0-17.6-14.4-32-32-32H128z"/>
<circle style="fill:#789DC3;" cx="248" cy="200" r="16"/>
<path d="M248,224c-13.6,0-24-10.4-24-24s10.4-24,24-24s24,10.4,24,24S261.6,224,248,224z M248,192c-4.8,0-8,3.2-8,8s3.2,8,8,8
	c4.8,0,8-3.2,8-8S252.8,192,248,192z"/>
<rect x="152" y="248" style="fill:#D3D2D6;" width="192" height="48"/>
<path d="M344,304H152c-4.8,0-8-3.2-8-8v-48c0-4.8,3.2-8,8-8h192c4.8,0,8,3.2,8,8v48C352,300.8,348.8,304,344,304z M160,288h176v-32
	H160V288z"/>
<rect x="240" y="40" width="16" height="40"/>
<rect x="240" y="320" width="16" height="40"/>
<rect x="368" y="192" width="40" height="16"/>
<rect x="88" y="192" width="40" height="16"/>
<rect x="368" y="272" width="40" height="16"/>
<rect x="88" y="272" width="40" height="16"/>
<rect x="88" y="112" width="40" height="16"/>
<rect x="160" y="40" width="16" height="40"/>
<rect x="320" y="40" width="16" height="40"/>
<rect x="160" y="320" width="16" height="40"/>
<rect x="320" y="320" width="16" height="40"/>
<rect x="368" y="112" width="40" height="16"/>
<rect x="240" y="96" width="16" height="88"/>
<rect x="264" y="192" width="72" height="16"/>
<rect x="8" y="440" style="fill:#D94A56;" width="480" height="48"/>
<path d="M488,496H8c-4.8,0-8-3.2-8-8v-48c0-4.8,3.2-8,8-8h480c4.8,0,8,3.2,8,8v48C496,492.8,492.8,496,488,496z M16,480h464v-32H16
	V480z"/>
<rect x="32" y="464" width="16" height="24"/>
<rect x="64" y="464" width="16" height="24"/>
<rect x="96" y="464" width="16" height="24"/>
<rect x="128" y="464" width="16" height="24"/>
<rect x="160" y="464" width="16" height="24"/>
<rect x="192" y="464" width="16" height="24"/>
<rect x="224" y="464" width="16" height="24"/>
<rect x="256" y="464" width="16" height="24"/>
<rect x="288" y="464" width="16" height="24"/>
<rect x="320" y="464" width="16" height="24"/>
<rect x="352" y="464" width="16" height="24"/>
<rect x="384" y="464" width="16" height="24"/>
<rect x="416" y="464" width="16" height="24"/>
<rect x="448" y="464" width="16" height="24"/>
<g>
</g>
<g>
</g>
<g>
</g>
<g>
</g>
<g>
</g>
<g>
</g>
<g>
</g>
<g>
</g>
<g>
</g>
<g>
</g>
<g>
</g>
<g>
</g>
<g>
</g>
<g>
</g>
<g>
</g>
</svg>
