<?xml version="1.0" encoding="iso-8859-1"?>
<!-- Generator: Adobe Illustrator 19.0.0, SVG Export Plug-In . SVG Version: 6.00 Build 0)  -->
<svg version="1.1" id="Capa_1" xmlns="http://www.w3.org/2000/svg" xmlns:xlink="http://www.w3.org/1999/xlink" x="0px" y="0px"
	 viewBox="0 0 496.501 496.501" style="enable-background:new 0 0 496.501 496.501;" xml:space="preserve">
<polyline style="fill:#C7B299;" points="400.251,464.501 376.251,488.501 296.251,480.501 256.251,448.501 224.251,448.501 
	224.251,304.501 256.251,304.501 328.251,264.501 416.251,264.501 440.251,280.501 440.251,312.501 464.251,328.501 
	464.251,360.501 488.251,376.501 488.251,408.501 464.251,424.501 464.251,456.501 440.251,472.501 360.251,456.501 "/>
<path d="M376.251,496.501C376.251,496.501,375.451,496.501,376.251,496.501l-80.8-8c-1.6,0-3.2-0.8-4-1.6l-38.4-30.4h-28.8
	c-4.8,0-8-3.2-8-8v-144c0-4.8,3.2-8,8-8h29.6l70.4-39.2c1.6-0.8,2.4-0.8,4-0.8h88c1.6,0,3.2,0.8,4.8,1.6l24,16
	c2.4,1.6,3.2,4,3.2,6.4v28l20.8,13.6c2.4,1.6,3.2,4,3.2,6.4v28l20.8,13.6c2.4,1.6,3.2,4,3.2,6.4v32c0,2.4-1.6,4.8-3.2,6.4
	l-20.8,13.6v28c0,2.4-1.6,4.8-3.2,6.4l-24,16c-2.4,1.6-4,1.6-6.4,1.6l-36-7.2l-20.8,20.8
	C380.251,495.701,378.651,496.501,376.251,496.501z M299.451,472.501l73.6,7.2l10.4-10.4l-24.8-4.8l3.2-16l76.8,15.2l17.6-12v-27.2
	c0-2.4,1.6-4.8,3.2-6.4l20.8-13.6v-23.2l-20.8-13.6c-1.6-2.4-3.2-4.8-3.2-7.2v-28l-20.8-13.6c-1.6-1.6-3.2-4-3.2-6.4v-28l-18.4-12
	h-83.2l-70.4,39.2c-1.6,0.8-2.4,0.8-4,0.8h-24v128h24c1.6,0,3.2,0.8,4.8,1.6L299.451,472.501z"/>
<polyline style="fill:#C7B299;" points="160.251,304.501 8.251,296.501 8.251,464.501 160.251,448.501 "/>
<path d="M8.251,472.501c-4.8,0-8-3.2-8-8v-168c0-4.8,3.2-8,8-8c0,0,0,0,0.8,0l152,8l-0.8,16l-144-7.2v150.4l143.2-15.2l1.6,16
	l-152,16C9.051,472.501,8.251,472.501,8.251,472.501z"/>
<polyline style="fill:#7D828C;" points="224.251,344.501 224.251,288.501 160.251,288.501 160.251,344.501 "/>
<path d="M232.251,344.501h-16v-48h-48v48h-16v-56c0-4.8,3.2-8,8-8h64c4.8,0,8,3.2,8,8V344.501z"/>
<polyline style="fill:#7D828C;" points="160.251,408.501 160.251,464.501 224.251,464.501 224.251,408.501 "/>
<path d="M224.251,472.501h-64c-4.8,0-8-3.2-8-8v-56h16v48h48v-48h16v56C232.251,469.301,229.051,472.501,224.251,472.501z"/>
<polygon style="fill:#9F3A37;" points="224.251,64.501 160.251,40.501 184.251,104.501 184.251,152.501 160.251,216.501 
	224.251,192.501 272.251,192.501 336.251,216.501 312.251,152.501 312.251,104.501 336.251,40.501 272.251,64.501 "/>
<path d="M336.251,224.501c-0.8,0-1.6,0-3.2-0.8l-62.4-23.2h-44.8l-62.4,23.2c-4,1.6-8.8-0.8-10.4-4.8c-0.8-1.6-0.8-4,0-5.6
	l23.2-62.4v-44.8l-23.2-62.4c-1.6-4,0.8-8.8,4.8-10.4c1.6-0.8,4-0.8,5.6,0l62.4,23.2h44.8l62.4-23.2c4-1.6,8.8,0.8,10.4,4.8
	c0.8,1.6,0.8,4,0,5.6l-23.2,62.4v44.8l23.2,62.4c1.6,4-0.8,8.8-4.8,10.4C337.851,224.501,337.051,224.501,336.251,224.501z
	 M224.251,184.501h48c0.8,0,1.6,0,3.2,0.8l47.2,17.6l-17.6-47.2c0-0.8-0.8-1.6-0.8-3.2v-48c0-0.8,0-1.6,0.8-3.2l17.6-47.2
	l-47.2,17.6c-1.6,0.8-2.4,0.8-3.2,0.8h-48c-0.8,0-1.6,0-3.2-0.8l-47.2-17.6l17.6,47.2c0,0.8,0.8,1.6,0.8,3.2v48c0,0.8,0,1.6-0.8,3.2
	l-17.6,47.2l47.2-17.6C222.651,184.501,223.451,184.501,224.251,184.501z"/>
<circle style="fill:#A4A5A6;" cx="192.251" cy="376.501" r="48"/>
<path d="M192.251,432.501c-31.2,0-56-24.8-56-56s24.8-56,56-56s56,24.8,56,56S223.451,432.501,192.251,432.501z M192.251,336.501
	c-22.4,0-40,17.6-40,40s17.6,40,40,40s40-17.6,40-40S214.651,336.501,192.251,336.501z"/>
<path d="M216.251,384.501h-24c-4.8,0-8-3.2-8-8v-24h16v16h16V384.501z"/>
<polygon style="fill:#CB5940;" points="280.251,160.501 248.251,248.501 216.251,160.501 128.251,128.501 216.251,96.501 
	248.251,8.501 280.251,96.501 368.251,128.501 "/>
<path d="M248.251,256.501c-3.2,0-6.4-2.4-7.2-5.6l-30.4-84.8l-84.8-30.4c-4-1.6-6.4-6.4-4.8-10.4c0.8-2.4,2.4-4,4.8-4.8l84.8-30.4
	l30.4-84.8c1.6-4,6.4-6.4,10.4-4.8c2.4,0.8,4,2.4,4.8,4.8l30.4,84.8l84.8,30.4c4,1.6,6.4,6.4,4.8,10.4c-0.8,2.4-2.4,4-4.8,4.8
	l-84.8,30.4l-30.4,84.8C254.651,254.101,251.451,256.501,248.251,256.501z M151.451,128.501l67.2,24.8c2.4,0.8,4,2.4,4.8,4.8
	l24.8,67.2l24.8-67.2c0.8-2.4,2.4-4,4.8-4.8l67.2-24.8l-67.2-24.8c-2.4-0.8-4-2.4-4.8-4.8l-24.8-67.2l-24.8,67.2
	c-0.8,2.4-2.4,4-4.8,4.8L151.451,128.501z"/>
<circle style="fill:#9F3A37;" cx="248.251" cy="128.501" r="16"/>
<path d="M248.251,152.501c-13.6,0-24-10.4-24-24s10.4-24,24-24s24,10.4,24,24S261.851,152.501,248.251,152.501z M248.251,120.501
	c-4.8,0-8,3.2-8,8s3.2,8,8,8c4.8,0,8-3.2,8-8S253.051,120.501,248.251,120.501z"/>
<g>
</g>
<g>
</g>
<g>
</g>
<g>
</g>
<g>
</g>
<g>
</g>
<g>
</g>
<g>
</g>
<g>
</g>
<g>
</g>
<g>
</g>
<g>
</g>
<g>
</g>
<g>
</g>
<g>
</g>
</svg>
