<?xml version="1.0" encoding="iso-8859-1"?>
<!-- Generator: Adobe Illustrator 19.0.0, SVG Export Plug-In . SVG Version: 6.00 Build 0)  -->
<svg version="1.1" id="Capa_1" xmlns="http://www.w3.org/2000/svg" xmlns:xlink="http://www.w3.org/1999/xlink" x="0px" y="0px"
	 viewBox="0 0 496 496" style="enable-background:new 0 0 496 496;" xml:space="preserve">
<polygon style="fill:#737272;" points="160,368 40,368 40,128 160,128 160,8 408,8 408,488 160,488 "/>
<path d="M408,496H160c-4.8,0-8-3.2-8-8V376H40c-4.8,0-8-3.2-8-8V128c0-4.8,3.2-8,8-8h112V8c0-4.8,3.2-8,8-8h248c4.8,0,8,3.2,8,8v480
	C416,492.8,412.8,496,408,496z M168,480h232V16H168v112c0,4.8-3.2,8-8,8H48v224h112c4.8,0,8,3.2,8,8V480z"/>
<rect x="112" y="368" style="fill:#BABDBF;" width="48" height="104"/>
<path d="M160,480h-48c-4.8,0-8-3.2-8-8V368c0-4.8,3.2-8,8-8h48c4.8,0,8,3.2,8,8v104C168,476.8,164.8,480,160,480z M120,464h32v-88
	h-32V464z"/>
<rect x="408" y="408" style="fill:#BABDBF;" width="48" height="64"/>
<path d="M456,480h-48c-4.8,0-8-3.2-8-8v-64c0-4.8,3.2-8,8-8h48c4.8,0,8,3.2,8,8v64C464,476.8,460.8,480,456,480z M416,464h32v-48
	h-32V464z"/>
<rect x="408" y="256" style="fill:#BABDBF;" width="48" height="96"/>
<path d="M456,360h-48c-4.8,0-8-3.2-8-8v-96c0-4.8,3.2-8,8-8h48c4.8,0,8,3.2,8,8v96C464,356.8,460.8,360,456,360z M416,344h32v-80
	h-32V344z"/>
<rect x="296" y="256" style="fill:#3E606F;" width="112" height="112"/>
<path d="M408,376H296c-4.8,0-8-3.2-8-8V256c0-4.8,3.2-8,8-8h112c4.8,0,8,3.2,8,8v112C416,372.8,412.8,376,408,376z M304,360h96v-96
	h-96V360z"/>
<rect x="160" y="368" style="fill:#91AAB4;" width="248" height="120"/>
<path d="M408,496H160c-4.8,0-8-3.2-8-8V368c0-4.8,3.2-8,8-8h248c4.8,0,8,3.2,8,8v120C416,492.8,412.8,496,408,496z M168,480h232V376
	H168V480z"/>
<polygon style="fill:#91AAB4;" points="408,160 160,160 160,128 160,8 408,8 "/>
<path d="M408,168H160c-4.8,0-8-3.2-8-8V8c0-4.8,3.2-8,8-8h248c4.8,0,8,3.2,8,8v152C416,164.8,412.8,168,408,168z M168,152h232V16
	H168V152z"/>
<polygon style="fill:#3E606F;" points="40,128 40,368 248,368 248,160 160,160 160,128 "/>
<path d="M248,376H40c-4.8,0-8-3.2-8-8V128c0-4.8,3.2-8,8-8h120c4.8,0,8,3.2,8,8v24h80c4.8,0,8,3.2,8,8v208
	C256,372.8,252.8,376,248,376z M48,360h192V168h-80c-4.8,0-8-3.2-8-8v-24H48V360z"/>
<path d="M72,216H40c-4.8,0-8-3.2-8-8v-32c0-4.8,3.2-8,8-8h32c4.8,0,8,3.2,8,8v32C80,212.8,76.8,216,72,216z M48,200h16v-16H48V200z"
	/>
<path d="M72,344H40c-4.8,0-8-3.2-8-8v-32c0-4.8,3.2-8,8-8h32c4.8,0,8,3.2,8,8v32C80,340.8,76.8,344,72,344z M48,328h16v-16H48V328z"
	/>
<path style="fill:#BABDBF;" d="M248,368h48l0,0v48l0,0l0,0C269.6,416,248,394.4,248,368L248,368L248,368z"/>
<path d="M296,424c-31.2,0-56-24.8-56-56c0-4.8,3.2-8,8-8h48c4.8,0,8,3.2,8,8v48C304,420.8,300.8,424,296,424z M256.8,376
	c3.2,16,15.2,28,31.2,31.2V376H256.8z"/>
<path style="fill:#BABDBF;" d="M296,336v-48l0,0h48l0,0l0,0C344,314.4,322.4,336,296,336L296,336L296,336z"/>
<path d="M296,344c-4.8,0-8-3.2-8-8v-48c0-4.8,3.2-8,8-8h48c4.8,0,8,3.2,8,8C352,319.2,327.2,344,296,344z M304,296v31.2
	c16-3.2,28-15.2,31.2-31.2H304z"/>
<path style="fill:#BABDBF;" d="M296,160h-48l0,0v-48l0,0l0,0C274.4,112,296,133.6,296,160L296,160L296,160z"/>
<path d="M296,168h-48c-4.8,0-8-3.2-8-8v-48c0-4.8,3.2-8,8-8c31.2,0,56,24.8,56,56C304,164.8,300.8,168,296,168z M256,152h31.2
	c-3.2-16-15.2-28-31.2-31.2V152z"/>
<path style="fill:#BABDBF;" d="M248,320v48l0,0h-48l0,0l0,0C200,341.6,221.6,320,248,320L248,320L248,320z"/>
<path d="M248,376h-48c-4.8,0-8-3.2-8-8c0-31.2,24.8-56,56-56c4.8,0,8,3.2,8,8v48C256,372.8,252.8,376,248,376z M208.8,360H240v-31.2
	C224,332,212,344,208.8,360z"/>
<rect x="367.712" y="-5.484" transform="matrix(-0.7071 0.7071 -0.7071 -0.7071 669.4642 -197.87)" width="16" height="90.399"/>
<rect x="343.995" y="-15.196" transform="matrix(-0.7071 0.7071 -0.7071 -0.7071 646.1505 -139.6379)" width="16" height="158.398"/>
<rect x="316.253" y="-23.316" transform="matrix(-0.7071 0.7071 -0.7071 -0.7071 613.1318 -85.4018)" width="16" height="215.198"/>
<rect x="40" y="208" style="fill:#BABDBF;" width="144" height="96"/>
<path d="M184,312H40c-4.8,0-8-3.2-8-8v-96c0-4.8,3.2-8,8-8h144c4.8,0,8,3.2,8,8v96C192,308.8,188.8,312,184,312z M48,296h128v-80H48
	V296z"/>
<rect x="64" y="232" width="16" height="16"/>
<rect x="64" y="264" width="16" height="16"/>
<path d="M104,312H40c-4.8,0-8-3.2-8-8v-96c0-4.8,3.2-8,8-8h64c4.8,0,8,3.2,8,8v96C112,308.8,108.8,312,104,312z M48,296h48v-80H48
	V296z"/>
<path d="M104,256c-0.8,0-2.4,0-3.2-0.8c-3.2-0.8-4.8-4-4.8-7.2v-40c0-4.8,3.2-8,8-8h40c4.8,0,8,3.2,8,8c0,2.4-0.8,4-2.4,5.6l-40,40
	C108,255.2,106.4,256,104,256z M112,216v12.8l12.8-12.8H112z"/>
<g>
</g>
<g>
</g>
<g>
</g>
<g>
</g>
<g>
</g>
<g>
</g>
<g>
</g>
<g>
</g>
<g>
</g>
<g>
</g>
<g>
</g>
<g>
</g>
<g>
</g>
<g>
</g>
<g>
</g>
</svg>
