<?xml version="1.0" encoding="iso-8859-1"?>
<!-- Generator: Adobe Illustrator 19.0.0, SVG Export Plug-In . SVG Version: 6.00 Build 0)  -->
<svg version="1.1" id="Capa_1" xmlns="http://www.w3.org/2000/svg" xmlns:xlink="http://www.w3.org/1999/xlink" x="0px" y="0px"
	 viewBox="0 0 496 496" style="enable-background:new 0 0 496 496;" xml:space="preserve">
<rect x="8" y="136" style="fill:#A4A5A6;" width="480" height="272"/>
<path d="M488,416H8c-4.8,0-8-3.2-8-8V136c0-4.8,3.2-8,8-8h480c4.8,0,8,3.2,8,8v272C496,412.8,492.8,416,488,416z M16,400h464V144H16
	V400z"/>
<circle style="fill:#7D828C;" cx="272" cy="272" r="104"/>
<path d="M272,384c-61.6,0-112-50.4-112-112s50.4-112,112-112s112,50.4,112,112S333.6,384,272,384z M272,176c-52.8,0-96,43.2-96,96
	s43.2,96,96,96s96-43.2,96-96S324.8,176,272,176z"/>
<circle style="fill:#7D828C;" cx="64" cy="200" r="24"/>
<path d="M64,232c-17.6,0-32-14.4-32-32s14.4-32,32-32s32,14.4,32,32S81.6,232,64,232z M64,184c-8.8,0-16,7.2-16,16s7.2,16,16,16
	s16-7.2,16-16S72.8,184,64,184z"/>
<rect x="8" y="192" width="32" height="16"/>
<rect x="344" y="192" width="144" height="16"/>
<rect x="88" y="192" width="112" height="16"/>
<rect x="8" y="336" width="192" height="16"/>
<rect x="344" y="336" width="144" height="16"/>
<circle style="fill:#A4A5A6;" cx="272" cy="272" r="56"/>
<path d="M272,336c-35.2,0-64-28.8-64-64s28.8-64,64-64s64,28.8,64,64S307.2,336,272,336z M272,224c-26.4,0-48,21.6-48,48
	s21.6,48,48,48s48-21.6,48-48S298.4,224,272,224z"/>
<rect x="24" y="104" style="fill:#7D828C;" width="80" height="32"/>
<path d="M104,144H24c-4.8,0-8-3.2-8-8v-32c0-4.8,3.2-8,8-8h80c4.8,0,8,3.2,8,8v32C112,140.8,108.8,144,104,144z M32,128h64v-16H32
	V128z"/>
<polygon style="fill:#7D828C;" points="368,88 176,88 160,136 384,136 "/>
<path d="M384,144H160c-4.8,0-8-3.2-8-8c0-0.8,0-1.6,0.8-2.4l16-48c0.8-3.2,4-5.6,7.2-5.6h192c3.2,0,6.4,2.4,7.2,5.6l16,48
	c1.6,4-0.8,8.8-4.8,10.4C385.6,144,384.8,144,384,144z M171.2,128h201.6l-10.4-32H181.6L171.2,128z"/>
<rect x="32" y="344" width="16" height="64"/>
<rect x="448" y="344" width="16" height="64"/>
<rect x="448" y="136" width="16" height="64"/>
<rect x="40" y="368" width="416" height="16"/>
<g>
</g>
<g>
</g>
<g>
</g>
<g>
</g>
<g>
</g>
<g>
</g>
<g>
</g>
<g>
</g>
<g>
</g>
<g>
</g>
<g>
</g>
<g>
</g>
<g>
</g>
<g>
</g>
<g>
</g>
</svg>
