<?xml version="1.0" encoding="iso-8859-1"?>
<!-- Generator: Adobe Illustrator 19.0.0, SVG Export Plug-In . SVG Version: 6.00 Build 0)  -->
<svg version="1.1" id="Capa_1" xmlns="http://www.w3.org/2000/svg" xmlns:xlink="http://www.w3.org/1999/xlink" x="0px" y="0px"
	 viewBox="0 0 496 496" style="enable-background:new 0 0 496 496;" xml:space="preserve">
<polyline style="fill:#858486;" points="184,424 184,456 136,456 136,424 "/>
<path d="M184,464h-48c-4.8,0-8-3.2-8-8v-32h16v24h32v-24h16v32C192,460.8,188.8,464,184,464z"/>
<polyline style="fill:#789DC3;" points="176,280 200,304 224,280 200,256 "/>
<path d="M200,312c-2.4,0-4-0.8-5.6-2.4l-24-24l11.2-11.2l18.4,18.4l12.8-12.8l-18.4-18.4l11.2-11.2l24,24c3.2,3.2,3.2,8,0,11.2
	l-24,24C204,311.2,202.4,312,200,312z"/>
<g>
	<polyline style="fill:#D94A56;" points="160,248 120,288 32,200 72,160 	"/>
	
		<rect x="49.761" y="81.203" transform="matrix(-0.7071 0.7071 -0.7071 -0.7071 197.4105 126.2363)" style="fill:#D94A56;" width="45.6" height="45.6"/>
</g>
<path d="M72,144c-2.4,0-4-0.8-5.6-2.4l-32-32c-3.2-3.2-3.2-8,0-11.2l32-32c3.2-3.2,8-3.2,11.2,0l32,32c3.2,3.2,3.2,8,0,11.2l-32,32
	C76,143.2,74.4,144,72,144z M51.2,104L72,124.8L92.8,104L72,83.2L51.2,104z"/>
<rect x="88" y="456" style="fill:#B6B3B8;" width="144" height="32"/>
<path d="M232,496H88c-4.8,0-8-3.2-8-8v-32c0-4.8,3.2-8,8-8h144c4.8,0,8,3.2,8,8v32C240,492.8,236.8,496,232,496z M96,480h128v-16H96
	V480z"/>
<polyline style="fill:#789DC3;" points="104,192 56,144 112,88 216,192 160,248 136,224 "/>
<path d="M160,256c-2.4,0-4-0.8-5.6-2.4l-24-24l11.2-11.2l18.4,18.4l44.8-44.8L112,99.2L67.2,144l42.4,42.4l-11.2,11.2l-48-48
	c-3.2-3.2-3.2-8,0-11.2l56-56c3.2-3.2,8-3.2,11.2,0l104,104c3.2,3.2,3.2,8,0,11.2l-56,56C164,255.2,162.4,256,160,256z"/>
<rect x="8.674" y="62.921" transform="matrix(-0.7071 0.7071 -0.7071 -0.7071 138.7784 101.9568)" style="fill:#789DC3;" width="79.199" height="33.6"/>
<path d="M32,128c-2.4,0-4-0.8-5.6-2.4l-24-24c-3.2-3.2-3.2-8,0-11.2l56-56c3.2-3.2,8-3.2,11.2,0l24,24c3.2,3.2,3.2,8,0,11.2l-56,56
	C36,127.2,34.4,128,32,128z M19.2,96L32,108.8L76.8,64L64,51.2L19.2,96z"/>
<rect x="254.311" y="367.702" transform="matrix(-0.7071 0.7071 -0.7071 -0.7071 757.8387 437.4969)" width="67.999" height="16"/>
<rect x="107.203" y="116" transform="matrix(-0.7071 0.7071 -0.7071 -0.7071 299.3665 123.9983)" width="33.6" height="16"/>
<rect x="163.198" y="172" transform="matrix(-0.7071 0.7071 -0.7071 -0.7071 434.5543 180.0017)" width="33.6" height="16"/>
<rect x="140.914" y="223.488" transform="matrix(-0.7071 0.7071 -0.7071 -0.7071 497.1852 274.6344)" style="fill:#46709C;" width="101.599" height="33.6"/>
<path d="M168,296c-2.4,0-4-0.8-5.6-2.4l-24-24c-3.2-3.2-3.2-8,0-11.2l72-72c3.2-3.2,8-3.2,11.2,0l24,24c3.2,3.2,3.2,8,0,11.2l-72,72
	C172,295.2,170.4,296,168,296z M155.2,264l12.8,12.8l60.8-60.8L216,203.2L155.2,264z"/>
<path d="M58.4,237.6l-32-32c-3.2-3.2-3.2-8,0-11.2l40-40l11.2,11.2L43.2,200l26.4,26.4L58.4,237.6z"/>
<path d="M120,296c-2.4,0-4-0.8-5.6-2.4l-32-32l11.2-11.2l26.4,26.4l18.4-18.4l11.2,11.2l-24,24C124,295.2,122.4,296,120,296z"/>
<circle style="fill:#F48827;" cx="208" cy="112" r="16"/>
<path d="M208,136c-13.6,0-24-10.4-24-24s10.4-24,24-24s24,10.4,24,24S221.6,136,208,136z M208,104c-4.8,0-8,3.2-8,8s3.2,8,8,8
	s8-3.2,8-8S212.8,104,208,104z"/>
<circle style="fill:#F48827;" cx="384" cy="216" r="16"/>
<path d="M384,240c-13.6,0-24-10.4-24-24s10.4-24,24-24s24,10.4,24,24S397.6,240,384,240z M384,208c-4.8,0-8,3.2-8,8s3.2,8,8,8
	s8-3.2,8-8S388.8,208,384,208z"/>
<circle style="fill:#789DC3;" cx="472" cy="120" r="16"/>
<path d="M472,144c-13.6,0-24-10.4-24-24s10.4-24,24-24s24,10.4,24,24S485.6,144,472,144z M472,112c-4.8,0-8,3.2-8,8s3.2,8,8,8
	s8-3.2,8-8S476.8,112,472,112z"/>
<circle style="fill:#789DC3;" cx="288" cy="224" r="16"/>
<path d="M288,248c-13.6,0-24-10.4-24-24s10.4-24,24-24s24,10.4,24,24S301.6,248,288,248L288,248z M288,216c-4.8,0-8,3.2-8,8
	s3.2,8,8,8s8-3.2,8-8S292.8,216,288,216z"/>
<circle style="fill:#42A24F;" cx="344" cy="144" r="24"/>
<path d="M344,176c-17.6,0-32-14.4-32-32s14.4-32,32-32s32,14.4,32,32S361.6,176,344,176z M344,128c-8.8,0-16,7.2-16,16s7.2,16,16,16
	s16-7.2,16-16S352.8,128,344,128z"/>
<circle style="fill:#42A24F;" cx="400" cy="32" r="24"/>
<path d="M400,64c-17.6,0-32-14.4-32-32s14.4-32,32-32s32,14.4,32,32S417.6,64,400,64z M400,16c-8.8,0-16,7.2-16,16s7.2,16,16,16
	s16-7.2,16-16S408.8,16,400,16z"/>
<rect x="263.991" y="77.583" transform="matrix(-0.3162 0.9487 -0.9487 -0.3162 479.411 -89.585)" width="16" height="100.801"/>
<rect x="276.804" y="175.993" transform="matrix(-0.64 0.7684 -0.7684 -0.64 646.502 65.0809)" width="62.401" height="16"/>
<rect x="356.004" y="156.776" transform="matrix(-0.8575 0.5145 -0.5145 -0.8575 768.7318 147.0256)" width="16" height="46.4"/>
<rect x="334.4" y="79.992" transform="matrix(-0.53 0.848 -0.848 -0.53 643.7766 -180.8277)" width="75.2" height="16"/>
<rect x="432.017" y="39.197" transform="matrix(-0.7593 0.6508 -0.6508 -0.7593 823.5682 -152.6499)" width="16.001" height="73.603"/>
<path style="fill:#D3D2D6;" d="M112,230.4C71.2,256.8,60,311.2,86.4,352c16,24.8,44,40,73.6,40h72v-48h32v48c0,17.6-14.4,32-32,32
	h-68.8C97.6,424,40.8,372,40,305.6c-0.8-41.6,20.8-80.8,56-103.2L112,230.4z"/>
<path d="M232,432h-68.8C92.8,432.8,34.4,376.8,32,305.6c-0.8-44.8,21.6-86.4,60-109.6l8.8,13.6c-32.8,20.8-52.8,56.8-52,96
	C50.4,368,102.4,416.8,164,416h68c13.6,0,24-10.4,24-24v-48h16v48C272,414.4,254.4,432,232,432z"/>
<path d="M232,400h-72c-52.8,0-96-43.2-96-96c0-32.8,16.8-62.4,44-80.8l8.8,13.6c-36.8,24-47.2,73.6-23.2,110.4
	c14.4,22.4,40,36,67.2,36h64v-8h16v16C240,396.8,236.8,400,232,400z"/>
<circle style="fill:#FFFFFF;" cx="120" cy="208" r="24"/>
<path d="M120,240c-17.6,0-32-14.4-32-32s14.4-32,32-32s32,14.4,32,32S137.6,240,120,240z M120,192c-8.8,0-16,7.2-16,16s7.2,16,16,16
	s16-7.2,16-16S128.8,192,120,192z"/>
<rect x="204.938" y="311.482" transform="matrix(-0.7071 0.7071 -0.7071 -0.7071 668.7011 379.5791)" style="fill:#D94A56;" width="101.599" height="33.6"/>
<path d="M232,384c-2.4,0-4-0.8-5.6-2.4l-24-24c-3.2-3.2-3.2-8,0-11.2l72-72c3.2-3.2,8-3.2,11.2,0l24,24c3.2,3.2,3.2,8,0,11.2l-72,72
	C236,383.2,234.4,384,232,384z M219.2,352l12.8,12.8l60.8-60.8L280,291.2L219.2,352z"/>
<g>
</g>
<g>
</g>
<g>
</g>
<g>
</g>
<g>
</g>
<g>
</g>
<g>
</g>
<g>
</g>
<g>
</g>
<g>
</g>
<g>
</g>
<g>
</g>
<g>
</g>
<g>
</g>
<g>
</g>
</svg>
