<?xml version="1.0" encoding="iso-8859-1"?>
<!-- Generator: Adobe Illustrator 19.0.0, SVG Export Plug-In . SVG Version: 6.00 Build 0)  -->
<svg version="1.1" id="Capa_1" xmlns="http://www.w3.org/2000/svg" xmlns:xlink="http://www.w3.org/1999/xlink" x="0px" y="0px"
	 viewBox="0 0 496 496" style="enable-background:new 0 0 496 496;" xml:space="preserve">
<path style="fill:#C7B299;" d="M320,144l-35.2-35.2c-3.2-3.2-7.2-4.8-11.2-4.8H264c-8.8,0-16,7.2-16,16v10.4c0,4,1.6,7.2,4,10.4
	l44,51.2h96V80h-64l-48-32h-56l-56,40v96l32,32h24v-48l28-27.2"/>
<rect x="8" y="272" style="fill:#3E606F;" width="64" height="176"/>
<path d="M72,456H8c-4.8,0-8-3.2-8-8V272c0-4.8,3.2-8,8-8h64c4.8,0,8,3.2,8,8v176C80,452.8,76.8,456,72,456z M16,440h48V280H16V440z"
	/>
<rect x="72" y="272" style="fill:#91AAB4;" width="48" height="160"/>
<path d="M120,440H72c-4.8,0-8-3.2-8-8V272c0-4.8,3.2-8,8-8h48c4.8,0,8,3.2,8,8v160C128,436.8,124.8,440,120,440z M80,424h32V280H80
	V424z"/>
<path style="fill:#C7B299;" d="M192,336l35.2,35.2c3.2,3.2,7.2,4.8,11.2,4.8h9.6c8.8,0,16-7.2,16-16v-10.4c0-4-1.6-7.2-4-10.4
	L216,288h-96v128h64l48,32l256-56v-8c0-17.6-14.4-32-32-32H264"/>
<path d="M232,456c-1.6,0-3.2-0.8-4.8-1.6L181.6,424H120c-4.8,0-8-3.2-8-8V288c0-4.8,3.2-8,8-8h96c2.4,0,4.8,0.8,6.4,2.4l44,51.2
	c2.4,3.2,4,6.4,4.8,9.6H456c22.4,0,40,17.6,40,40v8c0,4-2.4,7.2-6.4,8l-256,56C232.8,456,232.8,456,232,456z M128,408h56
	c1.6,0,3.2,0.8,4.8,1.6l44.8,30.4L480,385.6V384c0-13.6-10.4-24-24-24H272c0,13.6-10.4,24-24,24h-9.6c-6.4,0-12.8-2.4-16.8-7.2
	l-35.2-35.2l11.2-11.2l35.2,35.2c1.6,1.6,3.2,2.4,5.6,2.4h9.6c4.8,0,8-3.2,8-8v-10.4c0-1.6-0.8-4-1.6-5.6L212,296h-84V408z"/>
<path d="M296,288h-40c-4.8,0-8-3.2-8-8v-96h16v88h32V288z"/>
<rect x="256" y="240" width="40" height="16"/>
<rect x="392" y="64" style="fill:#91AAB4;" width="48" height="144"/>
<path d="M440,216h-48c-4.8,0-8-3.2-8-8V64c0-4.8,3.2-8,8-8h48c4.8,0,8,3.2,8,8v144C448,212.8,444.8,216,440,216z M400,200h32V72h-32
	V200z"/>
<rect x="440" y="64" style="fill:#3E606F;" width="48" height="144"/>
<path d="M488,216h-48c-4.8,0-8-3.2-8-8V64c0-4.8,3.2-8,8-8h48c4.8,0,8,3.2,8,8v144C496,212.8,492.8,216,488,216z M448,200h32V72h-32
	V200z"/>
<path d="M224,224h-24c-2.4,0-4-0.8-5.6-2.4l-32-32c-1.6-1.6-2.4-3.2-2.4-5.6V88c0-2.4,1.6-4.8,3.2-6.4l56-40
	c1.6-0.8,3.2-1.6,4.8-1.6h56c1.6,0,3.2,0.8,4.8,1.6L330.4,72H392c4.8,0,8,3.2,8,8v112c0,4.8-3.2,8-8,8h-96c-2.4,0-4.8-0.8-6.4-2.4
	l-44-51.2c-4-4-5.6-9.6-5.6-16V120c0-13.6,10.4-24,24-24h9.6c6.4,0,12.8,2.4,16.8,7.2l35.2,35.2l-11.2,11.2l-35.2-35.2
	c-1.6-1.6-3.2-2.4-5.6-2.4H264c-4.8,0-8,3.2-8,8v10.4c0,1.6,0.8,4,1.6,5.6l41.6,48.8H384V88h-56c-1.6,0-3.2-0.8-4.8-1.6L277.6,56
	h-51.2L176,92v88.8l27.2,27.2H216v-40h16v48C232,220.8,228.8,224,224,224z"/>
<path style="fill:#737272;" d="M252,140.8c-2.4-3.2-4-6.4-4-10.4V120c0-8.8,7.2-16,16-16h-8c-22.4,0-40,17.6-40,40s17.6,40,40,40
	c8.8,0,16.8-3.2,24-8l-0.8-4L252,140.8z"/>
<path d="M256,192c-26.4,0-48-21.6-48-48s21.6-48,48-48h8c4.8,0,8,3.2,8,8s-3.2,8-8,8s-8,3.2-8,8v10.4c0,1.6,0.8,4,1.6,5.6l27.2,32
	c0.8,0.8,1.6,2.4,1.6,3.2l0.8,4c0.8,3.2-0.8,6.4-3.2,8C276.8,188.8,266.4,192,256,192z M240,116c-15.2,8.8-20.8,28-12.8,43.2
	c8,14.4,26.4,20.8,41.6,13.6l-23.2-27.2c-4-4-5.6-9.6-5.6-16V120C240,118.4,240,117.6,240,116z"/>
<g>
</g>
<g>
</g>
<g>
</g>
<g>
</g>
<g>
</g>
<g>
</g>
<g>
</g>
<g>
</g>
<g>
</g>
<g>
</g>
<g>
</g>
<g>
</g>
<g>
</g>
<g>
</g>
<g>
</g>
</svg>
