<?xml version="1.0" encoding="iso-8859-1"?>
<!-- Generator: Adobe Illustrator 19.0.0, SVG Export Plug-In . SVG Version: 6.00 Build 0)  -->
<svg version="1.1" id="Capa_1" xmlns="http://www.w3.org/2000/svg" xmlns:xlink="http://www.w3.org/1999/xlink" x="0px" y="0px"
	 viewBox="0 0 496.856 496.856" style="enable-background:new 0 0 496.856 496.856;" xml:space="preserve">
<polyline style="fill:#789DC3;" points="344,440.428 344,8.428 152,8.428 152,440.428 "/>
<path d="M352,440.428h-16v-424H160v424h-16v-432c0-4.8,3.2-8,8-8h192c4.8,0,8,3.2,8,8V440.428z"/>
<rect x="152" y="200.428" style="fill:#FFFFFF;" width="192" height="160"/>
<path d="M344,368.428H152c-4.8,0-8-3.2-8-8v-160c0-4.8,3.2-8,8-8h192c4.8,0,8,3.2,8,8v160C352,365.228,348.8,368.428,344,368.428z
	 M160,352.428h176v-144H160V352.428z"/>
<polyline style="fill:#D3D2D6;" points="152,464.428 152,200.428 8,200.428 8,464.428 "/>
<path d="M160,464.428h-16v-256H16v256H0v-264c0-4.8,3.2-8,8-8h144c4.8,0,8,3.2,8,8V464.428z"/>
<polyline style="fill:#D3D2D6;" points="344,464.428 344,72.428 488,72.428 488,464.428 "/>
<path d="M496,464.428h-16v-384H352v384h-16v-392c0-4.8,3.2-8,8-8h144c4.8,0,8,3.2,8,8V464.428z"/>
<rect x="448" y="104.428" width="16" height="304"/>
<rect x="8" y="200.428" style="fill:#789DC3;" width="144" height="32"/>
<path d="M152,240.428H8c-4.8,0-8-3.2-8-8v-32c0-4.8,3.2-8,8-8h144c4.8,0,8,3.2,8,8v32C160,237.228,156.8,240.428,152,240.428z
	 M16,224.428h128v-16H16V224.428z"/>
<rect x="32" y="232.428" width="16" height="176"/>
<circle style="fill:#D94A56;" cx="248" cy="88.428" r="48"/>
<path d="M248,144.428c-31.2,0-56-24.8-56-56s24.8-56,56-56s56,24.8,56,56S279.2,144.428,248,144.428z M248,48.428
	c-22.4,0-40,17.6-40,40s17.6,40,40,40s40-17.6,40-40S270.4,48.428,248,48.428z"/>
<path style="fill:#42A24F;" d="M272,432.428c0-22.4,17.6-40,40-40c17.6,0,33.6,12,38.4,28.8c10.4-14.4,30.4-17.6,44.8-7.2
	c2.4,2.4,5.6,4.8,7.2,7.2c5.6-16.8,24-25.6,40-20s24.8,22.4,20.8,38.4h0.8c13.6,0,24,10.4,24,24s-10.4,24-24,24H32
	c-13.6,0-24-10.4-24-24s10.4-24,24-24c0.8,0,0.8,0,0.8,0c0-1.6-0.8-4.8-0.8-7.2c0-17.6,14.4-32,32-32c13.6,0,25.6,8.8,30.4,21.6
	c10.4-14.4,30.4-17.6,44-7.2c3.2,1.6,5.6,4.8,7.2,7.2c5.6-21.6,28-33.6,49.6-28c17.6,4.8,28.8,20.8,28.8,38.4H272z"/>
<path d="M464,496.428H32c-17.6,0-32-14.4-32-32c0-14.4,9.6-27.2,24-31.2v-0.8c0-22.4,17.6-40,40-40c12.8,0,24.8,5.6,32,16
	c13.6-10.4,32.8-10.4,47.2-0.8c13.6-22.4,43.2-30.4,65.6-16.8c12,7.2,20,19.2,22.4,33.6h33.6c4-26.4,28.8-44,55.2-39.2
	c13.6,2.4,26.4,10.4,33.6,22.4c14.4-9.6,32.8-9.6,47.2,0.8c12.8-17.6,38.4-21.6,56-8c10.4,7.2,16,19.2,16,32v0.8
	c16.8,4.8,27.2,21.6,23.2,39.2C491.2,486.828,478.4,496.428,464,496.428z M31.2,448.428c-8.8,0-16,7.2-16,16s7.2,16,16,16h432
	c8.8,0,16-7.2,16-16s-7.2-16-16-16h-0.8c-2.4,0-4.8-0.8-6.4-3.2c-1.6-1.6-2.4-4.8-1.6-7.2c1.6-1.6,1.6-3.2,1.6-5.6
	c0-13.6-10.4-24-24-24c-10.4,0-19.2,6.4-22.4,16c-1.6,4-6.4,6.4-10.4,4.8c-1.6-0.8-3.2-1.6-4-3.2c-7.2-10.4-22.4-13.6-32.8-5.6
	c-2.4,1.6-4,3.2-5.6,5.6c-2.4,3.2-8,4-11.2,1.6c-1.6-0.8-2.4-2.4-3.2-4c-4.8-16.8-22.4-27.2-39.2-22.4c-13.6,4-23.2,16.8-23.2,31.2
	c0,4.8-3.2,8-8,8h-48c-4.8,0-8-3.2-8-8c0-17.6-14.4-32-32-32c-14.4,0-27.2,9.6-31.2,23.2c-1.6,4-5.6,6.4-9.6,5.6
	c-1.6-0.8-3.2-1.6-4-3.2c-8-10.4-22.4-12.8-33.6-5.6c-2.4,1.6-4,3.2-5.6,5.6c-2.4,3.2-7.2,4.8-11.2,1.6c-1.6-0.8-2.4-2.4-3.2-4
	c-4-12.8-17.6-19.2-30.4-14.4c-9.6,3.2-16,12.8-16,22.4c0,2.4,0,4,0.8,6.4s0,4.8-1.6,7.2c-0.8,2.4-3.2,3.2-5.6,3.2
	C32.8,448.428,32,448.428,31.2,448.428z"/>
<rect x="152" y="168.428" style="fill:#D3D2D6;" width="192" height="32"/>
<path d="M344,208.428H152c-4.8,0-8-3.2-8-8v-32c0-4.8,3.2-8,8-8h192c4.8,0,8,3.2,8,8v32C352,205.228,348.8,208.428,344,208.428z
	 M160,192.428h176v-16H160V192.428z"/>
<rect x="184" y="232.428" style="fill:#789DC3;" width="32" height="32"/>
<path d="M216,272.428h-32c-4.8,0-8-3.2-8-8v-32c0-4.8,3.2-8,8-8h32c4.8,0,8,3.2,8,8v32C224,269.228,220.8,272.428,216,272.428z
	 M192,256.428h16v-16h-16V256.428z"/>
<rect x="184" y="296.428" style="fill:#789DC3;" width="32" height="32"/>
<path d="M216,336.428h-32c-4.8,0-8-3.2-8-8v-32c0-4.8,3.2-8,8-8h32c4.8,0,8,3.2,8,8v32C224,333.228,220.8,336.428,216,336.428z
	 M192,320.428h16v-16h-16V320.428z"/>
<rect x="280" y="232.428" style="fill:#789DC3;" width="32" height="32"/>
<path d="M312,272.428h-32c-4.8,0-8-3.2-8-8v-32c0-4.8,3.2-8,8-8h32c4.8,0,8,3.2,8,8v32C320,269.228,316.8,272.428,312,272.428z
	 M288,256.428h16v-16h-16V256.428z"/>
<rect x="280" y="296.428" style="fill:#789DC3;" width="32" height="32"/>
<path d="M312,336.428h-32c-4.8,0-8-3.2-8-8v-32c0-4.8,3.2-8,8-8h32c4.8,0,8,3.2,8,8v32C320,333.228,316.8,336.428,312,336.428z
	 M288,320.428h16v-16h-16V320.428z"/>
<rect x="240" y="200.428" width="16" height="160"/>
<rect x="408" y="136.428" style="fill:#FFFFFF;" width="48" height="32"/>
<path d="M456,176.428h-48c-4.8,0-8-3.2-8-8v-32c0-4.8,3.2-8,8-8h48c4.8,0,8,3.2,8,8v32C464,173.228,460.8,176.428,456,176.428z
	 M416,160.428h32v-16h-32V160.428z"/>
<rect x="408" y="200.428" style="fill:#FFFFFF;" width="48" height="32"/>
<path d="M456,240.428h-48c-4.8,0-8-3.2-8-8v-32c0-4.8,3.2-8,8-8h48c4.8,0,8,3.2,8,8v32C464,237.228,460.8,240.428,456,240.428z
	 M416,224.428h32v-16h-32V224.428z"/>
<rect x="408" y="264.428" style="fill:#FFFFFF;" width="48" height="32"/>
<path d="M456,304.428h-48c-4.8,0-8-3.2-8-8v-32c0-4.8,3.2-8,8-8h48c4.8,0,8,3.2,8,8v32C464,301.228,460.8,304.428,456,304.428z
	 M416,288.428h32v-16h-32V288.428z"/>
<rect x="408" y="328.428" style="fill:#FFFFFF;" width="48" height="32"/>
<path d="M456,368.428h-48c-4.8,0-8-3.2-8-8v-32c0-4.8,3.2-8,8-8h48c4.8,0,8,3.2,8,8v32C464,365.228,460.8,368.428,456,368.428z
	 M416,352.428h32v-16h-32V352.428z"/>
<rect x="40" y="264.428" style="fill:#FFFFFF;" width="48" height="32"/>
<path d="M88,304.428H40c-4.8,0-8-3.2-8-8v-32c0-4.8,3.2-8,8-8h48c4.8,0,8,3.2,8,8v32C96,301.228,92.8,304.428,88,304.428z
	 M48,288.428h32v-16H48V288.428z"/>
<rect x="40" y="328.428" style="fill:#FFFFFF;" width="48" height="32"/>
<path d="M88,368.428H40c-4.8,0-8-3.2-8-8v-32c0-4.8,3.2-8,8-8h48c4.8,0,8,3.2,8,8v32C96,365.228,92.8,368.428,88,368.428z
	 M48,352.428h32v-16H48V352.428z"/>
<rect x="112" y="232.428" width="16" height="176"/>
<rect x="368" y="104.428" width="16" height="304"/>
<path d="M64,440.428H48c0-13.6,10.4-24,24-24v16C67.2,432.428,64,435.628,64,440.428z"/>
<path d="M448,440.428h-16c0-4.8-3.2-8-8-8v-16C437.6,416.428,448,426.828,448,440.428z"/>
<rect x="344" y="72.428" style="fill:#789DC3;" width="144" height="32"/>
<path d="M488,112.428H344c-4.8,0-8-3.2-8-8v-32c0-4.8,3.2-8,8-8h144c4.8,0,8,3.2,8,8v32C496,109.228,492.8,112.428,488,112.428z
	 M352,96.428h128v-16H352V96.428z"/>
<path d="M272,96.428h-24c-4.8,0-8-3.2-8-8v-24h16v16h16V96.428z"/>
<path style="fill:#B6B3B8;" d="M104,72.428c8.8,0,16-7.2,16-16s-7.2-16-16-16c-3.2,0-6.4,0.8-8.8,2.4c-3.2-8-12-12.8-20-9.6
	c-0.8,0-2.4,0.8-3.2,1.6c0-0.8,0-1.6,0-2.4c0-13.6-10.4-24-24-24s-24,10.4-24,24c0,2.4,0.8,5.6,1.6,8c-0.8,0-0.8,0-1.6,0
	c-8.8,0-16,7.2-16,16s7.2,16,16,16H104z"/>
<path d="M104,80.428H24c-13.6,0-24-10.4-24-24c0-10.4,6.4-19.2,16-22.4c0-0.8,0-0.8,0-1.6c0-17.6,14.4-32,32-32
	c14.4,0,27.2,9.6,31.2,24c7.2,0,14.4,3.2,19.2,8.8c12.8-3.2,25.6,4.8,28.8,17.6s-4.8,25.6-17.6,28.8
	C108,80.428,105.6,80.428,104,80.428z M24.8,41.228l-0.8,7.2c-4.8,0-8,4-8,8c0,4.8,4,8,8,8h80c4.8,0,8-3.2,8-8s-3.2-8-8-8
	c-1.6,0-3.2,0.8-4.8,1.6c-4,2.4-8.8,1.6-11.2-2.4c0-0.8-0.8-0.8-0.8-1.6c-1.6-4-6.4-6.4-10.4-4.8c-0.8,0-0.8,0-1.6,0.8
	c-3.2,1.6-8,0.8-10.4-3.2c-0.8-1.6-0.8-3.2-0.8-4.8v-0.8c0.8-8.8-6.4-16.8-15.2-17.6c-8.8,0-16,6.4-16.8,15.2c0,0.8,0,0.8,0,1.6
	c0,1.6,0,4,0.8,5.6c1.6,4-0.8,8.8-4.8,10.4c-0.8,0-2.4,0-3.2,0V41.228L24.8,41.228z"/>
<path d="M192,496.428v-16c4.8,0,8-3.2,8-8s-3.2-8-8-8s-8,3.2-8,8h-16c0-13.6,10.4-24,24-24s24,10.4,24,24S205.6,496.428,192,496.428
	z"/>
<path d="M192,456.428h-16c0-4.8-3.2-8-8-8s-8,3.2-8,8h-16c0-13.6,10.4-24,24-24S192,442.828,192,456.428z"/>
<path d="M296,496.428c-13.6,0-24-10.4-24-24s10.4-24,24-24s24,10.4,24,24h-16c0-4.8-3.2-8-8-8s-8,3.2-8,8s3.2,8,8,8V496.428z"/>
<path d="M376,496.428v-16c4.8,0,8-3.2,8-8s-3.2-8-8-8s-8,3.2-8,8h-16c0-13.6,10.4-24,24-24s24,10.4,24,24S389.6,496.428,376,496.428
	z"/>
<path d="M344,456.428h-16c0-4.8-3.2-8-8-8s-8,3.2-8,8h-16c0-13.6,10.4-24,24-24S344,442.828,344,456.428z"/>
<path d="M112,496.428c-13.6,0-24-10.4-24-24s10.4-24,24-24s24,10.4,24,24h-16c0-4.8-3.2-8-8-8s-8,3.2-8,8s3.2,8,8,8V496.428z"/>
<g>
</g>
<g>
</g>
<g>
</g>
<g>
</g>
<g>
</g>
<g>
</g>
<g>
</g>
<g>
</g>
<g>
</g>
<g>
</g>
<g>
</g>
<g>
</g>
<g>
</g>
<g>
</g>
<g>
</g>
</svg>
