<?xml version="1.0" encoding="iso-8859-1"?>
<!-- Generator: Adobe Illustrator 19.0.0, SVG Export Plug-In . SVG Version: 6.00 Build 0)  -->
<svg version="1.1" id="Capa_1" xmlns="http://www.w3.org/2000/svg" xmlns:xlink="http://www.w3.org/1999/xlink" x="0px" y="0px"
	 viewBox="0 0 496 496" style="enable-background:new 0 0 496 496;" xml:space="preserve">
<circle style="fill:#3E606F;" cx="248" cy="288" r="200"/>
<path d="M248,496c-115.2,0-208-92.8-208-208S132.8,80,248,80s208,92.8,208,208S363.2,496,248,496z M248,96C141.6,96,56,181.6,56,288
	s85.6,192,192,192s192-85.6,192-192C440,182.4,353.6,96,248,96z"/>
<circle style="fill:#91AAB4;" cx="248" cy="288" r="168"/>
<path d="M248,464c-97.6,0-176-78.4-176-176s78.4-176,176-176s176,78.4,176,176C424,384.8,344.8,464,248,464z M248,128
	c-88,0-160,72-160,160s72,160,160,160s160-72,160-160S336,128,248,128z"/>
<polyline style="fill:#3E606F;" points="256,248 344,184 352,192 288,280 "/>
<path d="M294.4,284.8l-12.8-9.6l55.2-76l-76,55.2l-9.6-12.8l88-64c3.2-2.4,8-2.4,10.4,0.8l8,8c3.2,2.4,3.2,7.2,0.8,10.4L294.4,284.8
	z"/>
<polyline style="fill:#3E606F;" points="240,328 152,392 144,384 208,296 "/>
<path d="M152,400c-2.4,0-4-0.8-5.6-2.4l-8-8c-3.2-2.4-3.2-7.2-0.8-10.4l64-88l12.8,9.6l-55.2,76l76-55.2l9.6,12.8l-88,64
	C155.2,399.2,153.6,400,152,400z"/>
<circle style="fill:#3E606F;" cx="248" cy="288" r="40"/>
<path d="M248,336c-26.4,0-48-21.6-48-48s21.6-48,48-48s48,21.6,48,48S274.4,336,248,336z M248,256c-17.6,0-32,14.4-32,32
	s14.4,32,32,32s32-14.4,32-32S265.6,256,248,256z"/>
<circle style="fill:#91AAB4;" cx="248" cy="288" r="16"/>
<path d="M248,312c-13.6,0-24-10.4-24-24s10.4-24,24-24s24,10.4,24,24S261.6,312,248,312z M248,280c-4.8,0-8,3.2-8,8s3.2,8,8,8
	c4.8,0,8-3.2,8-8S252.8,280,248,280z"/>
<circle style="fill:#3E606F;" cx="248" cy="32" r="24"/>
<path d="M248,64c-17.6,0-32-14.4-32-32s14.4-32,32-32s32,14.4,32,32S265.6,64,248,64z M248,16c-8.8,0-16,7.2-16,16s7.2,16,16,16
	c8.8,0,16-7.2,16-16S256.8,16,248,16z"/>
<rect x="240" y="56" width="16" height="32"/>
<rect x="240" y="120" width="16" height="40"/>
<rect x="376" y="280" width="40" height="16"/>
<rect x="80" y="280" width="40" height="16"/>
<rect x="240" y="416" width="16" height="40"/>
<rect x="132.002" y="163.204" transform="matrix(-0.7071 0.7071 -0.7071 -0.7071 366.2797 208.29)" width="16" height="33.6"/>
<rect x="347.997" y="379.204" transform="matrix(-0.7071 0.7071 -0.7071 -0.7071 887.7416 424.2934)" width="16" height="33.6"/>
<g>
</g>
<g>
</g>
<g>
</g>
<g>
</g>
<g>
</g>
<g>
</g>
<g>
</g>
<g>
</g>
<g>
</g>
<g>
</g>
<g>
</g>
<g>
</g>
<g>
</g>
<g>
</g>
<g>
</g>
</svg>
