<?xml version="1.0" encoding="iso-8859-1"?>
<!-- Generator: Adobe Illustrator 19.0.0, SVG Export Plug-In . SVG Version: 6.00 Build 0)  -->
<svg version="1.1" id="Capa_1" xmlns="http://www.w3.org/2000/svg" xmlns:xlink="http://www.w3.org/1999/xlink" x="0px" y="0px"
	 viewBox="0 0 495.8 495.8" style="enable-background:new 0 0 495.8 495.8;" xml:space="preserve">
<polygon style="fill:#737272;" points="120.049,215.8 120.049,71.8 88.049,71.8 248.049,7.8 408.049,71.8 376.049,71.8 
	376.049,215.8 "/>
<path d="M376.049,223.8h-256c-4.8,0-8-3.2-8-8v-136h-24c-4.8,0-8-3.2-8-8c0-3.2,1.6-6.4,4.8-7.2l160-64c1.6-0.8,4-0.8,5.6,0l160,64
	c4,1.6,6.4,6.4,4.8,10.4c-0.8,3.2-4,4.8-7.2,4.8h-24v136C384.049,220.6,380.849,223.8,376.049,223.8z M128.049,207.8h240v-136
	c0-2.4,0.8-4.8,3.2-6.4l-123.2-48.8l-123.2,48.8c2.4,1.6,3.2,4,3.2,6.4V207.8z"/>
<polyline style="fill:#BABDBF;" points="224.049,247.8 224.049,455.8 240.049,487.8 256.049,487.8 272.049,455.8 272.049,431.8 
	256.049,415.8 256.049,399.8 272.049,383.8 272.049,367.8 256.049,351.8 256.049,335.8 272.049,319.8 272.049,247.8 "/>
<path d="M256.049,495.8h-16c-3.2,0-5.6-1.6-7.2-4.8l-16-32c-0.8-0.8-0.8-1.6-0.8-3.2v-208h16v206.4l12.8,25.6h6.4l12.8-25.6v-18.4
	l-13.6-13.6c-1.6-2.4-2.4-4-2.4-6.4v-16c0-2.4,0.8-4,2.4-5.6l13.6-13.6V371l-13.6-13.6c-1.6-1.6-2.4-3.2-2.4-5.6v-16
	c0-2.4,0.8-4,2.4-5.6l13.6-13.6v-68.8h16v72c0,2.4-0.8,4-2.4,5.6l-13.6,13.6v9.6l13.6,13.6c1.6,1.6,2.4,3.2,2.4,5.6v16
	c0,2.4-0.8,4-2.4,5.6l-13.6,13.6v9.6l13.6,13.6c1.6,1.6,2.4,3.2,2.4,5.6v24c0,1.6,0,2.4-0.8,3.2l-16,32
	C261.649,494.2,259.249,495.8,256.049,495.8z"/>
<rect x="208.049" y="215.8" style="fill:#737272;" width="80" height="32"/>
<path d="M288.049,255.8h-80c-4.8,0-8-3.2-8-8v-32c0-4.8,3.2-8,8-8h80c4.8,0,8,3.2,8,8v32C296.049,252.6,292.849,255.8,288.049,255.8
	z M216.049,239.8h64v-16h-64V239.8z"/>
<rect x="120.049" y="183.8" style="fill:#BABDBF;" width="256" height="32"/>
<path d="M376.049,223.8h-256c-4.8,0-8-3.2-8-8v-32c0-4.8,3.2-8,8-8h256c4.8,0,8,3.2,8,8v32
	C384.049,220.6,380.849,223.8,376.049,223.8z M128.049,207.8h240v-16h-240V207.8z"/>
<g>
</g>
<g>
</g>
<g>
</g>
<g>
</g>
<g>
</g>
<g>
</g>
<g>
</g>
<g>
</g>
<g>
</g>
<g>
</g>
<g>
</g>
<g>
</g>
<g>
</g>
<g>
</g>
<g>
</g>
</svg>
