<?xml version="1.0" encoding="iso-8859-1"?>
<!-- Generator: Adobe Illustrator 19.0.0, SVG Export Plug-In . SVG Version: 6.00 Build 0)  -->
<svg version="1.1" id="Capa_1" xmlns="http://www.w3.org/2000/svg" xmlns:xlink="http://www.w3.org/1999/xlink" x="0px" y="0px"
	 viewBox="0 0 496 496" style="enable-background:new 0 0 496 496;" xml:space="preserve">
<g>
	<circle style="fill:#46709C;" cx="248" cy="344" r="144"/>
	<path style="fill:#46709C;" d="M314.4,216c70.4,36.8,98.4,123.2,61.6,193.6S252.8,508.8,181.6,472S83.2,348.8,120,277.6
		c13.6-26.4,35.2-48,61.6-61.6"/>
</g>
<path d="M248,496c-84,0-152-68-152-152c0-56.8,32-108.8,82.4-135.2l7.2,14.4c-66.4,34.4-92.8,116.8-58.4,183.2
	s116.8,92.8,183.2,58.4s92.8-116.8,58.4-183.2c-12.8-24.8-33.6-45.6-58.4-58.4l7.2-14.4c74.4,38.4,104,130.4,65.6,204.8
	C356.8,464,304.8,496,248,496z"/>
<path style="fill:#ADBFC9;" d="M360,104v80c0,22.4-50.4,40-112,40s-112-17.6-112-40v-80"/>
<path d="M248,232c-58.4,0-120-16.8-120-48v-80h16v80c0,12.8,40.8,32,104,32s104-19.2,104-32v-80h16v80C368,215.2,306.4,232,248,232z
	"/>
<polygon style="fill:#5E656A;" points="32,72 248,136 464,72 248,8 "/>
<path d="M248,144c-0.8,0-1.6,0-2.4,0l-216-64c-4-1.6-6.4-6.4-5.6-10.4c0.8-2.4,3.2-4.8,5.6-5.6l216-64c1.6,0,3.2,0,4.8,0l216,64
	c4,1.6,6.4,5.6,5.6,9.6c-0.8,2.4-3.2,4.8-5.6,5.6l-216,64C249.6,144,248.8,144,248,144z M60,72l188,56l188-56L248,16L60,72z"/>
<rect x="440" y="72" width="16" height="104"/>
<path style="fill:#ADBFC9;" d="M448,176L448,176c8.8,0,16,7.2,16,16v32l0,0h-32l0,0v-32C432,183.2,439.2,176,448,176z"/>
<path d="M464,232h-32c-4.8,0-8-3.2-8-8v-32c0-13.6,10.4-24,24-24s24,10.4,24,24v32C472,228.8,468.8,232,464,232z M440,216h16v-24
	c0-4.8-3.2-8-8-8s-8,3.2-8,8V216z"/>
<rect x="440" y="224" width="16" height="24"/>
<path d="M224.8,492l-16-26.4c-21.6-36-32.8-77.6-32.8-119.2v-4c0-42.4,11.2-83.2,32.8-119.2l1.6-3.2l13.6,8l-1.6,2.4
	c-20,33.6-30.4,72-30.4,111.2v4c0,39.2,10.4,77.6,30.4,111.2l16,26.4L224.8,492z"/>
<path d="M271.2,492l-13.6-8l16-26.4c20-33.6,30.4-72,30.4-111.2v-4c0-39.2-10.4-77.6-30.4-111.2l-1.6-2.4l13.6-8l1.6,3.2
	c21.6,36,32.8,77.6,32.8,119.2v4c0,42.4-11.2,83.2-32.8,119.2L271.2,492z"/>
<rect x="312" y="336" width="80" height="16"/>
<rect x="104" y="336" width="80" height="16"/>
<circle style="fill:#ADBFC9;" cx="248" cy="72" r="16"/>
<path d="M248,96c-13.6,0-24-10.4-24-24s10.4-24,24-24s24,10.4,24,24S261.6,96,248,96z M248,64c-4.8,0-8,3.2-8,8s3.2,8,8,8
	c4.8,0,8-3.2,8-8S252.8,64,248,64z"/>
<circle style="fill:#F2AB27;" cx="248" cy="272" r="16"/>
<path d="M248,296c-13.6,0-24-10.4-24-24s10.4-24,24-24s24,10.4,24,24S261.6,296,248,296z M248,264c-4.8,0-8,3.2-8,8s3.2,8,8,8
	c4.8,0,8-3.2,8-8S252.8,264,248,264z"/>
<circle style="fill:#C1272D;" cx="248" cy="440" r="16"/>
<path d="M248,464c-13.6,0-24-10.4-24-24s10.4-24,24-24s24,10.4,24,24S261.6,464,248,464z M248,432c-4.8,0-8,3.2-8,8s3.2,8,8,8
	c4.8,0,8-3.2,8-8S252.8,432,248,432z"/>
<rect x="240" y="288" width="16" height="136"/>
<g>
</g>
<g>
</g>
<g>
</g>
<g>
</g>
<g>
</g>
<g>
</g>
<g>
</g>
<g>
</g>
<g>
</g>
<g>
</g>
<g>
</g>
<g>
</g>
<g>
</g>
<g>
</g>
<g>
</g>
</svg>
