<?xml version="1.0" encoding="iso-8859-1"?>
<!-- Generator: Adobe Illustrator 19.0.0, SVG Export Plug-In . SVG Version: 6.00 Build 0)  -->
<svg version="1.1" id="Capa_1" xmlns="http://www.w3.org/2000/svg" xmlns:xlink="http://www.w3.org/1999/xlink" x="0px" y="0px"
	 viewBox="0 0 496 496" style="enable-background:new 0 0 496 496;" xml:space="preserve">
<path style="fill:#7D828C;" d="M400,136V40l17.6,17.6C462.4,102.4,488,164,488,227.2V272"/>
<path d="M496,272h-16v-44.8c0-61.6-24-120.8-68-164l-4-4V136h-16V40c0-4.8,3.2-8,8-8c2.4,0,4,0.8,5.6,2.4L423.2,52
	C469.6,98.4,496,161.6,496,227.2V272z"/>
<path style="fill:#A4A5A6;" d="M336,120h-88l-72,24l40,48l-40,48l72,16h88c11.2,0,22.4,2.4,32,8l0,0c0,61.6-50.4,112-112,112h-8v-16
	c0-26.4-21.6-48-48-48v72l16,16l-16,16v72c26.4,0,48-21.6,48-48v-16h88c84,0,152-68,152-152l0,0C488,188,420,120,336,120z"/>
<path d="M200,496c-4.8,0-8-3.2-8-8v-72c0-2.4,0.8-4,2.4-5.6l10.4-10.4l-10.4-10.4c-1.6-1.6-2.4-3.2-2.4-5.6v-72c0-4.8,3.2-8,8-8
	c31.2,0,56,24.8,56,56v8c56,0,101.6-44,104-99.2c-8-3.2-16-4.8-24-4.8h-88c-0.8,0-0.8,0-1.6,0l-72-16c-4-0.8-7.2-5.6-6.4-9.6
	c0-1.6,0.8-2.4,1.6-3.2l36-43.2l-36-43.2c-3.2-3.2-2.4-8.8,0.8-11.2c0.8-0.8,1.6-0.8,2.4-1.6l72-24c0.8,0,1.6-0.8,2.4-0.8h88
	c88,0,160,72,160,160s-72,160-160,160H256v8C256,471.2,231.2,496,200,496z M208,419.2v60c18.4-4,32-20,32-39.2v-16c0-4.8,3.2-8,8-8
	h88c79.2,0,144-64.8,144-144s-64.8-144-144-144h-86.4l-60,20l32.8,39.2c2.4,3.2,2.4,7.2,0,10.4l-32,37.6l58.4,12.8H336
	c44,0,80,36,80,80v8h-16v-8c0-20-8.8-38.4-24.8-50.4C368,338.4,316.8,384,256,384h-8c-4.8,0-8-3.2-8-8v-16c0-19.2-13.6-35.2-32-39.2
	v60l13.6,13.6c3.2,3.2,3.2,8,0,11.2L208,419.2z"/>
<rect x="256" y="144" width="16" height="16"/>
<path d="M334.4,260.8l-12.8-10.4l16-20c8.8-11.2,14.4-25.6,14.4-40v-5.6c0-14.4-4.8-28.8-14.4-40l-16-20l12.8-10.4l16,20
	c11.2,14.4,17.6,32,17.6,50.4v5.6c0,18.4-6.4,36-17.6,49.6L334.4,260.8z"/>
<path d="M112,224c-17.6,0-32-14.4-32-32c0-14.4,9.6-27.2,24-31.2V136h16v32c0,4.8-3.2,8-8,8c-8.8,0-16,7.2-16,16s7.2,16,16,16
	s16-7.2,16-16h16C144,209.6,129.6,224,112,224z"/>
<rect x="88" y="128" width="48" height="16"/>
<path d="M120,136h-16V24c0-4.8-3.2-8-8-8s-8,3.2-8,8v16c0,13.6-10.4,24-24,24H24V48h40c4.8,0,8-3.2,8-8V24C72,10.4,82.4,0,96,0
	s24,10.4,24,24V136z"/>
<rect x="8" y="448" width="32" height="16"/>
<rect x="216" y="184" width="40" height="16"/>
<rect x="403.997" y="83.225" transform="matrix(-0.7071 0.7071 -0.7071 -0.7071 774.0507 -120.5727)" width="16" height="33.6"/>
<path d="M416,208h-16c0-17.6-14.4-32-32-32h-8v-16h8C394.4,160,416,181.6,416,208z"/>
<rect x="200" y="352" width="24" height="16"/>
<rect x="200" y="432" width="24" height="16"/>
<rect x="8" y="296" style="fill:#A88C55;" width="32" height="192"/>
<path d="M40,496H8c-4.8,0-8-3.2-8-8V296c0-4.8,3.2-8,8-8h32c4.8,0,8,3.2,8,8v192C48,492.8,44.8,496,40,496z M16,480h16V304H16V480z"
	/>
<path d="M32,296H16V8c0-4.8,3.2-8,8-8h24v16H32V296z"/>
<rect x="8" y="320" width="32" height="16"/>
<path d="M104,304H72c-4.8,0-8-3.2-8-8v-24H24v-16h48c4.8,0,8,3.2,8,8v24h24V304z"/>
<rect x="96" y="272" width="16" height="48"/>
<rect x="8" y="296" style="fill:#6B5936;" width="32" height="32"/>
<path d="M40,336H8c-4.8,0-8-3.2-8-8v-32c0-4.8,3.2-8,8-8h32c4.8,0,8,3.2,8,8v32C48,332.8,44.8,336,40,336z M16,320h16v-16H16V320z"
	/>
<rect x="8" y="456" style="fill:#6B5936;" width="32" height="32"/>
<path d="M40,496H8c-4.8,0-8-3.2-8-8v-32c0-4.8,3.2-8,8-8h32c4.8,0,8,3.2,8,8v32C48,492.8,44.8,496,40,496z M16,480h16v-16H16V480z"
	/>
<g>
</g>
<g>
</g>
<g>
</g>
<g>
</g>
<g>
</g>
<g>
</g>
<g>
</g>
<g>
</g>
<g>
</g>
<g>
</g>
<g>
</g>
<g>
</g>
<g>
</g>
<g>
</g>
<g>
</g>
</svg>
