<?xml version="1.0" encoding="iso-8859-1"?>
<!-- Generator: Adobe Illustrator 19.0.0, SVG Export Plug-In . SVG Version: 6.00 Build 0)  -->
<svg version="1.1" id="Capa_1" xmlns="http://www.w3.org/2000/svg" xmlns:xlink="http://www.w3.org/1999/xlink" x="0px" y="0px"
	 viewBox="0 0 496 496" style="enable-background:new 0 0 496 496;" xml:space="preserve">
<polyline style="fill:#737272;" points="88,56 88,8 440,8 440,456 392,456 "/>
<path d="M440,464h-48v-16h40V16H96v40H80V8c0-4.8,3.2-8,8-8h352c4.8,0,8,3.2,8,8v448C448,460.8,444.8,464,440,464z"/>
<polygon style="fill:#BABDBF;" points="392,488 56,488 56,56 336,56 336,112 392,112 "/>
<path d="M392,496H56c-4.8,0-8-3.2-8-8V56c0-4.8,3.2-8,8-8h280c4.8,0,8,3.2,8,8v48h48c4.8,0,8,3.2,8,8v376
	C400,492.8,396.8,496,392,496z M64,480h320V120h-48c-4.8,0-8-3.2-8-8V64H64V480z"/>
<polygon style="fill:#D9D9D9;" points="392,112 336,56 336,112 "/>
<path d="M392,120h-56c-4.8,0-8-3.2-8-8V56c0-4.8,3.2-8,8-8c2.4,0,4,0.8,5.6,2.4l56,56c3.2,3.2,3.2,8,0,11.2
	C396,119.2,394.4,120,392,120z M344,104h28.8L344,75.2V104z"/>
<polyline style="fill:#404040;" points="216,136 216,88 184,88 184,112 "/>
<path d="M224,136h-16V96h-16v16h-16V88c0-4.8,3.2-8,8-8h32c4.8,0,8,3.2,8,8V136z"/>
<circle style="fill:#DFA738;" cx="312" cy="200" r="48"/>
<path d="M312,256c-31.2,0-56-24.8-56-56s24.8-56,56-56s56,24.8,56,56S343.2,256,312,256z M312,160c-22.4,0-40,17.6-40,40
	s17.6,40,40,40s40-17.6,40-40S334.4,160,312,160z"/>
<path d="M304,224c-2.4,0-4-0.8-5.6-2.4l-16-16l11.2-11.2l10.4,10.4l26.4-26.4l11.2,11.2l-32,32C308,223.2,306.4,224,304,224z"/>
<path d="M96,320c-2.4,0-4-0.8-5.6-2.4l-16-16l11.2-11.2L96,300.8l26.4-26.4l11.2,11.2l-32,32C100,319.2,98.4,320,96,320z"/>
<rect x="144" y="304" width="224" height="16"/>
<path d="M96,368c-2.4,0-4-0.8-5.6-2.4l-16-16l11.2-11.2L96,348.8l26.4-26.4l11.2,11.2l-32,32C100,367.2,98.4,368,96,368z"/>
<rect x="144" y="352" width="224" height="16"/>
<path d="M96,416c-2.4,0-4-0.8-5.6-2.4l-16-16l11.2-11.2L96,396.8l26.4-26.4l11.2,11.2l-32,32C100,415.2,98.4,416,96,416z"/>
<rect x="144" y="400" width="224" height="16"/>
<path d="M96,464c-2.4,0-4-0.8-5.6-2.4l-16-16l11.2-11.2L96,444.8l26.4-26.4l11.2,11.2l-32,32C100,463.2,98.4,464,96,464z"/>
<rect x="144" y="448" width="224" height="16"/>
<polygon style="fill:#737272;" points="232,152 232,248 88,248 88,152 160,88 "/>
<path d="M232,256H88c-4.8,0-8-3.2-8-8v-96c0-2.4,0.8-4.8,2.4-5.6l72-64c3.2-2.4,8-2.4,10.4,0l72,64c1.6,1.6,2.4,4,2.4,5.6v96
	C240,252.8,236.8,256,232,256z M96,240h128v-84.8l-64-56.8l-64,56.8V240z"/>
<rect x="184" y="208" width="48" height="16"/>
<rect x="136" y="168" style="fill:#BABDBF;" width="48" height="80"/>
<path d="M184,256h-48c-4.8,0-8-3.2-8-8v-80c0-4.8,3.2-8,8-8h48c4.8,0,8,3.2,8,8v80C192,252.8,188.8,256,184,256z M144,240h32v-64
	h-32V240z"/>
<rect x="88" y="208" width="48" height="16"/>
<g>
</g>
<g>
</g>
<g>
</g>
<g>
</g>
<g>
</g>
<g>
</g>
<g>
</g>
<g>
</g>
<g>
</g>
<g>
</g>
<g>
</g>
<g>
</g>
<g>
</g>
<g>
</g>
<g>
</g>
</svg>
