<?xml version="1.0" encoding="iso-8859-1"?>
<!-- Generator: Adobe Illustrator 19.0.0, SVG Export Plug-In . SVG Version: 6.00 Build 0)  -->
<svg version="1.1" id="Capa_1" xmlns="http://www.w3.org/2000/svg" xmlns:xlink="http://www.w3.org/1999/xlink" x="0px" y="0px"
	 viewBox="0 0 496 496" style="enable-background:new 0 0 496 496;" xml:space="preserve">
<rect x="224" y="136" width="16" height="32"/>
<polyline style="fill:#BFBD9F;" points="232,216 232,440 264,440 264,216 "/>
<path d="M264,448h-32c-4.8,0-8-3.2-8-8V216h16v216h16V216h16v224C272,444.8,268.8,448,264,448z"/>
<polygon style="fill:#BFBD9F;" points="432,56 200,56 200,8 432,8 456,32 "/>
<path d="M432,64H200c-4.8,0-8-3.2-8-8V8c0-4.8,3.2-8,8-8h232c2.4,0,4,0.8,5.6,2.4l24,24c3.2,3.2,3.2,8,0,11.2l-24,24
	C436,63.2,434.4,64,432,64z M208,48h220.8l16-16l-16-16H208V48z"/>
<polygon style="fill:#BFBD9F;" points="64,136 296,136 296,88 64,88 40,112 "/>
<path d="M296,144H64c-2.4,0-4-0.8-5.6-2.4l-24-24c-3.2-3.2-3.2-8,0-11.2l24-24C60,80.8,61.6,80,64,80h232c4.8,0,8,3.2,8,8v48
	C304,140.8,300.8,144,296,144z M67.2,128H288V96H67.2l-16,16L67.2,128z"/>
<polygon style="fill:#BFBD9F;" points="432,216 200,216 200,168 432,168 456,192 "/>
<path d="M432,224H200c-4.8,0-8-3.2-8-8v-48c0-4.8,3.2-8,8-8h232c2.4,0,4,0.8,5.6,2.4l24,24c3.2,3.2,3.2,8,0,11.2l-24,24
	C436,223.2,434.4,224,432,224z M208,208h220.8l16-16l-16-16H208V208z"/>
<rect x="184" y="440" style="fill:#778C7A;" width="128" height="48"/>
<path d="M312,496H184c-4.8,0-8-3.2-8-8v-48c0-4.8,3.2-8,8-8h128c4.8,0,8,3.2,8,8v48C320,492.8,316.8,496,312,496z M192,480h112v-32
	H192V480z"/>
<rect x="256" y="136" width="16" height="32"/>
<rect x="224" y="56" width="16" height="32"/>
<rect x="256" y="56" width="16" height="32"/>
<rect x="136" y="456" style="fill:#778C7A;" width="48" height="32"/>
<path d="M184,496h-48c-4.8,0-8-3.2-8-8v-32c0-4.8,3.2-8,8-8h48c4.8,0,8,3.2,8,8v32C192,492.8,188.8,496,184,496z M144,480h32v-16
	h-32V480z"/>
<rect x="312" y="456" style="fill:#778C7A;" width="48" height="32"/>
<path d="M360,496h-48c-4.8,0-8-3.2-8-8v-32c0-4.8,3.2-8,8-8h48c4.8,0,8,3.2,8,8v32C368,492.8,364.8,496,360,496z M320,480h32v-16
	h-32V480z"/>
<rect x="208" y="440" width="16" height="48"/>
<rect x="272" y="440" width="16" height="48"/>
<rect x="232" y="240" width="32" height="16"/>
<rect x="232" y="400" width="32" height="16"/>
<rect x="200" y="168" style="fill:#778C7A;" width="104" height="48"/>
<path d="M304,224H200c-4.8,0-8-3.2-8-8v-48c0-4.8,3.2-8,8-8h104c4.8,0,8,3.2,8,8v48C312,220.8,308.8,224,304,224z M208,208h88v-32
	h-88V208z"/>
<rect x="200" y="88" style="fill:#778C7A;" width="96" height="48"/>
<path d="M296,144h-96c-4.8,0-8-3.2-8-8V88c0-4.8,3.2-8,8-8h96c4.8,0,8,3.2,8,8v48C304,140.8,300.8,144,296,144z M208,128h80V96h-80
	V128z"/>
<rect x="200" y="8" style="fill:#778C7A;" width="96" height="48"/>
<path d="M296,64h-96c-4.8,0-8-3.2-8-8V8c0-4.8,3.2-8,8-8h96c4.8,0,8,3.2,8,8v48C304,60.8,300.8,64,296,64z M208,48h80V16h-80V48z"/>
<rect x="232" y="136" style="fill:#BFBD9F;" width="32" height="32"/>
<path d="M264,176h-32c-4.8,0-8-3.2-8-8v-32c0-4.8,3.2-8,8-8h32c4.8,0,8,3.2,8,8v32C272,172.8,268.8,176,264,176z M240,160h16v-16
	h-16V160z"/>
<rect x="232" y="56" style="fill:#BFBD9F;" width="32" height="32"/>
<path d="M264,96h-32c-4.8,0-8-3.2-8-8V56c0-4.8,3.2-8,8-8h32c4.8,0,8,3.2,8,8v32C272,92.8,268.8,96,264,96z M240,80h16V64h-16V80z"
	/>
<g>
</g>
<g>
</g>
<g>
</g>
<g>
</g>
<g>
</g>
<g>
</g>
<g>
</g>
<g>
</g>
<g>
</g>
<g>
</g>
<g>
</g>
<g>
</g>
<g>
</g>
<g>
</g>
<g>
</g>
</svg>
