<?xml version="1.0" encoding="iso-8859-1"?>
<!-- Generator: Adobe Illustrator 19.0.0, SVG Export Plug-In . SVG Version: 6.00 Build 0)  -->
<svg version="1.1" id="Capa_1" xmlns="http://www.w3.org/2000/svg" xmlns:xlink="http://www.w3.org/1999/xlink" x="0px" y="0px"
	 viewBox="0 0 496.152 496.152" style="enable-background:new 0 0 496.152 496.152;" xml:space="preserve">
<polyline style="fill:#737272;" points="56,248.076 56,200.076 104,200.076 104,224.076 "/>
<path d="M64,248.076H48v-48c0-4.8,3.2-8,8-8h48c4.8,0,8,3.2,8,8v24H96v-16H64V248.076z"/>
<polygon style="fill:#737272;" points="280,264.076 280,456.076 24,456.076 24,264.076 152,200.076 "/>
<path d="M280,464.076H24c-4.8,0-8-3.2-8-8v-192c0-3.2,1.6-5.6,4.8-7.2l128-64c2.4-0.8,4.8-0.8,7.2,0l128,64c2.4,1.6,4.8,4,4.8,7.2
	v192C288,460.876,284.8,464.076,280,464.076z M32,448.076h240v-179.2l-120-60l-120,60V448.076z"/>
<rect x="8" y="456.076" style="fill:#737272;" width="288" height="32"/>
<path d="M296,496.076H8c-4.8,0-8-3.2-8-8v-32c0-4.8,3.2-8,8-8h288c4.8,0,8,3.2,8,8v32C304,492.876,300.8,496.076,296,496.076z
	 M16,480.076h272v-16H16V480.076z"/>
<polygon style="fill:#BABDBF;" points="280,296.076 152,232.076 24,296.076 24,264.076 152,200.076 280,264.076 "/>
<path d="M280,304.076c-1.6,0-2.4,0-3.2-0.8l-124.8-62.4l-124.8,62.4c-4,1.6-8.8,0-10.4-3.2c-0.8-1.6-0.8-2.4-0.8-4v-32
	c0-3.2,1.6-5.6,4.8-7.2l128-64c2.4-0.8,4.8-0.8,7.2,0l128,64c2.4,1.6,4.8,4,4.8,7.2v32C288,300.876,284.8,304.076,280,304.076z
	 M152,224.076c1.6,0,2.4,0,3.2,0.8l116.8,58.4v-14.4l-120-60l-120,60v14.4l116.8-58.4C149.6,224.076,150.4,224.076,152,224.076z"/>
<rect x="112" y="328.076" style="fill:#BABDBF;" width="80" height="128"/>
<path d="M192,464.076h-80c-4.8,0-8-3.2-8-8v-128c0-4.8,3.2-8,8-8h80c4.8,0,8,3.2,8,8v128C200,460.876,196.8,464.076,192,464.076z
	 M120,448.076h64v-112h-64V448.076z"/>
<rect x="24" y="424.076" style="fill:#BABDBF;" width="88" height="32"/>
<path d="M112,464.076H24c-4.8,0-8-3.2-8-8v-32c0-4.8,3.2-8,8-8h88c4.8,0,8,3.2,8,8v32C120,460.876,116.8,464.076,112,464.076z
	 M32,448.076h72v-16H32V448.076z"/>
<rect x="192" y="424.076" style="fill:#BABDBF;" width="88" height="32"/>
<path d="M280,464.076h-88c-4.8,0-8-3.2-8-8v-32c0-4.8,3.2-8,8-8h88c4.8,0,8,3.2,8,8v32C288,460.876,284.8,464.076,280,464.076z
	 M200,448.076h72v-16h-72V448.076z"/>
<polygon style="fill:#BABDBF;" points="488,168.076 216,168.076 248,8.076 456,8.076 "/>
<path d="M488,176.076H216c-4.8,0-8-3.2-8-8c0-0.8,0-0.8,0-1.6l32-160c0.8-4,4-6.4,8-6.4h208c4,0,7.2,2.4,8,6.4l32,160
	c0.8,4-1.6,8.8-6.4,9.6C488.8,176.076,488.8,176.076,488,176.076z M225.6,160.076h252.8l-28.8-144H254.4L225.6,160.076z"/>
<polygon style="fill:#737272;" points="432,40.076 448,136.076 256,136.076 272,40.076 "/>
<path d="M448,144.076H256c-4.8,0-8-3.2-8-8c0-0.8,0-0.8,0-1.6l16-96c0.8-3.2,4-6.4,8-6.4h160c4,0,7.2,3.2,8,6.4l16,96
	c0.8,4-2.4,8.8-6.4,9.6C448.8,144.076,448.8,144.076,448,144.076z M265.6,128.076h172.8l-12.8-80H278.4L265.6,128.076z"/>
<rect x="264" y="64.076" width="176" height="16"/>
<rect x="264" y="96.076" width="176" height="16"/>
<rect x="344" y="40.076" width="16" height="96"/>
<rect x="251.998" y="80.082" transform="matrix(-0.083 0.9965 -0.9965 -0.083 412.6747 -203.5678)" width="95.995" height="15.999"/>
<rect x="395.979" y="40.077" transform="matrix(-0.9965 0.0831 -0.0831 -0.9965 813.8769 142.2941)" width="15.999" height="95.996"/>
<rect x="216" y="168.076" style="fill:#737272;" width="272" height="32"/>
<path d="M488,208.076H216c-4.8,0-8-3.2-8-8v-32c0-4.8,3.2-8,8-8h272c4.8,0,8,3.2,8,8v32C496,204.876,492.8,208.076,488,208.076z
	 M224,192.076h256v-16H224V192.076z"/>
<rect x="336" y="200.076" style="fill:#BABDBF;" width="32" height="48"/>
<path d="M368,256.076h-32c-4.8,0-8-3.2-8-8v-48c0-4.8,3.2-8,8-8h32c4.8,0,8,3.2,8,8v48C376,252.876,372.8,256.076,368,256.076z
	 M344,240.076h16v-32h-16V240.076z"/>
<rect x="320" y="248.076" style="fill:#737272;" width="64" height="32"/>
<path d="M384,288.076h-64c-4.8,0-8-3.2-8-8v-32c0-4.8,3.2-8,8-8h64c4.8,0,8,3.2,8,8v32C392,284.876,388.8,288.076,384,288.076z
	 M328,272.076h48v-16h-48V272.076z"/>
<path d="M472,320.076H280v-16h184v-104h16v112C480,316.876,476.8,320.076,472,320.076z"/>
<path d="M440,352.076H280v-16h152v-136h16v144C448,348.876,444.8,352.076,440,352.076z"/>
<rect x="72" y="24.076" width="16" height="32"/>
<rect x="32.178" y="30.431" transform="matrix(-0.8944 0.4472 -0.4472 -0.8944 97.7717 73.78)" width="16" height="35.999"/>
<rect x="102.179" y="39.718" transform="matrix(-0.4472 0.8944 -0.8944 -0.4472 216.6048 -38.4331)" width="35.999" height="16"/>
<path style="fill:#DFA738;" d="M104,200.076v-10.4c0-8.8,3.2-16.8,9.6-22.4l0.8-0.8c8.8-8.8,14.4-21.6,14.4-33.6v-4.8
	c0-26.4-21.6-48-48-48c-0.8,0-0.8,0-1.6,0c-26.4,1.6-47.2,23.2-46.4,50.4v2.4c0,12.8,4.8,24.8,14.4,33.6l0.8,0.8
	c4.8,5.6,8,13.6,8,22.4v10.4H104z"/>
<path d="M104,208.076H56c-4.8,0-8-3.2-8-8v-10.4c0-6.4-2.4-12.8-7.2-16.8l-0.8-0.8c-10.4-10.4-16.8-24.8-16-39.2v-2.4
	c0-30.4,23.2-56,54.4-58.4c31.2-0.8,56.8,23.2,57.6,54.4c0,0.8,0,0.8,0,1.6v4c0,15.2-5.6,28.8-16.8,39.2l-0.8,0.8
	c-4.8,4.8-7.2,10.4-7.2,16.8v11.2C112,204.876,108.8,208.076,104,208.076z M64,192.076h32v-2.4c0-10.4,4-20.8,12-28l0.8-0.8
	c7.2-7.2,12-17.6,12-28v-4.8c0-22.4-17.6-40-40-40c-0.8,0-0.8,0-1.6,0c-22.4,1.6-39.2,20-39.2,42.4v2.4c0,10.4,4,20.8,12,28l0.8,0.8
	c7.2,7.2,11.2,16.8,11.2,28V192.076z"/>
<circle style="fill:#F7E366;" cx="80" cy="128.076" r="16"/>
<path d="M80,152.076c-13.6,0-24-10.4-24-24s10.4-24,24-24s24,10.4,24,24S93.6,152.076,80,152.076z M80,120.076c-4.8,0-8,3.2-8,8
	c0,4.8,3.2,8,8,8s8-3.2,8-8C88,123.276,84.8,120.076,80,120.076z"/>
<g>
</g>
<g>
</g>
<g>
</g>
<g>
</g>
<g>
</g>
<g>
</g>
<g>
</g>
<g>
</g>
<g>
</g>
<g>
</g>
<g>
</g>
<g>
</g>
<g>
</g>
<g>
</g>
<g>
</g>
</svg>
