<?xml version="1.0" encoding="iso-8859-1"?>
<!-- Generator: Adobe Illustrator 19.0.0, SVG Export Plug-In . SVG Version: 6.00 Build 0)  -->
<svg version="1.1" id="Capa_1" xmlns="http://www.w3.org/2000/svg" xmlns:xlink="http://www.w3.org/1999/xlink" x="0px" y="0px"
	 viewBox="0 0 496 496" style="enable-background:new 0 0 496 496;" xml:space="preserve">
<rect x="56" y="24" style="fill:#858486;" width="320" height="192"/>
<rect x="88" y="8" style="fill:#B6B3B8;" width="320" height="176"/>
<path style="fill:#789DC3;" d="M464,224L464,224c8.8,0,16-7.2,16-16v-72c0-13.6-10.4-24-24-24H320c-8.8,0-16,7.2-16,16l0,0
	c0,8.8,7.2,16,16,16h64v80"/>
<polyline style="fill:#C1272D;" points="384,192 384,320 448,320 448,192 "/>
<path style="fill:#F2AB27;" d="M232,392h32c26.4,0,48,21.6,48,48v48l0,0H184l0,0v-48C184,413.6,205.6,392,232,392z"/>
<path d="M312,496H184c-4.8,0-8-3.2-8-8v-48c0-31.2,24.8-56,56-56h32c31.2,0,56,24.8,56,56v48C320,492.8,316.8,496,312,496z M192,480
	h112v-40c0-22.4-17.6-40-40-40h-32c-22.4,0-40,17.6-40,40V480z"/>
<path style="fill:#F2AB27;" d="M56,392h32c26.4,0,48,21.6,48,48v48l0,0H8l0,0v-48C8,413.6,29.6,392,56,392z"/>
<path d="M136,496H8c-4.8,0-8-3.2-8-8v-48c0-31.2,24.8-56,56-56h32c31.2,0,56,24.8,56,56v48C144,492.8,140.8,496,136,496z M16,480
	h112v-40c0-22.4-17.6-40-40-40H56c-22.4,0-40,17.6-40,40V480z"/>
<path style="fill:#F2AB27;" d="M408,392h32c26.4,0,48,21.6,48,48v48l0,0H360l0,0v-48C360,413.6,381.6,392,408,392z"/>
<path d="M488,496H360c-4.8,0-8-3.2-8-8v-48c0-31.2,24.8-56,56-56h32c31.2,0,56,24.8,56,56v48C496,492.8,492.8,496,488,496z M368,480
	h112v-40c0-22.4-17.6-40-40-40h-32c-22.4,0-40,17.6-40,40V480z"/>
<circle style="fill:#736357;" cx="72" cy="320" r="40"/>
<path d="M72,368c-26.4,0-48-21.6-48-48s21.6-48,48-48s48,21.6,48,48S98.4,368,72,368z M72,288c-17.6,0-32,14.4-32,32s14.4,32,32,32
	s32-14.4,32-32S89.6,288,72,288z"/>
<circle style="fill:#736357;" cx="248" cy="320" r="40"/>
<path d="M248,368c-26.4,0-48-21.6-48-48s21.6-48,48-48s48,21.6,48,48S274.4,368,248,368z M248,288c-17.6,0-32,14.4-32,32
	s14.4,32,32,32s32-14.4,32-32S265.6,288,248,288z"/>
<circle style="fill:#736357;" cx="424" cy="320" r="40"/>
<path d="M424,368c-26.4,0-48-21.6-48-48s21.6-48,48-48s48,21.6,48,48S450.4,368,424,368z M424,288c-17.6,0-32,14.4-32,32
	s14.4,32,32,32s32-14.4,32-32S441.6,288,424,288z"/>
<path d="M384,192H88c-4.8,0-8-3.2-8-8V8c0-4.8,3.2-8,8-8h320c4.8,0,8,3.2,8,8v32h-16V16H96v160h288V192z"/>
<path d="M384,224H56c-4.8,0-8-3.2-8-8V24c0-4.8,3.2-8,8-8h32v16H64v176h320V224z"/>
<circle style="fill:#C7B299;" cx="416" cy="64" r="24"/>
<path d="M416,96c-17.6,0-32-14.4-32-32s14.4-32,32-32s32,14.4,32,32S433.6,96,416,96z M416,48c-8.8,0-16,7.2-16,16s7.2,16,16,16
	s16-7.2,16-16S424.8,48,416,48z"/>
<rect x="32" y="448" width="16" height="40"/>
<rect x="96" y="448" width="16" height="40"/>
<rect x="208" y="448" width="16" height="40"/>
<rect x="272" y="448" width="16" height="40"/>
<rect x="384" y="448" width="16" height="40"/>
<rect x="448" y="448" width="16" height="40"/>
<polygon style="fill:#C7B299;" points="56,392 56,408 72,424 88,408 88,392 "/>
<path d="M72,432c-2.4,0-4-0.8-5.6-2.4l-16-16c-1.6-1.6-2.4-3.2-2.4-5.6v-16c0-4.8,3.2-8,8-8h32c4.8,0,8,3.2,8,8v16
	c0,2.4-0.8,4-2.4,5.6l-16,16C76,431.2,74.4,432,72,432z M64,404.8l8,8l8-8V400H64V404.8z"/>
<polygon style="fill:#C7B299;" points="232,392 232,408 248,424 264,408 264,392 "/>
<path d="M248,432c-2.4,0-4-0.8-5.6-2.4l-16-16c-1.6-1.6-2.4-3.2-2.4-5.6v-16c0-4.8,3.2-8,8-8h32c4.8,0,8,3.2,8,8v16
	c0,2.4-0.8,4-2.4,5.6l-16,16C252,431.2,250.4,432,248,432z M240,404.8l8,8l8-8V400h-16V404.8z"/>
<polygon style="fill:#C7B299;" points="408,392 408,408 424,424 440,408 440,392 "/>
<path d="M424,432c-2.4,0-4-0.8-5.6-2.4l-16-16c-1.6-1.6-2.4-3.2-2.4-5.6v-16c0-4.8,3.2-8,8-8h32c4.8,0,8,3.2,8,8v16
	c0,2.4-0.8,4-2.4,5.6l-16,16C428,431.2,426.4,432,424,432z M416,404.8l8,8l8-8V400h-16V404.8z"/>
<rect x="408" y="208" width="16" height="80"/>
<rect x="440" y="136" width="16" height="152"/>
<circle style="fill:#C1272D;" cx="232" cy="56" r="16"/>
<path d="M232,80c-13.6,0-24-10.4-24-24s10.4-24,24-24s24,10.4,24,24S245.6,80,232,80z M232,48c-4.8,0-8,3.2-8,8s3.2,8,8,8s8-3.2,8-8
	S236.8,48,232,48z"/>
<circle style="fill:#C1272D;" cx="232" cy="136" r="16"/>
<path d="M232,160c-13.6,0-24-10.4-24-24s10.4-24,24-24s24,10.4,24,24S245.6,160,232,160z M232,128c-4.8,0-8,3.2-8,8s3.2,8,8,8
	s8-3.2,8-8S236.8,128,232,128z"/>
<path d="M252.8,136.8l-9.6-12.8c8-7.2,12.8-17.6,12.8-28c0.8-11.2-4-21.6-12.8-28l9.6-12.8c12.8,9.6,20,24.8,19.2,40.8
	C272.8,112,265.6,127.2,252.8,136.8z"/>
<path d="M211.2,136.8c-12.8-9.6-20-24.8-19.2-40.8c-0.8-16,6.4-31.2,19.2-40.8l9.6,12.8c-8,7.2-12.8,17.6-12.8,28
	c-0.8,11.2,4,21.6,12.8,28L211.2,136.8z"/>
<circle style="fill:#C1272D;" cx="136" cy="96" r="16"/>
<path d="M136,120c-13.6,0-24-10.4-24-24s10.4-24,24-24s24,10.4,24,24S149.6,120,136,120z M136,88c-4.8,0-8,3.2-8,8s3.2,8,8,8
	s8-3.2,8-8S140.8,88,136,88z"/>
<rect x="152" y="88" width="48" height="16"/>
<path d="M392,320h-16V152h-56c-13.6,0-24-10.4-24-24s10.4-24,24-24h136c17.6,0,32,14.4,32,32v72c0,13.6-10.4,24-24,24h-16v-16h16
	c4.8,0,8-3.2,8-8v-72c0-8.8-7.2-16-16-16H320c-4.8,0-8,3.2-8,8s3.2,8,8,8h64c4.8,0,8,3.2,8,8V320z"/>
<rect x="328" y="112" width="16" height="32"/>
<rect x="448" y="184" width="32" height="16"/>
<g>
</g>
<g>
</g>
<g>
</g>
<g>
</g>
<g>
</g>
<g>
</g>
<g>
</g>
<g>
</g>
<g>
</g>
<g>
</g>
<g>
</g>
<g>
</g>
<g>
</g>
<g>
</g>
<g>
</g>
</svg>
