<?xml version="1.0" encoding="iso-8859-1"?>
<!-- Generator: Adobe Illustrator 19.0.0, SVG Export Plug-In . SVG Version: 6.00 Build 0)  -->
<svg version="1.1" id="Capa_1" xmlns="http://www.w3.org/2000/svg" xmlns:xlink="http://www.w3.org/1999/xlink" x="0px" y="0px"
	 viewBox="0 0 495.701 495.701" style="enable-background:new 0 0 495.701 495.701;" xml:space="preserve">
<rect x="48" y="47.851" style="fill:#91AAB4;" width="400" height="256"/>
<path d="M448,311.851H48c-4.8,0-8-3.2-8-8v-256c0-4.8,3.2-8,8-8h400c4.8,0,8,3.2,8,8v256C456,308.651,452.8,311.851,448,311.851z
	 M56,295.851h384v-240H56V295.851z"/>
<polygon style="fill:#3E606F;" points="488,447.851 8,447.851 48,335.851 448,335.851 "/>
<path d="M488,455.851H8c-4.8,0-8-3.2-8-8c0-0.8,0-1.6,0.8-2.4l40-112c0.8-3.2,4-5.6,7.2-5.6h400c3.2,0,6.4,2.4,7.2,5.6l40,112
	c1.6,4-0.8,8.8-4.8,10.4C489.6,455.851,488.8,455.851,488,455.851z M19.2,439.851h457.6l-34.4-96H53.6L19.2,439.851z"/>
<rect x="192" y="407.851" width="112" height="16"/>
<rect x="32" y="375.851" width="432" height="16"/>
<rect x="88" y="303.851" width="16" height="32"/>
<rect x="392" y="303.851" width="16" height="32"/>
<polygon style="fill:#737272;" points="152,271.851 152,175.851 112,175.851 248,79.851 384,175.851 344,175.851 344,271.851 "/>
<path d="M344,279.851H152c-4.8,0-8-3.2-8-8v-88h-32c-4.8,0-8-3.2-8-8c0-2.4,1.6-4.8,3.2-6.4l136-96c2.4-1.6,6.4-1.6,9.6,0l136,96
	c4,2.4,4.8,7.2,1.6,11.2c-1.6,1.6-4,3.2-6.4,3.2h-32v88C352,276.651,348.8,279.851,344,279.851z M160,263.851h176v-88
	c0-4.8,3.2-8,8-8h14.4L248,89.451l-110.4,78.4H152c4.8,0,8,3.2,8,8V263.851z"/>
<rect x="224" y="191.851" style="fill:#BABDBF;" width="48" height="80"/>
<path d="M272,279.851h-48c-4.8,0-8-3.2-8-8v-80c0-4.8,3.2-8,8-8h48c4.8,0,8,3.2,8,8v80C280,276.651,276.8,279.851,272,279.851z
	 M232,263.851h32v-64h-32V263.851z"/>
<rect x="152" y="239.851" style="fill:#BABDBF;" width="72" height="32"/>
<path d="M224,279.851h-72c-4.8,0-8-3.2-8-8v-32c0-4.8,3.2-8,8-8h72c4.8,0,8,3.2,8,8v32C232,276.651,228.8,279.851,224,279.851z
	 M160,263.851h56v-16h-56V263.851z"/>
<rect x="272" y="239.851" style="fill:#BABDBF;" width="72" height="32"/>
<path d="M344,279.851h-72c-4.8,0-8-3.2-8-8v-32c0-4.8,3.2-8,8-8h72c4.8,0,8,3.2,8,8v32C352,276.651,348.8,279.851,344,279.851z
	 M280,263.851h56v-16h-56V263.851z"/>
<g>
</g>
<g>
</g>
<g>
</g>
<g>
</g>
<g>
</g>
<g>
</g>
<g>
</g>
<g>
</g>
<g>
</g>
<g>
</g>
<g>
</g>
<g>
</g>
<g>
</g>
<g>
</g>
<g>
</g>
</svg>
