<?xml version="1.0" encoding="iso-8859-1"?>
<!-- Generator: Adobe Illustrator 19.0.0, SVG Export Plug-In . SVG Version: 6.00 Build 0)  -->
<svg version="1.1" id="Capa_1" xmlns="http://www.w3.org/2000/svg" xmlns:xlink="http://www.w3.org/1999/xlink" x="0px" y="0px"
	 viewBox="0 0 496 496" style="enable-background:new 0 0 496 496;" xml:space="preserve">
<polyline style="fill:#D94A56;" points="72,224 40,192 16,216 48,248 "/>
<path d="M42.4,253.6l-32-32c-3.2-3.2-3.2-8,0-11.2l24-24c3.2-3.2,8-3.2,11.2,0l32,32l-11.2,11.2L40,203.2L27.2,216l26.4,26.4
	L42.4,253.6z"/>
<g>
	<path style="fill:#42A24F;" d="M192,48L192,48c26.4,0,48,21.6,48,48l0,0c0-26.4,21.6-48,48-48l0,0c-26.4,0-48-21.6-48-48l0,0
		C240,26.4,218.4,48,192,48z"/>
	<path style="fill:#42A24F;" d="M64,72L64,72c26.4,0,48,21.6,48,48l0,0c0-26.4,21.6-48,48-48l0,0c-26.4,0-48-21.6-48-48l0,0
		C112,50.4,90.4,72,64,72z"/>
</g>
<g>
	<path style="fill:#F48827;" d="M344,288L344,288c26.4,0,48,21.6,48,48l0,0c0-26.4,21.6-48,48-48l0,0c-26.4,0-48-21.6-48-48l0,0
		C392,266.4,370.4,288,344,288z"/>
	<path style="fill:#F48827;" d="M288,392L288,392c26.4,0,48,21.6,48,48l0,0c0-26.4,21.6-48,48-48l0,0c-26.4,0-48-21.6-48-48l0,0
		C336,370.4,314.4,392,288,392z"/>
</g>
<path style="fill:#46709C;" d="M448,24c0-8.8,7.2-16,16-16s16,7.2,16,16s-7.2,16-16,16"/>
<path d="M464,48V32c4.8,0,8-3.2,8-8s-3.2-8-8-8s-8,3.2-8,8h-16c0-13.6,10.4-24,24-24s24,10.4,24,24S477.6,48,464,48z"/>
<g>
	<circle style="fill:#789DC3;" cx="416" cy="80" r="64"/>
	<path style="fill:#789DC3;" d="M120,216L120,216c61.6,0,112,50.4,112,112v160l0,0H8l0,0V328C8,266.4,58.4,216,120,216z"/>
</g>
<path d="M232,496H8c-4.8,0-8-3.2-8-8V328c0-66.4,53.6-120,120-120s120,53.6,120,120v160C240,492.8,236.8,496,232,496z M16,480h208
	V328c0-57.6-46.4-104-104-104S16,270.4,16,328V480z"/>
<rect x="8" y="392" style="fill:#D3D2D6;" width="224" height="64"/>
<path d="M232,464H8c-4.8,0-8-3.2-8-8v-64c0-4.8,3.2-8,8-8h224c4.8,0,8,3.2,8,8v64C240,460.8,236.8,464,232,464z M16,448h208v-48H16
	V448z"/>
<rect x="32" y="416" width="16" height="16"/>
<rect x="64" y="416" width="16" height="16"/>
<path style="fill:#FFFFFF;" d="M64,360h136v-32c0-44-36-80-80-80l-56,80"/>
<path d="M200,368H64v-16h128v-24c0-38.4-29.6-69.6-68-72l-53.6,76.8L57.6,324l56-80c1.6-2.4,4-3.2,6.4-3.2c48.8,0,88,39.2,88,88v32
	C208,364.8,204.8,368,200,368z"/>
<circle style="fill:#D94A56;" cx="64" cy="344" r="16"/>
<path d="M64,368c-13.6,0-24-10.4-24-24s10.4-24,24-24s24,10.4,24,24S77.6,368,64,368z M64,336c-4.8,0-8,3.2-8,8s3.2,8,8,8s8-3.2,8-8
	S68.8,336,64,336z"/>
<rect x="40" y="344" width="16" height="48"/>
<rect x="72" y="344" width="16" height="48"/>
<path d="M416,152c-40,0-72-32-72-72c0-16,5.6-32,16-44.8l12.8,10.4C364,55.2,360,67.2,360,80c0,31.2,24.8,56,56,56
	c12.8,0,24.8-4,35.2-12l10.4,12.8C448,146.4,432,152,416,152z"/>
<path d="M482.4,107.2l-15.2-6.4c2.4-6.4,4-13.6,4-20.8c0-31.2-24.8-56-56-56c-7.2,0-14.4,1.6-20.8,4L388,12.8
	c36.8-15.2,79.2,3.2,93.6,40C489.6,70.4,489.6,89.6,482.4,107.2z"/>
<rect x="275.996" y="144.005" transform="matrix(-0.7071 0.7071 -0.7071 -0.7071 694.7202 16.2471)" width="135.999" height="16"/>
<rect x="372.211" y="168.332" transform="matrix(-0.4472 0.8944 -0.8944 -0.4472 747.9044 -109.566)" width="71.198" height="16"/>
<rect x="284.034" y="80.184" transform="matrix(-0.8944 0.4472 -0.4472 -0.8944 644.9577 24.1135)" width="71.198" height="16"/>
<rect x="403.195" y="-3.194" transform="matrix(-0.7071 0.7071 -0.7071 -0.7071 770.7207 -167.2318)" style="fill:#D94A56;" width="33.6" height="158.398"/>
<path d="M464,152c-2.4,0-4-0.8-5.6-2.4l-112-112c-3.2-3.2-3.2-8,0-11.2l24-24c3.2-3.2,8-3.2,11.2,0l112,112c3.2,3.2,3.2,8,0,11.2
	l-24,24C468,151.2,466.4,152,464,152z M363.2,32L464,132.8l12.8-12.8L376,19.2L363.2,32z"/>
<rect x="107.208" y="272.011" transform="matrix(-0.5547 0.8321 -0.8321 -0.5547 444.4388 322.1581)" width="57.602" height="16.001"/>
<rect x="192" y="392" width="16" height="64"/>
<path d="M192,56V40c22.4,0,40-17.6,40-40h16C248,31.2,223.2,56,192,56z"/>
<path d="M288,56c-31.2,0-56-24.8-56-56h16c0,22.4,17.6,40,40,40V56z"/>
<path d="M248,96h-16c0-31.2,24.8-56,56-56v16C265.6,56,248,73.6,248,96z"/>
<path d="M248,96h-16c0-22.4-17.6-40-40-40V40C223.2,40,248,64.8,248,96z"/>
<path d="M64,80V64c22.4,0,40-17.6,40-40h16C120,55.2,95.2,80,64,80z"/>
<path d="M160,80c-31.2,0-56-24.8-56-56h16c0,22.4,17.6,40,40,40V80z"/>
<path d="M120,120h-16c0-31.2,24.8-56,56-56v16C137.6,80,120,97.6,120,120z"/>
<path d="M120,120h-16c0-22.4-17.6-40-40-40V64C95.2,64,120,88.8,120,120z"/>
<path d="M344,296v-16c22.4,0,40-17.6,40-40h16C400,271.2,375.2,296,344,296z"/>
<path d="M440,296c-31.2,0-56-24.8-56-56h16c0,22.4,17.6,40,40,40V296z"/>
<path d="M400,336h-16c0-31.2,24.8-56,56-56v16C417.6,296,400,313.6,400,336z"/>
<path d="M400,336h-16c0-22.4-17.6-40-40-40v-16C375.2,280,400,304.8,400,336z"/>
<path d="M288,400v-16c22.4,0,40-17.6,40-40h16C344,375.2,319.2,400,288,400z"/>
<path d="M384,400c-31.2,0-56-24.8-56-56h16c0,22.4,17.6,40,40,40V400z"/>
<path d="M344,440h-16c0-31.2,24.8-56,56-56v16C361.6,400,344,417.6,344,440z"/>
<path d="M344,440h-16c0-22.4-17.6-40-40-40v-16C319.2,384,344,408.8,344,440z"/>
<rect x="232.281" y="105.488" transform="matrix(-0.7071 0.7071 -0.7071 -0.7071 500.8988 49.0962)" width="16" height="45.6"/>
<rect x="217.489" y="119.722" transform="matrix(-0.7071 0.7071 -0.7071 -0.7071 500.5125 48.1249)" width="45.6" height="16"/>
<rect x="160.278" y="145.483" transform="matrix(-0.7071 0.7071 -0.7071 -0.7071 406.2625 168.2863)" width="16" height="45.6"/>
<rect x="145.486" y="159.717" transform="matrix(-0.7071 0.7071 -0.7071 -0.7071 405.8762 167.3149)" width="45.6" height="16"/>
<rect x="232.282" y="193.473" transform="matrix(-0.7071 0.7071 -0.7071 -0.7071 563.1148 199.2951)" width="16" height="45.6"/>
<rect x="217.482" y="207.707" transform="matrix(-0.7071 0.7071 -0.7071 -0.7071 562.7148 198.3294)" width="45.6" height="16"/>
<rect x="312.277" y="217.475" transform="matrix(-0.7071 0.7071 -0.7071 -0.7071 716.6461 183.7052)" width="16" height="45.6"/>
<rect x="297.485" y="231.709" transform="matrix(-0.7071 0.7071 -0.7071 -0.7071 716.2597 182.7338)" width="45.6" height="16"/>
<rect x="272.303" y="281.485" transform="matrix(-0.7071 0.7071 -0.7071 -0.7071 693.669 321.2434)" width="16" height="45.6"/>
<rect x="257.503" y="295.72" transform="matrix(-0.7071 0.7071 -0.7071 -0.7071 693.269 320.2777)" width="45.6" height="16"/>
<g>
</g>
<g>
</g>
<g>
</g>
<g>
</g>
<g>
</g>
<g>
</g>
<g>
</g>
<g>
</g>
<g>
</g>
<g>
</g>
<g>
</g>
<g>
</g>
<g>
</g>
<g>
</g>
<g>
</g>
</svg>
