<?xml version="1.0" encoding="iso-8859-1"?>
<!-- Generator: Adobe Illustrator 19.0.0, SVG Export Plug-In . SVG Version: 6.00 Build 0)  -->
<svg version="1.1" id="Capa_1" xmlns="http://www.w3.org/2000/svg" xmlns:xlink="http://www.w3.org/1999/xlink" x="0px" y="0px"
	 viewBox="0 0 496.032 496.032" style="enable-background:new 0 0 496.032 496.032;" xml:space="preserve">
<path style="fill:#A88C55;" d="M432.016,488.032c17.6,0,32-14.4,32-32v-264l-24.8-24.8c-15.2-15.2-23.2-35.2-23.2-56.8v-70.4l-80-32
	l-32.8,32h-110.4l-32.8-32l-80,32v71.2c0,21.6-8.8,41.6-23.2,56.8l-24.8,24v264c0,17.6,14.4,32,32,32H432.016z"/>
<path d="M432.016,496.032h-368c-22.4,0-40-17.6-40-40v-264c0-2.4,0.8-4,2.4-5.6l24.8-24.8c13.6-13.6,20.8-32,20.8-51.2v-70.4
	c0-3.2,1.6-6.4,4.8-7.2l80-32c3.2-1.6,6.4-0.8,8.8,1.6l30.4,29.6h104l30.4-29.6c2.4-2.4,5.6-3.2,8.8-1.6l80,32
	c2.4,0.8,4.8,4,4.8,7.2v71.2c0,19.2,7.2,37.6,20.8,51.2l24.8,24.8c1.6,1.6,2.4,3.2,2.4,5.6v264
	C472.016,478.432,454.416,496.032,432.016,496.032z M40.016,195.232v260.8c0,13.6,10.4,24,24,24l0,0h368c13.6,0,24-10.4,24-24l0,0
	v-260.8l-22.4-22.4c-16.8-16.8-25.6-39.2-25.6-62.4v-64.8l-70.4-28l-28.8,28c-1.6,1.6-3.2,2.4-5.6,2.4h-110.4c-2.4,0-4-0.8-5.6-2.4
	l-28.8-28l-70.4,28v65.6c0,23.2-9.6,45.6-25.6,62.4L40.016,195.232z"/>
<rect x="183.833" y="2.477" transform="matrix(-0.8944 0.4472 -0.4472 -0.8944 420.5099 156.0772)" width="16" height="250.392"/>
<path d="M256.016,488.032h-16v-248c0-1.6,0-2.4,0.8-3.2l112-224l14.4,7.2l-111.2,221.6V488.032z"/>
<rect x="312.016" y="208.032" style="fill:#4F4228;" width="96" height="32"/>
<path d="M408.016,248.032h-96c-4.8,0-8-3.2-8-8v-32c0-4.8,3.2-8,8-8h96c4.8,0,8,3.2,8,8v32
	C416.016,244.832,412.816,248.032,408.016,248.032z M320.016,232.032h80v-16h-80V232.032z"/>
<path style="fill:#6B5936;" d="M312.016,240.032h96l0,0v40c0,13.6-10.4,24-24,24h-48c-13.6,0-24-10.4-24-24V240.032L312.016,240.032
	z"/>
<path d="M384.016,312.032h-48c-17.6,0-32-14.4-32-32v-40c0-4.8,3.2-8,8-8h96c4.8,0,8,3.2,8,8v40
	C416.016,297.632,401.616,312.032,384.016,312.032z M320.016,248.032v32c0,8.8,7.2,16,16,16h48c8.8,0,16-7.2,16-16v-32H320.016z"/>
<rect x="312.016" y="376.032" style="fill:#6B5936;" width="96" height="80"/>
<path d="M408.016,464.032h-96c-4.8,0-8-3.2-8-8v-80c0-4.8,3.2-8,8-8h96c4.8,0,8,3.2,8,8v80
	C416.016,460.832,412.816,464.032,408.016,464.032z M320.016,448.032h80v-64h-80V448.032z"/>
<rect x="248.016" y="248.032" style="fill:#6B5936;" width="32" height="208"/>
<path d="M280.016,464.032h-32c-4.8,0-8-3.2-8-8v-208c0-4.8,3.2-8,8-8h32c4.8,0,8,3.2,8,8v208
	C288.016,460.832,284.816,464.032,280.016,464.032z M256.016,448.032h16v-192h-16V448.032z"/>
<rect x="312.016" y="400.032" width="96" height="16"/>
<rect x="88.016" y="208.032" style="fill:#4F4228;" width="96" height="32"/>
<path d="M184.016,248.032h-96c-4.8,0-8-3.2-8-8v-32c0-4.8,3.2-8,8-8h96c4.8,0,8,3.2,8,8v32
	C192.016,244.832,188.816,248.032,184.016,248.032z M96.016,232.032h80v-16h-80V232.032z"/>
<path style="fill:#6B5936;" d="M88.016,240.032h96l0,0v40c0,13.6-10.4,24-24,24h-48c-13.6,0-24-10.4-24-24V240.032L88.016,240.032z"
	/>
<path d="M160.016,312.032h-48c-17.6,0-32-14.4-32-32v-40c0-4.8,3.2-8,8-8h96c4.8,0,8,3.2,8,8v40
	C192.016,297.632,177.616,312.032,160.016,312.032z M96.016,248.032v32c0,8.8,7.2,16,16,16h48c8.8,0,16-7.2,16-16v-32H96.016z"/>
<rect x="88.016" y="376.032" style="fill:#6B5936;" width="96" height="80"/>
<path d="M184.016,464.032h-96c-4.8,0-8-3.2-8-8v-80c0-4.8,3.2-8,8-8h96c4.8,0,8,3.2,8,8v80
	C192.016,460.832,188.816,464.032,184.016,464.032z M96.016,448.032h80v-64h-80V448.032z"/>
<rect x="88.016" y="400.032" width="96" height="16"/>
<polygon style="fill:#6B5936;" points="192.016,128.032 80.016,128.032 80.016,96.032 176.016,96.032 "/>
<path d="M192.016,136.032h-112c-4.8,0-8-3.2-8-8v-32c0-4.8,3.2-8,8-8h96c3.2,0,5.6,1.6,7.2,4.8l16,32c1.6,4,0,8.8-3.2,10.4
	C194.416,136.032,193.616,136.032,192.016,136.032z M88.016,120.032h91.2l-8-16h-83.2V120.032z"/>
<polygon style="fill:#6B5936;" points="304.016,128.032 416.016,128.032 416.016,96.032 320.016,96.032 "/>
<path d="M416.016,136.032h-112c-4.8,0-8-3.2-8-8c0-1.6,0-2.4,0.8-4l16-32c1.6-2.4,4-4.8,7.2-4.8h96c4.8,0,8,3.2,8,8v32
	C424.016,132.832,420.816,136.032,416.016,136.032z M316.816,120.032h91.2v-16h-83.2L316.816,120.032z"/>
<rect x="88.016" y="376.032" style="fill:#4F4228;" width="96" height="32"/>
<path d="M184.016,416.032h-96c-4.8,0-8-3.2-8-8v-32c0-4.8,3.2-8,8-8h96c4.8,0,8,3.2,8,8v32
	C192.016,412.832,188.816,416.032,184.016,416.032z M96.016,400.032h80v-16h-80V400.032z"/>
<rect x="312.016" y="376.032" style="fill:#4F4228;" width="96" height="32"/>
<path d="M408.016,416.032h-96c-4.8,0-8-3.2-8-8v-32c0-4.8,3.2-8,8-8h96c4.8,0,8,3.2,8,8v32
	C416.016,412.832,412.816,416.032,408.016,416.032z M320.016,400.032h80v-16h-80V400.032z"/>
<g>
</g>
<g>
</g>
<g>
</g>
<g>
</g>
<g>
</g>
<g>
</g>
<g>
</g>
<g>
</g>
<g>
</g>
<g>
</g>
<g>
</g>
<g>
</g>
<g>
</g>
<g>
</g>
<g>
</g>
</svg>
