<?xml version="1.0" encoding="iso-8859-1"?>
<!-- Generator: Adobe Illustrator 19.0.0, SVG Export Plug-In . SVG Version: 6.00 Build 0)  -->
<svg version="1.1" id="Capa_1" xmlns="http://www.w3.org/2000/svg" xmlns:xlink="http://www.w3.org/1999/xlink" x="0px" y="0px"
	 viewBox="0 0 496.125 496.125" style="enable-background:new 0 0 496.125 496.125;" xml:space="preserve">
<polyline style="fill:#6B5936;" points="40.062,488.125 40.062,408.125 248.062,200.125 456.062,408.125 456.062,488.125 "/>
<path d="M464.062,488.125h-16v-76.8l-200-200l-200,200v76.8h-16v-80c0-2.4,0.8-4,2.4-5.6l208-208c3.2-3.2,8-3.2,11.2,0l208,208
	c1.6,1.6,2.4,3.2,2.4,5.6V488.125z"/>
<polyline style="fill:#CB5940;" points="408.062,232.125 376.062,232.125 376.062,280.125 408.062,280.125 "/>
<path d="M408.062,288.125h-32c-4.8,0-8-3.2-8-8v-48c0-4.8,3.2-8,8-8h32v16h-24v32h24V288.125z"/>
<rect x="8.062" y="408.125" style="fill:#A88C55;" width="32" height="80"/>
<path d="M40.062,496.125h-32c-4.8,0-8-3.2-8-8v-80c0-4.8,3.2-8,8-8h32c4.8,0,8,3.2,8,8v80
	C48.062,492.925,44.862,496.125,40.062,496.125z M16.062,480.125h16v-64h-16V480.125z"/>
<rect x="456.062" y="408.125" style="fill:#A88C55;" width="32" height="80"/>
<path d="M488.062,496.125h-32c-4.8,0-8-3.2-8-8v-80c0-4.8,3.2-8,8-8h32c4.8,0,8,3.2,8,8v80
	C496.062,492.925,492.862,496.125,488.062,496.125z M464.062,480.125h16v-64h-16V480.125z"/>
<polygon style="fill:#A88C55;" points="456.062,488.125 40.062,488.125 40.062,456.125 248.062,248.125 456.062,456.125 "/>
<path d="M456.062,496.125h-416c-4.8,0-8-3.2-8-8v-32c0-2.4,0.8-4,2.4-5.6l208-208c3.2-3.2,8-3.2,11.2,0l208,208
	c1.6,1.6,2.4,3.2,2.4,5.6v32C464.062,492.925,460.862,496.125,456.062,496.125z M48.062,480.125h400v-20.8l-200-200l-200,200
	V480.125z"/>
<rect x="240.062" y="248.125" width="16" height="240"/>
<rect x="280.062" y="392.125" style="fill:#425955;" width="48" height="48"/>
<path d="M328.062,448.125h-48c-4.8,0-8-3.2-8-8v-48c0-4.8,3.2-8,8-8h48c4.8,0,8,3.2,8,8v48
	C336.062,444.925,332.862,448.125,328.062,448.125z M288.062,432.125h32v-32h-32V432.125z"/>
<path d="M200.062,416.125h-64v-16h56v-104h16v112C208.062,412.925,204.862,416.125,200.062,416.125z"/>
<path d="M160.062,448.125h-40v-16h32v-24h16v32C168.062,444.925,164.862,448.125,160.062,448.125z"/>
<polygon style="fill:#9F3A37;" points="408.062,264.125 488.062,264.125 464.062,240.125 488.062,216.125 408.062,216.125 "/>
<path d="M488.062,272.125h-80c-4.8,0-8-3.2-8-8v-48c0-4.8,3.2-8,8-8h80c4.8,0,8,3.2,8,8c0,2.4-0.8,4-2.4,5.6l-18.4,18.4l18.4,18.4
	c3.2,3.2,3.2,8,0,11.2C492.062,271.325,490.462,272.125,488.062,272.125z M416.062,256.125h52.8l-10.4-10.4c-3.2-3.2-3.2-8,0-11.2
	l10.4-10.4h-52.8V256.125z"/>
<rect x="400.062" y="264.125" width="16" height="96"/>
<ellipse style="fill:#589137;" cx="72.062" cy="216.125" rx="64" ry="96"/>
<path d="M72.062,320.125c-40,0-72-46.4-72-104s32-104,72-104s72,46.4,72,104S112.062,320.125,72.062,320.125z M72.062,128.125
	c-31.2,0-56,39.2-56,88s24.8,88,56,88s56-39.2,56-88S103.262,128.125,72.062,128.125z"/>
<rect x="64.062" y="200.125" width="16" height="176"/>
<rect x="48.342" y="193.608" transform="matrix(-0.7071 0.7071 -0.7071 -0.7071 249.2054 329.5913)" width="16" height="45.6"/>
<rect x="65.542" y="247.835" transform="matrix(-0.7071 0.7071 -0.7071 -0.7071 331.7106 374.2708)" width="45.6" height="16"/>
<path style="fill:#5C6373;" d="M248.062,64.125c17.6,13.6,42.4,9.6,56-8c10.4-14.4,10.4-33.6,0-48c23.2,4,40,24.8,40,48
	c0,26.4-21.6,48-48,48C272.862,104.125,252.062,87.325,248.062,64.125z"/>
<path d="M296.062,112.125c-27.2,0-51.2-20-56-46.4c-0.8-4,2.4-8.8,6.4-9.6c2.4,0,4,0,6.4,1.6c5.6,4,12,6.4,19.2,6.4
	c17.6,0,32-14.4,32-32c0-7.2-2.4-13.6-6.4-19.2c-2.4-3.2-1.6-8.8,1.6-11.2c1.6-1.6,4-1.6,6.4-1.6c26.4,4.8,46.4,28.8,46.4,56
	C352.062,87.325,327.262,112.125,296.062,112.125z M263.262,79.325c8,10.4,20,16.8,32.8,16.8c22.4,0,40-17.6,40-40
	c0-12.8-6.4-25.6-16.8-32.8c0.8,2.4,0.8,5.6,0.8,8.8c0,26.4-21.6,48-48,48C268.862,80.125,265.662,80.125,263.262,79.325z"/>
<path style="fill:#7D828C;" d="M136.062,88.125c8.8,0,16-7.2,16-16s-7.2-16-16-16c-3.2,0-6.4,0.8-8.8,2.4
	c-2.4-10.4-12-18.4-23.2-18.4c0-17.6-14.4-32-32-32s-32,14.4-32,32c0,0.8,0,0.8,0,1.6c-2.4-0.8-5.6-1.6-8-1.6c-13.6,0-24,10.4-24,24
	s10.4,24,24,24H136.062z"/>
<path d="M136.062,96.125h-104c-17.6,0-32-14.4-32-32s14.4-32,32-32h0.8c4-21.6,25.6-36,47.2-31.2c16,3.2,28.8,16,31.2,32
	c8.8,2.4,16,8,20.8,15.2c1.6,0,2.4,0,4,0c13.6,0,24,10.4,24,24S149.662,96.125,136.062,96.125z M32.062,48.125c-8.8,0-16,7.2-16,16
	s7.2,16,16,16h104c4.8,0,8-3.2,8-8s-3.2-8-8-8c-1.6,0-3.2,0.8-4,1.6c-4,2.4-8.8,1.6-11.2-2.4c-0.8-0.8-0.8-1.6-1.6-3.2
	c-1.6-7.2-8-12-15.2-12c-4.8,0-8-3.2-8-8c0-13.6-10.4-24-24-24s-24,10.4-24,24v0.8c0,4.8-3.2,8-7.2,8.8c-0.8,0-2.4,0-3.2-0.8
	C36.062,48.125,33.662,48.125,32.062,48.125z"/>
<path style="fill:#7D828C;" d="M472.062,184.125c8.8,0,16-7.2,16-16s-7.2-16-16-16c-3.2,0-6.4,0.8-8.8,2.4
	c-2.4-10.4-12-18.4-23.2-18.4c0-17.6-14.4-32-32-32s-32,14.4-32,32c0,0.8,0,0.8,0,1.6c-2.4-0.8-5.6-1.6-8-1.6c-13.6,0-24,10.4-24,24
	s10.4,24,24,24H472.062z"/>
<path d="M472.062,192.125h-104c-17.6,0-32-14.4-32-32s14.4-32,32-32h0.8c4-21.6,25.6-36,47.2-31.2c16,3.2,28.8,16,31.2,32
	c8.8,2.4,16,8,20.8,15.2c1.6,0,2.4,0,4,0c13.6,0,24,10.4,24,24S485.662,192.125,472.062,192.125z M368.062,144.125
	c-8.8,0-16,7.2-16,16s7.2,16,16,16h104c4.8,0,8-3.2,8-8s-4-8-8.8-8c-1.6,0-2.4,0.8-4,0.8c-4,2.4-8.8,1.6-11.2-2.4
	c-0.8-0.8-0.8-1.6-0.8-2.4c-1.6-7.2-8-12.8-15.2-12c-4.8,0-8-3.2-8-8c0-13.6-10.4-24-24-24s-24,10.4-24,24v0.8c0,4.8-3.2,8-7.2,8.8
	c-0.8,0-2.4,0-3.2-0.8C372.062,144.125,369.662,144.125,368.062,144.125z"/>
<g>
</g>
<g>
</g>
<g>
</g>
<g>
</g>
<g>
</g>
<g>
</g>
<g>
</g>
<g>
</g>
<g>
</g>
<g>
</g>
<g>
</g>
<g>
</g>
<g>
</g>
<g>
</g>
<g>
</g>
</svg>
