<?xml version="1.0" encoding="iso-8859-1"?>
<!-- Generator: Adobe Illustrator 19.0.0, SVG Export Plug-In . SVG Version: 6.00 Build 0)  -->
<svg version="1.1" id="Capa_1" xmlns="http://www.w3.org/2000/svg" xmlns:xlink="http://www.w3.org/1999/xlink" x="0px" y="0px"
	 viewBox="0 0 496.4 496.4" style="enable-background:new 0 0 496.4 496.4;" xml:space="preserve">
<circle style="fill:#DFA738;" cx="376.214" cy="160.4" r="72"/>
<path d="M376.214,240.4c-44,0-80-36-80-80s36-80,80-80s80,36,80,80S420.214,240.4,376.214,240.4z M376.214,96.4
	c-35.2,0-64,28.8-64,64s28.8,64,64,64s64-28.8,64-64S411.414,96.4,376.214,96.4z"/>
<polygon style="fill:#737272;" points="296.214,488.4 296.214,392.4 264.214,392.4 376.214,328.4 488.214,392.4 456.214,392.4 
	456.214,488.4 "/>
<path d="M456.214,496.4h-160c-4.8,0-8-3.2-8-8v-88h-24c-4.8,0-8-3.2-8-8c0-3.2,1.6-5.6,4-7.2l112-64c2.4-1.6,5.6-1.6,8,0l112,64
	c4,2.4,4.8,7.2,3.2,11.2c-1.6,2.4-4,4-7.2,4h-24v88C464.214,493.2,461.014,496.4,456.214,496.4z M304.214,480.4h144v-88
	c0-4.8,3.2-8,8-8h1.6l-81.6-46.4l-81.6,46.4h1.6c4.8,0,8,3.2,8,8V480.4z"/>
<rect x="352.214" y="408.4" style="fill:#BABDBF;" width="48" height="80"/>
<path d="M400.214,496.4h-48c-4.8,0-8-3.2-8-8v-80c0-4.8,3.2-8,8-8h48c4.8,0,8,3.2,8,8v80C408.214,493.2,405.014,496.4,400.214,496.4
	z M360.214,480.4h32v-64h-32V480.4z"/>
<rect x="296.214" y="456.4" style="fill:#D9D9D9;" width="56" height="32"/>
<path d="M352.214,496.4h-56c-4.8,0-8-3.2-8-8v-32c0-4.8,3.2-8,8-8h56c4.8,0,8,3.2,8,8v32C360.214,493.2,357.014,496.4,352.214,496.4
	z M304.214,480.4h40v-16h-40V480.4z"/>
<rect x="400.214" y="456.4" style="fill:#D9D9D9;" width="56" height="32"/>
<path d="M456.214,496.4h-56c-4.8,0-8-3.2-8-8v-32c0-4.8,3.2-8,8-8h56c4.8,0,8,3.2,8,8v32C464.214,493.2,461.014,496.4,456.214,496.4
	z M408.214,480.4h40v-16h-40V480.4z"/>
<polygon style="fill:#737272;" points="40.214,304.4 40.214,208.4 8.214,208.4 120.214,144.4 232.214,208.4 200.214,208.4 
	200.214,304.4 "/>
<path d="M200.214,312.4h-160c-4.8,0-8-3.2-8-8v-88h-24c-4.8,0-8-3.2-8-8c0-3.2,1.6-5.6,4-7.2l112-64c2.4-1.6,5.6-1.6,8,0l112,64
	c4,2.4,4.8,7.2,3.2,11.2c-1.6,2.4-4,4-7.2,4h-24v88C208.214,309.2,205.014,312.4,200.214,312.4z M48.214,296.4h144v-88
	c0-4.8,3.2-8,8-8h1.6l-81.6-46.4l-81.6,46.4h1.6c4.8,0,8,3.2,8,8V296.4z"/>
<rect x="96.214" y="224.4" style="fill:#BABDBF;" width="48" height="80"/>
<path d="M144.214,312.4h-48c-4.8,0-8-3.2-8-8v-80c0-4.8,3.2-8,8-8h48c4.8,0,8,3.2,8,8v80C152.214,309.2,149.014,312.4,144.214,312.4
	z M104.214,296.4h32v-64h-32V296.4z"/>
<rect x="40.214" y="272.4" style="fill:#D9D9D9;" width="56" height="32"/>
<path d="M96.214,312.4h-56c-4.8,0-8-3.2-8-8v-32c0-4.8,3.2-8,8-8h56c4.8,0,8,3.2,8,8v32C104.214,309.2,101.014,312.4,96.214,312.4z
	 M48.214,296.4h40v-16h-40V296.4z"/>
<rect x="144.214" y="272.4" style="fill:#D9D9D9;" width="56" height="32"/>
<path d="M200.214,312.4h-56c-4.8,0-8-3.2-8-8v-32c0-4.8,3.2-8,8-8h56c4.8,0,8,3.2,8,8v32C208.214,309.2,205.014,312.4,200.214,312.4
	z M152.214,296.4h40v-16h-40V296.4z"/>
<polyline style="fill:#BABDBF;" points="104.214,72.4 104.214,32.4 80.214,32.4 120.214,8.4 160.214,32.4 136.214,32.4 
	136.214,72.4 "/>
<path d="M144.214,72.4h-16v-40c0-3.2,1.6-5.6,4.8-7.2l-12.8-7.2l-12.8,7.2c3.2,1.6,4.8,4,4.8,7.2v40h-16v-32h-16c-4.8,0-8-3.2-8-8
	c0-3.2,1.6-5.6,4-7.2l40-24c2.4-1.6,5.6-1.6,8,0l40,24c4,2.4,4.8,7.2,3.2,11.2c-1.6,2.4-4,4-7.2,4h-16V72.4z"/>
<polyline style="fill:#BABDBF;" points="32.214,136.4 32.214,96.4 8.214,96.4 48.214,72.4 88.214,96.4 64.214,96.4 64.214,136.4 "/>
<path d="M72.214,136.4h-16v-40c0-3.2,1.6-5.6,4.8-7.2l-12.8-7.2l-12.8,7.2c3.2,1.6,4.8,4,4.8,7.2v40h-16v-32h-16c-4.8,0-8-3.2-8-8
	c0-3.2,1.6-5.6,4-7.2l40-24c2.4-1.6,5.6-1.6,8,0l40,24c4,2.4,4.8,7.2,2.4,11.2c-0.8,2.4-3.2,4-6.4,4h-16V136.4z"/>
<polyline style="fill:#BABDBF;" points="176.214,136.4 176.214,96.4 152.214,96.4 192.214,72.4 232.214,96.4 208.214,96.4 
	208.214,136.4 "/>
<path d="M216.214,136.4h-16v-40c0-3.2,1.6-5.6,4.8-7.2l-12.8-7.2l-12.8,7.2c2.4,1.6,4.8,4,4.8,7.2v40h-16v-32h-16c-4.8,0-8-3.2-8-8
	c0-3.2,1.6-5.6,4-7.2l40-24c2.4-1.6,5.6-1.6,8,0l40,24c4,2.4,4.8,7.2,2.4,11.2c-0.8,2.4-3.2,4-6.4,4h-16V136.4z"/>
<path d="M376.214,200.4h-24v-16h24c4.8,0,8-3.2,8-8s-3.2-8-8-8c-13.6,0-24-10.4-24-24s10.4-24,24-24h24v16h-24c-4.8,0-8,3.2-8,8
	s3.2,8,8,8c13.6,0,24,10.4,24,24S389.814,200.4,376.214,200.4z"/>
<rect x="368.214" y="104.4" width="16" height="24"/>
<rect x="368.214" y="192.4" width="16" height="24"/>
<rect x="368.214" y="256.4" width="16" height="48"/>
<rect x="336.214" y="256.4" width="16" height="48"/>
<rect x="400.214" y="256.4" width="16" height="48"/>
<rect x="304.214" y="240.4" width="16" height="64"/>
<rect x="432.214" y="240.4" width="16" height="64"/>
<rect x="304.214" y="320.4" width="16" height="16"/>
<rect x="432.214" y="320.4" width="16" height="16"/>
<g>
</g>
<g>
</g>
<g>
</g>
<g>
</g>
<g>
</g>
<g>
</g>
<g>
</g>
<g>
</g>
<g>
</g>
<g>
</g>
<g>
</g>
<g>
</g>
<g>
</g>
<g>
</g>
<g>
</g>
</svg>
