<?xml version="1.0" encoding="iso-8859-1"?>
<!-- Generator: Adobe Illustrator 19.0.0, SVG Export Plug-In . SVG Version: 6.00 Build 0)  -->
<svg version="1.1" id="Capa_1" xmlns="http://www.w3.org/2000/svg" xmlns:xlink="http://www.w3.org/1999/xlink" x="0px" y="0px"
	 viewBox="0 0 496.092 496.092" style="enable-background:new 0 0 496.092 496.092;" xml:space="preserve">
<polyline style="fill:#42A24F;" points="216.046,256.092 216.046,288.092 200.046,344.092 248.046,424.092 296.046,344.092 
	280.046,288.092 280.046,256.092 "/>
<path d="M248.046,432.092c-3.2,0-5.6-1.6-7.2-4l-48-80c-0.8-1.6-0.8-4-0.8-6.4l16-55.2v-30.4h16v32c0,0.8,0,1.6,0,2.4l-15.2,52.8
	l39.2,65.6l39.2-65.6l-15.2-52.8c0-0.8,0-1.6,0-2.4v-32h16v31.2l16,55.2c0.8,2.4,0,4.8-0.8,6.4l-48,80
	C253.646,430.492,251.246,432.092,248.046,432.092z"/>
<path style="fill:#789DC3;" d="M296.046,256.092v-37.6c0-16.8,6.4-33.6,19.2-45.6c37.6-36.8,38.4-97.6,1.6-136
	c-19.2-19.2-45.6-30.4-72.8-28.8c-50.4,2.4-90.4,43.2-92,93.6c-0.8,26.4,9.6,52,28.8,70.4c12.8,12,19.2,28.8,19.2,45.6v38.4"/>
<path d="M304.046,256.092h-16v-37.6c0-19.2,8-37.6,21.6-51.2c34.4-33.6,35.2-89.6,1.6-124c-17.6-17.6-41.6-27.2-66.4-26.4
	c-46.4,1.6-83.2,39.2-84.8,84.8c-0.8,24,8.8,47.2,26.4,64.8c13.6,13.6,21.6,32,21.6,52v37.6h-16v-37.6c0-15.2-6.4-29.6-16.8-40
	c-20.8-20-31.2-48-31.2-76c1.6-55.2,45.6-99.2,100-102.4c57.6-2.4,105.6,42.4,108,100c0.8,29.6-10.4,58.4-31.2,78.4
	c-10.4,10.4-16.8,24.8-16.8,40V256.092z"/>
<rect x="176.046" y="248.092" width="144" height="16"/>
<rect x="192.046" y="280.092" width="112" height="16"/>
<rect x="328.046" y="352.092" style="fill:#D94A56;" width="32" height="32"/>
<path d="M360.046,392.092h-32c-4.8,0-8-3.2-8-8v-32c0-4.8,3.2-8,8-8h32c4.8,0,8,3.2,8,8v32
	C368.046,388.892,364.846,392.092,360.046,392.092z M336.046,376.092h16v-16h-16V376.092z"/>
<rect x="136.046" y="352.092" style="fill:#D94A56;" width="32" height="32"/>
<path d="M168.046,392.092h-32c-4.8,0-8-3.2-8-8v-32c0-4.8,3.2-8,8-8h32c4.8,0,8,3.2,8,8v32
	C176.046,388.892,172.846,392.092,168.046,392.092z M144.046,376.092h16v-16h-16V376.092z"/>
<rect x="232.046" y="456.092" style="fill:#D94A56;" width="32" height="32"/>
<path d="M264.046,496.092h-32c-4.8,0-8-3.2-8-8v-32c0-4.8,3.2-8,8-8h32c4.8,0,8,3.2,8,8v32
	C272.046,492.892,268.846,496.092,264.046,496.092z M240.046,480.092h16v-16h-16V480.092z"/>
<path d="M230.446,480.092c-49.6-9.6-86.4-52.8-86.4-104h16c0,43.2,31.2,80,73.6,88L230.446,480.092z"/>
<path d="M265.646,480.092l-2.4-16c42.4-8,73.6-44.8,73.6-88h16C352.046,427.292,315.246,470.492,265.646,480.092z"/>
<circle style="fill:#789DC3;" cx="360.046" cy="472.092" r="16"/>
<path d="M360.046,496.092c-13.6,0-24-10.4-24-24s10.4-24,24-24s24,10.4,24,24S373.646,496.092,360.046,496.092z M360.046,464.092
	c-4.8,0-8,3.2-8,8s3.2,8,8,8s8-3.2,8-8S364.846,464.092,360.046,464.092z"/>
<circle style="fill:#789DC3;" cx="136.046" cy="472.092" r="16"/>
<path d="M136.046,496.092c-13.6,0-24-10.4-24-24s10.4-24,24-24s24,10.4,24,24S149.646,496.092,136.046,496.092z M136.046,464.092
	c-4.8,0-8,3.2-8,8s3.2,8,8,8s8-3.2,8-8S140.846,464.092,136.046,464.092z"/>
<rect x="264.046" y="464.092" width="80" height="16"/>
<rect x="152.046" y="464.092" width="80" height="16"/>
<circle style="fill:#FFFFFF;" cx="248.046" cy="336.092" r="16"/>
<path d="M248.046,360.092c-13.6,0-24-10.4-24-24s10.4-24,24-24s24,10.4,24,24S261.646,360.092,248.046,360.092z M248.046,328.092
	c-4.8,0-8,3.2-8,8s3.2,8,8,8c4.8,0,8-3.2,8-8S252.846,328.092,248.046,328.092z"/>
<rect x="240.046" y="352.092" width="16" height="64"/>
<rect x="200.046" y="216.092" width="96" height="16"/>
<circle style="fill:#FFFFFF;" cx="248.046" cy="104.092" r="32"/>
<path d="M248.046,144.092c-22.4,0-40-17.6-40-40s17.6-40,40-40s40,17.6,40,40S270.446,144.092,248.046,144.092z M248.046,80.092
	c-13.6,0-24,10.4-24,24s10.4,24,24,24s24-10.4,24-24S261.646,80.092,248.046,80.092z"/>
<rect x="240.046" y="136.092" width="16" height="88"/>
<rect x="240.046" y="32.092" width="16" height="16"/>
<rect x="176.046" y="96.092" width="16" height="16"/>
<rect x="304.046" y="96.092" width="16" height="16"/>
<rect x="224.046" y="184.092" width="48" height="16"/>
<g>
</g>
<g>
</g>
<g>
</g>
<g>
</g>
<g>
</g>
<g>
</g>
<g>
</g>
<g>
</g>
<g>
</g>
<g>
</g>
<g>
</g>
<g>
</g>
<g>
</g>
<g>
</g>
<g>
</g>
</svg>
