<?xml version="1.0" encoding="iso-8859-1"?>
<!-- Generator: Adobe Illustrator 19.0.0, SVG Export Plug-In . SVG Version: 6.00 Build 0)  -->
<svg version="1.1" id="Capa_1" xmlns="http://www.w3.org/2000/svg" xmlns:xlink="http://www.w3.org/1999/xlink" x="0px" y="0px"
	 viewBox="0 0 496 496" style="enable-background:new 0 0 496 496;" xml:space="preserve">
<polyline style="fill:#D94A56;" points="128,176 152,152 200,200 176,224 "/>
<path d="M181.6,229.6l-11.2-11.2l18.4-18.4L152,163.2l-18.4,18.4l-11.2-11.2l24-24c3.2-3.2,8-3.2,11.2,0l48,48c3.2,3.2,3.2,8,0,11.2
	L181.6,229.6z"/>
<polyline style="fill:#789DC3;" points="32,288 8,312 40,344 64,320 "/>
<path d="M40,352c-2.4,0-4-0.8-5.6-2.4l-32-32c-3.2-3.2-3.2-8,0-11.2l24-24l11.2,11.2L19.2,312L40,332.8l18.4-18.4l11.2,11.2l-24,24
	C44,351.2,42.4,352,40,352z"/>
<polyline style="fill:#789DC3;" points="152,336 104,288 80,312 128,360 "/>
<path d="M122.4,365.6l-48-48c-3.2-3.2-3.2-8,0-11.2l24-24c3.2-3.2,8-3.2,11.2,0l48,48l-11.2,11.2L104,299.2L91.2,312l42.4,42.4
	L122.4,365.6z"/>
<g>
	<path style="fill:#789DC3;" d="M496,344L496,344c-26.4,0-48-21.6-48-48l0,0c0,26.4-21.6,48-48,48l0,0c26.4,0,48,21.6,48,48l0,0
		C448,365.6,469.6,344,496,344z"/>
	<path style="fill:#789DC3;" d="M200,48L200,48c-26.4,0-48-21.6-48-48l0,0c0,26.4-21.6,48-48,48l0,0c26.4,0,48,21.6,48,48l0,0
		C152,69.6,173.6,48,200,48z"/>
</g>
<polyline style="fill:#D94A56;" points="104,200 24,280 72,328 152,248 "/>
<path d="M72,336c-2.4,0-4-0.8-5.6-2.4l-48-48c-3.2-3.2-3.2-8,0-11.2l80-80l11.2,11.2L35.2,280L72,316.8l74.4-74.4l11.2,11.2l-80,80
	C76,335.2,74.4,336,72,336z"/>
<rect x="31.314" y="256.285" transform="matrix(-0.7071 0.7071 -0.7071 -0.7071 336.6144 389.1386)" width="112.799" height="16"/>
<rect x="4.797" y="328" transform="matrix(-0.7071 0.7071 -0.7071 -0.7071 264.8961 562.2764)" width="22.4" height="16"/>
<circle style="fill:#858486;" cx="152" cy="360" r="24"/>
<path d="M152,392c-17.6,0-32-14.4-32-32s14.4-32,32-32s32,14.4,32,32S169.6,392,152,392z M152,344c-8.8,0-16,7.2-16,16s7.2,16,16,16
	s16-7.2,16-16S160.8,344,152,344z"/>
<rect x="144" y="384" width="16" height="72"/>
<path style="fill:#858486;" d="M152,456L152,456c8.8,0,16,7.2,16,16v16l0,0h-32l0,0v-16C136,463.2,143.2,456,152,456z"/>
<path d="M168,496h-32c-4.8,0-8-3.2-8-8v-16c0-13.6,10.4-24,24-24s24,10.4,24,24v16C176,492.8,172.8,496,168,496z M144,480h16v-8
	c0-4.8-3.2-8-8-8s-8,3.2-8,8V480z"/>
<path style="fill:#858486;" d="M232,456L232,456c8.8,0,16,7.2,16,16v16l0,0h-32l0,0v-16C216,463.2,223.2,456,232,456z"/>
<path d="M248,496h-32c-4.8,0-8-3.2-8-8v-16c0-13.6,10.4-24,24-24s24,10.4,24,24v16C256,492.8,252.8,496,248,496z M224,480h16v-8
	c0-4.8-3.2-8-8-8s-8,3.2-8,8V480z"/>
<path style="fill:#858486;" d="M72,456L72,456c8.8,0,16,7.2,16,16v16l0,0H56l0,0v-16C56,463.2,63.2,456,72,456z"/>
<path d="M88,496H56c-4.8,0-8-3.2-8-8v-16c0-13.6,10.4-24,24-24s24,10.4,24,24v16C96,492.8,92.8,496,88,496z M64,480h16v-8
	c0-4.8-3.2-8-8-8s-8,3.2-8,8V480z"/>
<rect x="52.827" y="407.996" transform="matrix(-0.6247 0.7809 -0.7809 -0.6247 493.8549 594.6284)" width="102.403" height="16"/>
<rect x="192.042" y="364.916" transform="matrix(-0.7808 0.6248 -0.6248 -0.7808 616.2189 616.0324)" width="16" height="102.401"/>
<circle style="fill:#42A24F;" cx="376" cy="248" r="48"/>
<path d="M376,304c-31.2,0-56-24.8-56-56s24.8-56,56-56s56,24.8,56,56S407.2,304,376,304z M376,208c-22.4,0-40,17.6-40,40
	s17.6,40,40,40s40-17.6,40-40S398.4,208,376,208z"/>
<circle style="fill:#F48827;" cx="264" cy="72" r="32"/>
<path d="M264,112c-22.4,0-40-17.6-40-40s17.6-40,40-40s40,17.6,40,40S286.4,112,264,112z M264,48c-13.6,0-24,10.4-24,24
	s10.4,24,24,24s24-10.4,24-24S277.6,48,264,48z"/>
<rect x="255.995" y="4.005" transform="matrix(-0.7071 0.7071 -0.7071 -0.7071 501.5831 -63.7529)" width="16" height="135.999"/>
<rect x="285.593" y="239.971" transform="matrix(-0.7071 0.7071 -0.7071 -0.7071 817.2006 157.4468)" width="180.798" height="16"/>
<path d="M300.8,38.4l-9.6-12.8c5.6-4,11.2-8,16.8-11.2l7.2,14.4C310.4,32,305.6,35.2,300.8,38.4z"/>
<path d="M331.2,22.4l-5.6-15.2c5.6-1.6,11.2-3.2,16.8-4.8l3.2,16C340.8,19.2,335.2,20.8,331.2,22.4z"/>
<path d="M360,16l-0.8-16c5.6,0,11.2,0,17.6,0L376,16C370.4,16,364.8,16,360,16z"/>
<path d="M405.6,22.4c-4.8-1.6-9.6-3.2-14.4-4l3.2-16c5.6,0.8,11.2,2.4,16.8,4.8L405.6,22.4z"/>
<path d="M473.6,90.4c-2.4-6.4-5.6-12.8-8.8-19.2l13.6-8c4,7.2,7.2,14.4,9.6,21.6L473.6,90.4z"/>
<path d="M480,120.8c0-4.8-0.8-10.4-2.4-15.2l16-3.2c0.8,5.6,2.4,12,2.4,17.6L480,120.8z"/>
<path d="M493.6,154.4l-16-3.2c0.8-4.8,1.6-10.4,2.4-15.2l16,0.8C495.2,142.4,494.4,148,493.6,154.4z"/>
<path d="M480.8,188l-14.4-7.2c2.4-4.8,4.8-9.6,6.4-15.2l15.2,5.6C486.4,176.8,484,182.4,480.8,188z"/>
<path d="M455.2,221.6l-11.2-12c4.8-4.8,9.6-9.6,13.6-14.4l12.8,9.6C465.6,211.2,460.8,216.8,455.2,221.6z"/>
<path d="M325.6,248.8C274.4,230.4,240,182.4,240,128c0-9.6,0.8-19.2,3.2-28.8l16,3.2c-12.8,55.2,18.4,111.2,72,130.4L325.6,248.8z"
	/>
<circle style="fill:#D94A56;" cx="456" cy="40" r="32"/>
<path d="M456,80c-22.4,0-40-17.6-40-40s17.6-40,40-40s40,17.6,40,40S478.4,80,456,80z M456,16c-13.6,0-24,10.4-24,24s10.4,24,24,24
	s24-10.4,24-24S469.6,16,456,16z"/>
<path d="M400,352v-16c22.4,0,40-17.6,40-40h16C456,327.2,431.2,352,400,352z"/>
<path d="M496,352c-31.2,0-56-24.8-56-56h16c0,22.4,17.6,40,40,40V352z"/>
<path d="M456,392h-16c0-31.2,24.8-56,56-56v16C473.6,352,456,369.6,456,392z"/>
<path d="M456,392h-16c0-22.4-17.6-40-40-40v-16C431.2,336,456,360.8,456,392z"/>
<path d="M104,56V40c22.4,0,40-17.6,40-40h16C160,31.2,135.2,56,104,56z"/>
<path d="M200,56c-31.2,0-56-24.8-56-56h16c0,22.4,17.6,40,40,40V56z"/>
<path d="M160,96h-16c0-31.2,24.8-56,56-56v16C177.6,56,160,73.6,160,96z"/>
<path d="M160,96h-16c0-22.4-17.6-40-40-40V40C135.2,40,160,64.8,160,96z"/>
<rect x="360.279" y="33.484" transform="matrix(-0.7071 0.7071 -0.7071 -0.7071 668.4898 -164.3303)" width="16" height="45.6"/>
<rect x="345.487" y="47.718" transform="matrix(-0.7071 0.7071 -0.7071 -0.7071 668.1035 -165.3016)" width="45.6" height="16"/>
<rect x="432.276" y="97.451" transform="matrix(-0.7071 0.7071 -0.7071 -0.7071 836.629 -106.0414)" width="16" height="45.6"/>
<rect x="417.485" y="111.685" transform="matrix(-0.7071 0.7071 -0.7071 -0.7071 836.2427 -107.0128)" width="45.6" height="16"/>
<rect x="264.275" y="249.483" transform="matrix(-0.7071 0.7071 -0.7071 -0.7071 657.3353 272.2885)" width="16" height="45.6"/>
<rect x="249.483" y="263.717" transform="matrix(-0.7071 0.7071 -0.7071 -0.7071 656.9489 271.3172)" width="45.6" height="16"/>
<rect x="122.89" y="166.549" transform="matrix(-0.7071 0.7071 -0.7071 -0.7071 388.1943 262.7014)" style="fill:#789DC3;" width="33.6" height="90.399"/>
<path d="M160,264c-2.4,0-4-0.8-5.6-2.4l-64-64c-3.2-3.2-3.2-8,0-11.2l24-24c3.2-3.2,8-3.2,11.2,0l64,64c3.2,3.2,3.2,8,0,11.2l-24,24
	C164,263.2,162.4,264,160,264z M107.2,192l52.8,52.8l12.8-12.8L120,179.2L107.2,192z"/>
<g>
</g>
<g>
</g>
<g>
</g>
<g>
</g>
<g>
</g>
<g>
</g>
<g>
</g>
<g>
</g>
<g>
</g>
<g>
</g>
<g>
</g>
<g>
</g>
<g>
</g>
<g>
</g>
<g>
</g>
</svg>
