<?xml version="1.0" encoding="iso-8859-1"?>
<!-- Generator: Adobe Illustrator 19.0.0, SVG Export Plug-In . SVG Version: 6.00 Build 0)  -->
<svg version="1.1" id="Capa_1" xmlns="http://www.w3.org/2000/svg" xmlns:xlink="http://www.w3.org/1999/xlink" x="0px" y="0px"
	 viewBox="0 0 496 496" style="enable-background:new 0 0 496 496;" xml:space="preserve">
<polyline style="fill:#BABDBF;" points="424,312 488,312 488,72 424,72 424,8 232,8 232,312 264,312 "/>
<path d="M488,320h-64v-16h56V80h-56c-4.8,0-8-3.2-8-8V16H240v288h24v16h-32c-4.8,0-8-3.2-8-8V8c0-4.8,3.2-8,8-8h192c4.8,0,8,3.2,8,8
	v56h56c4.8,0,8,3.2,8,8v240C496,316.8,492.8,320,488,320z"/>
<circle style="fill:#DFA738;" cx="120" cy="160" r="72"/>
<path d="M120,240c-44,0-80-36-80-80s36-80,80-80s80,36,80,80S164,240,120,240z M120,96c-35.2,0-64,28.8-64,64s28.8,64,64,64
	s64-28.8,64-64S155.2,96,120,96z"/>
<polyline style="fill:#304F1E;" points="280,248 280,216 424,216 424,456 392,456 "/>
<path d="M424,464h-32v-16h24V224H288v24h-16v-32c0-4.8,3.2-8,8-8h144c4.8,0,8,3.2,8,8v240C432,460.8,428.8,464,424,464z"/>
<rect x="264" y="248" style="fill:#406928;" width="128" height="240"/>
<path d="M392,496H264c-4.8,0-8-3.2-8-8V248c0-4.8,3.2-8,8-8h128c4.8,0,8,3.2,8,8v240C400,492.8,396.8,496,392,496z M272,480h112V256
	H272V480z"/>
<polygon style="fill:#737272;" points="40,488 40,392 8,392 120,328 232,392 200,392 200,488 "/>
<path d="M200,496H40c-4.8,0-8-3.2-8-8v-88H8c-4.8,0-8-3.2-8-8c0-3.2,1.6-5.6,4-7.2l112-64c2.4-1.6,5.6-1.6,8,0l112,64
	c4,2.4,4.8,7.2,3.2,11.2c-1.6,2.4-4,4-7.2,4h-24v88C208,492.8,204.8,496,200,496z M48,480h144v-88c0-4.8,3.2-8,8-8h1.6L120,337.6
	L38.4,384H40c4.8,0,8,3.2,8,8V480z"/>
<rect x="96" y="408" style="fill:#BABDBF;" width="48" height="80"/>
<path d="M144,496H96c-4.8,0-8-3.2-8-8v-80c0-4.8,3.2-8,8-8h48c4.8,0,8,3.2,8,8v80C152,492.8,148.8,496,144,496z M104,480h32v-64h-32
	V480z"/>
<rect x="40" y="456" style="fill:#BABDBF;" width="56" height="32"/>
<path d="M96,496H40c-4.8,0-8-3.2-8-8v-32c0-4.8,3.2-8,8-8h56c4.8,0,8,3.2,8,8v32C104,492.8,100.8,496,96,496z M48,480h40v-16H48V480
	z"/>
<rect x="144" y="456" style="fill:#BABDBF;" width="56" height="32"/>
<path d="M200,496h-56c-4.8,0-8-3.2-8-8v-32c0-4.8,3.2-8,8-8h56c4.8,0,8,3.2,8,8v32C208,492.8,204.8,496,200,496z M152,480h40v-16
	h-40V480z"/>
<path d="M120,200H96v-16h24c4.8,0,8-3.2,8-8c0-4.8-3.2-8-8-8c-13.6,0-24-10.4-24-24s10.4-24,24-24h24v16h-24c-4.8,0-8,3.2-8,8
	c0,4.8,3.2,8,8,8c13.6,0,24,10.4,24,24S133.6,200,120,200z"/>
<rect x="112" y="104" width="16" height="24"/>
<rect x="112" y="192" width="16" height="24"/>
<rect x="112" y="256" width="16" height="48"/>
<rect x="80" y="256" width="16" height="48"/>
<rect x="144" y="256" width="16" height="48"/>
<rect x="48" y="240" width="16" height="64"/>
<rect x="176" y="240" width="16" height="64"/>
<rect x="48" y="320" width="16" height="16"/>
<rect x="176" y="320" width="16" height="16"/>
<polygon style="fill:#737272;" points="488,72 424,8 424,72 "/>
<path d="M488,80h-64c-4.8,0-8-3.2-8-8V8c0-4.8,3.2-8,8-8c2.4,0,4,0.8,5.6,2.4l64,64c3.2,3.2,3.2,8,0,11.2C492,79.2,490.4,80,488,80z
	 M432,64h36.8L432,27.2V64z"/>
<path style="fill:#589137;" d="M296,248L296,248c0,17.6-14.4,32-32,32l0,0v-32H296z"/>
<path d="M264,288c-4.8,0-8-3.2-8-8v-32c0-4.8,3.2-8,8-8h32c4.8,0,8,3.2,8,8C304,270.4,286.4,288,264,288z M272,256v14.4
	c7.2-2.4,12-8,14.4-14.4H272z"/>
<path style="fill:#589137;" d="M392,280L392,280c-17.6,0-32-14.4-32-32h32V280z"/>
<path d="M392,288c-22.4,0-40-17.6-40-40c0-4.8,3.2-8,8-8h32c4.8,0,8,3.2,8,8v32C400,284.8,396.8,288,392,288z M369.6,256
	c2.4,7.2,8,12,14.4,14.4V256H369.6z"/>
<path style="fill:#589137;" d="M360,488L360,488c0-17.6,14.4-32,32-32l0,0v32H360z"/>
<path d="M392,496h-32c-4.8,0-8-3.2-8-8c0-22.4,17.6-40,40-40c4.8,0,8,3.2,8,8v32C400,492.8,396.8,496,392,496z M369.6,480H384v-14.4
	C376.8,468,372,472.8,369.6,480z"/>
<path style="fill:#589137;" d="M264,456L264,456c17.6,0,32,14.4,32,32h-32V456z"/>
<path d="M296,496h-32c-4.8,0-8-3.2-8-8v-32c0-4.8,3.2-8,8-8c22.4,0,40,17.6,40,40C304,492.8,300.8,496,296,496z M272,480h14.4
	c-2.4-7.2-8-12-14.4-14.4V480z"/>
<circle style="fill:#589137;" cx="328" cy="368" r="24"/>
<path d="M328,400c-17.6,0-32-14.4-32-32s14.4-32,32-32s32,14.4,32,32S345.6,400,328,400z M328,352c-8.8,0-16,7.2-16,16s7.2,16,16,16
	s16-7.2,16-16S336.8,352,328,352z"/>
<rect x="288" y="296" width="16" height="16"/>
<rect x="352" y="296" width="16" height="16"/>
<rect x="288" y="424" width="16" height="16"/>
<rect x="352" y="424" width="16" height="16"/>
<rect x="256" y="32" width="144" height="16"/>
<rect x="256" y="64" width="144" height="16"/>
<rect x="256" y="96" width="208" height="16"/>
<path d="M280,176c-2.4,0-4-0.8-5.6-2.4l-16-16l11.2-11.2l10.4,10.4l26.4-26.4l11.2,11.2l-32,32C284,175.2,282.4,176,280,176z"/>
<rect x="320" y="160" width="144" height="16"/>
<g>
</g>
<g>
</g>
<g>
</g>
<g>
</g>
<g>
</g>
<g>
</g>
<g>
</g>
<g>
</g>
<g>
</g>
<g>
</g>
<g>
</g>
<g>
</g>
<g>
</g>
<g>
</g>
<g>
</g>
</svg>
