<?xml version="1.0" encoding="iso-8859-1"?>
<!-- Generator: Adobe Illustrator 19.0.0, SVG Export Plug-In . SVG Version: 6.00 Build 0)  -->
<svg version="1.1" id="Capa_1" xmlns="http://www.w3.org/2000/svg" xmlns:xlink="http://www.w3.org/1999/xlink" x="0px" y="0px"
	 viewBox="0 0 496 496" style="enable-background:new 0 0 496 496;" xml:space="preserve">
<path style="fill:#CB5940;" d="M184,392v-45.6c0-17.6,4.8-34.4,14.4-48.8l1.6-1.6l24,16l24-48l24,48l24-16l1.6,1.6
	c9.6,14.4,14.4,31.2,14.4,48.8V392"/>
<path d="M320,392h-16v-45.6c0-13.6-3.2-27.2-10.4-39.2l-16.8,11.2c-4,2.4-8.8,1.6-11.2-2.4c0,0,0-0.8-0.8-0.8L248,281.6l-16.8,33.6
	c-1.6,4-6.4,5.6-10.4,3.2c0,0-0.8,0-0.8-0.8l-16.8-11.2c-7.2,12-10.4,25.6-10.4,39.2V392h-16v-45.6c0-19.2,5.6-37.6,16-53.6l1.6-1.6
	c2.4-4,7.2-4.8,11.2-2.4l0,0l16.8,11.2l20-40c2.4-4,7.2-5.6,11.2-3.2c0.8,0.8,2.4,1.6,3.2,3.2l20,40l16.8-11.2
	c4-2.4,8.8-1.6,11.2,2.4l0,0l1.6,1.6c10.4,16,16,34.4,16,53.6V392H320z"/>
<path style="fill:#DC8729;" d="M232,392v-13.6c0-17.6,4.8-34.4,14.4-48.8l1.6-1.6l1.6,1.6c9.6,14.4,14.4,31.2,14.4,48.8V392"/>
<path d="M272,392h-16v-13.6c0-12-2.4-24-8-35.2c-5.6,11.2-8,22.4-8,35.2V392h-16v-13.6c0-19.2,5.6-37.6,16-53.6l1.6-1.6
	c2.4-4,8-4.8,12-1.6c0.8,0.8,1.6,0.8,1.6,1.6l1.6,1.6c10.4,16,16,34.4,16,53.6V392H272z"/>
<polyline style="fill:#6B5936;" points="330.4,416 408,440 400,488 248,441.6 "/>
<path d="M400,496c-0.8,0-1.6,0-2.4,0l-152-46.4l4.8-15.2l143.2,44l5.6-32L328,424l4.8-15.2l78.4,24c4,0.8,6.4,4.8,5.6,8.8l-8,48
	C407.2,492.8,404,496,400,496z"/>
<polyline style="fill:#6B5936;" points="166.4,416 88,392 96,344 248,390.4 "/>
<path d="M164,424l-78.4-24c-4-0.8-6.4-4.8-5.6-8.8l8-48c0-2.4,1.6-4,4-5.6c1.6-1.6,4-1.6,6.4-1.6l152,46.4l-4.8,15.2l-143.2-44
	l-5.6,32L168,408L164,424z"/>
<path style="fill:#7D828C;" d="M152,72L152,72c0-17.6,14.4-32,32-32h128c17.6,0,32,14.4,32,32l0,0"/>
<path d="M352,72h-16c0-13.6-10.4-24-24-24H184c-13.6,0-24,10.4-24,24h-16c0-22.4,17.6-40,40-40h128C334.4,32,352,49.6,352,72z"/>
<path style="fill:#A4A5A6;" d="M152,72h192c8.8,0,16,7.2,16,16v112c0,17.6-14.4,32-32,32H168c-17.6,0-32-14.4-32-32V88
	C136,79.2,143.2,72,152,72z"/>
<path d="M328,240H168c-22.4,0-40-17.6-40-40V88c0-13.6,10.4-24,24-24h192c13.6,0,24,10.4,24,24v112C368,222.4,350.4,240,328,240z
	 M152,80c-4.8,0-8,3.2-8,8v112c0,13.6,10.4,24,24,24h160c13.6,0,24-10.4,24-24V88c0-4.8-3.2-8-8-8H152z"/>
<rect x="136" y="96" width="224" height="16"/>
<rect x="224" y="8" style="fill:#A4A5A6;" width="48" height="32"/>
<path d="M272,48h-48c-4.8,0-8-3.2-8-8V8c0-4.8,3.2-8,8-8h48c4.8,0,8,3.2,8,8v32C280,44.8,276.8,48,272,48z M232,32h32V16h-32V32z"/>
<rect x="200" width="96" height="16"/>
<polygon style="fill:#A88C55;" points="96,488 408,392 400,344 88,440 "/>
<path d="M96,496c-4,0-7.2-3.2-8-6.4l-8-48c-0.8-4,1.6-8,5.6-8.8l312-96c4-1.6,8.8,0.8,9.6,5.6v0.8l8,48c0.8,4-1.6,8-5.6,8.8l-312,96
	C97.6,496,96.8,496,96,496z M96.8,445.6l5.6,32l296.8-91.2l-5.6-32L96.8,445.6z"/>
<rect x="8" y="104" style="fill:#A88C55;" width="32" height="272"/>
<path d="M40,384H8c-4.8,0-8-3.2-8-8V104c0-4.8,3.2-8,8-8h32c4.8,0,8,3.2,8,8v272C48,380.8,44.8,384,40,384z M16,368h16V112H16V368z"
	/>
<path d="M112,128H96v-24c0-4.8,3.2-8,8-8h32v16h-24V128z"/>
<path d="M400,128h-16v-16h-24V96h32c4.8,0,8,3.2,8,8V128z"/>
<rect x="40" y="152" style="fill:#6B5936;" width="64" height="32"/>
<path d="M104,192H40c-4.8,0-8-3.2-8-8v-32c0-4.8,3.2-8,8-8h64c4.8,0,8,3.2,8,8v32C112,188.8,108.8,192,104,192z M48,176h48v-16H48
	V176z"/>
<rect x="8" y="336" width="32" height="16"/>
<rect x="8" y="128" width="32" height="16"/>
<rect x="8" y="376" style="fill:#6B5936;" width="48" height="32"/>
<path d="M56,416H8c-4.8,0-8-3.2-8-8v-32c0-4.8,3.2-8,8-8h48c4.8,0,8,3.2,8,8v32C64,412.8,60.8,416,56,416z M16,400h32v-16H16V400z"
	/>
<rect x="456" y="104" style="fill:#A88C55;" width="32" height="272"/>
<path d="M488,384h-32c-4.8,0-8-3.2-8-8V104c0-4.8,3.2-8,8-8h32c4.8,0,8,3.2,8,8v272C496,380.8,492.8,384,488,384z M464,368h16V112
	h-16V368z"/>
<rect x="392" y="152" style="fill:#6B5936;" width="64" height="32"/>
<path d="M456,192h-64c-4.8,0-8-3.2-8-8v-32c0-4.8,3.2-8,8-8h64c4.8,0,8,3.2,8,8v32C464,188.8,460.8,192,456,192z M400,176h48v-16
	h-48V176z"/>
<rect x="456" y="336" width="32" height="16"/>
<rect x="456" y="128" width="32" height="16"/>
<rect x="440" y="376" style="fill:#6B5936;" width="48" height="32"/>
<path d="M488,416h-48c-4.8,0-8-3.2-8-8v-32c0-4.8,3.2-8,8-8h48c4.8,0,8,3.2,8,8v32C496,412.8,492.8,416,488,416z M448,400h32v-16
	h-32V400z"/>
<rect x="136" y="192" width="224" height="16"/>
<g>
</g>
<g>
</g>
<g>
</g>
<g>
</g>
<g>
</g>
<g>
</g>
<g>
</g>
<g>
</g>
<g>
</g>
<g>
</g>
<g>
</g>
<g>
</g>
<g>
</g>
<g>
</g>
<g>
</g>
</svg>
