<?xml version="1.0" encoding="iso-8859-1"?>
<!-- Generator: Adobe Illustrator 19.0.0, SVG Export Plug-In . SVG Version: 6.00 Build 0)  -->
<svg version="1.1" id="Capa_1" xmlns="http://www.w3.org/2000/svg" xmlns:xlink="http://www.w3.org/1999/xlink" x="0px" y="0px"
	 viewBox="0 0 496 496" style="enable-background:new 0 0 496 496;" xml:space="preserve">
<polyline style="fill:#BABDBF;" points="200,320 200,272 168,272 168,304 "/>
<path d="M208,320h-16v-40h-16v24h-16v-32c0-4.8,3.2-8,8-8h32c4.8,0,8,3.2,8,8V320z"/>
<polyline style="fill:#BABDBF;" points="200,56 200,8 168,8 168,40 "/>
<path d="M208,56h-16V16h-16v24h-16V8c0-4.8,3.2-8,8-8h32c4.8,0,8,3.2,8,8V56z"/>
<polyline style="fill:#BABDBF;" points="472,320 472,272 440,272 440,304 "/>
<path d="M480,320h-16v-40h-16v24h-16v-32c0-4.8,3.2-8,8-8h32c4.8,0,8,3.2,8,8V320z"/>
<polygon style="fill:#737272;" points="216,328 216,488 8,488 8,328 112,280 "/>
<path d="M216,496H8c-4.8,0-8-3.2-8-8V328c0-3.2,1.6-5.6,4.8-7.2l104-48c2.4-0.8,4.8-0.8,6.4,0l104,48c3.2,1.6,4.8,4,4.8,7.2v160
	C224,492.8,220.8,496,216,496z M16,480h192V332.8l-96-44l-96,44V480z"/>
<polygon style="fill:#737272;" points="216,64 216,224 8,224 8,64 112,16 "/>
<path d="M216,232H8c-4.8,0-8-3.2-8-8V64c0-3.2,1.6-5.6,4.8-7.2l104-48c2.4-0.8,4.8-0.8,6.4,0l104,48c3.2,1.6,4.8,4,4.8,7.2v160
	C224,228.8,220.8,232,216,232z M16,216h192V68.8l-96-44l-96,44V216z"/>
<polygon style="fill:#737272;" points="488,328 488,488 280,488 280,328 384,280 "/>
<path d="M488,496H280c-4.8,0-8-3.2-8-8V328c0-3.2,1.6-5.6,4.8-7.2l104-48c2.4-0.8,4.8-0.8,6.4,0l104,48c3.2,1.6,4.8,4,4.8,7.2v160
	C496,492.8,492.8,496,488,496z M288,480h192V332.8l-96-44l-96,44V480z"/>
<path d="M152,496H72c-4.8,0-8-3.2-8-8V360c0-4.8,3.2-8,8-8h80c4.8,0,8,3.2,8,8v128C160,492.8,156.8,496,152,496z M80,480h64V368H80
	V480z"/>
<rect x="8" y="456" style="fill:#BABDBF;" width="64" height="32"/>
<path d="M72,496H8c-4.8,0-8-3.2-8-8v-32c0-4.8,3.2-8,8-8h64c4.8,0,8,3.2,8,8v32C80,492.8,76.8,496,72,496z M16,480h48v-16H16V480z"
	/>
<rect x="152" y="456" style="fill:#BABDBF;" width="64" height="32"/>
<path d="M216,496h-64c-4.8,0-8-3.2-8-8v-32c0-4.8,3.2-8,8-8h64c4.8,0,8,3.2,8,8v32C224,492.8,220.8,496,216,496z M160,480h48v-16
	h-48V480z"/>
<path d="M128,152H72v-16h56c4.8,0,8-3.2,8-8s-3.2-8-8-8H96c-13.6,0-24-10.4-24-24s10.4-24,24-24h56v16H96c-4.8,0-8,3.2-8,8
	s3.2,8,8,8h32c13.6,0,24,10.4,24,24S141.6,152,128,152z"/>
<rect x="104" y="56" width="16" height="24"/>
<rect x="104" y="144" width="16" height="24"/>
<rect x="248" y="8" style="fill:#91AAB4;" width="240" height="160"/>
<path d="M488,176H248c-4.8,0-8-3.2-8-8V8c0-4.8,3.2-8,8-8h240c4.8,0,8,3.2,8,8v160C496,172.8,492.8,176,488,176z M256,160h224V16
	H256V160z"/>
<path d="M464,72h-16V48h-24V32h32c4.8,0,8,3.2,8,8V72z"/>
<path d="M285.6,141.6l-11.2-11.2l24-24c1.6-1.6,3.2-2.4,5.6-2.4h36.8l29.6-29.6c1.6-1.6,3.2-2.4,5.6-2.4h36.8l37.6-37.6l11.2,11.2
	l-40,40c-1.6,1.6-3.2,2.4-5.6,2.4h-36.8l-29.6,29.6c-1.6,1.6-3.2,2.4-5.6,2.4h-36.8L285.6,141.6z"/>
<rect x="448" y="88" width="16" height="80"/>
<rect x="416" y="104" width="16" height="64"/>
<rect x="384" y="104" width="16" height="64"/>
<rect x="352" y="128" width="16" height="40"/>
<rect x="320" y="128" width="16" height="40"/>
<rect x="264" y="168" style="fill:#3E606F;" width="208" height="32"/>
<path d="M472,208H264c-4.8,0-8-3.2-8-8v-32c0-4.8,3.2-8,8-8h208c4.8,0,8,3.2,8,8v32C480,204.8,476.8,208,472,208z M272,192h192v-16
	H272V192z"/>
<rect x="72" y="360" style="fill:#BABDBF;" width="80" height="32"/>
<path d="M152,400H72c-4.8,0-8-3.2-8-8v-32c0-4.8,3.2-8,8-8h80c4.8,0,8,3.2,8,8v32C160,396.8,156.8,400,152,400z M80,384h64v-16H80
	V384z"/>
<rect x="8" y="192" style="fill:#BABDBF;" width="208" height="32"/>
<path d="M216,232H8c-4.8,0-8-3.2-8-8v-32c0-4.8,3.2-8,8-8h208c4.8,0,8,3.2,8,8v32C224,228.8,220.8,232,216,232z M16,216h192v-16H16
	V216z"/>
<path d="M424,496h-80c-4.8,0-8-3.2-8-8V360c0-4.8,3.2-8,8-8h80c4.8,0,8,3.2,8,8v128C432,492.8,428.8,496,424,496z M352,480h64V368
	h-64V480z"/>
<rect x="280" y="456" style="fill:#BABDBF;" width="64" height="32"/>
<path d="M344,496h-64c-4.8,0-8-3.2-8-8v-32c0-4.8,3.2-8,8-8h64c4.8,0,8,3.2,8,8v32C352,492.8,348.8,496,344,496z M288,480h48v-16
	h-48V480z"/>
<rect x="424" y="456" style="fill:#BABDBF;" width="64" height="32"/>
<path d="M488,496h-64c-4.8,0-8-3.2-8-8v-32c0-4.8,3.2-8,8-8h64c4.8,0,8,3.2,8,8v32C496,492.8,492.8,496,488,496z M432,480h48v-16
	h-48V480z"/>
<rect x="344" y="360" style="fill:#BABDBF;" width="80" height="32"/>
<path d="M424,400h-80c-4.8,0-8-3.2-8-8v-32c0-4.8,3.2-8,8-8h80c4.8,0,8,3.2,8,8v32C432,396.8,428.8,400,424,400z M352,384h64v-16
	h-64V384z"/>
<g>
</g>
<g>
</g>
<g>
</g>
<g>
</g>
<g>
</g>
<g>
</g>
<g>
</g>
<g>
</g>
<g>
</g>
<g>
</g>
<g>
</g>
<g>
</g>
<g>
</g>
<g>
</g>
<g>
</g>
</svg>
