<?xml version="1.0" encoding="iso-8859-1"?>
<!-- Generator: Adobe Illustrator 19.0.0, SVG Export Plug-In . SVG Version: 6.00 Build 0)  -->
<svg version="1.1" id="Capa_1" xmlns="http://www.w3.org/2000/svg" xmlns:xlink="http://www.w3.org/1999/xlink" x="0px" y="0px"
	 viewBox="0 0 496 496" style="enable-background:new 0 0 496 496;" xml:space="preserve">
<circle style="fill:#F48827;" cx="248" cy="193.2" r="104"/>
<path d="M496,257.2h-16v-72h-72v-16h80c4.8,0,8,3.2,8,8V257.2z"/>
<path style="fill:#42A24F;" d="M152,377.2L152,377.2c17.6,0,32,14.4,32,32v16l0,0l0,0c-17.6,0-32-14.4-32-32V377.2L152,377.2z"/>
<path d="M184,433.2c-22.4,0-40-17.6-40-40v-16c0-4.8,3.2-8,8-8c22.4,0,40,17.6,40,40v16C192,430,188.8,433.2,184,433.2z M160,386.8
	v6.4c0,10.4,6.4,19.2,16,22.4v-6.4C176,398.8,169.6,390,160,386.8z"/>
<path style="fill:#F48827;" d="M184,441.2L184,441.2L184,441.2v-16c0-17.6,14.4-32,32-32l0,0l0,0v16
	C216,426.8,201.6,441.2,184,441.2z"/>
<path d="M184,449.2c-4.8,0-8-3.2-8-8v-16c0-22.4,17.6-40,40-40c4.8,0,8,3.2,8,8v16C224,431.6,206.4,449.2,184,449.2z M208,402.8
	c-9.6,3.2-16,12.8-16,22.4v6.4c9.6-3.2,16-12.8,16-22.4V402.8z"/>
<rect x="176" y="441.2" width="16" height="32"/>
<path d="M218.4,494.8l-1.6-1.6c-7.2-7.2-17.6-12-28-12h-8c-10.4,0-20.8,4-28,12l-1.6,1.6L140,483.6l1.6-1.6
	c10.4-10.4,24.8-16.8,39.2-16h8c15.2,0,28.8,5.6,39.2,16.8l1.6,1.6L218.4,494.8z"/>
<path style="fill:#42A24F;" d="M344,281.2L344,281.2c17.6,0,32,14.4,32,32v16l0,0l0,0c-17.6,0-32-14.4-32-32V281.2L344,281.2z"/>
<path d="M376,337.2c-22.4,0-40-17.6-40-40v-16c0-4.8,3.2-8,8-8c22.4,0,40,17.6,40,40v16C384,334,380.8,337.2,376,337.2z M352,290.8
	v6.4c0,10.4,6.4,19.2,16,22.4v-6.4C368,302.8,361.6,294,352,290.8z"/>
<path style="fill:#F48827;" d="M376,345.2L376,345.2L376,345.2v-16c0-17.6,14.4-32,32-32l0,0l0,0v16
	C408,330.8,393.6,345.2,376,345.2z"/>
<path d="M376,353.2c-4.8,0-8-3.2-8-8v-16c0-22.4,17.6-40,40-40c4.8,0,8,3.2,8,8v16C416,335.6,398.4,353.2,376,353.2z M400,306.8
	c-9.6,3.2-16,12.8-16,22.4v6.4c9.6-3.2,16-12.8,16-22.4V306.8z"/>
<rect x="368" y="345.2" width="16" height="128"/>
<path d="M410.4,494.8l-1.6-1.6c-7.2-7.2-17.6-12-28-12h-8c-10.4,0-20.8,4-28,12l-1.6,1.6L332,483.6l1.6-1.6
	c10.4-10.4,24.8-16.8,39.2-16h8c15.2,0,28.8,5.6,40,16.8l1.6,1.6L410.4,494.8z"/>
<path style="fill:#42A24F;" d="M376,385.2l-6.4,6.4c-6.4,6.4-14.4,9.6-22.4,9.6h-5.6c-8.8,0-16.8-3.2-22.4-9.6L296,369.2l6.4-6.4
	c6.4-6.4,14.4-9.6,22.4-9.6h5.6c8.8,0,16.8,3.2,22.4,9.6L376,385.2z"/>
<path d="M346.4,409.2h-5.6c-10.4,0-20.8-4-28-12l-22.4-22.4c-3.2-3.2-3.2-8,0-11.2l6.4-6.4c7.2-7.2,17.6-12,28-12h5.6
	c10.4,0,20.8,4,28,12l22.4,22.4c3.2,3.2,3.2,8,0,11.2l-6.4,6.4C367.2,405.2,357.6,409.2,346.4,409.2z M307.2,369.2L324,386
	c4.8,4.8,10.4,7.2,16.8,7.2h5.6c6.4,0,12.8-2.4,16.8-7.2l0.8-0.8l-16.8-16.8c-4.8-4.8-10.4-7.2-16.8-7.2h-5.6
	c-6.4,0-12.8,2.4-16.8,7.2L307.2,369.2z"/>
<path style="fill:#F48827;" d="M456,409.2l-6.4-6.4c-6.4-6.4-14.4-9.6-22.4-9.6h-5.6c-8.8,0-16.8,3.2-22.4,9.6L376,425.2l6.4,6.4
	c6.4,6.4,14.4,9.6,22.4,9.6h5.6c8.8,0,16.8-3.2,22.4-9.6L456,409.2z"/>
<path d="M410.4,449.2h-5.6c-10.4,0-20.8-4-28-12l-6.4-6.4c-3.2-3.2-3.2-8,0-11.2l22.4-22.4c7.2-7.2,17.6-12,28-12h5.6
	c10.4,0,20.8,4,28,12l6.4,6.4c3.2,3.2,3.2,8,0,11.2l-22.4,22.4C431.2,445.2,421.6,449.2,410.4,449.2z M387.2,425.2l0.8,0.8
	c4.8,4.8,10.4,7.2,16.8,7.2h5.6c6.4,0,12.8-2.4,16.8-7.2l16.8-16.8l-0.8-0.8c-4.8-4.8-10.4-7.2-16.8-7.2h-5.6
	c-6.4,0-12.8,2.4-16.8,7.2L387.2,425.2z"/>
<circle style="fill:#42A24F;" cx="192" cy="41.2" r="32"/>
<path d="M192,81.2c-22.4,0-40-17.6-40-40s17.6-40,40-40s40,17.6,40,40S214.4,81.2,192,81.2z M192,17.2c-13.6,0-24,10.4-24,24
	s10.4,24,24,24s24-10.4,24-24S205.6,17.2,192,17.2z"/>
<circle style="fill:#F48827;" cx="304" cy="41.2" r="32"/>
<path d="M304,81.2c-22.4,0-40-17.6-40-40s17.6-40,40-40s40,17.6,40,40S326.4,81.2,304,81.2z M304,17.2c-13.6,0-24,10.4-24,24
	s10.4,24,24,24s24-10.4,24-24S317.6,17.2,304,17.2z"/>
<circle style="fill:#42A24F;" cx="408" cy="105.2" r="24"/>
<path d="M408,137.2c-17.6,0-32-14.4-32-32s14.4-32,32-32s32,14.4,32,32S425.6,137.2,408,137.2z M408,89.2c-8.8,0-16,7.2-16,16
	s7.2,16,16,16s16-7.2,16-16S416.8,89.2,408,89.2z"/>
<circle style="fill:#F48827;" cx="72" cy="177.2" r="24"/>
<path d="M72,209.2c-17.6,0-32-14.4-32-32s14.4-32,32-32s32,14.4,32,32S89.6,209.2,72,209.2z M72,161.2c-8.8,0-16,7.2-16,16
	c0,8.8,7.2,16,16,16s16-7.2,16-16C88,168.4,80.8,161.2,72,161.2z"/>
<path d="M49.6,166L20,129.2H0v-16h24c2.4,0,4.8,0.8,6.4,3.2l32,40L49.6,166z"/>
<rect x="65.595" y="105.202" transform="matrix(-0.6405 0.7679 -0.7679 -0.6405 296.9059 87.421)" width="124.794" height="15.999"/>
<rect x="224" y="33.2" width="48" height="16"/>
<path d="M384,113.2h-32c-3.2,0-5.6-1.6-7.2-4l-24-40l13.6-8l21.6,36h28V113.2z"/>
<rect x="432" y="97.2" width="56" height="16"/>
<path d="M469.6,134.8l-11.2-11.2l18.4-18.4l-18.4-18.4l11.2-11.2l24,24c3.2,3.2,3.2,8,0,11.2L469.6,134.8z"/>
<path d="M239.2,305.2c-61.6-4.8-108-58.4-103.2-120S194.4,77.2,256,82s108,58.4,103.2,120c-0.8,6.4-1.6,12.8-3.2,19.2l-15.2-4
	c13.6-51.2-17.6-104-68.8-116.8S168,118,155.2,169.2c-13.6,51.2,17.6,104,68.8,116.8c5.6,1.6,11.2,2.4,16.8,2.4L239.2,305.2z"/>
<path d="M264,233.2h-48v-16h48c4.8,0,8-3.2,8-8c0-4.8-3.2-8-8-8h-32c-13.6,0-24-10.4-24-24s10.4-24,24-24h48v16h-48
	c-4.8,0-8,3.2-8,8c0,4.8,3.2,8,8,8h32c13.6,0,24,10.4,24,24S277.6,233.2,264,233.2z"/>
<rect x="240" y="137.2" width="16" height="24"/>
<rect x="240" y="225.2" width="16" height="24"/>
<path d="M328,193.2h-16c0-35.2-28.8-64-64-64h-8v-16h8C292,113.2,328,149.2,328,193.2z"/>
<polygon style="fill:#789DC3;" points="488,201.2 488,177.2 464,177.2 424,217.2 320,217.2 224,313.2 120,313.2 8,425.2 8,473.2 
	136,345.2 240,345.2 336,249.2 440,249.2 "/>
<path d="M8,481.2c-0.8,0-2.4,0-3.2-0.8c-3.2-0.8-4.8-4-4.8-7.2v-48c0-2.4,0.8-4,2.4-5.6l112-112c1.6-1.6,3.2-2.4,5.6-2.4h100.8
	l93.6-93.6c1.6-1.6,3.2-2.4,5.6-2.4h100.8l37.6-37.6c1.6-1.6,3.2-2.4,5.6-2.4h24c4.8,0,8,3.2,8,8v24c0,2.4-0.8,4-2.4,5.6l-48,48
	c-1.6,1.6-3.2,2.4-5.6,2.4H339.2l-93.6,93.6c-1.6,1.6-3.2,2.4-5.6,2.4H139.2L13.6,478.8C12,480.4,10.4,481.2,8,481.2z M16,428.4V454
	l114.4-114.4c1.6-1.6,3.2-2.4,5.6-2.4h100.8l93.6-93.6c1.6-1.6,3.2-2.4,5.6-2.4h100.8L480,198v-12.8h-12.8l-37.6,37.6
	c-1.6,1.6-3.2,2.4-5.6,2.4H323.2l-93.6,93.6c-1.6,1.6-3.2,2.4-5.6,2.4H123.2L16,428.4z"/>
<g>
</g>
<g>
</g>
<g>
</g>
<g>
</g>
<g>
</g>
<g>
</g>
<g>
</g>
<g>
</g>
<g>
</g>
<g>
</g>
<g>
</g>
<g>
</g>
<g>
</g>
<g>
</g>
<g>
</g>
</svg>
