<?xml version="1.0" encoding="iso-8859-1"?>
<!-- Generator: Adobe Illustrator 19.0.0, SVG Export Plug-In . SVG Version: 6.00 Build 0)  -->
<svg version="1.1" id="Capa_1" xmlns="http://www.w3.org/2000/svg" xmlns:xlink="http://www.w3.org/1999/xlink" x="0px" y="0px"
	 viewBox="0 0 496.55 496.55" style="enable-background:new 0 0 496.55 496.55;" xml:space="preserve">
<path style="fill:#7D828C;" d="M208,152.337c0-17.6-14.4-32-32-32s-32,14.4-32,32c0,0.8,0,0.8,0,1.6c-2.4-0.8-5.6-1.6-8-1.6
	c-13.6,0-24,10.4-24,24s10.4,24,24,24h72"/>
<path d="M208,208.337h-72c-17.6,0-32-14.4-31.2-32s14.4-32,32.8-32c4-21.6,25.6-36,47.2-31.2c18.4,4,32,20,32,39.2h-16
	c0-13.6-10.4-24-24-24s-24,10.4-24,24v0.8c0,4.8-3.2,8-8,8c-0.8,0-2.4,0-3.2-0.8c-1.6,0-4,0-5.6,0c-8.8,0-16,7.2-16,16s7.2,16,16,16
	h72V208.337z"/>
<polyline style="fill:#6B5936;" points="208,48.337 208,384.337 240,384.337 240,48.337 "/>
<path d="M240,392.337h-32c-4.8,0-8-3.2-8-8v-336h16v328h16v-328h16v336C248,389.137,244.8,392.337,240,392.337z"/>
<circle style="fill:#A88C55;" cx="224" cy="32.337" r="24"/>
<path d="M224,64.337c-17.6,0-32-14.4-32-32s14.4-32,32-32s32,14.4,32,32S241.6,64.337,224,64.337z M224,16.337c-8.8,0-16,7.2-16,16
	s7.2,16,16,16s16-7.2,16-16S232.8,16.337,224,16.337z"/>
<polygon style="fill:#9F3A37;" points="280,200.337 488,200.337 448,136.337 488,72.337 280,72.337 "/>
<path d="M488,208.337H280c-4.8,0-8-3.2-8-8v-128c0-4.8,3.2-8,8-8h208c4.8,0,8,3.2,8,8c0,1.6-0.8,3.2-1.6,4l-36.8,60l37.6,60
	c2.4,4,1.6,8.8-2.4,11.2C491.2,207.537,489.6,208.337,488,208.337z M288,192.337h185.6l-32-52c-1.6-2.4-1.6-5.6,0-8.8l32-52H288
	V192.337z"/>
<path style="fill:#BF7D2C;" d="M144,72.337c13.6,0,24-10.4,24-24s-10.4-24-24-24s-24,10.4-24,24"/>
<path d="M144,80.337v-16c8.8,0,16-7.2,16-16s-7.2-16-16-16s-16,7.2-16,16h-16c0-17.6,14.4-32,32-32s32,14.4,32,32
	S161.6,80.337,144,80.337z"/>
<polygon style="fill:#589137;" points="8,488.337 56,440.337 120,440.337 176,384.337 352,384.337 400,336.337 488,336.337 
	488,488.337 "/>
<path d="M488,496.337H8c-4.8,0-8-3.2-8-8c0-2.4,0.8-4,2.4-5.6l48-48c1.6-1.6,3.2-2.4,5.6-2.4h60.8l53.6-53.6
	c1.6-1.6,3.2-2.4,5.6-2.4h172.8l45.6-45.6c1.6-1.6,3.2-2.4,5.6-2.4h88c4.8,0,8,3.2,8,8v152C496,493.137,492.8,496.337,488,496.337z
	 M27.2,480.337H480v-136h-76.8l-45.6,45.6c-1.6,1.6-3.2,2.4-5.6,2.4H179.2l-53.6,53.6c-1.6,1.6-3.2,2.4-5.6,2.4H59.2L27.2,480.337z"
	/>
<path style="fill:#7D828C;" d="M136,88.337c8.8,0,16-7.2,16-16s-7.2-16-16-16c-3.2,0-6.4,0.8-8.8,2.4c-2.4-10.4-12-18.4-23.2-18.4
	c0-17.6-14.4-32-32-32s-32,14.4-32,32c0,0.8,0,0.8,0,1.6c-2.4-0.8-5.6-1.6-8-1.6c-13.6,0-24,10.4-24,24s10.4,24,24,24H136z"/>
<path d="M136,96.337H32c-17.6,0-32-14.4-31.2-32.8c0-17.6,14.4-32,32-31.2c4-21.6,25.6-36,47.2-31.2c16,3.2,28.8,16,31.2,32
	c8.8,2.4,16,8,20.8,15.2c1.6,0,2.4,0,4,0c13.6,0,24,10.4,24,24S149.6,96.337,136,96.337z M32,48.337c-8.8,0-16,7.2-16,16
	s7.2,16,16,16h104c4.8,0,8-3.2,8-8s-3.2-8-8-8c-1.6,0-3.2,0.8-4.8,1.6c-4,2.4-8.8,1.6-11.2-2.4c0-0.8,0-1.6-0.8-3.2
	c-1.6-7.2-8-12-15.2-12c-4.8,0-8-3.2-8-8c0-13.6-10.4-24-24-24s-24,10.4-24,24v0.8c0,4.8-3.2,8-8,8c-0.8,0-2.4,0-3.2-0.8
	C36,48.337,33.6,48.337,32,48.337z"/>
<rect x="312" y="96.337" width="152" height="16"/>
<path d="M181.6,453.937l-11.2-11.2l32-32c1.6-1.6,3.2-2.4,5.6-2.4h48v16h-44.8L181.6,453.937z"/>
<path d="M392,424.337h-40v-16h36.8l29.6-29.6c1.6-1.6,3.2-2.4,5.6-2.4h24v16h-20.8l-29.6,29.6
	C396,423.537,394.4,424.337,392,424.337z"/>
<rect x="280" y="72.337" style="fill:#CB5940;" width="32" height="128"/>
<path d="M312,208.337h-32c-4.8,0-8-3.2-8-8v-128c0-4.8,3.2-8,8-8h32c4.8,0,8,3.2,8,8v128C320,205.137,316.8,208.337,312,208.337z
	 M288,192.337h16v-112h-16V192.337z"/>
<rect x="248" y="80.337" width="32" height="16"/>
<rect x="240" y="176.337" width="40" height="16"/>
<g>
</g>
<g>
</g>
<g>
</g>
<g>
</g>
<g>
</g>
<g>
</g>
<g>
</g>
<g>
</g>
<g>
</g>
<g>
</g>
<g>
</g>
<g>
</g>
<g>
</g>
<g>
</g>
<g>
</g>
</svg>
