<?xml version="1.0" encoding="iso-8859-1"?>
<!-- Generator: Adobe Illustrator 19.0.0, SVG Export Plug-In . SVG Version: 6.00 Build 0)  -->
<svg version="1.1" id="Capa_1" xmlns="http://www.w3.org/2000/svg" xmlns:xlink="http://www.w3.org/1999/xlink" x="0px" y="0px"
	 viewBox="0 0 496.4 496.4" style="enable-background:new 0 0 496.4 496.4;" xml:space="preserve">
<polygon style="fill:#737272;" points="296.214,488.4 456.214,488.4 456.214,392.4 488.214,392.4 376.214,328.4 264.214,392.4 
	296.214,392.4 "/>
<path d="M456.214,496.4h-160c-4.8,0-8-3.2-8-8v-88h-24c-4.8,0-8-3.2-8-8c0-3.2,1.6-5.6,4-7.2l112-64c2.4-1.6,5.6-1.6,8,0l112,64
	c4,2.4,4.8,7.2,3.2,11.2c-1.6,2.4-4,4-7.2,4h-24v88C464.214,493.2,461.014,496.4,456.214,496.4z M304.214,480.4h144v-88
	c0-4.8,3.2-8,8-8h1.6l-81.6-46.4l-81.6,46.4h1.6c4.8,0,8,3.2,8,8V480.4z"/>
<polyline style="fill:#737272;" points="136.214,168.4 200.214,168.4 200.214,72.4 232.214,72.4 120.214,8.4 8.214,72.4 
	40.214,72.4 40.214,168.4 104.214,168.4 "/>
<path d="M200.214,176.4h-64v-16h56v-88c0-4.8,3.2-8,8-8h1.6l-81.6-46.4l-81.6,46.4h1.6c4.8,0,8,3.2,8,8v88h56v16h-64
	c-4.8,0-8-3.2-8-8v-88h-24c-4.8,0-8-3.2-8-8c0-3.2,1.6-5.6,4-7.2l112-64c2.4-1.6,5.6-1.6,8,0l112,64c4,2.4,4.8,7.2,3.2,11.2
	c-1.6,2.4-4,4-7.2,4h-24v88C208.214,173.2,205.014,176.4,200.214,176.4z"/>
<polygon style="fill:#737272;" points="296.214,168.4 456.214,168.4 456.214,72.4 488.214,72.4 376.214,8.4 264.214,72.4 
	296.214,72.4 "/>
<path d="M456.214,176.4h-160c-4.8,0-8-3.2-8-8v-88h-24c-4.8,0-8-3.2-8-8c0-3.2,1.6-5.6,4-7.2l112-64c2.4-1.6,5.6-1.6,8,0l112,64
	c4,2.4,4.8,7.2,3.2,11.2c-1.6,2.4-4,4-7.2,4h-24v88C464.214,173.2,461.014,176.4,456.214,176.4z M304.214,160.4h144v-88
	c0-4.8,3.2-8,8-8h1.6l-81.6-46.4l-81.6,46.4h1.6c4.8,0,8,3.2,8,8V160.4z"/>
<path d="M112.214,96.4c-2.4,0-4-0.8-5.6-2.4l-16-16l11.2-11.2l10.4,10.4l26.4-26.4l11.2,11.2l-32,32
	C116.214,95.6,114.614,96.4,112.214,96.4z"/>
<rect x="352.214" y="88.4" style="fill:#BABDBF;" width="48" height="80"/>
<path d="M400.214,176.4h-48c-4.8,0-8-3.2-8-8v-80c0-4.8,3.2-8,8-8h48c4.8,0,8,3.2,8,8v80C408.214,173.2,405.014,176.4,400.214,176.4
	z M360.214,160.4h32v-64h-32V160.4z"/>
<rect x="296.214" y="136.4" style="fill:#BABDBF;" width="56" height="32"/>
<path d="M352.214,176.4h-56c-4.8,0-8-3.2-8-8v-32c0-4.8,3.2-8,8-8h56c4.8,0,8,3.2,8,8v32C360.214,173.2,357.014,176.4,352.214,176.4
	z M304.214,160.4h40v-16h-40V160.4z"/>
<rect x="400.214" y="136.4" style="fill:#BABDBF;" width="56" height="32"/>
<path d="M456.214,176.4h-56c-4.8,0-8-3.2-8-8v-32c0-4.8,3.2-8,8-8h56c4.8,0,8,3.2,8,8v32C464.214,173.2,461.014,176.4,456.214,176.4
	z M408.214,160.4h40v-16h-40V160.4z"/>
<rect x="296.214" y="456.4" style="fill:#BABDBF;" width="56" height="32"/>
<path d="M352.214,496.4h-56c-4.8,0-8-3.2-8-8v-32c0-4.8,3.2-8,8-8h56c4.8,0,8,3.2,8,8v32C360.214,493.2,357.014,496.4,352.214,496.4
	z M304.214,480.4h40v-16h-40V480.4z"/>
<rect x="400.214" y="456.4" style="fill:#BABDBF;" width="56" height="32"/>
<path d="M456.214,496.4h-56c-4.8,0-8-3.2-8-8v-32c0-4.8,3.2-8,8-8h56c4.8,0,8,3.2,8,8v32C464.214,493.2,461.014,496.4,456.214,496.4
	z M408.214,480.4h40v-16h-40V480.4z"/>
<rect x="352.214" y="408.4" style="fill:#BABDBF;" width="48" height="80"/>
<path d="M400.214,496.4h-48c-4.8,0-8-3.2-8-8v-80c0-4.8,3.2-8,8-8h48c4.8,0,8,3.2,8,8v80C408.214,493.2,405.014,496.4,400.214,496.4
	z M360.214,480.4h32v-64h-32V480.4z"/>
<path style="fill:#C7B299;" d="M120.214,288.4l-16-48v-104c0-8.8,7.2-16,16-16l0,0c8.8,0,16,7.2,16,16v88l16-24h16l16,24h16l16,24
	h16l16,24v48l-32,48l16,120h-120l16-120l-32-48l-8-40l24-16"/>
<path d="M232.214,496.4h-120c-4.8,0-8-3.2-8-8v-0.8l16-117.6l-30.4-45.6c-0.8-0.8-0.8-1.6-0.8-3.2l-8-40c-0.8-3.2,0.8-6.4,3.2-8
	l19.2-12.8l-6.4-18.4c0-0.8-0.8-1.6-0.8-2.4V136.4c0-13.6,10.4-24,24-24s24,10.4,24,24V198l1.6-2.4c1.6-2.4,4-3.2,6.4-3.2h16
	c2.4,0,4.8,1.6,6.4,3.2l13.6,20.8h12c2.4,0,4.8,1.6,6.4,3.2l13.6,20.8h12c2.4,0,4.8,1.6,6.4,3.2l16,24c0.8,1.6,1.6,3.2,1.6,4.8v48
	c0,1.6-0.8,3.2-1.6,4.8l-30.4,44.8l16,116.8c0.8,4-2.4,8.8-7.2,8.8C233.014,496.4,232.214,496.4,232.214,496.4z M121.014,480.4
	h101.6l-14.4-111.2c0-1.6,0-4,1.6-5.6l30.4-45.6v-43.2l-12-18.4h-12c-2.4,0-4.8-1.6-6.4-3.2l-13.6-20.8h-12c-2.4,0-4.8-1.6-6.4-3.2
	l-13.6-20.8h-7.2l-13.6,20.8c-2.4,4-7.2,4.8-11.2,2.4c-2.4-1.6-4-4.8-4-7.2v-88c0-4.8-3.2-8-8-8s-8,3.2-8,8v102.4l15.2,46.4
	l-15.2,5.6l-4.8-14.4l-11.2,7.2l6.4,32.8l31.2,46.4c0.8,1.6,1.6,3.2,1.6,5.6L121.014,480.4z"/>
<rect x="112.214" y="448.4" width="120" height="16"/>
<rect x="128.214" y="360.4" width="24" height="16"/>
<rect x="192.214" y="360.4" width="24" height="16"/>
<g>
</g>
<g>
</g>
<g>
</g>
<g>
</g>
<g>
</g>
<g>
</g>
<g>
</g>
<g>
</g>
<g>
</g>
<g>
</g>
<g>
</g>
<g>
</g>
<g>
</g>
<g>
</g>
<g>
</g>
</svg>
