<?xml version="1.0" encoding="iso-8859-1"?>
<!-- Generator: Adobe Illustrator 19.0.0, SVG Export Plug-In . SVG Version: 6.00 Build 0)  -->
<svg version="1.1" id="Capa_1" xmlns="http://www.w3.org/2000/svg" xmlns:xlink="http://www.w3.org/1999/xlink" x="0px" y="0px"
	 viewBox="0 0 496.356 496.356" style="enable-background:new 0 0 496.356 496.356;" xml:space="preserve">
<circle style="fill:#FFBC3D;" cx="248" cy="176.094" r="168"/>
<circle style="fill:#FFFFFF;" cx="248" cy="176.094" r="136"/>
<polyline style="fill:#C1272D;" points="80,200.094 8,200.094 32,240.094 8,280.094 80,280.094 "/>
<path d="M80,288.094H8c-4.8,0-8-3.2-8-8c0-1.6,0-3.2,0.8-4l21.6-36l-21.6-36c-1.6-4-0.8-8.8,3.2-11.2c0.8-0.8,2.4-0.8,4-0.8h72v16
	H22.4l16.8,28c1.6,2.4,1.6,5.6,0,8l-16.8,28H80V288.094z"/>
<polyline style="fill:#C1272D;" points="416,200.094 488,200.094 464,240.094 488,280.094 416,280.094 "/>
<path d="M488,288.094h-72v-16h57.6l-16.8-28c-1.6-2.4-1.6-5.6,0-8l16.8-28H416v-16h72c4.8,0,8,3.2,8,8c0,1.6,0,3.2-0.8,4l-21.6,36
	l21.6,36c2.4,4,0.8,8.8-2.4,11.2C491.2,288.094,489.6,288.094,488,288.094z"/>
<polyline style="fill:#D94A56;" points="328,320.094 392,448.094 328,416.094 312,488.094 248,344.094 "/>
<path d="M312,496.094c-3.2,0-6.4-1.6-7.2-4.8l-64-144l14.4-6.4l54.4,121.6l10.4-48c0.8-4,5.6-7.2,9.6-6.4c0.8,0,1.6,0,1.6,0.8
	l42.4,21.6l-53.6-106.4l14.4-7.2l64,128c2.4,4,0.8,8.8-3.2,10.4c-2.4,0.8-4.8,0.8-7.2,0l-55.2-27.2l-12.8,61.6
	C319.2,492.894,316,496.094,312,496.094C312.8,496.094,312,496.094,312,496.094z"/>
<polyline style="fill:#D94A56;" points="168,320.094 104,448.094 168,416.094 184,488.094 248,344.094 "/>
<path d="M184,496.094h-0.8c-3.2,0-6.4-3.2-7.2-6.4l-13.6-62.4l-55.2,27.2c-4,1.6-8.8,0-10.4-3.2c-0.8-2.4-0.8-4.8,0-7.2l64-128
	l14.4,7.2l-53.6,106.4l42.4-21.6c4-1.6,8.8,0,10.4,3.2c0,0.8,0.8,1.6,0.8,1.6l10.4,48l54.4-121.6l14.4,6.4l-64,144
	C190.4,494.494,187.2,496.094,184,496.094z"/>
<rect x="72" y="232.094" style="fill:#D94A56;" width="352" height="80"/>
<path d="M424,320.094H72c-4.8,0-8-3.2-8-8v-80c0-4.8,3.2-8,8-8h352c4.8,0,8,3.2,8,8v80C432,316.894,428.8,320.094,424,320.094z
	 M80,304.094h336v-64H80V304.094z"/>
<rect x="72" y="256.094" width="352" height="16"/>
<polygon style="fill:#FFBC3D;" points="248,72.094 226.4,114.494 184,120.094 216,152.094 208,200.094 248,173.694 288,200.094 
	280,152.094 312,120.094 269.6,114.494 "/>
<path d="M288,208.094c-1.6,0-3.2-0.8-4.8-1.6l-35.2-24l-35.2,24c-4,2.4-8.8,1.6-11.2-2.4c-1.6-1.6-1.6-3.2-1.6-5.6l7.2-44
	l-28.8-28.8c-3.2-3.2-3.2-8,0-11.2c1.6-1.6,3.2-2.4,4.8-2.4l38.4-4.8l19.2-39.2c2.4-4,7.2-5.6,11.2-3.2c0.8,0.8,2.4,1.6,3.2,3.2
	l19.2,39.2l38.4,4.8c4,0.8,7.2,4.8,7.2,8.8c0,1.6-0.8,3.2-2.4,4.8l-28.8,28.8l7.2,44c0.8,4-2.4,8.8-6.4,9.6
	C288.8,208.094,288.8,208.094,288,208.094z M248,165.694c1.6,0,3.2,0.8,4.8,1.6l24.8,16.8l-5.6-30.4c-0.8-2.4,0.8-4.8,2.4-7.2
	l20.8-20.8l-26.4-3.2c-2.4,0-4.8-1.6-6.4-4l-14.4-28.8l-14.4,28c-0.8,2.4-3.2,4-6.4,4l-26.4,3.2l20.8,20.8c1.6,1.6,2.4,4.8,2.4,7.2
	l-4.8,29.6l24.8-16.8C244.8,165.694,246.4,165.694,248,165.694z"/>
<path d="M248,352.094c-36.8,0-73.6-12-103.2-33.6l9.6-12.8c56,40.8,132,40.8,188,0l9.6,12.8
	C321.6,340.094,284.8,352.094,248,352.094z"/>
<path d="M413.6,234.494l-15.2-5.6c29.6-83.2-14.4-174.4-97.6-204s-174.4,14.4-204,98.4c-12,34.4-12,72,0,106.4l-15.2,5.6
	c-32-92,16-192,107.2-224.8s192,16,224.8,107.2C427.2,155.294,427.2,196.894,413.6,234.494z"/>
<path d="M379.2,235.294l-14.4-6.4c28.8-64.8,0-140-64-169.6s-140,0-169.6,64c-15.2,33.6-15.2,72,0,105.6l-14.4,6.4
	c-32.8-72.8-0.8-157.6,72-190.4s157.6-0.8,190.4,72C396,154.494,396,197.694,379.2,235.294z"/>
<rect x="224" y="312.094" width="16" height="32"/>
<rect x="256" y="312.094" width="16" height="32"/>
<g>
</g>
<g>
</g>
<g>
</g>
<g>
</g>
<g>
</g>
<g>
</g>
<g>
</g>
<g>
</g>
<g>
</g>
<g>
</g>
<g>
</g>
<g>
</g>
<g>
</g>
<g>
</g>
<g>
</g>
</svg>
