<?xml version="1.0" encoding="iso-8859-1"?>
<!-- Generator: Adobe Illustrator 19.0.0, SVG Export Plug-In . SVG Version: 6.00 Build 0)  -->
<svg version="1.1" id="Capa_1" xmlns="http://www.w3.org/2000/svg" xmlns:xlink="http://www.w3.org/1999/xlink" x="0px" y="0px"
	 viewBox="0 0 496 496" style="enable-background:new 0 0 496 496;" xml:space="preserve">
<path style="fill:#A88C55;" d="M72,184H32c-13.6,0-24,10.4-24,24v208c0,13.6,10.4,24,24,24h432c13.6,0,24-10.4,24-24V208
	c0-13.6-10.4-24-24-24h-40"/>
<path d="M464,448H32c-17.6,0-32-14.4-32-32V208c0-17.6,14.4-32,32-32h40v16H32c-8.8,0-16,7.2-16,16v208c0,8.8,7.2,16,16,16h432
	c8.8,0,16-7.2,16-16V208c0-8.8-7.2-16-16-16h-40v-16h40c17.6,0,32,14.4,32,32v208C496,433.6,481.6,448,464,448z"/>
<rect x="72" y="168" style="fill:#6B5936;" width="80" height="64"/>
<path d="M152,240H72c-4.8,0-8-3.2-8-8v-64c0-4.8,3.2-8,8-8h80c4.8,0,8,3.2,8,8v64C160,236.8,156.8,240,152,240z M80,224h64v-48H80
	V224z"/>
<rect x="72" y="192" width="80" height="16"/>
<rect x="344" y="168" style="fill:#6B5936;" width="80" height="64"/>
<path d="M424,240h-80c-4.8,0-8-3.2-8-8v-64c0-4.8,3.2-8,8-8h80c4.8,0,8,3.2,8,8v64C432,236.8,428.8,240,424,240z M352,224h64v-48
	h-64V224z"/>
<rect x="344" y="192" width="80" height="16"/>
<rect x="152" y="176" width="192" height="16"/>
<rect x="80" y="264" width="16" height="176"/>
<path d="M144,440h-16V272H8v-16h128c4.8,0,8,3.2,8,8V440z"/>
<path d="M368,440h-16V264c0-4.8,3.2-8,8-8h128v16H368V440z"/>
<rect x="400" y="264" width="16" height="176"/>
<rect x="8" y="400" width="80" height="16"/>
<rect x="136" y="400" width="224" height="16"/>
<rect x="408" y="400" width="80" height="16"/>
<polygon style="fill:#9F3A37;" points="328,280 272,280 272,224 224,224 224,280 168,280 168,328 224,328 224,384 272,384 272,328 
	328,328 "/>
<path d="M272,392h-48c-4.8,0-8-3.2-8-8v-48h-48c-4.8,0-8-3.2-8-8v-48c0-4.8,3.2-8,8-8h48v-48c0-4.8,3.2-8,8-8h48c4.8,0,8,3.2,8,8v48
	h48c4.8,0,8,3.2,8,8v48c0,4.8-3.2,8-8,8h-48v48C280,388.8,276.8,392,272,392z M232,376h32v-48c0-4.8,3.2-8,8-8h48v-32h-48
	c-4.8,0-8-3.2-8-8v-48h-32v48c0,4.8-3.2,8-8,8h-48v32h48c4.8,0,8,3.2,8,8V376z"/>
<path style="fill:#A88C55;" d="M328,104h32v64h32v-64c0-17.6-14.4-32-32-32h-32"/>
<path d="M392,176h-32c-4.8,0-8-3.2-8-8v-56h-24V96h32c4.8,0,8,3.2,8,8v56h16v-56c0-13.6-10.4-24-24-24h-32V64h32
	c22.4,0,40,17.6,40,40v64C400,172.8,396.8,176,392,176z"/>
<path style="fill:#A88C55;" d="M168,104h-32v64h-32v-64c0-17.6,14.4-32,32-32h32"/>
<path d="M136,176h-32c-4.8,0-8-3.2-8-8v-64c0-22.4,17.6-40,40-40h32v16h-32c-13.6,0-24,10.4-24,24v56h16v-56c0-4.8,3.2-8,8-8h32v16
	h-24v56C144,172.8,140.8,176,136,176z"/>
<rect x="168" y="56" style="fill:#6B5936;" width="160" height="64"/>
<path d="M328,128H168c-4.8,0-8-3.2-8-8V56c0-4.8,3.2-8,8-8h160c4.8,0,8,3.2,8,8v64C336,124.8,332.8,128,328,128z M176,112h144V64
	H176V112z"/>
<rect x="104" y="128" width="32" height="16"/>
<rect x="360" y="128" width="32" height="16"/>
<rect x="88" y="264" style="fill:#6B5936;" width="48" height="176"/>
<path d="M136,448H88c-4.8,0-8-3.2-8-8V264c0-4.8,3.2-8,8-8h48c4.8,0,8,3.2,8,8v176C144,444.8,140.8,448,136,448z M96,432h32V272H96
	V432z"/>
<rect x="360" y="264" style="fill:#6B5936;" width="48" height="176"/>
<path d="M408,448h-48c-4.8,0-8-3.2-8-8V264c0-4.8,3.2-8,8-8h48c4.8,0,8,3.2,8,8v176C416,444.8,412.8,448,408,448z M368,432h32V272
	h-32V432z"/>
<g>
</g>
<g>
</g>
<g>
</g>
<g>
</g>
<g>
</g>
<g>
</g>
<g>
</g>
<g>
</g>
<g>
</g>
<g>
</g>
<g>
</g>
<g>
</g>
<g>
</g>
<g>
</g>
<g>
</g>
</svg>
