<?xml version="1.0" encoding="iso-8859-1"?>
<!-- Generator: Adobe Illustrator 19.0.0, SVG Export Plug-In . SVG Version: 6.00 Build 0)  -->
<svg version="1.1" id="Capa_1" xmlns="http://www.w3.org/2000/svg" xmlns:xlink="http://www.w3.org/1999/xlink" x="0px" y="0px"
	 viewBox="0 0 496 496" style="enable-background:new 0 0 496 496;" xml:space="preserve">
<rect x="8" y="72" style="fill:#789DC3;" width="480" height="352"/>
<rect x="32" y="96" style="fill:#D3D2D6;" width="432" height="304"/>
<polygon style="fill:#D94A56;" points="8,280 312,280 280,320 312,360 8,360 "/>
<path d="M312,368H8c-4.8,0-8-3.2-8-8v-80c0-4.8,3.2-8,8-8h304c4.8,0,8,3.2,8,8c0,1.6-0.8,3.2-1.6,4.8l-28,35.2l28,35.2
	c2.4,3.2,2.4,8.8-1.6,11.2C315.2,367.2,313.6,368,312,368z M16,352h279.2l-21.6-27.2c-2.4-3.2-2.4-7.2,0-10.4l21.6-27.2H16V352z"/>
<path d="M488,432H216v-16h264V80H216V64h272c4.8,0,8,3.2,8,8v352C496,428.8,492.8,432,488,432z"/>
<polyline style="fill:#D94A56;" points="384,216 336,264 336,240 312,240 352,200 "/>
<path d="M336,272c-4.8,0-8-3.2-8-8v-16h-16c-4.8,0-8-3.2-8-8c0-2.4,0.8-4,2.4-5.6l40-40l11.2,11.2L331.2,232h4.8c4.8,0,8,3.2,8,8
	v4.8l34.4-34.4l11.2,11.2l-48,48C340,271.2,338.4,272,336,272z"/>
<polyline style="fill:#D94A56;" points="384,216 432,264 432,240 456,240 416,200 "/>
<path d="M432,272c-2.4,0-4-0.8-5.6-2.4l-48-48l11.2-11.2l34.4,34.4V240c0-4.8,3.2-8,8-8h4.8l-26.4-26.4l11.2-11.2l40,40
	c3.2,3.2,3.2,8,0,11.2c-1.6,1.6-3.2,2.4-5.6,2.4h-16v16C440,268.8,436.8,272,432,272z"/>
<polyline style="fill:#B6B3B8;" points="88,312 88,488 216,488 216,312 "/>
<path d="M216,496H88c-4.8,0-8-3.2-8-8V312h16v168h112V312h16v176C224,492.8,220.8,496,216,496z"/>
<polyline style="fill:#B6B3B8;" points="88,200 88,8 216,8 216,200 "/>
<path d="M224,200h-16V16H96v184H80V8c0-4.8,3.2-8,8-8h128c4.8,0,8,3.2,8,8V200z"/>
<rect x="88" y="32" width="104" height="16"/>
<rect x="112" y="448" width="104" height="16"/>
<rect x="72" y="200" style="fill:#FFBC3D;" width="160" height="112"/>
<path d="M232,320H72c-4.8,0-8-3.2-8-8V200c0-4.8,3.2-8,8-8h160c4.8,0,8,3.2,8,8v112C240,316.8,236.8,320,232,320z M80,304h144v-96
	H80V304z"/>
<rect x="8" y="304" width="64" height="16"/>
<rect x="72" y="224" width="160" height="16"/>
<path d="M88,432H8c-4.8,0-8-3.2-8-8V72c0-4.8,3.2-8,8-8h80v16H16v336h72V432z"/>
<circle style="fill:#FFBC3D;" cx="384" cy="160" r="56"/>
<path d="M384,224c-35.2,0-64-28.8-64-64s28.8-64,64-64s64,28.8,64,64S419.2,224,384,224z M384,112c-26.4,0-48,21.6-48,48
	s21.6,48,48,48s48-21.6,48-48S410.4,112,384,112z"/>
<circle style="fill:#FFD789;" cx="384" cy="160" r="32"/>
<path d="M384,200c-22.4,0-40-17.6-40-40s17.6-40,40-40s40,17.6,40,40S406.4,200,384,200z M384,136c-13.6,0-24,10.4-24,24
	s10.4,24,24,24s24-10.4,24-24S397.6,136,384,136z"/>
<rect x="352" y="384" width="112" height="16"/>
<rect x="400" y="352" width="64" height="16"/>
<g>
</g>
<g>
</g>
<g>
</g>
<g>
</g>
<g>
</g>
<g>
</g>
<g>
</g>
<g>
</g>
<g>
</g>
<g>
</g>
<g>
</g>
<g>
</g>
<g>
</g>
<g>
</g>
<g>
</g>
</svg>
