<?xml version="1.0" encoding="iso-8859-1"?>
<!-- Generator: Adobe Illustrator 19.0.0, SVG Export Plug-In . SVG Version: 6.00 Build 0)  -->
<svg version="1.1" id="Capa_1" xmlns="http://www.w3.org/2000/svg" xmlns:xlink="http://www.w3.org/1999/xlink" x="0px" y="0px"
	 viewBox="0 0 496.038 496.038" style="enable-background:new 0 0 496.038 496.038;" xml:space="preserve">
<polyline style="fill:#BABDBF;" points="328,168.038 328,104.038 280,104.038 280,136.038 "/>
<path d="M336,168.038h-16v-56h-32v24h-16v-32c0-4.8,3.2-8,8-8h48c4.8,0,8,3.2,8,8V168.038z"/>
<polygon style="fill:#737272;" points="392,208.038 392,456.038 24,456.038 24,208.038 208,88.038 "/>
<path d="M392,464.038H24c-4.8,0-8-3.2-8-8v-248c0-2.4,1.6-5.6,4-6.4l184-120c2.4-1.6,6.4-1.6,8.8,0l184,120c2.4,1.6,4,4,4,6.4v248
	C400,460.838,396.8,464.038,392,464.038z M32,448.038h352v-236l-176-114.4l-176,114.4V448.038z"/>
<rect x="8" y="456.038" style="fill:#737272;" width="400" height="32"/>
<path d="M408,496.038H8c-4.8,0-8-3.2-8-8v-32c0-4.8,3.2-8,8-8h400c4.8,0,8,3.2,8,8v32C416,492.838,412.8,496.038,408,496.038z
	 M16,480.038h384v-16H16V480.038z"/>
<rect x="152" y="280.038" style="fill:#BABDBF;" width="112" height="176"/>
<path d="M264,464.038H152c-4.8,0-8-3.2-8-8v-176c0-4.8,3.2-8,8-8h112c4.8,0,8,3.2,8,8v176C272,460.838,268.8,464.038,264,464.038z
	 M160,448.038h96v-160h-96V448.038z"/>
<rect x="24" y="424.038" style="fill:#BABDBF;" width="128" height="32"/>
<path d="M152,464.038H24c-4.8,0-8-3.2-8-8v-32c0-4.8,3.2-8,8-8h128c4.8,0,8,3.2,8,8v32C160,460.838,156.8,464.038,152,464.038z
	 M32,448.038h112v-16H32V448.038z"/>
<rect x="264" y="424.038" style="fill:#BABDBF;" width="128" height="32"/>
<path d="M392,464.038H264c-4.8,0-8-3.2-8-8v-32c0-4.8,3.2-8,8-8h128c4.8,0,8,3.2,8,8v32C400,460.838,396.8,464.038,392,464.038z
	 M272,448.038h112v-16H272V448.038z"/>
<rect x="176" y="360.038" width="16" height="16"/>
<rect x="152" y="280.038" style="fill:#D9D9D9;" width="112" height="32"/>
<path d="M264,320.038H152c-4.8,0-8-3.2-8-8v-32c0-4.8,3.2-8,8-8h112c4.8,0,8,3.2,8,8v32C272,316.838,268.8,320.038,264,320.038z
	 M160,304.038h96v-16h-96V304.038z"/>
<rect x="176" y="152.038" style="fill:#BABDBF;" width="64" height="64"/>
<path d="M240,224.038h-64c-4.8,0-8-3.2-8-8v-64c0-4.8,3.2-8,8-8h64c4.8,0,8,3.2,8,8v64C248,220.838,244.8,224.038,240,224.038z
	 M184,208.038h48v-48h-48V208.038z"/>
<rect x="176" y="152.038" style="fill:#D9D9D9;" width="64" height="32"/>
<path d="M240,192.038h-64c-4.8,0-8-3.2-8-8v-32c0-4.8,3.2-8,8-8h64c4.8,0,8,3.2,8,8v32C248,188.838,244.8,192.038,240,192.038z
	 M184,176.038h48v-16h-48V176.038z"/>
<rect x="56" y="296.038" style="fill:#BABDBF;" width="64" height="48"/>
<path d="M120,352.038H56c-4.8,0-8-3.2-8-8v-48c0-4.8,3.2-8,8-8h64c4.8,0,8,3.2,8,8v48C128,348.838,124.8,352.038,120,352.038z
	 M64,336.038h48v-32H64V336.038z"/>
<rect x="296" y="296.038" style="fill:#BABDBF;" width="64" height="48"/>
<path d="M360,352.038h-64c-4.8,0-8-3.2-8-8v-48c0-4.8,3.2-8,8-8h64c4.8,0,8,3.2,8,8v48C368,348.838,364.8,352.038,360,352.038z
	 M304,336.038h48v-32h-48V336.038z"/>
<polygon style="fill:#BABDBF;" points="56,40.038 96,8.038 96,72.038 "/>
<path d="M96,80.038c-1.6,0-3.2-0.8-4.8-1.6l-40-32c-3.2-2.4-4-8-1.6-11.2c0-0.8,0.8-0.8,1.6-1.6l40-32c3.2-2.4,8.8-2.4,11.2,1.6
	c0.8,1.6,1.6,3.2,1.6,4.8v64C104,76.838,100.8,80.038,96,80.038z M68.8,40.038l19.2,15.2v-30.4L68.8,40.038z"/>
<polygon style="fill:#BABDBF;" points="360,40.038 320,72.038 320,8.038 "/>
<path d="M320,80.038c-4.8,0-8-3.2-8-8v-64c0-4.8,3.2-8,8-8c1.6,0,3.2,0.8,4.8,1.6l40,32c3.2,2.4,4,8,1.6,11.2c0,0.8-0.8,0.8-1.6,1.6
	l-40,32C323.2,79.238,321.6,80.038,320,80.038z M328,24.838v30.4l19.2-15.2L328,24.838z"/>
<rect x="96" y="32.038" width="224" height="16"/>
<polygon style="fill:#BABDBF;" points="456,240.038 488,280.038 424,280.038 "/>
<path d="M488,288.038h-64c-4.8,0-8-3.2-8-8c0-1.6,0.8-3.2,1.6-4.8l32-40c3.2-3.2,8-4,12-0.8l0.8,0.8l32,40c2.4,3.2,2.4,8.8-1.6,11.2
	C491.2,287.238,489.6,288.038,488,288.038z M440.8,272.038h30.4l-15.2-19.2L440.8,272.038z"/>
<polygon style="fill:#BABDBF;" points="456,424.038 424,384.038 488,384.038 "/>
<path d="M456,432.038c-2.4,0-4.8-0.8-6.4-3.2l-32-40c-2.4-3.2-2.4-8.8,1.6-11.2c1.6-0.8,3.2-1.6,4.8-1.6h64c4.8,0,8,3.2,8,8
	c0,1.6-0.8,3.2-1.6,4.8l-32,40C460.8,431.238,458.4,432.038,456,432.038z M440.8,392.038l15.2,19.2l15.2-19.2H440.8z"/>
<rect x="448" y="280.038" width="16" height="104"/>
<rect x="384" y="16.038" width="16" height="136"/>
<rect x="16" y="16.038" width="16" height="136"/>
<rect x="424" y="448.038" width="64" height="16"/>
<rect x="424" y="200.038" width="64" height="16"/>
<g>
</g>
<g>
</g>
<g>
</g>
<g>
</g>
<g>
</g>
<g>
</g>
<g>
</g>
<g>
</g>
<g>
</g>
<g>
</g>
<g>
</g>
<g>
</g>
<g>
</g>
<g>
</g>
<g>
</g>
</svg>
