<?xml version="1.0" encoding="iso-8859-1"?>
<!-- Generator: Adobe Illustrator 19.0.0, SVG Export Plug-In . SVG Version: 6.00 Build 0)  -->
<svg version="1.1" id="Capa_1" xmlns="http://www.w3.org/2000/svg" xmlns:xlink="http://www.w3.org/1999/xlink" x="0px" y="0px"
	 viewBox="0 0 496.8 496.8" style="enable-background:new 0 0 496.8 496.8;" xml:space="preserve">
<path style="fill:#F48827;" d="M292,144.4c-14.4-77.6-72-136-140-136C72.8,8.4,8,87.6,8,184.4s64.8,176,144,176
	c4.8,0,10.4,0,15.2-0.8c-16.8-13.6-20-39.2-5.6-56s39.2-20,56-5.6c9.6,7.2,15.2,19.2,15.2,31.2c0,0.8,0,1.6,0,2.4
	c19.2-16,34.4-36,44.8-58.4"/>
<path d="M152,368.4c-84,0-152-82.4-152-184s68-184,152-184c71.2,0,132,58.4,148,142.4l-16,3.2C269.6,70,215.2,16.4,152,16.4
	c-75.2,0-136,75.2-136,168c0,92,60,167.2,134.4,168c-4-7.2-6.4-15.2-6.4-24c0-26.4,21.6-48,48-48c20.8,0,40,13.6,45.6,34.4
	c12.8-13.6,24-28.8,31.2-45.6l14.4,7.2C272,300.4,256,321.2,236,338c-3.2,2.4-8.8,2.4-11.2-0.8c-1.6-1.6-1.6-3.2-1.6-5.6
	c0-0.8,0-0.8,0-1.6c0-17.6-13.6-32-31.2-32.8s-32,13.6-32.8,31.2c0,9.6,4,19.2,12,25.6c3.2,2.4,4,8,0.8,11.2
	c-1.6,1.6-3.2,2.4-4.8,3.2C162.4,368.4,157.6,368.4,152,368.4z"/>
<path style="fill:#789DC3;" d="M408,198l64.8,1.6c8.8,0,15.2,7.2,15.2,16v0.8c0,8.8-7.2,16-15.2,16l-64.8,2.4"/>
<path d="M408,242.8l-0.8-16l64.8-1.6c4,0,8-4,8-8v-0.8c0-4-3.2-8-8-8l-64-2.4l0.8-16l64.8,1.6c12.8,0,23.2,11.2,23.2,24v0.8
	c0,12.8-10.4,24-23.2,24L408,242.8z"/>
<path style="fill:#858486;" d="M184,192.4h-1.6c-9.6,0-18.4-3.2-26.4-8l-4-2.4c-5.6-3.2-11.2-5.6-17.6-5.6h-0.8
	c-8.8,0-16.8,3.2-22.4,9.6l-5.6,8c-10.4,14.4-27.2,22.4-44.8,22.4H56l37.6,26.4c12,8.8,27.2,13.6,41.6,13.6h3.2c14.4,0,28-4,40-12
	l5.6-4"/>
<path d="M138.4,264.4h-3.2c-16.8,0-32.8-4.8-46.4-15.2l-37.6-26.4c-3.2-2.4-4.8-7.2-1.6-11.2c1.6-1.6,4-3.2,6.4-3.2h4
	c15.2,0,29.6-7.2,38.4-19.2l5.6-8l0.8-0.8c7.2-7.2,17.6-12,28-12h0.8c8,0,16,2.4,22.4,6.4l4,2.4c6.4,4,14.4,6.4,22.4,6.4h1.6v16
	h-1.6c-11.2,0-21.6-3.2-31.2-9.6l-4-2.4c-3.2-1.6-8-3.2-12.8-3.2h-0.8c-6.4,0-12,2.4-16.8,6.4l-5.6,7.2c-8,11.2-20,19.2-33.6,23.2
	l20.8,14.4c11.2,8,24,12,37.6,12h3.2c12.8,0,24.8-4,35.2-10.4l5.6-4l8.8,13.6l-5.6,4C169.6,259.6,153.6,264.4,138.4,264.4z"/>
<circle style="fill:#42A24F;" cx="224" cy="120.4" r="24"/>
<path d="M224,152.4c-17.6,0-32-14.4-32-32s14.4-32,32-32s32,14.4,32,32S241.6,152.4,224,152.4z M224,104.4c-8.8,0-16,7.2-16,16
	s7.2,16,16,16s16-7.2,16-16S232.8,104.4,224,104.4z"/>
<circle style="fill:#789DC3;" cx="168" cy="64.4" r="24"/>
<path d="M168,96.4c-17.6,0-32-14.4-32-32s14.4-32,32-32s32,14.4,32,32S185.6,96.4,168,96.4z M168,48.4c-8.8,0-16,7.2-16,16
	s7.2,16,16,16s16-7.2,16-16S176.8,48.4,168,48.4z"/>
<circle style="fill:#D94A56;" cx="96" cy="96.4" r="24"/>
<path d="M96,128.4c-17.6,0-32-14.4-32-32s14.4-32,32-32s32,14.4,32,32S113.6,128.4,96,128.4z M96,80.4c-8.8,0-16,7.2-16,16
	s7.2,16,16,16s16-7.2,16-16S104.8,80.4,96,80.4z"/>
<circle style="fill:#FFFFFF;" cx="56" cy="160.4" r="16"/>
<path d="M56,184.4c-13.6,0-24-10.4-24-24s10.4-24,24-24s24,10.4,24,24S69.6,184.4,56,184.4z M56,152.4c-4.8,0-8,3.2-8,8s3.2,8,8,8
	s8-3.2,8-8S60.8,152.4,56,152.4z"/>
<circle style="fill:#46709C;" cx="96" cy="296.4" r="16"/>
<path d="M96,320.4c-13.6,0-24-10.4-24-24s10.4-24,24-24s24,10.4,24,24S109.6,320.4,96,320.4z M96,288.4c-4.8,0-8,3.2-8,8s3.2,8,8,8
	s8-3.2,8-8S100.8,288.4,96,288.4z"/>
<rect x="368" y="168.4" width="16" height="24"/>
<polyline style="fill:#789DC3;" points="256,238.8 184,240.4 184,192.4 256,194 "/>
<path d="M184,248.4c-4.8,0-8-3.2-8-8v-48c0-2.4,0.8-4,2.4-5.6c1.6-1.6,4-2.4,5.6-2.4l72,1.6l-0.8,16l-63.2-1.6v32l64-1.6l0.8,16
	L184,248.4L184,248.4z"/>
<rect x="208" y="192.4" width="16" height="48"/>
<rect x="448" y="200.4" width="16" height="32"/>
<polyline style="fill:#C7B299;" points="280,208.4 264,160.4 280,144.4 296,144.4 312,120.4 328,120.4 344,144.4 360,144.4 
	376,168.4 392,168.4 408,192.4 408,240.4 376,288.4 392,488.4 272,488.4 288,288.4 256,240.4 248,200.4 272,184.4 "/>
<path d="M392,496.4H272c-4.8,0-8-3.2-8-8v-0.8L280,290l-30.4-45.6c-0.8-0.8-0.8-1.6-0.8-3.2l-8-40c-0.8-3.2,0.8-6.4,3.2-8l19.2-12.8
	l-7.2-17.6c-0.8-3.2,0-6.4,1.6-8l16-16c1.6-1.6,3.2-2.4,5.6-2.4h12l13.6-20.8c1.6-2.4,4-3.2,6.4-3.2h16c2.4,0,4.8,1.6,6.4,3.2
	l13.6,20.8H360c2.4,0,4.8,1.6,6.4,3.2l13.6,20.8h12c2.4,0,4.8,1.6,6.4,3.2l16,24c0.8,1.6,1.6,3.2,1.6,4.8v48c0,1.6-0.8,3.2-1.6,4.8
	L384,290.8l16,197.6C400,492.4,396.8,496.4,392,496.4C392.8,496.4,392,496.4,392,496.4z M280.8,480.4h102.4L368,289.2
	c0-1.6,0-3.2,1.6-4.8l30.4-45.6v-43.2l-12-19.2h-12c-2.4,0-4.8-1.6-6.4-3.2L356,152.4h-12c-2.4,0-4.8-1.6-6.4-3.2L324,128.4h-7.2
	l-13.6,20.8c-2.4,1.6-4.8,3.2-7.2,3.2h-12.8l-10.4,10.4l14.4,43.2l-15.2,4.8l-4.8-14.4l-11.2,7.2l6.4,32.8l31.2,46.4
	c0.8,1.6,1.6,3.2,1.6,4.8L280.8,480.4z"/>
<rect x="336" y="144.4" width="16" height="24"/>
<rect x="288" y="144.4" width="16" height="24"/>
<rect x="272" y="448.4" width="120" height="16"/>
<g>
</g>
<g>
</g>
<g>
</g>
<g>
</g>
<g>
</g>
<g>
</g>
<g>
</g>
<g>
</g>
<g>
</g>
<g>
</g>
<g>
</g>
<g>
</g>
<g>
</g>
<g>
</g>
<g>
</g>
</svg>
