<?xml version="1.0" encoding="iso-8859-1"?>
<!-- Generator: Adobe Illustrator 19.0.0, SVG Export Plug-In . SVG Version: 6.00 Build 0)  -->
<svg version="1.1" id="Capa_1" xmlns="http://www.w3.org/2000/svg" xmlns:xlink="http://www.w3.org/1999/xlink" x="0px" y="0px"
	 viewBox="0 0 496 496" style="enable-background:new 0 0 496 496;" xml:space="preserve">
<polyline style="fill:#778C7A;" points="352,456 352,488 416,488 416,456 "/>
<path d="M416,496h-64c-4.8,0-8-3.2-8-8v-32h16v24h48v-24h16v32C424,492.8,420.8,496,416,496z"/>
<polyline style="fill:#778C7A;" points="160,456 160,488 224,488 224,456 "/>
<path d="M224,496h-64c-4.8,0-8-3.2-8-8v-32h16v24h48v-24h16v32C232,492.8,228.8,496,224,496z"/>
<polyline style="fill:#778C7A;" points="240,208 272,208 272,256 240,256 "/>
<path d="M272,264h-32v-16h24v-32h-24v-16h32c4.8,0,8,3.2,8,8v48C280,260.8,276.8,264,272,264z"/>
<polyline style="fill:#778C7A;" points="240,288 272,288 272,336 240,336 "/>
<path d="M272,344h-32v-16h24v-32h-24v-16h32c4.8,0,8,3.2,8,8v48C280,340.8,276.8,344,272,344z"/>
<path style="fill:#778C7A;" d="M160,488v-32H88c-13.6,0-24-10.4-24-24l0,0V320c0-13.6,10.4-24,24-24h56v-32H80
	c-26.4,0-48,21.6-48,48v128c0,26.4,21.6,48,48,48H160z"/>
<path d="M160,496H80c-31.2,0-56-24.8-56-56V312c0-31.2,24.8-56,56-56h64c4.8,0,8,3.2,8,8v32c0,4.8-3.2,8-8,8H88c-8.8,0-16,7.2-16,16
	v112c0,8.8,7.2,16,16,16h72c4.8,0,8,3.2,8,8v32C168,492.8,164.8,496,160,496z M80,272c-22.4,0-40,17.6-40,40v128
	c0,22.4,17.6,40,40,40h72v-16H88c-17.6,0-32-14.4-32-32V320c0-17.6,14.4-32,32-32h48v-16H80z"/>
<rect x="144" y="120" style="fill:#BFBD9F;" width="96" height="336"/>
<path d="M240,464h-96c-4.8,0-8-3.2-8-8V120c0-4.8,3.2-8,8-8h96c4.8,0,8,3.2,8,8v336C248,460.8,244.8,464,240,464z M152,448h80V128
	h-80V448z"/>
<polyline style="fill:#BFBD9F;" points="432,216 432,456 336,456 336,216 "/>
<path d="M432,464h-96c-4.8,0-8-3.2-8-8V216h16v232h80V216h16v240C440,460.8,436.8,464,432,464z"/>
<polyline style="fill:#778C7A;" points="280,88 240,120 144,120 104,88 "/>
<path d="M240,128h-96c-1.6,0-3.2-0.8-4.8-1.6l-40-32l10.4-12.8l37.6,30.4h90.4l37.6-30.4l10.4,12.8l-40,32
	C243.2,127.2,241.6,128,240,128z"/>
<polyline style="fill:#778C7A;" points="304,184 336,216 432,216 464,184 "/>
<path d="M432,224h-96c-2.4,0-4-0.8-5.6-2.4l-32-32l11.2-11.2l29.6,29.6h89.6l29.6-29.6l11.2,11.2l-32,32
	C436,223.2,434.4,224,432,224z"/>
<rect x="104" y="8" style="fill:#BFBD9F;" width="176" height="80"/>
<path d="M280,96H104c-4.8,0-8-3.2-8-8V8c0-4.8,3.2-8,8-8h176c4.8,0,8,3.2,8,8v80C288,92.8,284.8,96,280,96z M112,80h160V16H112V80z"
	/>
<rect x="144" y="416" width="96" height="16"/>
<rect x="144" y="144" width="96" height="16"/>
<rect x="168" y="152" width="16" height="272"/>
<rect x="336" y="416" width="96" height="16"/>
<rect x="360" y="216" width="16" height="208"/>
<rect x="104" y="32" width="176" height="16"/>
<path style="fill:#778C7A;" d="M144,424h-16c-8.8,0-16-7.2-16-16l0,0c0-8.8,7.2-16,16-16h16V424z"/>
<path d="M144,432h-16c-13.6,0-24-10.4-24-24s10.4-24,24-24h16c4.8,0,8,3.2,8,8v32C152,428.8,148.8,432,144,432z M128,400
	c-4.8,0-8,3.2-8,8s3.2,8,8,8h8v-16H128z"/>
<rect x="304" y="136" style="fill:#BFBD9F;" width="160" height="48"/>
<path d="M464,192H304c-4.8,0-8-3.2-8-8v-48c0-4.8,3.2-8,8-8h160c4.8,0,8,3.2,8,8v48C472,188.8,468.8,192,464,192z M312,176h144v-32
	H312V176z"/>
<rect x="376" y="48" width="16" height="64"/>
<rect x="387.643" y="71.587" transform="matrix(-0.124 0.9923 -0.9923 -0.124 551.101 -327.347)" width="64.801" height="16"/>
<rect x="340.052" y="48.007" transform="matrix(-0.9923 0.124 -0.124 -0.9923 703.389 117.0364)" width="16" height="64.801"/>
<g>
</g>
<g>
</g>
<g>
</g>
<g>
</g>
<g>
</g>
<g>
</g>
<g>
</g>
<g>
</g>
<g>
</g>
<g>
</g>
<g>
</g>
<g>
</g>
<g>
</g>
<g>
</g>
<g>
</g>
</svg>
