<?xml version="1.0" encoding="iso-8859-1"?>
<!-- Generator: Adobe Illustrator 19.0.0, SVG Export Plug-In . SVG Version: 6.00 Build 0)  -->
<svg version="1.1" id="Capa_1" xmlns="http://www.w3.org/2000/svg" xmlns:xlink="http://www.w3.org/1999/xlink" x="0px" y="0px"
	 viewBox="0 0 496 496" style="enable-background:new 0 0 496 496;" xml:space="preserve">
<polyline style="fill:#BABDBF;" points="456,120 456,8 392,8 392,56 "/>
<path d="M464,120h-16V16h-48v40h-16V8c0-4.8,3.2-8,8-8h64c4.8,0,8,3.2,8,8V120z"/>
<polyline style="fill:#BABDBF;" points="216,136 344,8 488,152 488,360 296,360 "/>
<path d="M488,368H296v-16h184V155.2l-136-136L221.6,141.6l-11.2-11.2l128-128c3.2-3.2,8-3.2,11.2,0l144,144c1.6,1.6,2.4,3.2,2.4,5.6
	v208C496,364.8,492.8,368,488,368z"/>
<path style="fill:#DFA738;" d="M296,313.6c40.8,26.4,95.2,15.2,121.6-25.6c26.4-40.8,15.2-95.2-25.6-121.6s-95.2-15.2-121.6,25.6
	c-2.4,3.2-4.8,7.2-6.4,11.2V232"/>
<path d="M344,336c-18.4,0-36.8-5.6-52-15.2l8.8-13.6c36.8,24,86.4,13.6,110.4-23.2c24-36.8,13.6-86.4-23.2-110.4
	s-86.4-13.6-110.4,23.2c-1.6,2.4-3.2,5.6-4.8,8.8V232h-16v-28.8c0-0.8,0-2.4,0.8-3.2c22.4-48,79.2-69.6,127.2-47.2
	S453.6,232,431.2,280C415.2,314.4,381.6,336,344,336z"/>
<polyline style="fill:#737272;" points="264,248 264,136 200,136 200,184 "/>
<path d="M272,248h-16V144h-48v40h-16v-48c0-4.8,3.2-8,8-8h64c4.8,0,8,3.2,8,8V248z"/>
<path d="M336,280c-2.4,0-4-0.8-5.6-2.4l-32-32l11.2-11.2l26.4,26.4l58.4-58.4l11.2,11.2l-64,64C340,279.2,338.4,280,336,280z"/>
<polygon style="fill:#737272;" points="296,280 296,488 8,488 8,280 152,136 "/>
<path d="M296,496H8c-4.8,0-8-3.2-8-8V280c0-2.4,0.8-4,2.4-5.6l144-144c3.2-3.2,8-3.2,11.2,0l144,144c1.6,1.6,2.4,3.2,2.4,5.6v208
	C304,492.8,300.8,496,296,496z M16,480h272V283.2l-136-136l-136,136V480z"/>
<circle style="fill:#DFA738;" cx="152" cy="368" r="88"/>
<path d="M152,464c-52.8,0-96-43.2-96-96s43.2-96,96-96s96,43.2,96,96S204.8,464,152,464z M152,288c-44,0-80,36-80,80s36,80,80,80
	s80-36,80-80S196,288,152,288z"/>
<path d="M160,408h-40v-16h40c4.8,0,8-3.2,8-8s-3.2-8-8-8h-16c-13.6,0-24-10.4-24-24c0-13.6,10.4-24,24-24h40v16h-40
	c-4.8,0-8,3.2-8,8s3.2,8,8,8h16c13.6,0,24,10.4,24,24C184,397.6,173.6,408,160,408z"/>
<rect x="144" y="312" width="16" height="24"/>
<rect x="144" y="400" width="16" height="24"/>
<g>
</g>
<g>
</g>
<g>
</g>
<g>
</g>
<g>
</g>
<g>
</g>
<g>
</g>
<g>
</g>
<g>
</g>
<g>
</g>
<g>
</g>
<g>
</g>
<g>
</g>
<g>
</g>
<g>
</g>
</svg>
