<?xml version="1.0" encoding="iso-8859-1"?>
<!-- Generator: Adobe Illustrator 19.0.0, SVG Export Plug-In . SVG Version: 6.00 Build 0)  -->
<svg version="1.1" id="Capa_1" xmlns="http://www.w3.org/2000/svg" xmlns:xlink="http://www.w3.org/1999/xlink" x="0px" y="0px"
	 viewBox="0 0 496 496" style="enable-background:new 0 0 496 496;" xml:space="preserve">
<polyline style="fill:#C9942C;" points="272,88 8,88 8,168 296,168 "/>
<path d="M296,176H8c-4.8,0-8-3.2-8-8V88c0-4.8,3.2-8,8-8h264v16H16v64h280V176z"/>
<polyline style="fill:#C9942C;" points="392,88 488,88 488,168 376,168 "/>
<path d="M488,176H376v-16h104V96h-88V80h96c4.8,0,8,3.2,8,8v80C496,172.8,492.8,176,488,176z"/>
<rect x="248" y="456" style="fill:#737272;" width="240" height="32"/>
<path d="M488,496H248c-4.8,0-8-3.2-8-8v-32c0-4.8,3.2-8,8-8h240c4.8,0,8,3.2,8,8v32C496,492.8,492.8,496,488,496z M256,480h224v-16
	H256V480z"/>
<rect x="408" y="424" style="fill:#BABDBF;" width="64" height="32"/>
<path d="M472,464h-64c-4.8,0-8-3.2-8-8v-32c0-4.8,3.2-8,8-8h64c4.8,0,8,3.2,8,8v32C480,460.8,476.8,464,472,464z M416,448h48v-16
	h-48V448z"/>
<rect x="296" y="136" style="fill:#DFA738;" width="80" height="320"/>
<path d="M376,464h-80c-4.8,0-8-3.2-8-8V136c0-4.8,3.2-8,8-8h80c4.8,0,8,3.2,8,8v320C384,460.8,380.8,464,376,464z M304,448h64V144
	h-64V448z"/>
<path style="fill:#737272;" d="M312,56h80l0,0v80l0,0H264l0,0v-32C264,77.6,285.6,56,312,56z"/>
<path d="M392,144H264c-4.8,0-8-3.2-8-8v-32c0-31.2,24.8-56,56-56h80c4.8,0,8,3.2,8,8v80C400,140.8,396.8,144,392,144z M272,128h112
	V64h-72c-22.4,0-40,17.6-40,40V128z"/>
<rect x="328" y="88" style="fill:#BABDBF;" width="32" height="48"/>
<path d="M360,144h-32c-4.8,0-8-3.2-8-8V88c0-4.8,3.2-8,8-8h32c4.8,0,8,3.2,8,8v48C368,140.8,364.8,144,360,144z M336,128h16V96h-16
	V128z"/>
<path d="M301.6,461.6l-11.2-11.2l66.4-66.4H296c-4.8,0-8-3.2-8-8c0-2.4,0.8-4,2.4-5.6l66.4-66.4H296c-4.8,0-8-3.2-8-8
	c0-2.4,0.8-4,2.4-5.6l66.4-66.4H296c-4.8,0-8-3.2-8-8c0-2.4,0.8-4,2.4-5.6l80-80l11.2,11.2L315.2,208H376c4.8,0,8,3.2,8,8
	c0,2.4-0.8,4-2.4,5.6L315.2,288H376c4.8,0,8,3.2,8,8c0,2.4-0.8,4-2.4,5.6L315.2,368H376c4.8,0,8,3.2,8,8c0,2.4-0.8,4-2.4,5.6
	L301.6,461.6z"/>
<path d="M168,176c-0.8,0-2.4,0-3.2-0.8c-3.2-0.8-4.8-4-4.8-7.2v-60.8l-66.4,66.4c-3.2,3.2-8,3.2-11.2,0c-1.6-1.6-2.4-3.2-2.4-5.6
	v-60.8l-66.4,66.4L2.4,162.4l80-80c3.2-3.2,8-3.2,11.2,0C95.2,84,96,85.6,96,88v60.8l66.4-66.4c3.2-3.2,8-3.2,11.2,0
	c1.6,1.6,2.4,3.2,2.4,5.6v60.8l66.4-66.4l11.2,11.2l-80,80C172,175.2,170.4,176,168,176z"/>
<rect x="320" y="8" style="fill:#DFA738;" width="32" height="48"/>
<path d="M352,64h-32c-4.8,0-8-3.2-8-8V8c0-4.8,3.2-8,8-8h32c4.8,0,8,3.2,8,8v48C360,60.8,356.8,64,352,64z M328,48h16V16h-16V48z"/>
<path d="M132,95.2l-7.2-14.4l152-80C277.6,0,278.4,0,280,0h40v16h-38.4L132,95.2z"/>
<rect x="391.313" y="120.251" transform="matrix(-0.7071 0.7071 -0.7071 -0.7071 854.9798 -97.6426)" width="112.799" height="16"/>
<path d="M483.2,94.4L388.8,16H344V0h48c1.6,0,4,0.8,4.8,1.6l96,80L483.2,94.4z"/>
<circle style="fill:#BABDBF;" cx="136" cy="224" r="24"/>
<path d="M136,256c-17.6,0-32-14.4-32-32s14.4-32,32-32s32,14.4,32,32S153.6,256,136,256z M136,208c-8.8,0-16,7.2-16,16s7.2,16,16,16
	s16-7.2,16-16S144.8,208,136,208z"/>
<rect x="128" y="168" width="16" height="32"/>
<polygon style="fill:#737272;" points="8,376 136,280 264,376 "/>
<path d="M264,384H8c-4.8,0-8-3.2-8-8c0-2.4,0.8-4.8,3.2-6.4l128-96c3.2-2.4,6.4-2.4,9.6,0l128,96c3.2,2.4,4,8,1.6,11.2
	C268.8,383.2,266.4,384,264,384z M32,368h208l-104-78.4L32,368z"/>
<rect x="56" y="408" style="fill:#BABDBF;" width="160" height="80"/>
<path d="M216,496H56c-4.8,0-8-3.2-8-8v-80c0-4.8,3.2-8,8-8h160c4.8,0,8,3.2,8,8v80C224,492.8,220.8,496,216,496z M64,480h144v-64H64
	V480z"/>
<rect x="112" y="440" style="fill:#737272;" width="48" height="48"/>
<path d="M160,496h-48c-4.8,0-8-3.2-8-8v-48c0-4.8,3.2-8,8-8h48c4.8,0,8,3.2,8,8v48C168,492.8,164.8,496,160,496z M120,480h32v-32
	h-32V480z"/>
<rect x="128" y="248" width="16" height="32"/>
<g>
</g>
<g>
</g>
<g>
</g>
<g>
</g>
<g>
</g>
<g>
</g>
<g>
</g>
<g>
</g>
<g>
</g>
<g>
</g>
<g>
</g>
<g>
</g>
<g>
</g>
<g>
</g>
<g>
</g>
</svg>
