<?xml version="1.0" encoding="iso-8859-1"?>
<!-- Generator: Adobe Illustrator 19.0.0, SVG Export Plug-In . SVG Version: 6.00 Build 0)  -->
<svg version="1.1" id="Capa_1" xmlns="http://www.w3.org/2000/svg" xmlns:xlink="http://www.w3.org/1999/xlink" x="0px" y="0px"
	 viewBox="0 0 496 496" style="enable-background:new 0 0 496 496;" xml:space="preserve">
<polygon style="fill:#F48827;" points="232,128 208,168 160,168 136,128 160,88 208,88 "/>
<polygon style="fill:#789DC3;" points="448,168 424,208 376,208 352,168 376,128 424,128 "/>
<polygon style="fill:#D94A56;" points="376,208 352,248 304,248 280,208 304,168 352,168 "/>
<polygon style="fill:#42A24F;" points="376,128 352,168 304,168 280,128 304,88 352,88 "/>
<polygon style="fill:#789DC3;" points="304,88 280,128 232,128 208,88 232,48 280,48 "/>
<polygon style="fill:#F48827;" points="376,48 352,88 304,88 280,48 304,8 352,8 "/>
<polygon style="fill:#D94A56;" points="448,88 424,128 376,128 352,88 376,48 424,48 "/>
<polygon style="fill:#42A24F;" points="448,248 424,288 376,288 352,248 376,208 424,208 "/>
<path style="fill:#D3D2D6;" d="M200,152L200,152c0-8.8-7.2-16-16-16h-80c-8.8,0-16,7.2-16,16l0,0c0,8.8,7.2,16,16,16l0,0v96
	L12,432.8c-2.4,4.8-4,10.4-4,15.2v8c0,17.6,14.4,32,32,32h208c17.6,0,32-14.4,32-32v-8c0-5.6-1.6-10.4-4-15.2L184,264v-96l0,0
	C192.8,168,200,160.8,200,152z"/>
<path d="M248,496H40c-22.4,0-40-17.6-40-40v-8c0-6.4,1.6-13.6,4.8-19.2L96,261.6v-87.2C83.2,169.6,76.8,156,81.6,144
	c3.2-9.6,12.8-16,22.4-16h80c13.6,0,24,10.4,24,24c0,10.4-6.4,19.2-16,22.4v87.2l91.2,167.2c3.2,5.6,4.8,12.8,4.8,19.2v8
	C288,478.4,270.4,496,248,496z M104,144c-4.8,0-8,3.2-8,8s3.2,8,8,8s8,3.2,8,8v96c0,1.6,0,2.4-0.8,4l-92,168.8
	C16.8,440,16,444,16,448v8c0,13.6,10.4,24,24,24l0,0h208c13.6,0,24-10.4,24-24l0,0v-8c0-4-0.8-8-3.2-11.2l-92-168.8
	c-0.8-1.6-0.8-2.4-0.8-4v-96c0-4.8,3.2-8,8-8s8-3.2,8-8s-3.2-8-8-8H104z"/>
<path style="fill:#D94A56;" d="M248,488c17.6,0,32-14.4,32-32v-8c0-5.6-1.6-10.4-4-15.2L219.2,328h-12c-4,0-8,1.6-11.2,4.8l-6.4,6.4
	c-3.2,3.2-7.2,4.8-11.2,4.8H176c-4,0-8-1.6-11.2-4.8l-6.4-6.4c-3.2-3.2-7.2-4.8-11.2-4.8h-2.4c-4,0-8,1.6-11.2,4.8l-6.4,6.4
	c-3.2,3.2-7.2,4.8-11.2,4.8h-2.4c-4,0-8-1.6-11.2-4.8l-6.4-6.4c-3.2-3.2-7.2-4.8-11.2-4.8h-16L12,432.8c-2.4,4.8-4,9.6-4,15.2v8
	c0,17.6,14.4,32,32,32H248z"/>
<path d="M248,496H40c-22.4,0-40-17.6-40-40v-8c0-6.4,1.6-13.6,4.8-19.2L61.6,324c1.6-2.4,4.8-4,7.2-4h12c6.4,0,12.8,2.4,16.8,7.2
	l6.4,6.4c1.6,1.6,3.2,2.4,5.6,2.4h2.4c2.4,0,4-0.8,5.6-2.4l6.4-6.4c4.8-4.8,10.4-7.2,16.8-7.2h2.4c6.4,0,12.8,2.4,16.8,7.2l6.4,6.4
	c1.6,1.6,3.2,2.4,5.6,2.4h2.4c2.4,0,4-0.8,5.6-2.4l6.4-6.4c4.8-4.8,10.4-7.2,16.8-7.2h12c3.2,0,5.6,1.6,7.2,4l56.8,104.8
	c3.2,5.6,4.8,12.8,4.8,19.2v8C288,478.4,270.4,496,248,496z M73.6,336L19.2,436.8C16.8,440,16,444,16,448v8c0,13.6,10.4,24,24,24
	l0,0h208c13.6,0,24-10.4,24-24l0,0v-8c0-4-0.8-8-3.2-11.2L214.4,336h-7.2c-2.4,0-4,0.8-5.6,2.4l-6.4,6.4c-5.6,4.8-11.2,7.2-17.6,7.2
	h-2.4c-6.4,0-12.8-2.4-16.8-7.2l-6.4-6.4c-1.6-1.6-3.2-2.4-5.6-2.4H144c-2.4,0-4,0.8-5.6,2.4l-6.4,6.4c-6.4,4.8-12,7.2-18.4,7.2
	h-2.4c-6.4,0-12.8-2.4-16.8-7.2l-6.4-6.4c-1.6-1.6-3.2-2.4-5.6-2.4H73.6z"/>
<circle style="fill:#FFFFFF;" cx="72" cy="432" r="24"/>
<path d="M72,464c-17.6,0-32-14.4-32-32s14.4-32,32-32s32,14.4,32,32S89.6,464,72,464z M72,416c-8.8,0-16,7.2-16,16s7.2,16,16,16
	s16-7.2,16-16S80.8,416,72,416z"/>
<circle style="fill:#FFFFFF;" cx="152" cy="440" r="16"/>
<path d="M152,464c-13.6,0-24-10.4-24-24s10.4-24,24-24s24,10.4,24,24S165.6,464,152,464z M152,432c-4.8,0-8,3.2-8,8s3.2,8,8,8
	s8-3.2,8-8S156.8,432,152,432z"/>
<circle style="fill:#FFFFFF;" cx="200" cy="392" r="16"/>
<path d="M200,416c-13.6,0-24-10.4-24-24s10.4-24,24-24s24,10.4,24,24S213.6,416,200,416z M200,384c-4.8,0-8,3.2-8,8s3.2,8,8,8
	s8-3.2,8-8S204.8,384,200,384z"/>
<rect x="80" y="368" width="16" height="16"/>
<rect x="112" y="368" width="16" height="16"/>
<rect x="240" y="448" width="16" height="16"/>
<rect x="208" y="448" width="16" height="16"/>
<path style="fill:#D3D2D6;" d="M360,280v68c-37.6,13.6-56.8,54.4-44,92c13.6,37.6,54.4,56.8,92,44c37.6-13.6,56.8-54.4,44-92
	c-7.2-20.8-23.2-36.8-44-44v-68"/>
<path d="M384,496c-44,0-80-36-80-80c0-32,19.2-60.8,48-73.6V280h16v68c0,3.2-2.4,6.4-5.6,7.2c-33.6,12-50.4,48-39.2,81.6
	s48,50.4,81.6,39.2s50.4-48,39.2-81.6c-6.4-18.4-20.8-32.8-39.2-39.2c-3.2-0.8-5.6-4-5.6-7.2v-68h16v62.4
	C456,360,474.4,407.2,456.8,448C444.8,476.8,416,496,384,496z"/>
<path style="fill:#789DC3;" d="M384,488c39.2,0,72-32,72-71.2c0-3.2,0-5.6-0.8-8.8h-8.8c-4,0-8,1.6-11.2,4.8l-6.4,6.4
	c-3.2,3.2-7.2,4.8-11.2,4.8h-2.4c-4,0-8-1.6-11.2-4.8l-6.4-6.4c-3.2-3.2-7.2-4.8-11.2-4.8H384c-4,0-8,1.6-11.2,4.8l-6.4,6.4
	c-3.2,3.2-7.2,4.8-11.2,4.8h-2.4c-4,0-8-1.6-11.2-4.8l-6.4-6.4c-3.2-3.2-7.2-4.8-11.2-4.8h-8.8c-4.8,39.2,23.2,75.2,62.4,79.2
	C378.4,488,380.8,488,384,488z"/>
<path d="M384,496c-44,0-80-35.2-80-79.2c0-3.2,0-6.4,0.8-9.6c0.8-4,4-7.2,8-7.2h8.8c6.4,0,12.8,2.4,16.8,7.2l6.4,6.4
	c1.6,1.6,3.2,2.4,5.6,2.4h2.4c2.4,0,4-0.8,5.6-2.4l6.4-6.4c4.8-4.8,10.4-7.2,16.8-7.2h2.4c6.4,0,12.8,2.4,16.8,7.2l6.4,6.4
	c1.6,1.6,3.2,2.4,5.6,2.4h2.4c2.4,0,4-0.8,5.6-2.4l6.4-6.4c4.8-4.8,10.4-7.2,16.8-7.2h8.8c4,0,7.2,3.2,8,7.2
	c4.8,44-26.4,83.2-69.6,88C390.4,496,387.2,496,384,496z M320,416c0,35.2,28.8,64,64,64s64-28.8,64-64h-1.6c-2.4,0-4,0.8-5.6,2.4
	l-6.4,6.4c-4.8,4.8-10.4,7.2-16.8,7.2h-2.4c-6.4,0-12.8-2.4-16.8-7.2l-6.4-6.4c-1.6-1.6-3.2-2.4-5.6-2.4H384c-2.4,0-4,0.8-5.6,2.4
	l-6.4,6.4c-6.4,4.8-12,7.2-18.4,7.2h-2.4c-6.4,0-12.8-2.4-16.8-7.2l-6.4-6.4c-1.6-1.6-3.2-2.4-5.6-2.4H320z"/>
<rect x="336" y="272" width="96" height="16"/>
<rect x="360" y="448" width="16" height="16"/>
<rect x="392" y="448" width="16" height="16"/>
<path d="M287.2,132l-13.6-8l21.6-36L276,56h-39.2l-19.2,32l21.6,36l-13.6,8l-24-40c-1.6-2.4-1.6-5.6,0-8l24-40c0.8-2.4,3.2-4,6.4-4
	h48c3.2,0,5.6,1.6,7.2,4l24,40c1.6,2.4,1.6,5.6,0,8L287.2,132z"/>
<path d="M352,176h-48c-3.2,0-5.6-1.6-7.2-4l-24-40c-1.6-2.4-1.6-5.6,0-8l24-40c1.6-2.4,4-4,7.2-4h48c3.2,0,5.6,1.6,7.2,4l24,40
	c1.6,2.4,1.6,5.6,0,8l-24,40C357.6,174.4,355.2,176,352,176z M308.8,160H348l19.2-32L348,96h-39.2l-19.2,32L308.8,160z"/>
<path d="M424,216h-48c-3.2,0-5.6-1.6-7.2-4l-24-40c-1.6-2.4-1.6-5.6,0-8l24-40c1.6-2.4,4-4,7.2-4h48c3.2,0,5.6,1.6,7.2,4l24,40
	c1.6,2.4,1.6,5.6,0,8l-24,40C429.6,214.4,427.2,216,424,216z M380.8,200H420l19.2-32L420,136h-39.2l-19.2,32L380.8,200z"/>
<path d="M456,256h-16v-5.6L416.8,212l13.6-8l24,40c1.6,0.8,1.6,2.4,1.6,4V256z"/>
<path d="M424,136h-48c-3.2,0-5.6-1.6-7.2-4l-24-40c-1.6-2.4-1.6-5.6,0-8l24-40c1.6-2.4,4-4,7.2-4h48c3.2,0,5.6,1.6,7.2,4l21.6,36
	H496v16h-48c-3.2,0-5.6-1.6-7.2-4l-21.6-36H380l-19.2,32l19.2,32h44V136z"/>
<rect x="448" y="160" width="48" height="16"/>
<rect x="412.789" y="20" transform="matrix(-0.5146 0.8574 -0.8574 -0.5146 684.3623 -331.4173)" width="46.399" height="16"/>
<path d="M352,96h-48c-3.2,0-5.6-1.6-7.2-4l-24-40l13.6-8L308,80h39.2l19.2-32l-19.2-32H304V0h48c3.2,0,5.6,1.6,7.2,4l24,40
	c1.6,2.4,1.6,5.6,0,8l-24,40C357.6,94.4,355.2,96,352,96z"/>
<path d="M352,256h-48v-16h43.2l19.2-32l-19.2-32H308l-21.6,36l-13.6-8l24-40c1.6-2.4,4-4,7.2-4h48c3.2,0,5.6,1.6,7.2,4l24,40
	c1.6,2.4,1.6,5.6,0,8l-24,40C357.6,254.4,355.2,256,352,256z"/>
<path d="M144,136h-16v-8c0-1.6,0-3.2,0.8-4l24-40c1.6-2.4,4-4,7.2-4h48v16h-43.2L144,130.4V136z"/>
<rect x="360" y="304" width="48" height="16"/>
<rect x="104" y="176" width="80" height="16"/>
<circle style="fill:#789DC3;" cx="104" cy="88" r="16"/>
<path d="M104,112c-13.6,0-24-10.4-24-24s10.4-24,24-24s24,10.4,24,24S117.6,112,104,112z M104,80c-4.8,0-8,3.2-8,8s3.2,8,8,8
	s8-3.2,8-8S108.8,80,104,80z"/>
<circle style="fill:#F48827;" cx="160" cy="32" r="24"/>
<path d="M160,64c-17.6,0-32-14.4-32-32s14.4-32,32-32s32,14.4,32,32S177.6,64,160,64z M160,16c-8.8,0-16,7.2-16,16s7.2,16,16,16
	s16-7.2,16-16S168.8,16,160,16z"/>
<circle style="fill:#D94A56;" cx="40" cy="40" r="32"/>
<path d="M40,80C17.6,80,0,62.4,0,40S17.6,0,40,0s40,17.6,40,40S62.4,80,40,80z M40,16c-13.6,0-24,10.4-24,24s10.4,24,24,24
	s24-10.4,24-24S53.6,16,40,16z"/>
<g>
</g>
<g>
</g>
<g>
</g>
<g>
</g>
<g>
</g>
<g>
</g>
<g>
</g>
<g>
</g>
<g>
</g>
<g>
</g>
<g>
</g>
<g>
</g>
<g>
</g>
<g>
</g>
<g>
</g>
</svg>
