<?xml version="1.0" encoding="iso-8859-1"?>
<!-- Generator: Adobe Illustrator 19.0.0, SVG Export Plug-In . SVG Version: 6.00 Build 0)  -->
<svg version="1.1" id="Capa_1" xmlns="http://www.w3.org/2000/svg" xmlns:xlink="http://www.w3.org/1999/xlink" x="0px" y="0px"
	 viewBox="0 0 496 496" style="enable-background:new 0 0 496 496;" xml:space="preserve">
<path style="fill:#778C7A;" d="M343.6,168V56c0-26.4-21.6-48-48-48h-96c-26.4,0-48,21.6-48,48v112h32V64c0-13.6,10.4-24,24-24h80
	c13.6,0,24,10.4,24,24v104"/>
<path d="M183.6,176h-32c-4.8,0-8-3.2-8-8V56c0-31.2,24.8-56,56-56h96c31.2,0,56,24.8,56,56v112h-16V56c0-22.4-17.6-40-40-40h-96
	c-22.4,0-40,17.6-40,40v104h16V64c0-17.6,14.4-32,32-32h80c17.6,0,32,14.4,32,32v104h-16V64c0-8.8-7.2-16-16-16h-80
	c-8.8,0-16,7.2-16,16v104C191.6,172.8,188.4,176,183.6,176z"/>
<polyline style="fill:#CE9D36;" points="159.6,400 127.6,368 151.6,168 343.6,168 367.6,368 335.6,400 "/>
<path d="M341.2,405.6L330,394.4l29.6-29.6L336.4,176H158.8l-22.4,188.8l29.6,29.6l-11.2,11.2l-32-32c-1.6-1.6-2.4-4-2.4-6.4l24-200
	c0.8-4,4-7.2,8-7.2h192c4,0,7.2,3.2,8,7.2l24,200c0,2.4-0.8,4.8-2.4,6.4L341.2,405.6z"/>
<rect x="127.6" y="456" style="fill:#425955;" width="240" height="32"/>
<path d="M367.6,496h-240c-4.8,0-8-3.2-8-8v-32c0-4.8,3.2-8,8-8h240c4.8,0,8,3.2,8,8v32C375.6,492.8,372.4,496,367.6,496z M135.6,480
	h224v-16h-224V480z"/>
<path style="fill:#778C7A;" d="M223.6,376h48c44,0,80,36,80,80l0,0l0,0h-208l0,0l0,0C143.6,412,179.6,376,223.6,376z"/>
<path d="M351.6,464h-208c-4.8,0-8-3.2-8-8c0-48.8,39.2-88,88-88h48c48.8,0,88,39.2,88,88C359.6,460.8,356.4,464,351.6,464z
	 M152.4,448h191.2c-4-36.8-35.2-64-71.2-64h-48C186.8,384,156.4,411.2,152.4,448z"/>
<rect x="151.6" y="416" width="192" height="16"/>
<path style="fill:#778C7A;" d="M231.6,120h32c8.8,0,16,7.2,16,16v32l0,0h-64l0,0v-32C215.6,127.2,222.8,120,231.6,120z"/>
<path d="M279.6,176h-64c-4.8,0-8-3.2-8-8v-32c0-13.6,10.4-24,24-24h32c13.6,0,24,10.4,24,24v32C287.6,172.8,284.4,176,279.6,176z
	 M223.6,160h48v-24c0-4.8-3.2-8-8-8h-32c-4.8,0-8,3.2-8,8V160z"/>
<path style="fill:#9F3A37;" d="M247.6,216l-47.2,60.8c-5.6,7.2-8.8,16-8.8,24.8v1.6c0,10.4,4,20.8,12,28l0.8,0.8
	c7.2,7.2,17.6,12,28,12h31.2c10.4,0,20.8-4,28-12l0.8-0.8c7.2-7.2,12-17.6,12-28v-1.6c0-8.8-3.2-17.6-8.8-24.8L247.6,216z"/>
<path d="M262.8,352h-31.2c-12.8,0-24.8-4.8-33.6-14.4l-0.8-0.8c-8.8-8.8-14.4-21.6-14.4-33.6v-1.6c0-10.4,3.2-20.8,10.4-29.6
	l47.2-60.8c3.2-3.2,8-4,12-0.8l0.8,0.8l47.2,60.8c6.4,8.8,10.4,19.2,10.4,29.6v1.6c0,12.8-4.8,24.8-14.4,33.6l-0.8,0.8
	C287.6,347.2,275.6,352,262.8,352z M247.6,228.8L206,281.6c-4,6.4-6.4,12.8-6.4,20v1.6c0,8.8,3.2,16.8,9.6,22.4l0.8,0.8
	c5.6,6.4,13.6,9.6,22.4,9.6h31.2c8.8,0,16.8-3.2,22.4-9.6l0.8-0.8c5.6-5.6,8.8-13.6,8.8-22.4v-1.6c0-7.2-2.4-14.4-6.4-20
	L247.6,228.8z"/>
<circle style="fill:#CB5940;" cx="247.6" cy="296" r="16"/>
<path d="M247.6,320c-13.6,0-24-10.4-24-24s10.4-24,24-24c13.6,0,24,10.4,24,24S261.2,320,247.6,320z M247.6,288c-4.8,0-8,3.2-8,8
	s3.2,8,8,8c4.8,0,8-3.2,8-8S252.4,288,247.6,288z"/>
<rect x="223.6" y="344" width="16" height="32"/>
<rect x="255.6" y="344" width="16" height="32"/>
<path d="M199.6,208h-56v-16h48v-24h16v32C207.6,204.8,204.4,208,199.6,208z"/>
<path d="M351.6,208h-56c-4.8,0-8-3.2-8-8v-32h16v24h48V208z"/>
<g>
</g>
<g>
</g>
<g>
</g>
<g>
</g>
<g>
</g>
<g>
</g>
<g>
</g>
<g>
</g>
<g>
</g>
<g>
</g>
<g>
</g>
<g>
</g>
<g>
</g>
<g>
</g>
<g>
</g>
</svg>
