<?xml version="1.0" encoding="iso-8859-1"?>
<!-- Generator: Adobe Illustrator 19.0.0, SVG Export Plug-In . SVG Version: 6.00 Build 0)  -->
<svg version="1.1" id="Capa_1" xmlns="http://www.w3.org/2000/svg" xmlns:xlink="http://www.w3.org/1999/xlink" x="0px" y="0px"
	 viewBox="0 0 496 496" style="enable-background:new 0 0 496 496;" xml:space="preserve">
<polyline style="fill:#737272;" points="200,240 120,320 48,320 8,360 8,432 56,384 84,412 248,248 "/>
<path d="M8,440c-0.8,0-2.4,0-3.2-0.8c-3.2-0.8-4.8-4-4.8-7.2v-72c0-2.4,0.8-4,2.4-5.6l40-40c1.6-1.6,3.2-2.4,5.6-2.4h68.8l77.6-77.6
	l11.2,11.2l-80,80c-1.6,1.6-3.2,2.4-5.6,2.4H51.2L16,363.2v49.6l34.4-34.4c3.2-3.2,8-3.2,11.2,0L84,400.8l158.4-158.4l11.2,11.2
	l-164,164c-3.2,3.2-8,3.2-11.2,0L56,395.2l-42.4,42.4C12,439.2,10.4,440,8,440z"/>
<polyline style="fill:#737272;" points="320,232 376,176 448,176 488,136 488,64 440,112 384,56 432,8 360,8 320,48 320,120 
	240,200 "/>
<path d="M325.6,237.6l-11.2-11.2l56-56c1.6-1.6,3.2-2.4,5.6-2.4h68.8l35.2-35.2V83.2l-34.4,34.4c-3.2,3.2-8,3.2-11.2,0l-56-56
	c-3.2-3.2-3.2-8,0-11.2L412.8,16h-49.6L328,51.2V120c0,2.4-0.8,4-2.4,5.6l-80,80l-11.2-11.2l77.6-77.6V48c0-2.4,0.8-4,2.4-5.6l40-40
	C356,0.8,357.6,0,360,0h72c4.8,0,8,3.2,8,8c0,2.4-0.8,4-2.4,5.6L395.2,56l44.8,44.8l42.4-42.4c3.2-3.2,8-3.2,11.2,0
	c1.6,1.6,2.4,3.2,2.4,5.6v72c0,2.4-0.8,4-2.4,5.6l-40,40c-1.6,1.6-3.2,2.4-5.6,2.4h-68.8L325.6,237.6z"/>
<polyline style="fill:#BABDBF;" points="448,448 488,408 288,208 256,208 184,136 136,184 208,256 208,288 "/>
<path d="M453.6,453.6l-11.2-11.2l34.4-34.4l-192-192H256c-2.4,0-4-0.8-5.6-2.4L184,147.2L147.2,184l66.4,66.4
	c1.6,1.6,2.4,3.2,2.4,5.6v32h-16v-28.8l-69.6-69.6c-3.2-3.2-3.2-8,0-11.2l48-48c3.2-3.2,8-3.2,11.2,0l69.6,69.6H288
	c2.4,0,4,0.8,5.6,2.4l200,200c3.2,3.2,3.2,8,0,11.2L453.6,453.6z"/>
<rect x="134.561" y="145.2" transform="matrix(-0.7071 0.7071 -0.7071 -0.7071 406.5453 167.6034)" style="fill:#404040;" width="67.999" height="45.6"/>
<path d="M160,216c-2.4,0-4-0.8-5.6-2.4l-32-32c-3.2-3.2-3.2-8,0-11.2l48-48c3.2-3.2,8-3.2,11.2,0l32,32c3.2,3.2,3.2,8,0,11.2l-48,48
	C164,215.2,162.4,216,160,216z M139.2,176l20.8,20.8l36.8-36.8L176,139.2L139.2,176z"/>
<polyline style="fill:#737272;" points="56,152 8,200 8,248 48,288 48,256 104,200 "/>
<path d="M48,296c-2.4,0-4-0.8-5.6-2.4l-40-40C0.8,252,0,250.4,0,248v-48c0-2.4,0.8-4,2.4-5.6l48-48l11.2,11.2L16,203.2v41.6l24,24
	V256c0-2.4,0.8-4,2.4-5.6l56-56l11.2,11.2L56,259.2V288c0,3.2-1.6,6.4-4.8,7.2C50.4,296,48.8,296,48,296z"/>
<rect id="SVGCleanerId_0" x="57.729" y="85.083" transform="matrix(-0.7071 0.7071 -0.7071 -0.7071 308.7556 128.6749)" style="fill:#BABDBF;" width="139.999" height="86.399"/>
<path id="SVGCleanerId_1" d="M108.8,216c-2.4,0-4-0.8-5.6-2.4l-60.8-60.8c-3.2-3.2-3.2-8,0-11.2l99.2-99.2c3.2-3.2,8-3.2,11.2,0
	l60.8,60.8c3.2,3.2,3.2,8,0,11.2l-99.2,99.2C112.8,215.2,111.2,216,108.8,216z M59.2,147.2l49.6,49.6l88-88l-49.6-49.6L59.2,147.2z"
	/>
<g>
	
		<rect id="SVGCleanerId_0_1_" x="57.729" y="85.083" transform="matrix(-0.7071 0.7071 -0.7071 -0.7071 308.7556 128.6749)" style="fill:#BABDBF;" width="139.999" height="86.399"/>
</g>
<g>
	<path id="SVGCleanerId_1_1_" d="M108.8,216c-2.4,0-4-0.8-5.6-2.4l-60.8-60.8c-3.2-3.2-3.2-8,0-11.2l99.2-99.2c3.2-3.2,8-3.2,11.2,0
		l60.8,60.8c3.2,3.2,3.2,8,0,11.2l-99.2,99.2C112.8,215.2,111.2,216,108.8,216z M59.2,147.2l49.6,49.6l88-88l-49.6-49.6L59.2,147.2z
		"/>
</g>
<rect x="199.486" y="11.882" transform="matrix(-0.7071 0.7071 -0.7071 -0.7071 397.7065 -84.1729)" style="fill:#BABDBF;" width="33.6" height="56.799"/>
<path d="M224,80c-2.4,0-4-0.8-5.6-2.4l-40-40c-3.2-3.2-3.2-8,0-11.2l24-24c3.2-3.2,8-3.2,11.2,0l40,40c3.2,3.2,3.2,8,0,11.2l-24,24
	C228,79.2,226.4,80,224,80z M195.2,32L224,60.8L236.8,48L208,19.2L195.2,32z"/>
<rect x="171.673" y="48.106" transform="matrix(-0.7071 0.7071 -0.7071 -0.7071 371.0517 -23.8838)" style="fill:#737272;" width="37.6" height="33.6"/>
<path d="M189.6,98.4c-2.4,0-4-0.8-5.6-2.4l-24-24c-3.2-3.2-3.2-8,0-11.2l26.4-26.4c3.2-3.2,8-3.2,11.2,0l24,24c3.2,3.2,3.2,8,0,11.2
	L195.2,96C193.6,97.6,192,98.4,189.6,98.4z M176.8,66.4l12.8,12.8L204.8,64L192,51.2L176.8,66.4z"/>
<rect x="58.136" y="71.285" transform="matrix(-0.7071 0.7071 -0.7071 -0.7071 208.8793 86.4497)" style="fill:#737272;" width="56.799" height="30.4"/>
<path d="M77.6,125.6c-2.4,0-4-0.8-5.6-2.4l-21.6-21.6c-3.2-3.2-3.2-8,0-11.2l40-40c3.2-3.2,8-3.2,11.2,0L123.2,72
	c3.2,3.2,3.2,8,0,11.2l-40,40C81.6,124.8,80,125.6,77.6,125.6z M67.2,96l10.4,10.4l28.8-28.8L96,67.2L67.2,96z"/>
<rect x="427.868" y="398.953" transform="matrix(-0.7071 0.7071 -0.7071 -0.7071 1072.8795 387.1052)" style="fill:#404040;" width="56.799" height="33.6"/>
<path d="M448,456c-2.4,0-4-0.8-5.6-2.4l-24-24c-3.2-3.2-3.2-8,0-11.2l40-40c3.2-3.2,8-3.2,11.2,0l24,24c3.2,3.2,3.2,8,0,11.2l-40,40
	C452,455.2,450.4,456,448,456z M435.2,424l12.8,12.8l28.8-28.8L464,395.2L435.2,424z"/>
<polyline style="fill:#91AAB4;" points="376,376 376,248 312,248 312,312 "/>
<path d="M384,376h-16V256h-48v56h-16v-64c0-4.8,3.2-8,8-8h64c4.8,0,8,3.2,8,8V376z"/>
<rect x="312" y="248" style="fill:#3E606F;" width="64" height="32"/>
<path d="M376,288h-64c-4.8,0-8-3.2-8-8v-32c0-4.8,3.2-8,8-8h64c4.8,0,8,3.2,8,8v32C384,284.8,380.8,288,376,288z M320,272h48v-16
	h-48V272z"/>
<polygon style="fill:#91AAB4;" points="376,424 248,296 120,424 120,488 376,488 "/>
<path d="M376,496H120c-4.8,0-8-3.2-8-8v-64c0-2.4,0.8-4,2.4-5.6l128-128c3.2-3.2,8-3.2,11.2,0l128,128c1.6,1.6,2.4,3.2,2.4,5.6v64
	C384,492.8,380.8,496,376,496z M128,480h240v-52.8l-120-120l-120,120V480z"/>
<rect x="216" y="368" style="fill:#CBDBD7;" width="64" height="48"/>
<path d="M280,424h-64c-4.8,0-8-3.2-8-8v-48c0-4.8,3.2-8,8-8h64c4.8,0,8,3.2,8,8v48C288,420.8,284.8,424,280,424z M224,408h48v-32
	h-48V408z"/>
<polygon style="fill:#3E606F;" points="456,456 248,248 40,456 88,456 248,296 408,456 "/>
<path d="M456,464h-48c-2.4,0-4-0.8-5.6-2.4L248,307.2L93.6,461.6c-1.6,1.6-3.2,2.4-5.6,2.4H40c-4.8,0-8-3.2-8-8c0-2.4,0.8-4,2.4-5.6
	l208-208c3.2-3.2,8-3.2,11.2,0l208,208c3.2,3.2,3.2,8,0,11.2C460,463.2,458.4,464,456,464z M411.2,448h25.6L248,259.2L59.2,448h25.6
	l157.6-157.6c3.2-3.2,8-3.2,11.2,0L411.2,448z"/>
<g>
</g>
<g>
</g>
<g>
</g>
<g>
</g>
<g>
</g>
<g>
</g>
<g>
</g>
<g>
</g>
<g>
</g>
<g>
</g>
<g>
</g>
<g>
</g>
<g>
</g>
<g>
</g>
<g>
</g>
</svg>
