<?xml version="1.0" encoding="iso-8859-1"?>
<!-- Generator: Adobe Illustrator 19.0.0, SVG Export Plug-In . SVG Version: 6.00 Build 0)  -->
<svg version="1.1" id="Capa_1" xmlns="http://www.w3.org/2000/svg" xmlns:xlink="http://www.w3.org/1999/xlink" x="0px" y="0px"
	 viewBox="0 0 496.375 496.375" style="enable-background:new 0 0 496.375 496.375;" xml:space="preserve">
<polyline style="fill:#425955;" points="256.187,216.375 256.187,184.375 400.187,184.375 400.187,216.375 "/>
<path d="M408.187,216.375h-16v-24h-128v24h-16v-32c0-4.8,3.2-8,8-8h144c4.8,0,8,3.2,8,8V216.375z"/>
<rect x="240.187" y="216.375" style="fill:#778C7A;" width="176" height="272"/>
<path d="M416.187,496.375h-176c-4.8,0-8-3.2-8-8v-272c0-4.8,3.2-8,8-8h176c4.8,0,8,3.2,8,8v272
	C424.187,493.175,420.987,496.375,416.187,496.375z M248.187,480.375h160v-256h-160V480.375z"/>
<rect x="240.187" y="240.375" width="176" height="16"/>
<rect x="240.187" y="448.375" width="176" height="16"/>
<rect x="376.187" y="248.375" width="16" height="208"/>
<path d="M312.187,432.375h-40c-4.8,0-8-3.2-8-8v-152h16v144h32V432.375z"/>
<rect x="120.859" y="118.48" transform="matrix(-0.7071 0.7071 -0.7071 -0.7071 409.7408 214.4376)" style="fill:#778C7A;" width="79.199" height="147.199"/>
<path d="M184.187,280.375c-2.4,0-4-0.8-5.6-2.4l-104-104c-3.2-3.2-3.2-8,0-11.2l56-56c3.2-3.2,8-3.2,11.2,0l104,104
	c3.2,3.2,3.2,8,0,11.2l-56,56C188.187,279.575,186.587,280.375,184.187,280.375z M91.387,168.375l92.8,92.8l44.8-44.8l-92.8-92.8
	L91.387,168.375z"/>
<rect x="288.187" y="136.375" style="fill:#BFBD9F;" width="80" height="48"/>
<path d="M368.187,192.375h-80c-4.8,0-8-3.2-8-8v-48c0-4.8,3.2-8,8-8h80c4.8,0,8,3.2,8,8v48
	C376.187,189.175,372.987,192.375,368.187,192.375z M296.187,176.375h64v-32h-64V176.375z"/>
<path style="fill:#9F3A37;" d="M360.187,72.375c0,17.6-14.4,32-32,32c-2.4,0-4,0-6.4-0.8c-15.2-3.2-25.6-16.8-25.6-32.8l0,0
	c0-9.6,3.2-18.4,8-26.4l24-36l24,36c5.6,8,8,16.8,8,26.4V72.375z"/>
<path d="M328.187,112.375c-2.4,0-5.6,0-8-0.8c-19.2-4-32-20.8-32-40.8c0-11.2,3.2-21.6,9.6-31.2l24-36c2.4-4,8-4.8,12-1.6
	c0.8,0.8,1.6,0.8,1.6,1.6l24,36c5.6,9.6,8.8,20,8.8,31.2v1.6C368.187,94.775,350.587,112.375,328.187,112.375L328.187,112.375z
	 M328.187,22.775l-17.6,25.6c-4,7.2-6.4,14.4-6.4,22.4c0,12,8,22.4,19.2,24.8c12.8,2.4,25.6-5.6,28.8-18.4c0-1.6,0.8-3.2,0.8-4.8
	v-1.6c0-8-2.4-16-6.4-22.4L328.187,22.775z"/>
<rect x="320.187" y="64.375" width="16" height="16"/>
<rect x="368.187" y="152.375" style="fill:#778C7A;" width="32" height="32"/>
<path d="M400.187,192.375h-32c-4.8,0-8-3.2-8-8v-32c0-4.8,3.2-8,8-8h32c4.8,0,8,3.2,8,8v32
	C408.187,189.175,404.987,192.375,400.187,192.375z M376.187,176.375h16v-16h-16V176.375z"/>
<rect x="148.16" y="122.779" transform="matrix(-0.7071 0.7071 -0.7071 -0.7071 405.4425 224.8173)" width="16" height="147.199"/>
<g>
</g>
<g>
</g>
<g>
</g>
<g>
</g>
<g>
</g>
<g>
</g>
<g>
</g>
<g>
</g>
<g>
</g>
<g>
</g>
<g>
</g>
<g>
</g>
<g>
</g>
<g>
</g>
<g>
</g>
</svg>
