<?xml version="1.0" encoding="iso-8859-1"?>
<!-- Generator: Adobe Illustrator 19.0.0, SVG Export Plug-In . SVG Version: 6.00 Build 0)  -->
<svg version="1.1" id="Capa_1" xmlns="http://www.w3.org/2000/svg" xmlns:xlink="http://www.w3.org/1999/xlink" x="0px" y="0px"
	 viewBox="0 0 496 496" style="enable-background:new 0 0 496 496;" xml:space="preserve">
<rect x="8" y="72" style="fill:#C1272D;" width="144" height="416"/>
<path d="M152,496H8c-4.8,0-8-3.2-8-8V72c0-4.8,3.2-8,8-8h144c4.8,0,8,3.2,8,8v416C160,492.8,156.8,496,152,496z M16,480h128V80H16
	V480z"/>
<rect x="40" y="104" style="fill:#D3D2D6;" width="80" height="208"/>
<path d="M120,320H40c-4.8,0-8-3.2-8-8V104c0-4.8,3.2-8,8-8h80c4.8,0,8,3.2,8,8v208C128,316.8,124.8,320,120,320z M48,304h64V112H48
	V304z"/>
<circle style="fill:#D3D2D6;" cx="80" cy="416" r="40"/>
<path d="M80,464c-26.4,0-48-21.6-48-48s21.6-48,48-48s48,21.6,48,48S106.4,464,80,464z M80,384c-17.6,0-32,14.4-32,32s14.4,32,32,32
	s32-14.4,32-32S97.6,384,80,384z"/>
<rect x="48" y="336" width="64" height="16"/>
<rect x="152" y="72" style="fill:#F2AB27;" width="144" height="416"/>
<path d="M296,496H152c-4.8,0-8-3.2-8-8V72c0-4.8,3.2-8,8-8h144c4.8,0,8,3.2,8,8v416C304,492.8,300.8,496,296,496z M160,480h128V80
	H160V480z"/>
<rect x="184" y="104" style="fill:#D3D2D6;" width="80" height="208"/>
<path d="M264,320h-80c-4.8,0-8-3.2-8-8V104c0-4.8,3.2-8,8-8h80c4.8,0,8,3.2,8,8v208C272,316.8,268.8,320,264,320z M192,304h64V112
	h-64V304z"/>
<circle style="fill:#D3D2D6;" cx="224" cy="416" r="40"/>
<path d="M224,464c-26.4,0-48-21.6-48-48s21.6-48,48-48s48,21.6,48,48S250.4,464,224,464z M224,384c-17.6,0-32,14.4-32,32
	s14.4,32,32,32s32-14.4,32-32S241.6,384,224,384z"/>
<rect x="192" y="336" width="64" height="16"/>
<rect x="296" y="72" style="fill:#42A24F;" width="144" height="416"/>
<path d="M440,496H296c-4.8,0-8-3.2-8-8V72c0-4.8,3.2-8,8-8h144c4.8,0,8,3.2,8,8v416C448,492.8,444.8,496,440,496z M304,480h128V80
	H304V480z"/>
<rect x="328" y="104" style="fill:#D3D2D6;" width="80" height="208"/>
<path d="M408,320h-80c-4.8,0-8-3.2-8-8V104c0-4.8,3.2-8,8-8h80c4.8,0,8,3.2,8,8v208C416,316.8,412.8,320,408,320z M336,304h64V112
	h-64V304z"/>
<circle style="fill:#D3D2D6;" cx="368" cy="416" r="40"/>
<path d="M368,464c-26.4,0-48-21.6-48-48s21.6-48,48-48s48,21.6,48,48S394.4,464,368,464z M368,384c-17.6,0-32,14.4-32,32
	s14.4,32,32,32s32-14.4,32-32S385.6,384,368,384z"/>
<rect x="336" y="336" width="64" height="16"/>
<polyline style="fill:#46709C;" points="248,40 248,8 328,8 360,40 "/>
<path d="M354.4,45.6L324.8,16H256v24h-16V8c0-4.8,3.2-8,8-8h80c2.4,0,4,0.8,5.6,2.4l32,32L354.4,45.6z"/>
<polyline style="fill:#46709C;" points="440,72 488,72 488,232 296,232 296,184 "/>
<path d="M488,240H296c-4.8,0-8-3.2-8-8v-48h16v40h176V80h-40V64h48c4.8,0,8,3.2,8,8v160C496,236.8,492.8,240,488,240z"/>
<polygon style="fill:#789DC3;" points="232,40 232,184 440,184 440,24 376,24 360,40 "/>
<path d="M440,192H232c-4.8,0-8-3.2-8-8V40c0-4.8,3.2-8,8-8h124.8l13.6-13.6c1.6-1.6,3.2-2.4,5.6-2.4h64c4.8,0,8,3.2,8,8v160
	C448,188.8,444.8,192,440,192z M240,176h192V32h-52.8l-13.6,13.6c-1.6,1.6-3.2,2.4-5.6,2.4H240V176z"/>
<path d="M352,160h-88c-4.8,0-8-3.2-8-8V64h16v80h80V160z"/>
<g>
</g>
<g>
</g>
<g>
</g>
<g>
</g>
<g>
</g>
<g>
</g>
<g>
</g>
<g>
</g>
<g>
</g>
<g>
</g>
<g>
</g>
<g>
</g>
<g>
</g>
<g>
</g>
<g>
</g>
</svg>
