<?xml version="1.0" encoding="iso-8859-1"?>
<!-- Generator: Adobe Illustrator 19.0.0, SVG Export Plug-In . SVG Version: 6.00 Build 0)  -->
<svg version="1.1" id="Capa_1" xmlns="http://www.w3.org/2000/svg" xmlns:xlink="http://www.w3.org/1999/xlink" x="0px" y="0px"
	 viewBox="0 0 496 496" style="enable-background:new 0 0 496 496;" xml:space="preserve">
<polyline style="fill:#7D828C;" points="264,456 264,488 376,488 376,456 "/>
<path d="M376,496H264c-4.8,0-8-3.2-8-8v-32h16v24h96v-24h16v32C384,492.8,380.8,496,376,496z"/>
<path style="fill:#7D828C;" d="M408,344h24c13.6,0,24,10.4,24,24l0,0c0,13.6-10.4,24-24,24h-24v32h24c31.2,0,56-24.8,56-56l0,0
	c0-31.2-24.8-56-56-56l0,0h-24"/>
<path d="M432,432h-24c-4.8,0-8-3.2-8-8v-32c0-4.8,3.2-8,8-8h24c8.8,0,16-7.2,16-16s-7.2-16-16-16h-24v-16h24c17.6,0,32,14.4,32,32
	s-14.4,32-32,32h-16v16h16c26.4,0,48-21.6,48-48s-21.6-48-48-48l0,0h-24v-16h24c35.2,0,64,28.8,64,64S467.2,432,432,432z"/>
<polyline style="fill:#6B5936;" points="168,280 168,248 40,248 40,280 "/>
<path d="M176,280h-16v-24H48v24H32v-32c0-4.8,3.2-8,8-8h128c4.8,0,8,3.2,8,8V280z"/>
<path style="fill:#A88C55;" d="M40,104h128c17.6,0,32,14.4,32,32v80c0,17.6-14.4,32-32,32H40c-17.6,0-32-14.4-32-32v-80
	C8,118.4,22.4,104,40,104z"/>
<path d="M168,256H40c-22.4,0-40-17.6-40-40v-80c0-22.4,17.6-40,40-40h128c22.4,0,40,17.6,40,40v80C208,238.4,190.4,256,168,256z
	 M40,112c-13.6,0-24,10.4-24,24v80c0,13.6,10.4,24,24,24h128c13.6,0,24-10.4,24-24v-80c0-13.6-10.4-24-24-24H40z"/>
<rect x="56" y="72" style="fill:#6B5936;" width="96" height="32"/>
<path d="M152,112H56c-4.8,0-8-3.2-8-8V72c0-4.8,3.2-8,8-8h96c4.8,0,8,3.2,8,8v32C160,108.8,156.8,112,152,112z M64,96h80V80H64V96z"
	/>
<path style="fill:#A88C55;" d="M56,280h96c26.4,0,48,21.6,48,48v128c0,17.6-14.4,32-32,32H40c-17.6,0-32-14.4-32-32V328
	C8,301.6,29.6,280,56,280z"/>
<path d="M168,496H40c-22.4,0-40-17.6-40-40V328c0-31.2,24.8-56,56-56h96c31.2,0,56,24.8,56,56v128C208,478.4,190.4,496,168,496z
	 M56,288c-22.4,0-40,17.6-40,40v128c0,13.6,10.4,24,24,24l0,0h128c13.6,0,24-10.4,24-24l0,0V328c0-22.4-17.6-40-40-40H56z"/>
<rect x="8" y="432" width="192" height="16"/>
<rect x="40" y="136" style="fill:#6B5936;" width="32" height="80"/>
<path d="M72,224H40c-4.8,0-8-3.2-8-8v-80c0-4.8,3.2-8,8-8h32c4.8,0,8,3.2,8,8v80C80,220.8,76.8,224,72,224z M48,208h16v-64H48V208z"
	/>
<rect x="88" y="8" style="fill:#6B5936;" width="32" height="32"/>
<path d="M120,48H88c-4.8,0-8-3.2-8-8V8c0-4.8,3.2-8,8-8h32c4.8,0,8,3.2,8,8v32C128,44.8,124.8,48,120,48z M96,32h16V16H96V32z"/>
<rect x="96" y="40" width="16" height="32"/>
<path style="fill:#A4A5A6;" d="M232,280h176l0,0v128c0,26.4-21.6,48-48,48h-80c-26.4,0-48-21.6-48-48V280L232,280z"/>
<path d="M360,464h-80c-31.2,0-56-24.8-56-56V280c0-4.8,3.2-8,8-8h176c4.8,0,8,3.2,8,8v128C416,439.2,391.2,464,360,464z M240,288
	v120c0,22.4,17.6,40,40,40h80c22.4,0,40-17.6,40-40V288H240z"/>
<rect x="232" y="304" width="176" height="16"/>
<path d="M360,432h-40v-16h40c4.8,0,8-3.2,8-8v-96h16v96C384,421.6,373.6,432,360,432z"/>
<rect x="8" y="400" width="192" height="16"/>
<path d="M285.6,261.6l-11.2-11.2l11.2-11.2c1.6-1.6,2.4-3.2,2.4-5.6v-2.4c0-2.4-0.8-4-2.4-5.6l-6.4-6.4c-4.8-5.6-7.2-11.2-7.2-17.6
	v-2.4c0-6.4,2.4-12.8,7.2-16.8l11.2-11.2l11.2,11.2l-11.2,11.2c-1.6,1.6-2.4,3.2-2.4,5.6v2.4c0,2.4,0.8,4,2.4,5.6l6.4,6.4
	c4.8,4.8,7.2,10.4,7.2,16.8v2.4c0,6.4-2.4,12.8-7.2,16.8L285.6,261.6z"/>
<path d="M317.6,213.6l-11.2-11.2l11.2-11.2c1.6-1.6,2.4-3.2,2.4-5.6v-2.4c0-2.4-0.8-4-2.4-5.6l-6.4-6.4c-4.8-5.6-7.2-11.2-7.2-17.6
	v-2.4c0-6.4,2.4-12.8,7.2-16.8l11.2-11.2l11.2,11.2l-11.2,11.2c-1.6,1.6-2.4,3.2-2.4,5.6v2.4c0,2.4,0.8,4,2.4,5.6l6.4,6.4
	c4.8,4.8,7.2,10.4,7.2,16.8v2.4c0,6.4-2.4,12.8-7.2,16.8L317.6,213.6z"/>
<g>
</g>
<g>
</g>
<g>
</g>
<g>
</g>
<g>
</g>
<g>
</g>
<g>
</g>
<g>
</g>
<g>
</g>
<g>
</g>
<g>
</g>
<g>
</g>
<g>
</g>
<g>
</g>
<g>
</g>
</svg>
