<?xml version="1.0" encoding="iso-8859-1"?>
<!-- Generator: Adobe Illustrator 19.0.0, SVG Export Plug-In . SVG Version: 6.00 Build 0)  -->
<svg version="1.1" id="Capa_1" xmlns="http://www.w3.org/2000/svg" xmlns:xlink="http://www.w3.org/1999/xlink" x="0px" y="0px"
	 viewBox="0 0 496.4 496.4" style="enable-background:new 0 0 496.4 496.4;" xml:space="preserve">
<polygon style="fill:#737272;" points="72.2,488.4 72.2,408.4 32.2,408.4 152.2,344.4 272.2,408.4 232.2,408.4 232.2,488.4 "/>
<path d="M232.2,496.4h-160c-4.8,0-8-3.2-8-8v-72h-32c-4.8,0-8-3.2-8-8c0-3.2,1.6-5.6,4-7.2l120-64c2.4-1.6,4.8-1.6,7.2,0l120,64
	c4,2.4,5.6,7.2,3.2,11.2c-0.8,2.4-3.2,4-6.4,4h-32v72C240.2,493.2,237,496.4,232.2,496.4z M80.2,480.4h144v-72c0-4.8,3.2-8,8-8h8
	l-88-47.2l-88,47.2h8c4.8,0,8,3.2,8,8V480.4z"/>
<rect x="128.2" y="408.4" style="fill:#BABDBF;" width="48" height="80"/>
<path d="M176.2,496.4h-48c-4.8,0-8-3.2-8-8v-80c0-4.8,3.2-8,8-8h48c4.8,0,8,3.2,8,8v80C184.2,493.2,181,496.4,176.2,496.4z
	 M136.2,480.4h32v-64h-32V480.4z"/>
<polygon style="fill:#737272;" points="72.2,312.4 72.2,232.4 32.2,232.4 152.2,168.4 272.2,232.4 232.2,232.4 232.2,312.4 "/>
<path d="M232.2,320.4h-160c-4.8,0-8-3.2-8-8v-72h-32c-4.8,0-8-3.2-8-8c0-3.2,1.6-5.6,4-7.2l120-64c2.4-1.6,4.8-1.6,7.2,0l120,64
	c4,2.4,5.6,7.2,3.2,11.2c-0.8,2.4-3.2,4-6.4,4h-32v72C240.2,317.2,237,320.4,232.2,320.4z M80.2,304.4h144v-72c0-4.8,3.2-8,8-8h8
	l-88-47.2l-88,47.2h8c4.8,0,8,3.2,8,8V304.4z"/>
<rect x="128.2" y="232.4" style="fill:#BABDBF;" width="48" height="80"/>
<path d="M176.2,320.4h-48c-4.8,0-8-3.2-8-8v-80c0-4.8,3.2-8,8-8h48c4.8,0,8,3.2,8,8v80C184.2,317.2,181,320.4,176.2,320.4z
	 M136.2,304.4h32v-64h-32V304.4z"/>
<rect x="72.2" y="280.4" style="fill:#BABDBF;" width="56" height="32"/>
<path d="M128.2,320.4h-56c-4.8,0-8-3.2-8-8v-32c0-4.8,3.2-8,8-8h56c4.8,0,8,3.2,8,8v32C136.2,317.2,133,320.4,128.2,320.4z
	 M80.2,304.4h40v-16h-40V304.4z"/>
<rect x="176.2" y="280.4" style="fill:#BABDBF;" width="56" height="32"/>
<path d="M232.2,320.4h-56c-4.8,0-8-3.2-8-8v-32c0-4.8,3.2-8,8-8h56c4.8,0,8,3.2,8,8v32C240.2,317.2,237,320.4,232.2,320.4z
	 M184.2,304.4h40v-16h-40V304.4z"/>
<rect x="72.2" y="456.4" style="fill:#BABDBF;" width="56" height="32"/>
<path d="M128.2,496.4h-56c-4.8,0-8-3.2-8-8v-32c0-4.8,3.2-8,8-8h56c4.8,0,8,3.2,8,8v32C136.2,493.2,133,496.4,128.2,496.4z
	 M80.2,480.4h40v-16h-40V480.4z"/>
<rect x="176.2" y="456.4" style="fill:#BABDBF;" width="56" height="32"/>
<path d="M232.2,496.4h-56c-4.8,0-8-3.2-8-8v-32c0-4.8,3.2-8,8-8h56c4.8,0,8,3.2,8,8v32C240.2,493.2,237,496.4,232.2,496.4z
	 M184.2,480.4h40v-16h-40V480.4z"/>
<path style="fill:#C7B299;" d="M384.2,8.4L384.2,8.4c22.4,0,40,17.6,40,40v16c0,22.4-17.6,40-40,40l0,0c-22.4,0-40-17.6-40-40v-16
	C344.2,26,361.8,8.4,384.2,8.4z"/>
<path d="M384.2,112.4c-26.4,0-48-21.6-48-48v-16c0-26.4,21.6-48,48-48s48,21.6,48,48v16C432.2,90.8,410.6,112.4,384.2,112.4z
	 M384.2,16.4c-17.6,0-32,14.4-32,32v16c0,17.6,14.4,32,32,32s32-14.4,32-32v-16C416.2,30.8,401.8,16.4,384.2,16.4z"/>
<path style="fill:#193441;" d="M336.2,272.4v16h-32v-112c0-17.6,14.4-32,32-32h96c17.6,0,32,14.4,32,32v112h-32v-16H336.2z"/>
<path d="M464.2,296.4h-32c-4.8,0-8-3.2-8-8v-8h-80v8c0,4.8-3.2,8-8,8h-32c-4.8,0-8-3.2-8-8v-112c0-22.4,17.6-40,40-40h96
	c22.4,0,40,17.6,40,40v112C472.2,293.2,469,296.4,464.2,296.4z M440.2,280.4h16v-104c0-13.6-10.4-24-24-24h-96
	c-13.6,0-24,10.4-24,24v104h16v-8c0-4.8,3.2-8,8-8h96c4.8,0,8,3.2,8,8V280.4z"/>
<polyline style="fill:#3E606F;" points="336.2,272.4 336.2,488.4 432.2,488.4 432.2,272.4 "/>
<path d="M432.2,496.4h-96c-4.8,0-8-3.2-8-8v-216h16v208h80v-208h16v216C440.2,493.2,437,496.4,432.2,496.4z"/>
<rect x="376.2" y="312.4" width="16" height="176"/>
<rect x="336.2" y="456.4" style="fill:#C7B299;" width="48" height="32"/>
<path d="M384.2,496.4h-48c-4.8,0-8-3.2-8-8v-32c0-4.8,3.2-8,8-8h48c4.8,0,8,3.2,8,8v32C392.2,493.2,389,496.4,384.2,496.4z
	 M344.2,480.4h32v-16h-32V480.4z"/>
<rect x="384.2" y="456.4" style="fill:#998675;" width="48" height="32"/>
<path d="M432.2,496.4h-48c-4.8,0-8-3.2-8-8v-32c0-4.8,3.2-8,8-8h48c4.8,0,8,3.2,8,8v32C440.2,493.2,437,496.4,432.2,496.4z
	 M392.2,480.4h32v-16h-32V480.4z"/>
<polyline style="fill:#BABDBF;" points="136.2,136.4 136.2,32.4 112.2,32.4 152.2,8.4 192.2,32.4 168.2,32.4 168.2,136.4 "/>
<path d="M176.2,136.4h-16v-104c0-3.2,1.6-5.6,4.8-7.2L152.2,18l-12.8,7.2c3.2,1.6,4.8,4,4.8,7.2v104h-16v-96h-16c-4.8,0-8-3.2-8-8
	c0-3.2,1.6-5.6,4-7.2l40-24c2.4-1.6,5.6-1.6,8,0l40,24c4,2.4,4.8,7.2,3.2,11.2c-1.6,2.4-4,4-7.2,4h-16V136.4z"/>
<polyline style="fill:#BABDBF;" points="56.2,152.4 56.2,96.4 32.2,96.4 72.2,72.4 112.2,96.4 88.2,96.4 88.2,152.4 "/>
<path d="M96.2,152.4h-16v-56c0-3.2,1.6-5.6,4.8-7.2L72.2,82l-12.8,7.2c3.2,1.6,4.8,4,4.8,7.2v56h-16v-48h-16c-4.8,0-8-3.2-8-8
	c0-3.2,1.6-5.6,4-7.2l40-24c2.4-1.6,5.6-1.6,8,0l40,24c4,2.4,4.8,7.2,2.4,11.2c-0.8,2.4-3.2,4-6.4,4h-16V152.4z"/>
<polyline style="fill:#BABDBF;" points="216.2,152.4 216.2,96.4 192.2,96.4 232.2,72.4 272.2,96.4 248.2,96.4 248.2,152.4 "/>
<path d="M256.2,152.4h-16v-56c0-3.2,1.6-5.6,4.8-7.2L232.2,82l-12.8,7.2c2.4,1.6,4.8,4,4.8,7.2v56h-16v-48h-16c-4.8,0-8-3.2-8-8
	c0-3.2,1.6-5.6,4-7.2l40-24c2.4-1.6,5.6-1.6,8,0l40,24c4,2.4,4.8,7.2,2.4,11.2c-0.8,2.4-3.2,4-6.4,4h-16V152.4z"/>
<rect x="336.2" y="264.4" width="96" height="16"/>
<polygon style="fill:#998675;" points="416.2,144.4 416.2,160.4 400.2,176.4 368.2,176.4 352.2,160.4 352.2,144.4 "/>
<path d="M400.2,184.4h-32c-2.4,0-4-0.8-5.6-2.4l-16-16c-1.6-1.6-2.4-3.2-2.4-5.6v-16c0-4.8,3.2-8,8-8h64c4.8,0,8,3.2,8,8v16
	c0,2.4-0.8,4-2.4,5.6l-16,16C404.2,183.6,402.6,184.4,400.2,184.4z M371.4,168.4H397l11.2-11.2v-4.8h-48v4.8L371.4,168.4z"/>
<rect x="304.2" y="256.4" style="fill:#C7B299;" width="32" height="32"/>
<path d="M336.2,296.4h-32c-4.8,0-8-3.2-8-8v-32c0-4.8,3.2-8,8-8h32c4.8,0,8,3.2,8,8v32C344.2,293.2,341,296.4,336.2,296.4z
	 M312.2,280.4h16v-16h-16V280.4z"/>
<rect x="432.2" y="256.4" style="fill:#998675;" width="32" height="32"/>
<path d="M464.2,296.4h-32c-4.8,0-8-3.2-8-8v-32c0-4.8,3.2-8,8-8h32c4.8,0,8,3.2,8,8v32C472.2,293.2,469,296.4,464.2,296.4z
	 M440.2,280.4h16v-16h-16V280.4z"/>
<rect x="328.2" y="200.4" width="16" height="72"/>
<rect x="424.2" y="200.4" width="16" height="72"/>
<g>
</g>
<g>
</g>
<g>
</g>
<g>
</g>
<g>
</g>
<g>
</g>
<g>
</g>
<g>
</g>
<g>
</g>
<g>
</g>
<g>
</g>
<g>
</g>
<g>
</g>
<g>
</g>
<g>
</g>
</svg>
