<?xml version="1.0" encoding="iso-8859-1"?>
<!-- Generator: Adobe Illustrator 19.0.0, SVG Export Plug-In . SVG Version: 6.00 Build 0)  -->
<svg version="1.1" id="Capa_1" xmlns="http://www.w3.org/2000/svg" xmlns:xlink="http://www.w3.org/1999/xlink" x="0px" y="0px"
	 viewBox="0 0 496 496" style="enable-background:new 0 0 496 496;" xml:space="preserve">
<rect x="8" y="8" style="fill:#46709C;" width="272" height="384"/>
<path d="M216,400H8c-4.8,0-8-3.2-8-8V8c0-4.8,3.2-8,8-8h272c4.8,0,8,3.2,8,8v96h-16V16H16v368h200V400z"/>
<rect x="216" y="104" style="fill:#789DC3;" width="272" height="384"/>
<path d="M488,496H216c-4.8,0-8-3.2-8-8V104c0-4.8,3.2-8,8-8h272c4.8,0,8,3.2,8,8v384C496,492.8,492.8,496,488,496z M224,480h256V112
	H224V480z"/>
<rect x="32" y="64" width="16" height="16"/>
<rect x="64" y="64" width="112" height="16"/>
<rect x="64" y="96" width="128" height="16"/>
<rect x="32" y="128" width="16" height="16"/>
<rect x="64" y="128" width="112" height="16"/>
<rect x="64" y="160" width="128" height="16"/>
<rect x="32" y="192" width="16" height="16"/>
<rect x="64" y="192" width="112" height="16"/>
<rect x="64" y="224" width="128" height="16"/>
<rect x="32" y="256" width="16" height="16"/>
<rect x="64" y="256" width="112" height="16"/>
<rect x="64" y="288" width="128" height="16"/>
<rect x="32" y="320" width="16" height="16"/>
<rect x="64" y="320" width="112" height="16"/>
<rect x="64" y="352" width="128" height="16"/>
<rect x="216" y="104" style="fill:#D3D2D6;" width="272" height="32"/>
<path d="M488,144H216c-4.8,0-8-3.2-8-8v-32c0-4.8,3.2-8,8-8h272c4.8,0,8,3.2,8,8v32C496,140.8,492.8,144,488,144z M224,128h256v-16
	H224V128z"/>
<rect x="8" y="8" style="fill:#D3D2D6;" width="272" height="32"/>
<path d="M280,48H8c-4.8,0-8-3.2-8-8V8c0-4.8,3.2-8,8-8h272c4.8,0,8,3.2,8,8v32C288,44.8,284.8,48,280,48z M16,32h256V16H16V32z"/>
<rect x="248" y="168" style="fill:#D94A56;" width="32" height="32"/>
<path d="M280,208h-32c-4.8,0-8-3.2-8-8v-32c0-4.8,3.2-8,8-8h32c4.8,0,8,3.2,8,8v32C288,204.8,284.8,208,280,208z M256,192h16v-16
	h-16V192z"/>
<rect x="304" y="192" width="160" height="16"/>
<rect x="248" y="232" style="fill:#D94A56;" width="32" height="32"/>
<path d="M280,272h-32c-4.8,0-8-3.2-8-8v-32c0-4.8,3.2-8,8-8h32c4.8,0,8,3.2,8,8v32C288,268.8,284.8,272,280,272z M256,256h16v-16
	h-16V256z"/>
<rect x="248" y="296" style="fill:#D94A56;" width="32" height="32"/>
<path d="M280,336h-32c-4.8,0-8-3.2-8-8v-32c0-4.8,3.2-8,8-8h32c4.8,0,8,3.2,8,8v32C288,332.8,284.8,336,280,336z M256,320h16v-16
	h-16V320z"/>
<rect x="248" y="360" style="fill:#D94A56;" width="32" height="32"/>
<path d="M280,400h-32c-4.8,0-8-3.2-8-8v-32c0-4.8,3.2-8,8-8h32c4.8,0,8,3.2,8,8v32C288,396.8,284.8,400,280,400z M256,384h16v-16
	h-16V384z"/>
<rect x="248" y="424" style="fill:#D94A56;" width="32" height="32"/>
<path d="M280,464h-32c-4.8,0-8-3.2-8-8v-32c0-4.8,3.2-8,8-8h32c4.8,0,8,3.2,8,8v32C288,460.8,284.8,464,280,464z M256,448h16v-16
	h-16V448z"/>
<path style="fill:#FFBC3D;" d="M424,288v152c0,8.8,7.2,16,16,16l0,0c8.8,0,16-7.2,16-16V288H424z"/>
<path d="M440,464c-13.6,0-24-10.4-24-24V288c0-4.8,3.2-8,8-8h32c4.8,0,8,3.2,8,8v152C464,453.6,453.6,464,440,464z M432,296v144
	c0,4.8,3.2,8,8,8s8-3.2,8-8V296H432z"/>
<path style="fill:#D94A56;" d="M440,456c8.8,0,16-7.2,16-16v-16h-32v16C424,448.8,431.2,456,440,456z"/>
<path d="M440,464c-13.6,0-24-10.4-24-24v-16c0-4.8,3.2-8,8-8h32c4.8,0,8,3.2,8,8v16C464,453.6,453.6,464,440,464z M432,432v8
	c0,4.8,3.2,8,8,8s8-3.2,8-8v-8H432z"/>
<polygon style="fill:#C7B299;" points="456,288 424,288 440,232 "/>
<path d="M456,296h-32c-4.8,0-8-3.2-8-8c0-0.8,0-1.6,0-2.4l16-56c1.6-4,5.6-6.4,9.6-5.6c2.4,0.8,4.8,3.2,5.6,5.6l16,56
	c1.6,4-1.6,8.8-5.6,9.6C457.6,296,456.8,296,456,296z M434.4,280h10.4l-4.8-19.2L434.4,280z"/>
<rect x="424" y="288" style="fill:#FFD789;" width="32" height="32"/>
<path d="M456,328h-32c-4.8,0-8-3.2-8-8v-32c0-4.8,3.2-8,8-8h32c4.8,0,8,3.2,8,8v32C464,324.8,460.8,328,456,328z M432,312h16v-16
	h-16V312z"/>
<rect x="304" y="256" width="96" height="16"/>
<rect x="304" y="320" width="96" height="16"/>
<rect x="304" y="384" width="96" height="16"/>
<rect x="304" y="448" width="96" height="16"/>
<g>
</g>
<g>
</g>
<g>
</g>
<g>
</g>
<g>
</g>
<g>
</g>
<g>
</g>
<g>
</g>
<g>
</g>
<g>
</g>
<g>
</g>
<g>
</g>
<g>
</g>
<g>
</g>
<g>
</g>
</svg>
