<?xml version="1.0" encoding="iso-8859-1"?>
<!-- Generator: Adobe Illustrator 19.0.0, SVG Export Plug-In . SVG Version: 6.00 Build 0)  -->
<svg version="1.1" id="Capa_1" xmlns="http://www.w3.org/2000/svg" xmlns:xlink="http://www.w3.org/1999/xlink" x="0px" y="0px"
	 viewBox="0 0 496 496" style="enable-background:new 0 0 496 496;" xml:space="preserve">
<polyline style="fill:#D9D9D9;" points="296,344 488,344 488,56 440,8 248,8 248,136 "/>
<path d="M488,352H296v-16h184V59.2L436.8,16H256v120h-16V8c0-4.8,3.2-8,8-8h192c2.4,0,4,0.8,5.6,2.4l48,48c1.6,1.6,2.4,3.2,2.4,5.6
	v288C496,348.8,492.8,352,488,352z"/>
<polyline style="fill:#BABDBF;" points="264,248 264,136 200,136 200,184 "/>
<path d="M272,248h-16V144h-48v40h-16v-48c0-4.8,3.2-8,8-8h64c4.8,0,8,3.2,8,8V248z"/>
<polygon style="fill:#737272;" points="296,280 296,488 8,488 8,280 152,136 "/>
<path d="M296,496H8c-4.8,0-8-3.2-8-8V280c0-2.4,0.8-4,2.4-5.6l144-144c3.2-3.2,8-3.2,11.2,0l144,144c1.6,1.6,2.4,3.2,2.4,5.6v208
	C304,492.8,300.8,496,296,496z M16,480h272V283.2l-136-136l-136,136V480z"/>
<rect x="96" y="312" style="fill:#BABDBF;" width="112" height="176"/>
<path d="M208,496H96c-4.8,0-8-3.2-8-8V312c0-4.8,3.2-8,8-8h112c4.8,0,8,3.2,8,8v176C216,492.8,212.8,496,208,496z M104,480h96V320
	h-96V480z"/>
<rect x="120" y="400" width="16" height="16"/>
<polygon style="fill:#BABDBF;" points="488,56 440,56 440,8 "/>
<path d="M488,64h-48c-4.8,0-8-3.2-8-8V8c0-4.8,3.2-8,8-8c2.4,0,4,0.8,5.6,2.4l48,48c3.2,3.2,3.2,8,0,11.2C492,63.2,490.4,64,488,64z
	 M448,48h20.8L448,27.2V48z"/>
<rect x="272" y="32" width="144" height="16"/>
<rect x="272" y="64" width="144" height="16"/>
<rect x="272" y="96" width="192" height="16"/>
<path d="M432,176c-2.4,0-4-0.8-5.6-2.4l-16-16l11.2-11.2l10.4,10.4l26.4-26.4l11.2,11.2l-32,32C436,175.2,434.4,176,432,176z"/>
<path d="M432,224c-2.4,0-4-0.8-5.6-2.4l-16-16l11.2-11.2l10.4,10.4l26.4-26.4l11.2,11.2l-32,32C436,223.2,434.4,224,432,224z"/>
<path d="M432,272c-2.4,0-4-0.8-5.6-2.4l-16-16l11.2-11.2l10.4,10.4l26.4-26.4l11.2,11.2l-32,32C436,271.2,434.4,272,432,272z"/>
<rect x="288" y="160" width="112" height="16"/>
<rect x="288" y="208" width="112" height="16"/>
<rect x="320" y="256" width="80" height="16"/>
<rect x="296" y="312" style="fill:#BABDBF;" width="192" height="32"/>
<path d="M488,352H296c-4.8,0-8-3.2-8-8v-32c0-4.8,3.2-8,8-8h192c4.8,0,8,3.2,8,8v32C496,348.8,492.8,352,488,352z M304,336h176v-16
	H304V336z"/>
<g>
</g>
<g>
</g>
<g>
</g>
<g>
</g>
<g>
</g>
<g>
</g>
<g>
</g>
<g>
</g>
<g>
</g>
<g>
</g>
<g>
</g>
<g>
</g>
<g>
</g>
<g>
</g>
<g>
</g>
</svg>
