<?xml version="1.0" encoding="iso-8859-1"?>
<!-- Generator: Adobe Illustrator 19.0.0, SVG Export Plug-In . SVG Version: 6.00 Build 0)  -->
<svg version="1.1" id="Capa_1" xmlns="http://www.w3.org/2000/svg" xmlns:xlink="http://www.w3.org/1999/xlink" x="0px" y="0px"
	 viewBox="0 0 496 496" style="enable-background:new 0 0 496 496;" xml:space="preserve">
<path style="fill:#789DC3;" d="M392,56v16c0,8.8,7.2,16,16,16l0,0c8.8,0,16-7.2,16-16V56"/>
<path d="M408,96c-13.6,0-24-10.4-24-24V56h16v16c0,4.8,3.2,8,8,8s8-3.2,8-8V56h16v16C432,85.6,421.6,96,408,96z"/>
<path style="fill:#789DC3;" d="M312,56v16c0,8.8,7.2,16,16,16l0,0c8.8,0,16-7.2,16-16V56"/>
<path d="M328,96c-13.6,0-24-10.4-24-24V56h16v16c0,4.8,3.2,8,8,8s8-3.2,8-8V56h16v16C352,85.6,341.6,96,328,96z"/>
<path style="fill:#789DC3;" d="M232,56v16c0,8.8,7.2,16,16,16l0,0c8.8,0,16-7.2,16-16V56"/>
<path d="M248,96c-13.6,0-24-10.4-24-24V56h16v16c0,4.8,3.2,8,8,8c4.8,0,8-3.2,8-8V56h16v16C272,85.6,261.6,96,248,96z"/>
<path style="fill:#789DC3;" d="M152,56v16c0,8.8,7.2,16,16,16l0,0c8.8,0,16-7.2,16-16V56"/>
<path d="M168,96c-13.6,0-24-10.4-24-24V56h16v16c0,4.8,3.2,8,8,8s8-3.2,8-8V56h16v16C192,85.6,181.6,96,168,96z"/>
<path style="fill:#789DC3;" d="M72,56v16c0,8.8,7.2,16,16,16l0,0c8.8,0,16-7.2,16-16V56"/>
<path d="M88,96c-13.6,0-24-10.4-24-24V56h16v16c0,4.8,3.2,8,8,8s8-3.2,8-8V56h16v16C112,85.6,101.6,96,88,96z"/>
<rect x="8" y="440" style="fill:#D94A56;" width="480" height="48"/>
<path d="M488,496H8c-4.8,0-8-3.2-8-8v-48c0-4.8,3.2-8,8-8h480c4.8,0,8,3.2,8,8v48C496,492.8,492.8,496,488,496z M16,480h464v-32H16
	V480z"/>
<rect x="32" y="464" width="16" height="24"/>
<rect x="64" y="464" width="16" height="24"/>
<rect x="96" y="464" width="16" height="24"/>
<rect x="128" y="464" width="16" height="24"/>
<rect x="160" y="464" width="16" height="24"/>
<rect x="192" y="464" width="16" height="24"/>
<rect x="224" y="464" width="16" height="24"/>
<rect x="256" y="464" width="16" height="24"/>
<rect x="288" y="464" width="16" height="24"/>
<rect x="320" y="464" width="16" height="24"/>
<rect x="352" y="464" width="16" height="24"/>
<rect x="384" y="464" width="16" height="24"/>
<rect x="416" y="464" width="16" height="24"/>
<rect x="448" y="464" width="16" height="24"/>
<rect x="8" y="8" style="fill:#D94A56;" width="480" height="48"/>
<path d="M488,64H8c-4.8,0-8-3.2-8-8V8c0-4.8,3.2-8,8-8h480c4.8,0,8,3.2,8,8v48C496,60.8,492.8,64,488,64z M16,48h464V16H16V48z"/>
<rect x="448" y="8" width="16" height="24"/>
<rect x="416" y="8" width="16" height="24"/>
<rect x="384" y="8" width="16" height="24"/>
<rect x="352" y="8" width="16" height="24"/>
<rect x="320" y="8" width="16" height="24"/>
<rect x="288" y="8" width="16" height="24"/>
<rect x="256" y="8" width="16" height="24"/>
<rect x="224" y="8" width="16" height="24"/>
<rect x="192" y="8" width="16" height="24"/>
<rect x="160" y="8" width="16" height="24"/>
<rect x="128" y="8" width="16" height="24"/>
<rect x="96" y="8" width="16" height="24"/>
<rect x="64" y="8" width="16" height="24"/>
<rect x="32" y="8" width="16" height="24"/>
<circle style="fill:#D94A56;" cx="408" cy="352" r="40"/>
<path d="M408,400c-26.4,0-48-21.6-48-48s21.6-48,48-48s48,21.6,48,48S434.4,400,408,400z M408,320c-17.6,0-32,14.4-32,32
	s14.4,32,32,32s32-14.4,32-32S425.6,320,408,320z"/>
<circle style="fill:#789DC3;" cx="328" cy="352" r="40"/>
<path d="M328,400c-26.4,0-48-21.6-48-48s21.6-48,48-48s48,21.6,48,48S354.4,400,328,400z M328,320c-17.6,0-32,14.4-32,32
	s14.4,32,32,32s32-14.4,32-32S345.6,320,328,320z"/>
<circle style="fill:#D94A56;" cx="248" cy="352" r="40"/>
<path d="M248,400c-26.4,0-48-21.6-48-48s21.6-48,48-48s48,21.6,48,48S274.4,400,248,400z M248,320c-17.6,0-32,14.4-32,32
	s14.4,32,32,32s32-14.4,32-32S265.6,320,248,320z"/>
<circle style="fill:#789DC3;" cx="168" cy="352" r="40"/>
<path d="M168,400c-26.4,0-48-21.6-48-48s21.6-48,48-48s48,21.6,48,48S194.4,400,168,400z M168,320c-17.6,0-32,14.4-32,32
	s14.4,32,32,32s32-14.4,32-32S185.6,320,168,320z"/>
<circle style="fill:#D94A56;" cx="48" cy="336" r="40"/>
<path d="M48,384c-26.4,0-48-21.6-48-48s21.6-48,48-48s48,21.6,48,48S74.4,384,48,384z M48,304c-17.6,0-32,14.4-32,32s14.4,32,32,32
	s32-14.4,32-32S65.6,304,48,304z"/>
<rect x="400" y="88" width="16" height="224"/>
<rect x="320" y="88" width="16" height="224"/>
<rect x="240" y="88" width="16" height="224"/>
<rect x="160" y="88" width="16" height="224"/>
<rect x="-33.261" y="184.423" transform="matrix(-0.1519 0.9884 -0.9884 -0.1519 273.0573 150.5479)" width="210.401" height="16"/>
<path d="M432,352h-16c0-4.8-3.2-8-8-8v-16C421.6,328,432,338.4,432,352z"/>
<path d="M352,352h-16c0-4.8-3.2-8-8-8v-16C341.6,328,352,338.4,352,352z"/>
<path d="M272,352h-16c0-4.8-3.2-8-8-8v-16C261.6,328,272,338.4,272,352z"/>
<path d="M192,352h-16c0-4.8-3.2-8-8-8v-16C181.6,328,192,338.4,192,352z"/>
<path d="M48,360v-16c4.8,0,8-3.2,8-8h16C72,349.6,61.6,360,48,360z"/>
<rect x="480" y="56" width="16" height="384"/>
<g>
</g>
<g>
</g>
<g>
</g>
<g>
</g>
<g>
</g>
<g>
</g>
<g>
</g>
<g>
</g>
<g>
</g>
<g>
</g>
<g>
</g>
<g>
</g>
<g>
</g>
<g>
</g>
<g>
</g>
</svg>
