<?xml version="1.0" encoding="iso-8859-1"?>
<!-- Generator: Adobe Illustrator 19.0.0, SVG Export Plug-In . SVG Version: 6.00 Build 0)  -->
<svg version="1.1" id="Capa_1" xmlns="http://www.w3.org/2000/svg" xmlns:xlink="http://www.w3.org/1999/xlink" x="0px" y="0px"
	 viewBox="0 0 496 496" style="enable-background:new 0 0 496 496;" xml:space="preserve">
<path style="fill:#A88C55;" d="M40,488h176c17.6,0,32-14.4,32-32V152c0-17.6-14.4-32-32-32H40c-17.6,0-32,14.4-32,32v304
	C8,473.6,22.4,488,40,488"/>
<path d="M216,496H40c-22.4,0-40-17.6-40-40V152c0-22.4,17.6-40,40-40h176c22.4,0,40,17.6,40,40v304C256,478.4,238.4,496,216,496z
	 M40,128c-13.6,0-24,10.4-24,24v304c0,13.6,10.4,24,24,24l0,0h176c13.6,0,24-10.4,24-24l0,0V152c0-13.6-10.4-24-24-24H40z"/>
<rect x="24" y="8" style="fill:#6B5936;" width="208" height="64"/>
<path d="M232,80H24c-4.8,0-8-3.2-8-8V8c0-4.8,3.2-8,8-8h208c4.8,0,8,3.2,8,8v64C240,76.8,236.8,80,232,80z M32,64h192V16H32V64z"/>
<path style="fill:#6B5936;" d="M8,456h240l0,0l0,0c0,17.6-14.4,32-32,32H40C22.4,488,8,473.6,8,456L8,456L8,456z"/>
<path d="M216,496H40c-22.4,0-40-17.6-40-40c0-4.8,3.2-8,8-8h240c4.8,0,8,3.2,8,8C256,478.4,238.4,496,216,496z M17.6,464
	c3.2,9.6,12.8,16,22.4,16h176c10.4,0,19.2-6.4,22.4-16H17.6z"/>
<rect x="40" y="72" style="fill:#A88C55;" width="176" height="48"/>
<path d="M216,128H40c-4.8,0-8-3.2-8-8V72c0-4.8,3.2-8,8-8h176c4.8,0,8,3.2,8,8v48C224,124.8,220.8,128,216,128z M48,112h160V80H48
	V112z"/>
<rect x="8" y="144" width="240" height="16"/>
<rect x="8" y="264" style="fill:#6B5936;" width="240" height="144"/>
<path d="M248,416H8c-4.8,0-8-3.2-8-8V264c0-4.8,3.2-8,8-8h240c4.8,0,8,3.2,8,8v144C256,412.8,252.8,416,248,416z M16,400h224V272H16
	V400z"/>
<path style="fill:#6B5936;" d="M40,120h176c17.6,0,32,14.4,32,32l0,0l0,0H8l0,0l0,0C8,134.4,22.4,120,40,120z"/>
<path d="M248,160H8c-4.8,0-8-3.2-8-8c0-22.4,17.6-40,40-40h176c22.4,0,40,17.6,40,40C256,156.8,252.8,160,248,160z M17.6,144h221.6
	c-3.2-9.6-12.8-16-22.4-16H40C29.6,128,20.8,134.4,17.6,144z"/>
<path style="fill:#7D828C;" d="M392,440h40c31.2,0,56-24.8,56-56l0,0c0-31.2-24.8-56-56-56h-24v32h24c13.6,0,24,10.4,24,24l0,0
	c0,13.6-10.4,24-24,24h-32"/>
<path d="M432,448h-40v-16h40c26.4,0,48-21.6,48-48s-21.6-48-48-48l0,0h-16v16h16c17.6,0,32,14.4,32,32s-14.4,32-32,32h-32v-16h32
	c8.8,0,16-7.2,16-16s-7.2-16-16-16h-24c-4.8,0-8-3.2-8-8v-32c0-4.8,3.2-8,8-8h24c35.2,0,64,28.8,64,64S467.2,448,432,448z"/>
<path style="fill:#A4A5A6;" d="M352,488l2.4-2.4C388.8,451.2,408,404,408,355.2V312H200v44c0,48.8,19.2,96,53.6,130.4l2.4,1.6H352z"
	/>
<path d="M352,496h-96c-2.4,0-4-0.8-5.6-2.4l-2.4-2.4c-36-36-56-84.8-56-136V312c0-4.8,3.2-8,8-8h208c4.8,0,8,3.2,8,8v44
	c0,51.2-20,100-56,136l-2.4,2.4C356,495.2,354.4,496,352,496z M259.2,480h89.6c32.8-32.8,51.2-77.6,51.2-124v-36H208v36
	C208,402.4,226.4,447.2,259.2,480z"/>
<path style="fill:#7D828C;" d="M248,384L248,384c0-22.4,17.6-40,40-40h32c22.4,0,40,17.6,40,40l0,0c0,22.4-17.6,40-40,40h-32
	C265.6,424,248,406.4,248,384z"/>
<path d="M320,432h-32c-26.4,0-48-21.6-48-48s21.6-48,48-48h32c26.4,0,48,21.6,48,48S346.4,432,320,432z M288,352
	c-17.6,0-32,14.4-32,32s14.4,32,32,32h32c17.6,0,32-14.4,32-32s-14.4-32-32-32H288z"/>
<path d="M286.4,400H248v-16h38.4c4,0,8-1.6,11.2-4.8l1.6-1.6c6.4-5.6,14.4-9.6,22.4-9.6H360v16h-38.4c-4,0-8,1.6-11.2,4.8l-1.6,1.6
	C302.4,396.8,294.4,400,286.4,400z"/>
<path d="M317.6,293.6l-11.2-11.2l11.2-11.2c1.6-1.6,2.4-3.2,2.4-5.6v-2.4c0-2.4-0.8-4-2.4-5.6l-6.4-6.4c-4.8-5.6-7.2-11.2-7.2-17.6
	v-2.4c0-6.4,2.4-12.8,7.2-16.8l11.2-11.2l11.2,11.2l-11.2,11.2c-1.6,1.6-2.4,3.2-2.4,5.6v2.4c0,2.4,0.8,4,2.4,5.6l6.4,6.4
	c4.8,4.8,7.2,10.4,7.2,16.8v2.4c0,6.4-2.4,12.8-7.2,16.8L317.6,293.6z"/>
<path d="M349.6,245.6l-11.2-11.2l11.2-11.2c1.6-1.6,2.4-3.2,2.4-5.6v-2.4c0-2.4-0.8-4-2.4-5.6l-6.4-6.4c-4.8-5.6-7.2-11.2-7.2-17.6
	v-2.4c0-6.4,2.4-12.8,7.2-16.8l11.2-11.2l11.2,11.2l-11.2,11.2c-1.6,1.6-2.4,3.2-2.4,5.6v2.4c0,2.4,0.8,4,2.4,5.6l6.4,6.4
	c4.8,4.8,7.2,10.4,7.2,16.8v2.4c0,6.4-2.4,12.8-7.2,16.8L349.6,245.6z"/>
<circle style="fill:#A88C55;" cx="128" cy="336" r="40"/>
<path d="M128,384c-26.4,0-48-21.6-48-48s21.6-48,48-48s48,21.6,48,48S154.4,384,128,384z M128,304c-17.6,0-32,14.4-32,32
	s14.4,32,32,32s32-14.4,32-32S145.6,304,128,304z"/>
<g>
</g>
<g>
</g>
<g>
</g>
<g>
</g>
<g>
</g>
<g>
</g>
<g>
</g>
<g>
</g>
<g>
</g>
<g>
</g>
<g>
</g>
<g>
</g>
<g>
</g>
<g>
</g>
<g>
</g>
</svg>
