<?xml version="1.0" encoding="iso-8859-1"?>
<!-- Generator: Adobe Illustrator 19.0.0, SVG Export Plug-In . SVG Version: 6.00 Build 0)  -->
<svg version="1.1" id="Capa_1" xmlns="http://www.w3.org/2000/svg" xmlns:xlink="http://www.w3.org/1999/xlink" x="0px" y="0px"
	 viewBox="0 0 496 496" style="enable-background:new 0 0 496 496;" xml:space="preserve">
<path style="fill:#7D828C;" d="M112,280v208h48c17.6,0,32-14.4,32-32v-6.4c0-6.4-2.4-12.8-7.2-16.8l-1.6-1.6
	c-4.8-4.8-7.2-10.4-7.2-16.8V305.6c0-6.4-2.4-12.8-7.2-16.8l-1.6-1.6c-4.8-4.8-10.4-7.2-16.8-7.2H112z"/>
<path d="M160,496h-48c-4.8,0-8-3.2-8-8V280c0-4.8,3.2-8,8-8h38.4c8.8,0,16.8,3.2,22.4,9.6l1.6,1.6c5.6,6.4,9.6,14.4,9.6,22.4v108
	c0,4,1.6,8,4.8,11.2l1.6,1.6c5.6,6.4,9.6,14.4,9.6,22.4v7.2C200,478.4,182.4,496,160,496z M120,480h40c13.6,0,24-10.4,24-24l0,0
	v-6.4c0-4-1.6-8-4.8-11.2l-1.6-1.6c-5.6-6.4-9.6-14.4-9.6-22.4V305.6c0-4-1.6-8-4.8-11.2l-1.6-1.6c-3.2-3.2-7.2-4.8-11.2-4.8H120
	V480z"/>
<rect x="112" y="304" width="64" height="16"/>
<rect x="136" y="336" width="16" height="16"/>
<path style="fill:#7D828C;" d="M264,280v208h48c17.6,0,32-14.4,32-32v-6.4c0-6.4-2.4-12.8-7.2-16.8l-1.6-1.6
	c-4.8-4.8-7.2-10.4-7.2-16.8V305.6c0-6.4-2.4-12.8-7.2-16.8l-1.6-1.6c-4.8-4.8-10.4-7.2-16.8-7.2H264z"/>
<path d="M312,496h-48c-4.8,0-8-3.2-8-8V280c0-4.8,3.2-8,8-8h38.4c8.8,0,16.8,3.2,22.4,9.6l1.6,1.6c5.6,6.4,9.6,14.4,9.6,22.4v108
	c0,4,1.6,8,4.8,11.2l1.6,1.6c5.6,6.4,9.6,14.4,9.6,22.4v7.2C352,478.4,334.4,496,312,496z M272,480h40c13.6,0,24-10.4,24-24l0,0
	v-6.4c0-4-1.6-8-4.8-11.2l-1.6-1.6c-5.6-6.4-9.6-14.4-9.6-22.4V305.6c0-4-1.6-8-4.8-11.2l-1.6-1.6c-3.2-3.2-7.2-4.8-11.2-4.8H272
	V480z"/>
<rect x="264" y="304" width="64" height="16"/>
<rect x="288" y="336" width="16" height="16"/>
<path style="fill:#A4A5A6;" d="M192,248H96V112l10.4-10.4c24-24,37.6-56.8,37.6-90.4V8l10.4,10.4c24,24,37.6,56.8,37.6,90.4V248z"/>
<path d="M192,256H96c-4.8,0-8-3.2-8-8V112c0-2.4,0.8-4,2.4-5.6L100.8,96C123.2,73.6,136,43.2,136,11.2V8c0-4.8,3.2-8,8-8
	c2.4,0,4,0.8,5.6,2.4L160,12.8c25.6,25.6,40,60,40,96V248C200,252.8,196.8,256,192,256z M104,240h80V108.8c0-30.4-12-60-32.8-82.4
	c-3.2,30.4-16.8,59.2-39.2,80.8l-8,8V240z"/>
<path d="M168,248h-16V104.8c0-19.2-7.2-37.6-20.8-51.2l-0.8-0.8l11.2-11.2l0.8,0.8c16.8,16.8,25.6,39.2,25.6,62.4V248z"/>
<rect x="104" y="248" width="16" height="32"/>
<rect x="152" y="248" width="16" height="32"/>
<path style="fill:#A4A5A6;" d="M248,8L248,8c84,0,152,68,152,152v88l0,0H248l0,0V8L248,8z"/>
<path d="M400,256H248c-4.8,0-8-3.2-8-8V8c0-4.8,3.2-8,8-8c88,0,160,72,160,160v88C408,252.8,404.8,256,400,256z M256,240h136v-80
	c0-76-60-139.2-136-144V240z"/>
<path d="M376,248h-16v-88c0-61.6-50.4-112-112-112V32c70.4,0,128,57.6,128,128V248z"/>
<rect x="256" y="248" width="16" height="32"/>
<rect x="304" y="248" width="16" height="32"/>
<rect x="112" y="248" style="fill:#5C6373;" width="48" height="32"/>
<path d="M160,288h-48c-4.8,0-8-3.2-8-8v-32c0-4.8,3.2-8,8-8h48c4.8,0,8,3.2,8,8v32C168,284.8,164.8,288,160,288z M120,272h32v-16
	h-32V272z"/>
<rect x="264" y="248" style="fill:#5C6373;" width="48" height="32"/>
<path d="M312,288h-48c-4.8,0-8-3.2-8-8v-32c0-4.8,3.2-8,8-8h48c4.8,0,8,3.2,8,8v32C320,284.8,316.8,288,312,288z M272,272h32v-16
	h-32V272z"/>
<g>
</g>
<g>
</g>
<g>
</g>
<g>
</g>
<g>
</g>
<g>
</g>
<g>
</g>
<g>
</g>
<g>
</g>
<g>
</g>
<g>
</g>
<g>
</g>
<g>
</g>
<g>
</g>
<g>
</g>
</svg>
