<?xml version="1.0" encoding="iso-8859-1"?>
<!-- Generator: Adobe Illustrator 19.0.0, SVG Export Plug-In . SVG Version: 6.00 Build 0)  -->
<svg version="1.1" id="Capa_1" xmlns="http://www.w3.org/2000/svg" xmlns:xlink="http://www.w3.org/1999/xlink" x="0px" y="0px"
	 viewBox="0 0 496.8 496.8" style="enable-background:new 0 0 496.8 496.8;" xml:space="preserve">
<path style="fill:#DFA738;" d="M304.4,80.8c13.6,0,24-10.4,24-24s-10.4-24-24-24s-24,10.4-24,24"/>
<path d="M304.4,88.8v-16c8.8,0,16-7.2,16-16s-7.2-16-16-16s-16,7.2-16,16h-16c0-17.6,14.4-32,32-32s32,14.4,32,32
	S322,88.8,304.4,88.8z"/>
<path style="fill:#406928;" d="M54,208.8c-15.2-27.2-22.4-57.6-21.6-88c0-61.6,24.8-112,56-112s56,50.4,56,112
	c0.8,27.2-4.8,55.2-16.8,80"/>
<path d="M46.8,212.8c-14.4-22.4-22.4-56-22.4-92c0-67.2,28-120,64-120s64,52.8,64,120c0.8,28.8-5.6,57.6-17.6,84l-14.4-8
	c11.2-24,16.8-50.4,16-76c0-62.4-24.8-104-48-104s-48,41.6-48,104c0,32.8,7.2,63.2,20,84L46.8,212.8z"/>
<path style="fill:#406928;" d="M442.8,208.8c15.2-27.2,22.4-57.6,21.6-88c0-61.6-24.8-112-56-112s-56,50.4-56,112
	c-0.8,27.2,4.8,55.2,16.8,80"/>
<path d="M450,212.8l-13.6-8.8c12.8-20,20-50.4,20-83.2c0-62.4-24.8-104-48-104s-48,41.6-48,104c-0.8,26.4,4.8,52.8,16,76L362,204
	c-12-26.4-18.4-54.4-17.6-84c0-67.2,28-120,64-120s64,52.8,64,120C472.4,156.8,464.4,190.4,450,212.8z"/>
<polyline style="fill:#737272;" points="208.4,384.8 168.4,488.8 328.4,488.8 288.4,384.8 "/>
<path d="M328.4,496.8h-160c-4.8,0-8-3.2-8-8c0-0.8,0-1.6,0.8-3.2l40-104l15.2,5.6l-36,93.6h136.8l-36-92.8l15.2-5.6l40,104
	c1.6,4-0.8,8.8-4.8,10.4C330,496.8,329.2,496.8,328.4,496.8z"/>
<rect x="240.4" y="384.8" width="16" height="16"/>
<rect x="240.4" y="416.8" width="16" height="16"/>
<rect x="240.4" y="448.8" width="16" height="16"/>
<rect x="8.4" y="456.8" style="fill:#614735;" width="128" height="32"/>
<path d="M136.4,496.8H8.4c-4.8,0-8-3.2-8-8v-32c0-4.8,3.2-8,8-8h128c4.8,0,8,3.2,8,8v32C144.4,493.6,141.2,496.8,136.4,496.8z
	 M16.4,480.8h112v-16h-112V480.8z"/>
<path style="fill:#406928;" d="M112.4,456.8c13.6,0,24-10.4,24-24c0-13.6-10.4-24-24-24c-6.4,0-12,2.4-16.8,6.4
	c-0.8-12.8-12-23.2-25.6-22.4c-12,0.8-21.6,10.4-22.4,22.4c-9.6-8.8-24.8-8.8-33.6,1.6c-8.8,9.6-8.8,24.8,1.6,33.6
	c4.8,4,10.4,6.4,16.8,6.4H112.4z"/>
<path d="M112.4,464.8h-80c-17.6,0-32-14.4-32-32c0-17.6,14.4-32,32-32c4,0,8,0.8,11.2,2.4c7.2-16,26.4-22.4,42.4-15.2
	c6.4,3.2,12,8.8,15.2,15.2c3.2-1.6,7.2-2.4,11.2-2.4c17.6,0,32,14.4,32,32C144.4,450.4,130,464.8,112.4,464.8z M32.4,416.8
	c-8.8,0-16,7.2-16,16s7.2,16,16,16h80c8.8,0,16-7.2,16-16s-7.2-16-16-16c-4,0-8,1.6-11.2,4c-3.2,3.2-8,2.4-11.2-0.8
	c-1.6-1.6-1.6-3.2-2.4-4.8c-0.8-8.8-8-15.2-16.8-15.2c-8,0.8-14.4,7.2-15.2,15.2c0,4.8-4,8-8.8,7.2c-1.6,0-3.2-0.8-4.8-2.4
	C40.4,418.4,36.4,416.8,32.4,416.8z"/>
<polygon style="fill:#845F46;" points="80.4,488.8 112.4,456.8 64.4,456.8 32.4,488.8 "/>
<path d="M80.4,496.8h-48c-4.8,0-8-3.2-8-8c0-2.4,0.8-4,2.4-5.6l32-32c1.6-1.6,3.2-2.4,5.6-2.4h48c4.8,0,8,3.2,8,8
	c0,2.4-0.8,4-2.4,5.6l-32,32C84.4,496,82.8,496.8,80.4,496.8z M51.6,480.8h25.6l16-16H67.6L51.6,480.8z"/>
<rect x="360.4" y="456.8" style="fill:#614735;" width="128" height="32"/>
<path d="M488.4,496.8h-128c-4.8,0-8-3.2-8-8v-32c0-4.8,3.2-8,8-8h128c4.8,0,8,3.2,8,8v32C496.4,493.6,493.2,496.8,488.4,496.8z
	 M368.4,480.8h112v-16h-112V480.8z"/>
<path style="fill:#406928;" d="M464.4,456.8c13.6,0,24-10.4,24-24c0-13.6-10.4-24-24-24c-6.4,0-12,2.4-16.8,6.4
	c-0.8-12.8-12-23.2-25.6-22.4c-12,0.8-21.6,10.4-22.4,22.4c-9.6-8.8-24.8-8.8-33.6,1.6c-8.8,9.6-8.8,24.8,1.6,33.6
	c4.8,4,10.4,6.4,16.8,6.4H464.4z"/>
<path d="M464.4,464.8h-80c-17.6,0-32-14.4-32-32c0-17.6,14.4-32,32-32c4,0,8,0.8,11.2,2.4c7.2-16,26.4-22.4,42.4-15.2
	c6.4,3.2,12,8.8,15.2,15.2c3.2-1.6,7.2-2.4,11.2-2.4c17.6,0,32,14.4,32,32C496.4,450.4,482,464.8,464.4,464.8z M384.4,416.8
	c-8.8,0-16,7.2-16,16s7.2,16,16,16h80c8.8,0,16-7.2,16-16s-7.2-16-16-16c-4,0-8,1.6-11.2,4c-3.2,3.2-8,2.4-11.2-0.8
	c-1.6-1.6-1.6-3.2-2.4-4.8c-0.8-8.8-8-15.2-16.8-15.2c-8,0.8-14.4,7.2-15.2,15.2c0,4.8-4,8-8.8,7.2c-1.6,0-3.2-0.8-4.8-2.4
	C392.4,418.4,388.4,416.8,384.4,416.8z"/>
<polygon style="fill:#845F46;" points="432.4,488.8 464.4,456.8 416.4,456.8 384.4,488.8 "/>
<path d="M432.4,496.8h-48c-4.8,0-8-3.2-8-8c0-2.4,0.8-4,2.4-5.6l32-32c1.6-1.6,3.2-2.4,5.6-2.4h48c4.8,0,8,3.2,8,8
	c0,2.4-0.8,4-2.4,5.6l-32,32C436.4,496,434.8,496.8,432.4,496.8z M403.6,480.8h25.6l16-16h-25.6L403.6,480.8z"/>
<rect x="80.4" y="96.8" width="16" height="104"/>
<rect x="68.398" y="108.005" transform="matrix(-0.7071 0.7071 -0.7071 -0.7071 218.6692 159.0339)" width="16" height="33.6"/>
<rect x="83.603" y="148.798" transform="matrix(-0.7071 0.7071 -0.7071 -0.7071 282.2716 196.6745)" width="33.6" height="16"/>
<path style="fill:#BABDBF;" d="M296.4,96.8c8.8,0,16-7.2,16-16s-7.2-16-16-16c-3.2,0-6.4,0.8-8.8,2.4c-2.4-10.4-12-18.4-23.2-18.4
	c0-17.6-14.4-32-32-32s-32,14.4-32,32c0,0.8,0,0.8,0,1.6c-2.4-0.8-5.6-1.6-8-1.6c-13.6,0-24,10.4-24,24s10.4,24,24,24H296.4z"/>
<path d="M296.4,104.8h-104c-17.6,0-32-14.4-32-32s14.4-32,32-32h0.8c4-21.6,25.6-36,47.2-31.2c16,3.2,28.8,16,31.2,32
	c8.8,2.4,16,8,20.8,15.2c1.6,0,2.4,0,4,0c13.6,0,24,10.4,24,24S310,104.8,296.4,104.8z M192.4,56.8c-8.8,0-16,7.2-16,16
	s7.2,16,16,16h104c4.8,0,8-3.2,8-8s-3.2-8-8-8c-1.6,0-3.2,0.8-4,1.6c-4,2.4-8.8,1.6-11.2-2.4c-0.8-0.8-0.8-1.6-1.6-3.2
	c-1.6-7.2-8-12-15.2-12c-4.8,0-8-3.2-8-8c0-13.6-10.4-24-24-24s-24,10.4-24,24v0.8c0,4.8-3.2,8-7.2,8.8c-0.8,0-2.4,0-3.2-0.8
	C196.4,56.8,194,56.8,192.4,56.8z"/>
<rect x="400.4" y="96.8" width="16" height="104"/>
<rect x="403.576" y="116.802" transform="matrix(-0.7071 0.7071 -0.7071 -0.7071 805.8753 -84.1997)" width="33.6" height="16"/>
<rect x="388.393" y="140" transform="matrix(-0.7071 0.7071 -0.7071 -0.7071 787.5591 -12.6177)" width="16" height="33.6"/>
<polyline style="fill:#BABDBF;" points="184.4,200.8 64.4,200.8 8.4,256.8 8.4,280.8 176.4,280.8 "/>
<path d="M176.4,288.8H8.4c-4.8,0-8-3.2-8-8v-24c0-2.4,0.8-4,2.4-5.6l56-56c1.6-1.6,3.2-2.4,5.6-2.4h120v16H67.6L16.4,260v12.8h160
	V288.8z"/>
<polyline style="fill:#BABDBF;" points="320.4,280.8 488.4,280.8 488.4,256.8 432.4,200.8 312.4,200.8 "/>
<path d="M488.4,288.8h-168v-16h160V260l-51.2-51.2H312.4v-16h120c2.4,0,4,0.8,5.6,2.4l56,56c1.6,1.6,2.4,3.2,2.4,5.6v24
	C496.4,285.6,493.2,288.8,488.4,288.8z"/>
<rect x="24.4" y="280.8" style="fill:#737272;" width="152" height="80"/>
<path d="M176.4,368.8h-152c-4.8,0-8-3.2-8-8v-80c0-4.8,3.2-8,8-8h152c4.8,0,8,3.2,8,8v80C184.4,365.6,181.2,368.8,176.4,368.8z
	 M32.4,352.8h136v-64h-136V352.8z"/>
<rect x="176.4" y="248.8" style="fill:#BABDBF;" width="144" height="112"/>
<path d="M320.4,368.8h-144c-4.8,0-8-3.2-8-8v-112c0-4.8,3.2-8,8-8h144c4.8,0,8,3.2,8,8v112C328.4,365.6,325.2,368.8,320.4,368.8z
	 M184.4,352.8h128v-96h-128V352.8z"/>
<polygon style="fill:#737272;" points="312.4,248.8 360.4,248.8 248.4,136.8 136.4,248.8 184.4,248.8 "/>
<path d="M360.4,256.8h-224c-4.8,0-8-3.2-8-8c0-2.4,0.8-4,2.4-5.6l112-112c3.2-3.2,8-3.2,11.2,0l112,112c3.2,3.2,3.2,8,0,11.2
	C364.4,256,362.8,256.8,360.4,256.8z M155.6,240.8h185.6L248.4,148L155.6,240.8z"/>
<rect x="224.4" y="296.8" style="fill:#D9D9D9;" width="48" height="64"/>
<path d="M272.4,368.8h-48c-4.8,0-8-3.2-8-8v-64c0-4.8,3.2-8,8-8h48c4.8,0,8,3.2,8,8v64C280.4,365.6,277.2,368.8,272.4,368.8z
	 M232.4,352.8h32v-48h-32V352.8z"/>
<polyline style="fill:#D9D9D9;" points="56.4,280.8 56.4,264.8 120.4,200.8 64.4,200.8 8.4,256.8 8.4,280.8 56.4,280.8 "/>
<path d="M56.4,288.8h-48c-4.8,0-8-3.2-8-8v-24c0-2.4,0.8-4,2.4-5.6l56-56c1.6-1.6,3.2-2.4,5.6-2.4h56c4.8,0,8,3.2,8,8
	c0,2.4-0.8,4-2.4,5.6L64.4,268v12.8C64.4,285.6,61.2,288.8,56.4,288.8z M16.4,272.8h32v-8c0-2.4,0.8-4,2.4-5.6l50.4-50.4H67.6
	L16.4,260V272.8z"/>
<polyline style="fill:#BABDBF;" points="88.4,280.8 88.4,312.8 136.4,312.8 136.4,280.8 "/>
<path d="M136.4,320.8h-48c-4.8,0-8-3.2-8-8v-32h16v24h32v-24h16v32C144.4,317.6,141.2,320.8,136.4,320.8z"/>
<rect x="320.4" y="280.8" style="fill:#737272;" width="152" height="80"/>
<path d="M472.4,368.8h-152c-4.8,0-8-3.2-8-8v-80c0-4.8,3.2-8,8-8h152c4.8,0,8,3.2,8,8v80C480.4,365.6,477.2,368.8,472.4,368.8z
	 M328.4,352.8h136v-64h-136V352.8z"/>
<rect x="440.4" y="280.8" style="fill:#BABDBF;" width="32" height="80"/>
<path d="M472.4,368.8h-32c-4.8,0-8-3.2-8-8v-80c0-4.8,3.2-8,8-8h32c4.8,0,8,3.2,8,8v80C480.4,365.6,477.2,368.8,472.4,368.8z
	 M448.4,352.8h16v-64h-16V352.8z"/>
<rect x="24.4" y="280.8" style="fill:#BABDBF;" width="32" height="80"/>
<path d="M56.4,368.8h-32c-4.8,0-8-3.2-8-8v-80c0-4.8,3.2-8,8-8h32c4.8,0,8,3.2,8,8v80C64.4,365.6,61.2,368.8,56.4,368.8z
	 M32.4,352.8h16v-64h-16V352.8z"/>
<polygon style="fill:#D9D9D9;" points="440.4,280.8 440.4,264.8 376.4,200.8 432.4,200.8 488.4,256.8 488.4,280.8 "/>
<path d="M488.4,288.8h-48c-4.8,0-8-3.2-8-8V268l-61.6-61.6c-3.2-3.2-3.2-8,0-11.2c1.6-1.6,3.2-2.4,5.6-2.4h56c2.4,0,4,0.8,5.6,2.4
	l56,56c1.6,1.6,2.4,3.2,2.4,5.6v24C496.4,285.6,493.2,288.8,488.4,288.8z M448.4,272.8h32V260l-51.2-51.2h-33.6l50.4,50.4
	c1.6,1.6,2.4,3.2,2.4,5.6L448.4,272.8L448.4,272.8z"/>
<rect x="360.4" y="280.8" style="fill:#BABDBF;" width="48" height="32"/>
<path d="M408.4,320.8h-48c-4.8,0-8-3.2-8-8v-32c0-4.8,3.2-8,8-8h48c4.8,0,8,3.2,8,8v32C416.4,317.6,413.2,320.8,408.4,320.8z
	 M368.4,304.8h32v-16h-32V304.8z"/>
<polyline style="fill:#D9D9D9;" points="320.4,328.8 320.4,360.8 272.4,360.8 272.4,328.8 320.4,328.8 "/>
<path d="M320.4,368.8h-48c-4.8,0-8-3.2-8-8v-32c0-4.8,3.2-8,8-8h48c4.8,0,8,3.2,8,8v32C328.4,365.6,325.2,368.8,320.4,368.8z
	 M280.4,352.8h32v-16h-32V352.8z"/>
<rect x="176.4" y="328.8" style="fill:#D9D9D9;" width="48" height="32"/>
<path d="M224.4,368.8h-48c-4.8,0-8-3.2-8-8v-32c0-4.8,3.2-8,8-8h48c4.8,0,8,3.2,8,8v32C232.4,365.6,229.2,368.8,224.4,368.8z
	 M184.4,352.8h32v-16h-32V352.8z"/>
<rect x="88.4" y="272.8" width="48" height="16"/>
<g>
</g>
<g>
</g>
<g>
</g>
<g>
</g>
<g>
</g>
<g>
</g>
<g>
</g>
<g>
</g>
<g>
</g>
<g>
</g>
<g>
</g>
<g>
</g>
<g>
</g>
<g>
</g>
<g>
</g>
</svg>
