<?xml version="1.0" encoding="iso-8859-1"?>
<!-- Generator: Adobe Illustrator 19.0.0, SVG Export Plug-In . SVG Version: 6.00 Build 0)  -->
<svg version="1.1" id="Capa_1" xmlns="http://www.w3.org/2000/svg" xmlns:xlink="http://www.w3.org/1999/xlink" x="0px" y="0px"
	 viewBox="0 0 496.325 496.325" style="enable-background:new 0 0 496.325 496.325;" xml:space="preserve">
<circle style="fill:#F48827;" cx="328.325" cy="168.163" r="160"/>
<circle style="fill:#FFFFFF;" cx="328.325" cy="168.163" r="128"/>
<circle style="fill:#789DC3;" cx="168.325" cy="328.163" r="160"/>
<path d="M168.325,496.163c-92.8,0-168-75.2-168-168c0-57.6,29.6-111.2,78.4-142.4l8.8,13.6c-71.2,44.8-92,138.4-47.2,208.8
	s138.4,92,208.8,47.2s91.2-137.6,47.2-208.8c-35.2-56.8-104-83.2-168-64.8l-4-15.2c89.6-24.8,181.6,28,206.4,117.6
	s-28,181.6-117.6,206.4C197.925,493.763,183.525,496.163,168.325,496.163z"/>
<path d="M328.325,336.163v-16c84,0,152-68,152-152s-68-152-152-152s-152,68-152,152h-16c0-92.8,75.2-168,168-168s168,75.2,168,168
	S421.125,336.163,328.325,336.163z"/>
<path d="M328.325,304.163v-16c66.4,0,120-53.6,120-120s-53.6-120-120-120s-120,53.6-120,120h-16c0-75.2,60.8-136,136-136
	s136,60.8,136,136S403.525,304.163,328.325,304.163z"/>
<path style="fill:#42A24F;" d="M168.325,352.163l-16-16h-24l-24-24v-24l-24-24h-24l-16,16h-24.8c-17.6,56-3.2,117.6,38.4,160h18.4
	l16-16v-24l16-16h24l16,16l24-24V352.163z"/>
<path d="M72.325,448.163h-18.4c-2.4,0-4-0.8-5.6-2.4c-43.2-44-59.2-108.8-40.8-168c0.8-3.2,4-5.6,8-5.6h21.6l13.6-13.6
	c1.6-1.6,3.2-2.4,5.6-2.4h24c2.4,0,4,0.8,5.6,2.4l24,24c1.6,1.6,2.4,3.2,2.4,5.6v20.8l19.2,19.2h20.8c2.4,0,4,0.8,5.6,2.4l16,16
	c1.6,1.6,2.4,3.2,2.4,5.6v24c0,2.4-0.8,4-2.4,5.6l-24,24c-3.2,3.2-8,3.2-11.2,0l-13.6-13.6h-17.6l-11.2,11.2v20.8
	c0,2.4-0.8,4-2.4,5.6l-16,16C76.325,447.363,74.725,448.163,72.325,448.163z M57.925,432.163h11.2l11.2-11.2v-20.8
	c0-2.4,0.8-4,2.4-5.6l16-16c1.6-1.6,3.2-2.4,5.6-2.4h24c2.4,0,4,0.8,5.6,2.4l10.4,10.4l16-16v-17.6l-11.2-11.2h-20.8
	c-2.4,0-4-0.8-5.6-2.4l-24-24c-1.6-1.6-2.4-3.2-2.4-5.6v-20.8l-19.2-19.2h-17.6l-13.6,13.6c-1.6,1.6-3.2,2.4-5.6,2.4h-18.4
	C7.525,339.363,21.125,393.763,57.925,432.163z"/>
<path style="fill:#42A24F;" d="M288.325,222.563c-30.4-34.4-74.4-54.4-120-54.4c-5.6,0-10.4,0-16,0.8v23.2l16,16v16l-16,16l24,24h24
	l16-16h16l16,16h24l16-16V222.563z"/>
<path d="M272.325,272.163h-24c-2.4,0-4-0.8-5.6-2.4l-13.6-13.6h-9.6l-13.6,13.6c-1.6,1.6-3.2,2.4-5.6,2.4h-24c-2.4,0-4-0.8-5.6-2.4
	l-24-24c-3.2-3.2-3.2-8,0-11.2l13.6-13.6v-9.6l-13.6-13.6c-1.6-1.6-2.4-3.2-2.4-5.6v-23.2c0-4,3.2-7.2,7.2-8
	c5.6-0.8,11.2-0.8,16.8-0.8c48,0,94.4,20.8,126.4,56.8c1.6,1.6,2.4,3.2,2.4,5.6v25.6c0,2.4-0.8,4-2.4,5.6l-16,16
	C276.325,271.363,274.725,272.163,272.325,272.163z M251.525,256.163h17.6l11.2-11.2v-19.2c-28.8-31.2-69.6-49.6-112-49.6
	c-2.4,0-5.6,0-8,0v12.8l13.6,13.6c1.6,1.6,2.4,3.2,2.4,5.6v16c0,2.4-0.8,4-2.4,5.6l-10.4,10.4l16,16h17.6l13.6-13.6
	c1.6-1.6,3.2-2.4,5.6-2.4h16c2.4,0,4,0.8,5.6,2.4L251.525,256.163z"/>
<path style="fill:#42A24F;" d="M296.325,424.163c20.8-28,32-61.6,32-96c0-5.6,0-10.4-0.8-16h-31.2l-16,16h-16l-16,16v16l16,16v16
	l16,16v16H296.325z"/>
<path d="M296.325,432.163h-16c-4.8,0-8-3.2-8-8v-12.8l-13.6-13.6c-1.6-1.6-2.4-3.2-2.4-5.6v-12.8l-13.6-13.6
	c-1.6-1.6-2.4-3.2-2.4-5.6v-16c0-2.4,0.8-4,2.4-5.6l16-16c1.6-1.6,3.2-2.4,5.6-2.4h12.8l13.6-13.6c1.6-1.6,3.2-2.4,5.6-2.4h31.2
	c4,0,7.2,3.2,8,7.2c0.8,5.6,0.8,11.2,0.8,16.8c0,36-12,72-33.6,100.8C301.125,431.363,298.725,432.163,296.325,432.163z
	 M288.325,416.163h4c18.4-25.6,28-56.8,28-88c0-2.4,0-5.6,0-8h-20.8l-13.6,13.6c-1.6,1.6-3.2,2.4-5.6,2.4h-12.8l-11.2,11.2v9.6
	l13.6,13.6c1.6,1.6,2.4,3.2,2.4,5.6v12.8l13.6,13.6c1.6,1.6,2.4,3.2,2.4,5.6V416.163z"/>
<polygon style="fill:#42A24F;" points="160.325,432.163 176.325,416.163 192.325,416.163 208.325,400.163 224.325,400.163 
	240.325,416.163 240.325,432.163 224.325,448.163 176.325,448.163 "/>
<path d="M224.325,456.163h-48c-2.4,0-4-0.8-5.6-2.4l-16-16c-3.2-3.2-3.2-8,0-11.2l16-16c1.6-1.6,3.2-2.4,5.6-2.4h12.8l13.6-13.6
	c1.6-1.6,3.2-2.4,5.6-2.4h16c2.4,0,4,0.8,5.6,2.4l16,16c1.6,1.6,2.4,3.2,2.4,5.6v16c0,2.4-0.8,4-2.4,5.6l-16,16
	C228.325,455.363,226.725,456.163,224.325,456.163z M179.525,440.163h41.6l11.2-11.2v-9.6l-11.2-11.2h-9.6l-13.6,13.6
	c-1.6,1.6-3.2,2.4-5.6,2.4h-12.8l-8,8L179.525,440.163z"/>
<polygon style="fill:#42A24F;" points="176.325,296.163 200.325,296.163 216.325,312.163 216.325,328.163 192.325,328.163 
	176.325,312.163 "/>
<path d="M216.325,336.163h-24c-2.4,0-4-0.8-5.6-2.4l-16-16c-1.6-1.6-2.4-3.2-2.4-5.6v-16c0-4.8,3.2-8,8-8h24c2.4,0,4,0.8,5.6,2.4
	l16,16c1.6,1.6,2.4,3.2,2.4,5.6v16C224.325,332.963,221.125,336.163,216.325,336.163z M195.525,320.163h12.8v-4.8l-11.2-11.2h-12.8
	v4.8L195.525,320.163z"/>
<path d="M90.725,349.763l-13.6-13.6h-12.8c-2.4,0-4-0.8-5.6-2.4l-13.6-13.6h-12.8v-16h16c2.4,0,4,0.8,5.6,2.4l13.6,13.6h12.8
	c2.4,0,4,0.8,5.6,2.4l16,16L90.725,349.763z"/>
<polygon style="fill:#F48827;" points="336.325,136.163 296.325,176.163 256.325,96.163 "/>
<path d="M296.325,184.163c-0.8,0-0.8,0-1.6,0c-2.4-0.8-4.8-2.4-5.6-4l-40-80c-1.6-4,0-8.8,3.2-10.4c2.4-0.8,4.8-0.8,7.2,0l80,40
	c4,1.6,5.6,6.4,3.2,10.4c0,0.8-0.8,1.6-1.6,2.4l-40,40C300.325,183.363,298.725,184.163,296.325,184.163z M273.925,113.763l24,48.8
	l24-24L273.925,113.763z"/>
<polygon style="fill:#F48827;" points="320.325,200.163 360.325,160.163 400.325,240.163 "/>
<path d="M400.325,248.163c-1.6,0-2.4,0-3.2-0.8l-80-40c-4-1.6-5.6-6.4-3.2-10.4c0-0.8,0.8-1.6,1.6-2.4l40-40c3.2-3.2,8-3.2,11.2,0
	c0.8,0.8,0.8,1.6,1.6,2.4l40,80c1.6,4,0,8.8-4,10.4C402.725,248.163,401.925,248.163,400.325,248.163z M333.925,197.763l48.8,24
	l-24-48.8L333.925,197.763z"/>
<rect x="320.325" y="40.163" width="16" height="24"/>
<rect x="432.325" y="160.163" width="24" height="16"/>
<rect x="397.121" y="80.131" transform="matrix(-0.7071 0.7071 -0.7071 -0.7071 759.3643 -138.2777)" width="22.4" height="16"/>
<rect x="311.521" y="151.347" transform="matrix(-0.7071 0.7071 -0.7071 -0.7071 679.3757 54.8866)" style="fill:#858486;" width="33.6" height="33.6"/>
<path d="M328.325,200.163c-2.4,0-4-0.8-5.6-2.4l-24-24c-3.2-3.2-3.2-8,0-11.2l24-24c3.2-3.2,8-3.2,11.2,0l24,24
	c3.2,3.2,3.2,8,0,11.2l-24,24C332.325,199.363,330.725,200.163,328.325,200.163z M315.525,168.163l12.8,12.8l12.8-12.8l-12.8-12.8
	L315.525,168.163z"/>
<path style="fill:#D94A56;" d="M144.325,131.363v-1.6c0.8-24.8-17.6-46.4-42.4-49.6c-26.4-3.2-50.4,16-53.6,42.4c0,1.6,0,4,0,5.6
	v3.2c0,13.6,4.8,26.4,13.6,36.8l34.4,40l34.4-40C139.525,157.763,144.325,144.963,144.325,131.363z"/>
<path d="M96.325,216.163c-2.4,0-4.8-0.8-6.4-3.2l-34.4-40c-9.6-11.2-15.2-26.4-15.2-41.6v-3.2c0-31.2,24.8-56,56-56
	c2.4,0,4.8,0,6.4,0.8c28.8,4,49.6,28.8,49.6,57.6v1.6c0,15.2-5.6,30.4-15.2,41.6l-34.4,40
	C101.125,215.363,98.725,216.163,96.325,216.163z M96.325,88.163c-9.6,0-19.2,3.2-26.4,10.4c-8.8,7.2-13.6,18.4-13.6,29.6v3.2
	c0,11.2,4,22.4,11.2,31.2l28.8,32.8l28.8-32.8c7.2-8.8,11.2-20,11.2-31.2v-1.6c0-20.8-14.4-38.4-35.2-41.6
	C99.525,88.163,97.925,88.163,96.325,88.163z"/>
<circle style="fill:#FFFFFF;" cx="96.325" cy="128.163" r="16"/>
<path d="M96.325,152.163c-13.6,0-24-10.4-24-24s10.4-24,24-24s24,10.4,24,24S109.925,152.163,96.325,152.163z M96.325,120.163
	c-4.8,0-8,3.2-8,8s3.2,8,8,8s8-3.2,8-8S101.125,120.163,96.325,120.163z"/>
<g>
</g>
<g>
</g>
<g>
</g>
<g>
</g>
<g>
</g>
<g>
</g>
<g>
</g>
<g>
</g>
<g>
</g>
<g>
</g>
<g>
</g>
<g>
</g>
<g>
</g>
<g>
</g>
<g>
</g>
</svg>
