<?xml version="1.0" encoding="iso-8859-1"?>
<!-- Generator: Adobe Illustrator 19.0.0, SVG Export Plug-In . SVG Version: 6.00 Build 0)  -->
<svg version="1.1" id="Capa_1" xmlns="http://www.w3.org/2000/svg" xmlns:xlink="http://www.w3.org/1999/xlink" x="0px" y="0px"
	 viewBox="0 0 496 496" style="enable-background:new 0 0 496 496;" xml:space="preserve">
<path style="fill:#4F4D4F;" d="M80,432l-27.2,27.2c-3.2,3.2-4.8,7.2-4.8,11.2v1.6c0,8.8,7.2,16,16,16h1.6c4,0,8-1.6,11.2-4.8
	L104,456"/>
<path d="M65.6,496H64c-13.6,0-24-10.4-24-24v-1.6c0-6.4,2.4-12.8,7.2-16.8l27.2-27.2l11.2,11.2l-27.2,27.2c-1.6,1.6-2.4,4-2.4,5.6
	v1.6c0,4.8,3.2,8,8,8h1.6c2.4,0,4-0.8,5.6-2.4l27.2-27.2l11.2,11.2l-27.2,27.2C77.6,493.6,72,496,65.6,496z"/>
<path style="fill:#4F4D4F;" d="M416,432l27.2,27.2c3.2,3.2,4.8,7.2,4.8,11.2v1.6c0,8.8-7.2,16-16,16h-1.6c-4,0-8-1.6-11.2-4.8
	L392,456"/>
<path d="M432,496h-1.6c-6.4,0-12.8-2.4-16.8-7.2l-27.2-27.2l11.2-11.2l27.2,27.2c1.6,1.6,3.2,2.4,5.6,2.4h1.6c4.8,0,8-3.2,8-8v-1.6
	c0-2.4-0.8-4-2.4-5.6l-27.2-27.2l11.2-11.2l27.2,27.2c4.8,4.8,7.2,10.4,7.2,16.8v1.6C456,485.6,445.6,496,432,496z"/>
<polyline style="fill:#858486;" points="104,392 72,424 112,464 144,432 "/>
<path d="M112,472c-2.4,0-4-0.8-5.6-2.4l-40-40c-3.2-3.2-3.2-8,0-11.2l32-32l11.2,11.2L83.2,424l28.8,28.8l26.4-26.4l11.2,11.2
	l-32,32C116,471.2,114.4,472,112,472z"/>
<polyline style="fill:#858486;" points="392,392 424,424 384,464 352,432 "/>
<path d="M384,472c-2.4,0-4-0.8-5.6-2.4l-32-32l11.2-11.2l26.4,26.4l28.8-28.8l-26.4-26.4l11.2-11.2l32,32c3.2,3.2,3.2,8,0,11.2
	l-40,40C388,471.2,386.4,472,384,472z"/>
<path style="fill:#789DC3;" d="M32,104L12.8,84.8C9.6,81.6,8,77.6,8,73.6V72c0-8.8,7.2-16,16-16h1.6c4,0,8,1.6,11.2,4.8L56,80"/>
<path d="M26.4,109.6L7.2,90.4C2.4,85.6,0,80,0,73.6V72c0-13.6,10.4-24,24-24h1.6c6.4,0,12,2.4,16.8,7.2l19.2,19.2L50.4,85.6
	L31.2,66.4c-1.6-1.6-4-2.4-5.6-2.4H24c-4.8,0-8,3.2-8,8v1.6c0,2.4,0.8,4,2.4,5.6l19.2,19.2L26.4,109.6z"/>
<path style="fill:#789DC3;" d="M464,104l19.2-19.2c3.2-3.2,4.8-7.2,4.8-11.2V72c0-8.8-7.2-16-16-16h-1.6c-4,0-8,1.6-11.2,4.8L440,80
	"/>
<path d="M469.6,109.6l-11.2-11.2l19.2-19.2c1.6-1.6,2.4-3.2,2.4-5.6V72c0-4.8-3.2-8-8-8h-1.6c-2.4,0-4,0.8-5.6,2.4l-19.2,19.2
	l-11.2-11.2l19.2-19.2c4.8-4.8,10.4-7.2,16.8-7.2h1.6c13.6,0,24,10.4,24,24v1.6c0,6.4-2.4,12.8-7.2,16.8L469.6,109.6z"/>
<polyline style="fill:#858486;" points="104,192 80,168 120,128 144,152 "/>
<path d="M98.4,197.6l-24-24c-3.2-3.2-3.2-8,0-11.2l40-40c3.2-3.2,8-3.2,11.2,0l24,24l-11.2,11.2L120,139.2L91.2,168l18.4,18.4
	L98.4,197.6z"/>
<polyline style="fill:#858486;" points="392,192 416,168 376,128 352,152 "/>
<path d="M397.6,197.6l-11.2-11.2l18.4-18.4L376,139.2l-18.4,18.4l-11.2-11.2l24-24c3.2-3.2,8-3.2,11.2,0l40,40c3.2,3.2,3.2,8,0,11.2
	L397.6,197.6z"/>
<circle style="fill:#46709C;" cx="248" cy="296" r="176"/>
<path d="M248,480c-101.6,0-184-82.4-184-184s82.4-184,184-184s184,82.4,184,184S349.6,480,248,480z M248,128
	c-92.8,0-168,75.2-168,168s75.2,168,168,168s168-75.2,168-168S340.8,128,248,128z"/>
<circle style="fill:#789DC3;" cx="248" cy="296" r="144"/>
<path d="M248,448c-84,0-152-68-152-152s68-152,152-152s152,68,152,152S332,448,248,448z M248,160c-75.2,0-136,60.8-136,136
	s60.8,136,136,136s136-60.8,136-136S323.2,160,248,160z"/>
<path style="fill:#D94A56;" d="M152,96l-25.6-25.6C116.8,60.8,104.8,56,92,56l0,0c-12.8,0-24.8,4.8-33.6,14.4l-36,36
	C12.8,115.2,8,127.2,8,140l0,0c0,12.8,4.8,24.8,14.4,33.6L48,200L152,96z"/>
<path d="M48,208L48,208c-2.4,0-4-0.8-5.6-2.4L16.8,180c-21.6-21.6-21.6-57.6,0-79.2l36-36c21.6-21.6,57.6-21.6,79.2,0l25.6,25.6
	c3.2,3.2,3.2,8,0,11.2l-104,104C52,207.2,50.4,208,48,208z M92,64c-10.4,0-20.8,4-28.8,12l-36,36c-16,16-16,40.8,0,56.8l20.8,20
	L140.8,96l-20-20C112.8,68,102.4,64,92,64z"/>
<rect x="2.406" y="115.997" transform="matrix(-0.7071 0.7071 -0.7071 -0.7071 217.4286 157.9317)" width="147.199" height="16"/>
<path style="fill:#D94A56;" d="M344,96l25.6-25.6C379.2,60.8,391.2,56,404,56l0,0c12.8,0,24.8,4.8,33.6,14.4l36,36
	c8.8,8.8,14.4,21.6,14.4,33.6l0,0c0,12.8-4.8,24.8-14.4,33.6L448,200L344,96z"/>
<path d="M448,208c-2.4,0-4-0.8-5.6-2.4l-104-104c-3.2-3.2-3.2-8,0-11.2L364,64.8c21.6-21.6,57.6-21.6,79.2,0l36,36
	c21.6,21.6,21.6,57.6,0,79.2l-25.6,25.6C452,207.2,450.4,208,448,208z M355.2,96l92.8,92.8l20-20c16-16,16-40.8,0-56.8l-36-36
	c-16-16-40.8-16-56.8,0L355.2,96z"/>
<rect x="411.976" y="50.411" transform="matrix(-0.7071 0.7071 -0.7071 -0.7071 804.6324 -85.2688)" width="16" height="147.199"/>
<path d="M416,56h-16c0-22.4-17.6-40-40-40H136c-22.4,0-40,17.6-40,40H80c0-31.2,24.8-56,56-56h224C391.2,0,416,24.8,416,56z"/>
<rect x="240" y="152" width="16" height="40"/>
<rect x="240" y="400" width="16" height="40"/>
<rect x="352" y="288" width="40" height="16"/>
<rect x="104" y="288" width="40" height="16"/>
<rect x="147.998" y="187.205" transform="matrix(-0.7071 0.7071 -0.7071 -0.7071 410.5577 237.951)" width="16" height="33.6"/>
<rect x="331.994" y="371.221" transform="matrix(-0.7071 0.7071 -0.7071 -0.7071 854.7789 421.9806)" width="16" height="33.6"/>
<rect x="139.2" y="379.999" transform="matrix(-0.7071 0.7071 -0.7071 -0.7071 540.6655 552.0474)" width="33.6" height="16"/>
<rect x="323.2" y="196.002" transform="matrix(-0.7071 0.7071 -0.7071 -0.7071 724.6678 107.8376)" width="33.6" height="16"/>
<circle style="fill:#FEC135;" cx="248" cy="296" r="16"/>
<path d="M248,320c-13.6,0-24-10.4-24-24s10.4-24,24-24s24,10.4,24,24S261.6,320,248,320z M248,288c-4.8,0-8,3.2-8,8s3.2,8,8,8
	c4.8,0,8-3.2,8-8S252.8,288,248,288z"/>
<rect x="240" y="208" width="16" height="72"/>
<rect x="224" y="224" width="48" height="16"/>
<rect x="264" y="288" width="56" height="16"/>
<rect x="288" y="272" width="16" height="48"/>
<rect x="240" y="312" width="16" height="72"/>
<rect x="152" y="8" style="fill:#858486;" width="192" height="32"/>
<path d="M344,48H152c-4.8,0-8-3.2-8-8V8c0-4.8,3.2-8,8-8h192c4.8,0,8,3.2,8,8v32C352,44.8,348.8,48,344,48z M160,32h176V16H160V32z"
	/>
<rect x="176" y="8" width="16" height="32"/>
<rect x="304" y="8" width="16" height="32"/>
<g>
</g>
<g>
</g>
<g>
</g>
<g>
</g>
<g>
</g>
<g>
</g>
<g>
</g>
<g>
</g>
<g>
</g>
<g>
</g>
<g>
</g>
<g>
</g>
<g>
</g>
<g>
</g>
<g>
</g>
</svg>
