<?xml version="1.0" encoding="iso-8859-1"?>
<!-- Generator: Adobe Illustrator 19.0.0, SVG Export Plug-In . SVG Version: 6.00 Build 0)  -->
<svg version="1.1" id="Capa_1" xmlns="http://www.w3.org/2000/svg" xmlns:xlink="http://www.w3.org/1999/xlink" x="0px" y="0px"
	 viewBox="0 0 496 496" style="enable-background:new 0 0 496 496;" xml:space="preserve">
<path style="fill:#BFBD9F;" d="M200,192v-71.2c0-21.6,8.8-41.6,23.2-56.8L248,40h192v368H248"/>
<path d="M440,416H248v-16h184V48H251.2l-22.4,22.4c-13.6,13.6-20.8,32-20.8,51.2V192h-16v-71.2c0-23.2,9.6-45.6,25.6-62.4l24.8-24.8
	c1.6-0.8,3.2-1.6,5.6-1.6h192c4.8,0,8,3.2,8,8v368C448,412.8,444.8,416,440,416z"/>
<path style="fill:#778C7A;" d="M280,408V119.2c0-9.6-2.4-19.2-6.4-28l-25.6-52V8h192v31.2l24.8,24C480,77.6,488,97.6,488,118.4V408
	H248"/>
<path d="M488,416H248v-16h24V119.2c0-8.8-1.6-16.8-5.6-24.8l-25.6-51.2c-0.8-1.6-0.8-3.2-0.8-4V8c0-4.8,3.2-8,8-8h192
	c4.8,0,8,3.2,8,8v28l22.4,21.6c16.8,16,25.6,37.6,25.6,60.8V408C496,412.8,492.8,416,488,416z M288,400h192V118.4
	c0-18.4-7.2-36-20.8-49.6l-24.8-24c-1.6-1.6-2.4-3.2-2.4-5.6V16H256v21.6l24.8,49.6c4.8,9.6,7.2,20.8,7.2,32V400z"/>
<path style="fill:#778C7A;" d="M248,216v240c0,17.6-53.6,32-120,32S8,473.6,8,456V216"/>
<path d="M128,496C66.4,496,0,483.2,0,456V216h16v240c0,7.2,38.4,24,112,24s112-16.8,112-24V216h16v240C256,483.2,189.6,496,128,496z
	"/>
<ellipse style="fill:#BFBD9F;" cx="128" cy="216" rx="120" ry="32"/>
<path d="M128,256C66.4,256,0,243.2,0,216s66.4-40,128-40s128,12.8,128,40S189.6,256,128,256z M128,192c-73.6,0-112,16.8-112,24
	s38.4,24,112,24s112-16.8,112-24S201.6,192,128,192z"/>
<path d="M128,288v-16c73.6,0,112-16.8,112-24h16C256,275.2,189.6,288,128,288z"/>
<path d="M128,464C66.4,464,0,451.2,0,424h16c0,7.2,38.4,24,112,24V464z"/>
<rect x="328" y="136" style="fill:#BFBD9F;" width="128" height="160"/>
<path d="M456,304H328c-4.8,0-8-3.2-8-8V136c0-4.8,3.2-8,8-8h128c4.8,0,8,3.2,8,8v160C464,300.8,460.8,304,456,304z M336,288h112V144
	H336V288z"/>
<rect x="264" y="64" width="208" height="16"/>
<rect x="280" y="368" width="208" height="16"/>
<rect x="328" y="160" width="128" height="16"/>
<rect x="104" y="208" width="48" height="16"/>
<circle style="fill:#BFBD9F;" cx="128" cy="368" r="56"/>
<path d="M128,432c-35.2,0-64-28.8-64-64s28.8-64,64-64s64,28.8,64,64S163.2,432,128,432z M128,320c-26.4,0-48,21.6-48,48
	s21.6,48,48,48s48-21.6,48-48S154.4,320,128,320z"/>
<rect x="248" y="32" width="192" height="16"/>
<g>
</g>
<g>
</g>
<g>
</g>
<g>
</g>
<g>
</g>
<g>
</g>
<g>
</g>
<g>
</g>
<g>
</g>
<g>
</g>
<g>
</g>
<g>
</g>
<g>
</g>
<g>
</g>
<g>
</g>
</svg>
