<?xml version="1.0" encoding="iso-8859-1"?>
<!-- Generator: Adobe Illustrator 19.0.0, SVG Export Plug-In . SVG Version: 6.00 Build 0)  -->
<svg version="1.1" id="Capa_1" xmlns="http://www.w3.org/2000/svg" xmlns:xlink="http://www.w3.org/1999/xlink" x="0px" y="0px"
	 viewBox="0 0 496 496" style="enable-background:new 0 0 496 496;" xml:space="preserve">
<rect x="264" y="8" style="fill:#737272;" width="64" height="48"/>
<path d="M328,64h-64c-4.8,0-8-3.2-8-8V8c0-4.8,3.2-8,8-8h64c4.8,0,8,3.2,8,8v48C336,60.8,332.8,64,328,64z M272,48h48V16h-48V48z"/>
<polyline style="fill:#BABDBF;" points="264,184 488,184 488,56 171.2,56 "/>
<path d="M488,192H264v-16h216V64H171.2V48H488c4.8,0,8,3.2,8,8v128C496,188.8,492.8,192,488,192z"/>
<polyline style="fill:#737272;" points="8,184 136,8 264,184 "/>
<path d="M257.6,188.8L136,21.6L14.4,188.8l-12.8-9.6l128-176c3.2-3.2,8-4,12-1.6c0.8,0,0.8,0.8,1.6,1.6l128,176L257.6,188.8z"/>
<rect x="24" y="456" style="fill:#BABDBF;" width="448" height="32"/>
<path d="M472,496H24c-4.8,0-8-3.2-8-8v-32c0-4.8,3.2-8,8-8h448c4.8,0,8,3.2,8,8v32C480,492.8,476.8,496,472,496z M32,480h432v-16H32
	V480z"/>
<rect x="8" y="424" style="fill:#737272;" width="480" height="32"/>
<path d="M488,464H8c-4.8,0-8-3.2-8-8v-32c0-4.8,3.2-8,8-8h480c4.8,0,8,3.2,8,8v32C496,460.8,492.8,464,488,464z M16,448h464v-16H16
	V448z"/>
<rect x="8" y="184" style="fill:#737272;" width="256" height="240"/>
<path d="M264,432H8c-4.8,0-8-3.2-8-8V184c0-4.8,3.2-8,8-8h256c4.8,0,8,3.2,8,8v240C272,428.8,268.8,432,264,432z M16,416h240V192H16
	V416z"/>
<polyline style="fill:#BABDBF;" points="264,216 8,216 8,184 264,184 264,216 "/>
<path d="M264,224H8c-4.8,0-8-3.2-8-8v-32c0-4.8,3.2-8,8-8h256c4.8,0,8,3.2,8,8v32C272,220.8,268.8,224,264,224z M16,208h240v-16H16
	V208z"/>
<rect x="232" y="216" style="fill:#BABDBF;" width="32" height="208"/>
<path d="M264,432h-32c-4.8,0-8-3.2-8-8V216c0-4.8,3.2-8,8-8h32c4.8,0,8,3.2,8,8v208C272,428.8,268.8,432,264,432z M240,416h16V224
	h-16V416z"/>
<rect x="8" y="216" style="fill:#BABDBF;" width="32" height="208"/>
<path d="M40,432H8c-4.8,0-8-3.2-8-8V216c0-4.8,3.2-8,8-8h32c4.8,0,8,3.2,8,8v208C48,428.8,44.8,432,40,432z M16,416h16V224H16V416z"
	/>
<rect x="88" y="248" style="fill:#BABDBF;" width="96" height="176"/>
<path d="M184,432H88c-4.8,0-8-3.2-8-8V248c0-4.8,3.2-8,8-8h96c4.8,0,8,3.2,8,8v176C192,428.8,188.8,432,184,432z M96,416h80V256H96
	V416z"/>
<rect x="264" y="184" style="fill:#737272;" width="224" height="240"/>
<path d="M488,432H264c-4.8,0-8-3.2-8-8V184c0-4.8,3.2-8,8-8h224c4.8,0,8,3.2,8,8v240C496,428.8,492.8,432,488,432z M272,416h208V192
	H272V416z"/>
<rect x="296" y="248" style="fill:#BABDBF;" width="48" height="32"/>
<path d="M344,288h-48c-4.8,0-8-3.2-8-8v-32c0-4.8,3.2-8,8-8h48c4.8,0,8,3.2,8,8v32C352,284.8,348.8,288,344,288z M304,272h32v-16
	h-32V272z"/>
<rect x="408" y="248" style="fill:#BABDBF;" width="48" height="32"/>
<path d="M456,288h-48c-4.8,0-8-3.2-8-8v-32c0-4.8,3.2-8,8-8h48c4.8,0,8,3.2,8,8v32C464,284.8,460.8,288,456,288z M416,272h32v-16
	h-32V272z"/>
<rect x="288" y="304" width="176" height="16"/>
<g>
</g>
<g>
</g>
<g>
</g>
<g>
</g>
<g>
</g>
<g>
</g>
<g>
</g>
<g>
</g>
<g>
</g>
<g>
</g>
<g>
</g>
<g>
</g>
<g>
</g>
<g>
</g>
<g>
</g>
</svg>
