<?xml version="1.0" encoding="iso-8859-1"?>
<!-- Generator: Adobe Illustrator 19.0.0, SVG Export Plug-In . SVG Version: 6.00 Build 0)  -->
<svg version="1.1" id="Capa_1" xmlns="http://www.w3.org/2000/svg" xmlns:xlink="http://www.w3.org/1999/xlink" x="0px" y="0px"
	 viewBox="0 0 496 496" style="enable-background:new 0 0 496 496;" xml:space="preserve">
<polyline style="fill:#D94A56;" points="224,456 224,488 272,488 272,456 "/>
<path d="M272,496h-48c-4.8,0-8-3.2-8-8v-32h16v24h32v-24h16v32C280,492.8,276.8,496,272,496z"/>
<rect x="192" y="360" style="fill:#D94A56;" width="112" height="64"/>
<path d="M304,432H192c-4.8,0-8-3.2-8-8v-64c0-4.8,3.2-8,8-8h112c4.8,0,8,3.2,8,8v64C312,428.8,308.8,432,304,432z M200,416h96v-48
	h-96V416z"/>
<g>
	<path style="fill:#F48827;" d="M232,224V88c0-17.6-14.4-32-32-32c-14.4,0-27.2,9.6-31.2,24l0,0H168c-17.6,0-32,14.4-32,32
		s14.4,32,32,32c-26.4,0-48,21.6-48,48v32"/>
	<path style="fill:#F48827;" d="M264,224V88c0-17.6,14.4-32,32-32c14.4,0,27.2,9.6,31.2,24l0,0h0.8c17.6,0,32,14.4,32,32
		s-14.4,32-32,32c26.4,0,48,21.6,48,48v32"/>
</g>
<path style="fill:#789DC3;" d="M232,216H120c0,43.2,21.6,84,58.4,107.2c8.8,5.6,13.6,16,13.6,26.4V360h112v-10.4
	c0-10.4,4.8-20,13.6-26.4c36-23.2,58.4-64,58.4-107.2H264"/>
<path d="M304,368H192c-4.8,0-8-3.2-8-8v-10.4c0-8-4-15.2-10.4-19.2c-38.4-25.6-61.6-68-61.6-114.4c0-4.8,3.2-8,8-8h112v16H128
	c2.4,37.6,22.4,72,54.4,92.8c11.2,7.2,17.6,20,17.6,32.8v2.4h96v-2.4c0-13.6,6.4-25.6,17.6-32.8c32-20.8,52-54.4,54.4-92.8H264v-16
	h112c4.8,0,8,3.2,8,8c0,46.4-23.2,88.8-61.6,113.6c-6.4,4.8-10.4,12-10.4,19.2V360C312,364.8,308.8,368,304,368z"/>
<path d="M240,360h-16V88c0-13.6-10.4-24-24-24s-24,10.4-24,24h-16c0-22.4,17.6-40,40-40s40,17.6,40,40V360z"/>
<path d="M168,152c-22.4,0-40-17.6-40-40s17.6-40,40-40s40,17.6,40,40h-16c0-13.6-10.4-24-24-24s-24,10.4-24,24s10.4,24,24,24V152z"
	/>
<path d="M128,192h-16c0-31.2,24.8-56,56-56v16C145.6,152,128,169.6,128,192z"/>
<path d="M168,192v-16c13.6,0,24-10.4,24-24h16C208,174.4,190.4,192,168,192z"/>
<path d="M272,360h-16V88c0-22.4,17.6-40,40-40s40,17.6,40,40h-16c0-13.6-10.4-24-24-24s-24,10.4-24,24V360z"/>
<path d="M328,152v-16c13.6,0,24-10.4,24-24s-10.4-24-24-24s-24,10.4-24,24h-16c0-22.4,17.6-40,40-40s40,17.6,40,40
	S350.4,152,328,152z"/>
<path d="M384,192h-16c0-22.4-17.6-40-40-40v-16C359.2,136,384,160.8,384,192z"/>
<path d="M328,192c-22.4,0-40-17.6-40-40h16c0,13.6,10.4,24,24,24V192z"/>
<rect x="168" y="384" width="160" height="16"/>
<rect x="168" y="416" width="160" height="16"/>
<rect x="200" y="448" width="96" height="16"/>
<rect x="240" width="16" height="48"/>
<rect x="48" y="128" width="48" height="16"/>
<rect x="400" y="128" width="48" height="16"/>
<g>
</g>
<g>
</g>
<g>
</g>
<g>
</g>
<g>
</g>
<g>
</g>
<g>
</g>
<g>
</g>
<g>
</g>
<g>
</g>
<g>
</g>
<g>
</g>
<g>
</g>
<g>
</g>
<g>
</g>
</svg>
