<?xml version="1.0" encoding="iso-8859-1"?>
<!-- Generator: Adobe Illustrator 19.0.0, SVG Export Plug-In . SVG Version: 6.00 Build 0)  -->
<svg version="1.1" id="Capa_1" xmlns="http://www.w3.org/2000/svg" xmlns:xlink="http://www.w3.org/1999/xlink" x="0px" y="0px"
	 viewBox="0 0 496.4 496.4" style="enable-background:new 0 0 496.4 496.4;" xml:space="preserve">
<polyline style="fill:#91AAB4;" points="112.013,248.4 112.013,280.4 144.013,280.4 144.013,248.4 "/>
<path d="M144.013,288.4h-32c-4.8,0-8-3.2-8-8v-32h16v24h16v-24h16v32C152.013,285.2,148.813,288.4,144.013,288.4z"/>
<circle style="fill:#3E606F;" cx="128.013" cy="128.4" r="120"/>
<path d="M128.013,256.4c-70.4,0-128-57.6-128-128s57.6-128,128-128s128,57.6,128,128S198.413,256.4,128.013,256.4z M128.013,16.4
	c-61.6,0-112,50.4-112,112s50.4,112,112,112s112-50.4,112-112S189.613,16.4,128.013,16.4z"/>
<circle style="fill:#91AAB4;" cx="128.013" cy="128.4" r="88"/>
<path d="M128.013,224.4c-52.8,0-96-43.2-96-96s43.2-96,96-96s96,43.2,96,96S180.813,224.4,128.013,224.4z M128.013,48.4
	c-44,0-80,36-80,80s36,80,80,80s80-36,80-80S172.013,48.4,128.013,48.4z"/>
<rect x="120.013" y="280.4" width="16" height="32"/>
<rect x="96.013" y="312.4" style="fill:#91AAB4;" width="64" height="176"/>
<path d="M160.013,496.4h-64c-4.8,0-8-3.2-8-8v-176c0-4.8,3.2-8,8-8h64c4.8,0,8,3.2,8,8v176
	C168.013,493.2,164.813,496.4,160.013,496.4z M104.013,480.4h48v-160h-48V480.4z"/>
<rect x="96.013" y="312.4" style="fill:#3E606F;" width="64" height="32"/>
<path d="M160.013,352.4h-64c-4.8,0-8-3.2-8-8v-32c0-4.8,3.2-8,8-8h64c4.8,0,8,3.2,8,8v32C168.013,349.2,164.813,352.4,160.013,352.4
	z M104.013,336.4h48v-16h-48V336.4z"/>
<rect x="96.013" y="456.4" style="fill:#3E606F;" width="64" height="32"/>
<path d="M160.013,496.4h-64c-4.8,0-8-3.2-8-8v-32c0-4.8,3.2-8,8-8h64c4.8,0,8,3.2,8,8v32C168.013,493.2,164.813,496.4,160.013,496.4
	z M104.013,480.4h48v-16h-48V480.4z"/>
<rect x="64.013" y="120.4" width="128" height="16"/>
<rect x="120.013" y="64.4" width="16" height="128"/>
<polygon style="fill:#737272;" points="256.013,456.4 256.013,376.4 216.013,376.4 352.013,280.4 488.013,376.4 448.013,376.4 
	448.013,456.4 "/>
<path d="M448.013,464.4h-192c-4.8,0-8-3.2-8-8v-72h-32c-4.8,0-8-3.2-8-8c0-2.4,1.6-4.8,3.2-6.4l136-96c2.4-1.6,6.4-1.6,9.6,0l136,96
	c4,2.4,4.8,7.2,1.6,11.2c-1.6,1.6-4,3.2-6.4,3.2h-32v72C456.013,461.2,452.813,464.4,448.013,464.4z M264.013,448.4h176v-72
	c0-4.8,3.2-8,8-8h14.4l-110.4-78.4l-110.4,78.4h14.4c4.8,0,8,3.2,8,8V448.4z"/>
<rect x="328.013" y="376.4" style="fill:#BABDBF;" width="48" height="80"/>
<path d="M376.013,464.4h-48c-4.8,0-8-3.2-8-8v-80c0-4.8,3.2-8,8-8h48c4.8,0,8,3.2,8,8v80C384.013,461.2,380.813,464.4,376.013,464.4
	z M336.013,448.4h32v-64h-32V448.4z"/>
<rect x="256.013" y="424.4" style="fill:#BABDBF;" width="72" height="32"/>
<path d="M328.013,464.4h-72c-4.8,0-8-3.2-8-8v-32c0-4.8,3.2-8,8-8h72c4.8,0,8,3.2,8,8v32C336.013,461.2,332.813,464.4,328.013,464.4
	z M264.013,448.4h56v-16h-56V448.4z"/>
<rect x="376.013" y="424.4" style="fill:#BABDBF;" width="72" height="32"/>
<path d="M448.013,464.4h-72c-4.8,0-8-3.2-8-8v-32c0-4.8,3.2-8,8-8h72c4.8,0,8,3.2,8,8v32C456.013,461.2,452.813,464.4,448.013,464.4
	z M384.013,448.4h56v-16h-56V448.4z"/>
<rect x="216.013" y="456.4" style="fill:#BABDBF;" width="272" height="32"/>
<path d="M488.013,496.4h-272c-4.8,0-8-3.2-8-8v-32c0-4.8,3.2-8,8-8h272c4.8,0,8,3.2,8,8v32
	C496.013,493.2,492.813,496.4,488.013,496.4z M224.013,480.4h256v-16h-256V480.4z"/>
<polygon style="fill:#737272;" points="440.013,72.4 488.013,72.4 384.013,8.4 280.013,72.4 328.013,72.4 328.013,152.4 
	440.013,152.4 "/>
<path d="M440.013,160.4h-112c-4.8,0-8-3.2-8-8v-72h-40c-4.8,0-8-3.2-8-8c0-2.4,1.6-5.6,4-7.2l104-64c2.4-1.6,5.6-1.6,8,0l104,64
	c4,2.4,4.8,7.2,2.4,11.2c-0.8,2.4-4,4-6.4,4h-40v72C448.013,157.2,444.813,160.4,440.013,160.4z M336.013,144.4h96v-72
	c0-4.8,3.2-8,8-8h20l-76-46.4l-76,46.4h20c4.8,0,8,3.2,8,8V144.4z"/>
<rect x="368.013" y="88.4" style="fill:#BABDBF;" width="32" height="64"/>
<path d="M400.013,160.4h-32c-4.8,0-8-3.2-8-8v-64c0-4.8,3.2-8,8-8h32c4.8,0,8,3.2,8,8v64C408.013,157.2,404.813,160.4,400.013,160.4
	z M376.013,144.4h16v-48h-16V144.4z"/>
<rect x="248.013" y="208.4" width="16" height="16"/>
<rect x="280.013" y="208.4" width="16" height="16"/>
<rect x="312.013" y="208.4" width="16" height="16"/>
<rect x="344.013" y="240.4" width="16" height="16"/>
<rect x="344.013" y="176.4" width="16" height="16"/>
<rect x="344.013" y="208.4" width="16" height="16"/>
<g>
</g>
<g>
</g>
<g>
</g>
<g>
</g>
<g>
</g>
<g>
</g>
<g>
</g>
<g>
</g>
<g>
</g>
<g>
</g>
<g>
</g>
<g>
</g>
<g>
</g>
<g>
</g>
<g>
</g>
</svg>
