<?xml version="1.0" encoding="iso-8859-1"?>
<!-- Generator: Adobe Illustrator 19.0.0, SVG Export Plug-In . SVG Version: 6.00 Build 0)  -->
<svg version="1.1" id="Capa_1" xmlns="http://www.w3.org/2000/svg" xmlns:xlink="http://www.w3.org/1999/xlink" x="0px" y="0px"
	 viewBox="0 0 496 496" style="enable-background:new 0 0 496 496;" xml:space="preserve">
<path style="fill:#A88C55;" d="M24,248v-48c0-35.2,28.8-64,64-64h56c31.2,0,56-24.8,56-56V8h176v240H24z"/>
<path d="M376,256H24c-4.8,0-8-3.2-8-8v-48c0-40,32-72,72-72h56c26.4,0,48-21.6,48-48V8c0-4.8,3.2-8,8-8h176c4.8,0,8,3.2,8,8v240
	C384,252.8,380.8,256,376,256z M32,240h336V16H208v64c0,35.2-28.8,64-64,64H88c-31.2,0-56,24.8-56,56V240z"/>
<rect x="200" y="48" width="176" height="16"/>
<rect x="336" y="56" width="16" height="160"/>
<path d="M64,248H48v-48c0-22.4,17.6-40,40-40h48v16H88c-13.6,0-24,10.4-24,24V248z"/>
<path d="M248,128c-13.6,0-24-10.4-24-24s10.4-24,24-24s24,10.4,24,24S261.6,128,248,128z M248,96c-4.8,0-8,3.2-8,8s3.2,8,8,8
	c4.8,0,8-3.2,8-8S252.8,96,248,96z"/>
<path d="M216,176c-13.6,0-24-10.4-24-24s10.4-24,24-24s24,10.4,24,24S229.6,176,216,176z M216,144c-4.8,0-8,3.2-8,8s3.2,8,8,8
	s8-3.2,8-8S220.8,144,216,144z"/>
<rect x="191.621" y="57.868" transform="matrix(-0.3511 0.9363 -0.9363 -0.3511 355.7278 -62.7882)" width="15.999" height="67.998"/>
<rect x="164.337" y="95.794" transform="matrix(-0.4961 0.8682 -0.8682 -0.4961 369.1401 42.1607)" width="15.999" height="64.796"/>
<rect x="56" y="208" width="288" height="16"/>
<rect x="200" y="8" style="fill:#6B5936;" width="176" height="48"/>
<path d="M376,64H200c-4.8,0-8-3.2-8-8V8c0-4.8,3.2-8,8-8h176c4.8,0,8,3.2,8,8v48C384,60.8,380.8,64,376,64z M208,48h160V16H208V48z"
	/>
<path style="fill:#6B5936;" d="M312,248H24c-8.8,0-16,7.2-16,16l0,0c0,8.8,7.2,16,16,16h288"/>
<path d="M312,288H24c-13.6,0-24-10.4-24-24s10.4-24,24-24h288v16H24c-4.8,0-8,3.2-8,8s3.2,8,8,8h288V288z"/>
<path style="fill:#6B5936;" d="M136,456h352l0,0v32l0,0H136c-8.8,0-16-7.2-16-16l0,0C120,463.2,127.2,456,136,456z"/>
<path d="M488,496H136c-13.6,0-24-10.4-24-24s10.4-24,24-24h352c4.8,0,8,3.2,8,8v32C496,492.8,492.8,496,488,496z M136,464
	c-4.8,0-8,3.2-8,8s3.2,8,8,8h344v-16H136z"/>
<path style="fill:#A88C55;" d="M488,456H136v-48c0-35.2,28.8-64,64-64h56c31.2,0,56-24.8,56-56v-72h176V456"/>
<path d="M488,464H136c-4.8,0-8-3.2-8-8v-48c0-40,32-72,72-72h56c26.4,0,48-21.6,48-48v-72c0-4.8,3.2-8,8-8h176c4.8,0,8,3.2,8,8v240
	C496,460.8,492.8,464,488,464z M144,448h336V224H320v64c0,35.2-28.8,64-64,64h-56c-31.2,0-56,24.8-56,56V448z"/>
<rect x="312" y="256" width="176" height="16"/>
<rect x="448" y="264" width="16" height="192"/>
<path d="M176,456h-16v-48c0-22.4,17.6-40,40-40h48v16h-48c-13.6,0-24,10.4-24,24V456z"/>
<path d="M360,336c-13.6,0-24-10.4-24-24s10.4-24,24-24s24,10.4,24,24S373.6,336,360,336z M360,304c-4.8,0-8,3.2-8,8s3.2,8,8,8
	s8-3.2,8-8S364.8,304,360,304z"/>
<path d="M328,384c-13.6,0-24-10.4-24-24s10.4-24,24-24s24,10.4,24,24S341.6,384,328,384z M328,352c-4.8,0-8,3.2-8,8s3.2,8,8,8
	s8-3.2,8-8S332.8,352,328,352z"/>
<rect x="320.342" y="286.147" transform="matrix(-0.4472 0.8944 -0.8944 -0.4472 747.2179 146.4877)" width="16" height="35.999"/>
<rect x="276.318" y="303.824" transform="matrix(-0.4961 0.8682 -0.8682 -0.4961 717.3 256.1736)" width="15.999" height="64.796"/>
<rect x="168" y="416" width="288" height="16"/>
<rect x="312" y="216" style="fill:#6B5936;" width="176" height="48"/>
<path d="M488,272H312c-4.8,0-8-3.2-8-8v-48c0-4.8,3.2-8,8-8h176c4.8,0,8,3.2,8,8v48C496,268.8,492.8,272,488,272z M320,256h160v-32
	H320V256z"/>
<g>
</g>
<g>
</g>
<g>
</g>
<g>
</g>
<g>
</g>
<g>
</g>
<g>
</g>
<g>
</g>
<g>
</g>
<g>
</g>
<g>
</g>
<g>
</g>
<g>
</g>
<g>
</g>
<g>
</g>
</svg>
