<?xml version="1.0" encoding="iso-8859-1"?>
<!-- Generator: Adobe Illustrator 19.0.0, SVG Export Plug-In . SVG Version: 6.00 Build 0)  -->
<svg version="1.1" id="Capa_1" xmlns="http://www.w3.org/2000/svg" xmlns:xlink="http://www.w3.org/1999/xlink" x="0px" y="0px"
	 viewBox="0 0 496 496" style="enable-background:new 0 0 496 496;" xml:space="preserve">
<path style="fill:#6B5936;" d="M88,224H56c-26.4,0-48,21.6-48,48h480c0-26.4-21.6-48-48-48h-32"/>
<path d="M488,280H8c-4.8,0-8-3.2-8-8c0-31.2,24.8-56,56-56h32v16H56c-19.2,0-35.2,13.6-39.2,32h462.4c-4-18.4-20-32-39.2-32h-32v-16
	h32c31.2,0,56,24.8,56,56C496,276.8,492.8,280,488,280z"/>
<polygon style="fill:#A88C55;" points="360,64 136,64 88,240 408,240 "/>
<path d="M408,248H88c-4.8,0-8-3.2-8-8c0-0.8,0-1.6,0-2.4l48-176c1.6-3.2,4-5.6,8-5.6h224c4,0,6.4,2.4,8,5.6l48,176
	c0.8,4-1.6,8.8-5.6,9.6C409.6,248,408.8,248,408,248z M98.4,232h299.2l-44-160H142.4L98.4,232z"/>
<rect x="96" y="200" width="304" height="16"/>
<rect x="104" y="152" width="288" height="16"/>
<circle style="fill:#6B5936;" cx="216" cy="112" r="16"/>
<path d="M216,136c-13.6,0-24-10.4-24-24s10.4-24,24-24s24,10.4,24,24S229.6,136,216,136z M216,104c-4.8,0-8,3.2-8,8s3.2,8,8,8
	s8-3.2,8-8S220.8,104,216,104z"/>
<circle style="fill:#6B5936;" cx="280" cy="112" r="16"/>
<path d="M280,136c-13.6,0-24-10.4-24-24s10.4-24,24-24s24,10.4,24,24S293.6,136,280,136z M280,104c-4.8,0-8,3.2-8,8s3.2,8,8,8
	s8-3.2,8-8S284.8,104,280,104z"/>
<path d="M248,440c-92.8,0-168-75.2-168-168h16c0,84,68,152,152,152s152-68,152-152h16C416,364.8,340.8,440,248,440z"/>
<g>
</g>
<g>
</g>
<g>
</g>
<g>
</g>
<g>
</g>
<g>
</g>
<g>
</g>
<g>
</g>
<g>
</g>
<g>
</g>
<g>
</g>
<g>
</g>
<g>
</g>
<g>
</g>
<g>
</g>
</svg>
