<?xml version="1.0" encoding="iso-8859-1"?>
<!-- Generator: Adobe Illustrator 19.0.0, SVG Export Plug-In . SVG Version: 6.00 Build 0)  -->
<svg version="1.1" id="Capa_1" xmlns="http://www.w3.org/2000/svg" xmlns:xlink="http://www.w3.org/1999/xlink" x="0px" y="0px"
	 viewBox="0 0 496 496" style="enable-background:new 0 0 496 496;" xml:space="preserve">
<path style="fill:#46709C;" d="M296,376H8V32l0,0C8,18.4,18.4,8,32,8h264V376z"/>
<path style="fill:#789DC3;" d="M336,376H8V32l0,0c0,13.6,10.4,24,24,24h304V376z"/>
<path style="fill:#F2AB27;" d="M352,248v-80H80c-22.4,0-40,17.6-40,40l0,0c0,22.4,17.6,40,40,40H352z"/>
<path d="M352,256H80c-26.4,0-48-21.6-48-48s21.6-48,48-48h272c4.8,0,8,3.2,8,8v80C360,252.8,356.8,256,352,256z M80,176
	c-17.6,0-32,14.4-32,32s14.4,32,32,32h264v-64H80z"/>
<path style="fill:#C1272D;" d="M352,408v-80H80c-22.4,0-40,17.6-40,40l0,0c0,22.4,17.6,40,40,40H352z"/>
<path d="M352,416H80c-26.4,0-48-21.6-48-48s21.6-48,48-48h272c4.8,0,8,3.2,8,8v80C360,412.8,356.8,416,352,416z M80,336
	c-17.6,0-32,14.4-32,32s14.4,32,32,32h264v-64H80z"/>
<path style="fill:#42A24F;" d="M328,488v-80H48c-22.4,0-40,17.6-40,40l0,0c0,22.4,17.6,40,40,40H328z"/>
<path d="M328,496H48c-26.4,0-48-21.6-48-48s21.6-48,48-48h280c4.8,0,8,3.2,8,8v80C336,492.8,332.8,496,328,496z M48,416
	c-17.6,0-32,14.4-32,32s14.4,32,32,32h272v-64H48z"/>
<path style="fill:#42A24F;" d="M328,328v-80H48c-22.4,0-40,17.6-40,40l0,0c0,22.4,17.6,40,40,40H328z"/>
<path d="M328,336H48c-26.4,0-48-21.6-48-48s21.6-48,48-48h280c4.8,0,8,3.2,8,8v80C336,332.8,332.8,336,328,336z M48,256
	c-17.6,0-32,14.4-32,32s14.4,32,32,32h272v-64H48z"/>
<path d="M360,496H48c-26.4,0-48-21.6-48-48s21.6-48,48-48h312v16H48c-17.6,0-32,14.4-32,32s14.4,32,32,32h312V496z"/>
<rect x="8" y="440" width="208" height="16"/>
<path d="M392,416H80c-26.4,0-48-21.6-48-48s21.6-48,48-48h312v16H80c-17.6,0-32,14.4-32,32s14.4,32,32,32h312V416z"/>
<rect x="40" y="360" width="208" height="16"/>
<path d="M360,336H48c-26.4,0-48-21.6-48-48s21.6-48,48-48h312v16H48c-17.6,0-32,14.4-32,32s14.4,32,32,32h312V336z"/>
<rect x="8" y="280" width="208" height="16"/>
<path d="M392,256H80c-26.4,0-48-21.6-48-48s21.6-48,48-48h312v16H80c-17.6,0-32,14.4-32,32s14.4,32,32,32h312V256z"/>
<rect x="40" y="200" width="208" height="16"/>
<rect x="320" y="408" width="16" height="80"/>
<rect x="344" y="328" width="16" height="80"/>
<rect x="344" y="168" width="16" height="80"/>
<path d="M344,168h-16V64H32C14.4,64,0,49.6,0,32S14.4,0,32,0h264c4.8,0,8,3.2,8,8v40h32c4.8,0,8,3.2,8,8V168z M32,16
	c-8.8,0-16,7.2-16,16s7.2,16,16,16h256V16H32z"/>
<path d="M40,384H8c-4.8,0-8-3.2-8-8V32h16v336h24V384z"/>
<polygon style="fill:#C1272D;" points="280,56 280,136 248,104 216,136 216,56 "/>
<path d="M280,144c-2.4,0-4-0.8-5.6-2.4L248,115.2l-26.4,26.4c-3.2,3.2-8,3.2-11.2,0c-1.6-1.6-2.4-3.2-2.4-5.6V56c0-4.8,3.2-8,8-8h64
	c4.8,0,8,3.2,8,8v80C288,140.8,284.8,144,280,144z M248,96c2.4,0,4,0.8,5.6,2.4l18.4,18.4V64h-48v52.8l18.4-18.4
	C244,96.8,245.6,96,248,96z"/>
<path style="fill:#46709C;" d="M488,216v240c0,17.6-14.4,32-32,32l0,0c-17.6,0-32-14.4-32-32V216l32-72L488,216z"/>
<path d="M456,496c-22.4,0-40-17.6-40-40V216c0-0.8,0-2.4,0.8-3.2l32-72c1.6-4,6.4-5.6,10.4-4c1.6,0.8,3.2,2.4,4,4l32,72
	c0.8,0.8,0.8,2.4,0.8,3.2v240C496,478.4,478.4,496,456,496z M432,217.6V456c0,13.6,10.4,24,24,24s24-10.4,24-24l0,0V217.6l-24-54.4
	L432,217.6z"/>
<polygon style="fill:#C7B299;" points="424,216 456,144 488,216 "/>
<path d="M488,224h-64c-4.8,0-8-3.2-8-8c0-0.8,0-2.4,0.8-3.2l32-72c1.6-4,6.4-5.6,10.4-4c1.6,0.8,3.2,2.4,4,4l32,72
	c1.6,4,0,8.8-4,10.4C490.4,224,488.8,224,488,224z M436,208h39.2L456,164L436,208z"/>
<path style="fill:#C1272D;" d="M488,456v-32h-64v32c0,17.6,14.4,32,32,32S488,473.6,488,456z"/>
<path d="M456,496c-22.4,0-40-17.6-40-40v-32c0-4.8,3.2-8,8-8h64c4.8,0,8,3.2,8,8v32C496,478.4,478.4,496,456,496z M432,432v24
	c0,13.6,10.4,24,24,24s24-10.4,24-24l0,0v-24H432z"/>
<rect x="424" y="216" style="fill:#998675;" width="64" height="32"/>
<path d="M488,256h-64c-4.8,0-8-3.2-8-8v-32c0-4.8,3.2-8,8-8h64c4.8,0,8,3.2,8,8v32C496,252.8,492.8,256,488,256z M432,240h48v-16
	h-48V240z"/>
<rect x="456" y="248" style="fill:#789DC3;" width="32" height="176"/>
<path d="M488,432h-32c-4.8,0-8-3.2-8-8V248c0-4.8,3.2-8,8-8h32c4.8,0,8,3.2,8,8v176C496,428.8,492.8,432,488,432z M464,416h16V256
	h-16V416z"/>
<rect x="48" y="8" width="16" height="48"/>
<g>
</g>
<g>
</g>
<g>
</g>
<g>
</g>
<g>
</g>
<g>
</g>
<g>
</g>
<g>
</g>
<g>
</g>
<g>
</g>
<g>
</g>
<g>
</g>
<g>
</g>
<g>
</g>
<g>
</g>
</svg>
