<?xml version="1.0" encoding="iso-8859-1"?>
<!-- Generator: Adobe Illustrator 19.0.0, SVG Export Plug-In . SVG Version: 6.00 Build 0)  -->
<svg version="1.1" id="Capa_1" xmlns="http://www.w3.org/2000/svg" xmlns:xlink="http://www.w3.org/1999/xlink" x="0px" y="0px"
	 viewBox="0 0 496.472 496.472" style="enable-background:new 0 0 496.472 496.472;" xml:space="preserve">
<polyline style="fill:#737272;" points="360.424,184.472 360.424,72.472 296.424,72.472 296.424,120.472 "/>
<path d="M368.424,184.472h-16v-104h-48v40h-16v-48c0-4.8,3.2-8,8-8h64c4.8,0,8,3.2,8,8V184.472z"/>
<polygon style="fill:#BABDBF;" points="392.424,216.472 392.424,344.472 104.424,344.472 104.424,216.472 248.424,72.472 "/>
<path d="M392.424,352.472h-288c-4.8,0-8-3.2-8-8v-128c0-2.4,0.8-4,2.4-5.6l144-144c3.2-3.2,8-3.2,11.2,0l144,144
	c1.6,1.6,2.4,3.2,2.4,5.6v128C400.424,349.272,397.224,352.472,392.424,352.472z M112.424,336.472h272v-116.8l-136-136l-136,136
	V336.472z"/>
<rect x="192.424" y="168.472" style="fill:#DFA738;" width="112" height="176"/>
<path d="M304.424,352.472h-112c-4.8,0-8-3.2-8-8v-176c0-4.8,3.2-8,8-8h112c4.8,0,8,3.2,8,8v176
	C312.424,349.272,309.224,352.472,304.424,352.472z M200.424,336.472h96v-160h-96V336.472z"/>
<rect x="104.424" y="304.472" width="88" height="16"/>
<rect x="304.424" y="304.472" width="88" height="16"/>
<rect x="192.424" y="192.472" width="112" height="16"/>
<rect x="224.424" y="424.472" style="fill:#BABDBF;" width="48" height="32"/>
<path d="M272.424,464.472h-48c-4.8,0-8-3.2-8-8v-32c0-4.8,3.2-8,8-8h48c4.8,0,8,3.2,8,8v32
	C280.424,461.272,277.224,464.472,272.424,464.472z M232.424,448.472h32v-16h-32V448.472z"/>
<path d="M248.424,496.472c-4.8,0-8-3.2-8-8v-32h16v24c128-4.8,228-112,223.2-240s-112-228-240-223.2s-227.2,112-223.2,239.2
	c3.2,92.8,61.6,174.4,148,208l-5.6,15.2c-127.2-48.8-191.2-192.8-142.4-320.8s192.8-191.2,320.8-142.4s192,192.8,142.4,320.8
	C442.824,433.272,350.824,496.472,248.424,496.472z"/>
<rect x="208.424" y="392.472" style="fill:#737272;" width="80" height="32"/>
<path d="M288.424,432.472h-80c-4.8,0-8-3.2-8-8v-32c0-4.8,3.2-8,8-8h80c4.8,0,8,3.2,8,8v32
	C296.424,429.272,293.224,432.472,288.424,432.472z M216.424,416.472h64v-16h-64V416.472z"/>
<rect x="216.424" y="368.472" width="16" height="24"/>
<rect x="264.424" y="368.472" width="16" height="24"/>
<path d="M256.424,312.472h-40v-16h40c4.8,0,8-3.2,8-8s-3.2-8-8-8h-16c-13.6,0-24-10.4-24-24s10.4-24,24-24h40v16h-40
	c-4.8,0-8,3.2-8,8s3.2,8,8,8h16c13.6,0,24,10.4,24,24S270.024,312.472,256.424,312.472z"/>
<rect x="240.424" y="216.472" width="16" height="24"/>
<rect x="240.424" y="304.472" width="16" height="24"/>
<g>
</g>
<g>
</g>
<g>
</g>
<g>
</g>
<g>
</g>
<g>
</g>
<g>
</g>
<g>
</g>
<g>
</g>
<g>
</g>
<g>
</g>
<g>
</g>
<g>
</g>
<g>
</g>
<g>
</g>
</svg>
