<?xml version="1.0" encoding="iso-8859-1"?>
<!-- Generator: Adobe Illustrator 19.0.0, SVG Export Plug-In . SVG Version: 6.00 Build 0)  -->
<svg version="1.1" id="Capa_1" xmlns="http://www.w3.org/2000/svg" xmlns:xlink="http://www.w3.org/1999/xlink" x="0px" y="0px"
	 viewBox="0 0 496 496" style="enable-background:new 0 0 496 496;" xml:space="preserve">
<polyline style="fill:#D94A56;" points="208,456 208,488 288,488 288,456 "/>
<path d="M288,496h-80c-4.8,0-8-3.2-8-8v-32h16v24h64v-24h16v32C296,492.8,292.8,496,288,496z"/>
<path style="fill:#FFBC3D;" d="M440,456H56l32-32h40c41.6,0,83.2,11.2,119.2,32h0.8h0.8c36-20.8,77.6-32,119.2-32h40L440,456z"/>
<path style="fill:#789DC3;" d="M408,152h-40c-41.6,0-83.2,11.2-119.2,32H248h-0.8c-36-20.8-77.6-32-119.2-32H88v272h40
	c41.6,0,83.2,11.2,119.2,32h0.8h0.8c36-20.8,77.6-32,119.2-32h40V152z"/>
<path style="fill:#FFFFFF;" d="M408,184h-40c-41.6,0-83.2,11.2-119.2,32H248h-0.8c-36-20.8-77.6-32-119.2-32H88v240h40
	c41.6,0,83.2,11.2,119.2,32h0.8h0.8c36-20.8,77.6-32,119.2-32h40V184z"/>
<g>
	<polygon style="fill:#F48827;" points="88,152 88,424 56,456 56,168 	"/>
	<polygon style="fill:#F48827;" points="408,152 408,424 440,456 440,168 	"/>
</g>
<path d="M440,464H56c-4.8,0-8-3.2-8-8V168c0-3.2,1.6-5.6,4.8-7.2l32-16l7.2,14.4l-28,13.6V448h368V172.8l-27.2-13.6l7.2-14.4l32,16
	c2.4,1.6,4.8,4,4.8,7.2v288C448,460.8,444.8,464,440,464z"/>
<circle style="fill:#46709C;" cx="248" cy="104" r="40"/>
<path d="M248,152c-26.4,0-48-21.6-48-48s21.6-48,48-48s48,21.6,48,48S274.4,152,248,152z M248,72c-17.6,0-32,14.4-32,32
	s14.4,32,32,32s32-14.4,32-32S265.6,72,248,72z"/>
<circle style="fill:#D94A56;" cx="328" cy="24" r="16"/>
<path d="M328,48c-13.6,0-24-10.4-24-24s10.4-24,24-24s24,10.4,24,24S341.6,48,328,48z M328,16c-4.8,0-8,3.2-8,8s3.2,8,8,8s8-3.2,8-8
	S332.8,16,328,16z"/>
<circle style="fill:#46709C;" cx="24" cy="24" r="16"/>
<path d="M24,48C10.4,48,0,37.6,0,24S10.4,0,24,0s24,10.4,24,24S37.6,48,24,48z M24,16c-4.8,0-8,3.2-8,8s3.2,8,8,8s8-3.2,8-8
	S28.8,16,24,16z"/>
<circle style="fill:#D94A56;" cx="104" cy="96" r="24"/>
<path d="M104,128c-17.6,0-32-14.4-32-32s14.4-32,32-32s32,14.4,32,32S121.6,128,104,128z M104,80c-8.8,0-16,7.2-16,16s7.2,16,16,16
	s16-7.2,16-16S112.8,80,104,80z"/>
<circle style="fill:#46709C;" cx="464" cy="96" r="24"/>
<path d="M464,128c-17.6,0-32-14.4-32-32s14.4-32,32-32s32,14.4,32,32S481.6,128,464,128z M464,80c-8.8,0-16,7.2-16,16s7.2,16,16,16
	s16-7.2,16-16S472.8,80,464,80z"/>
<rect x="264.753" y="44.002" transform="matrix(-0.7679 0.6405 -0.6405 -0.7679 556.5317 -97.6293)" width="62.397" height="15.999"/>
<rect x="159.997" y="63.193" transform="matrix(-0.1961 0.9806 -0.9806 -0.1961 302.9149 -40.3486)" width="16" height="81.601"/>
<path d="M248,464c-1.6,0-2.4,0-4-0.8c-35.2-20.8-75.2-31.2-116-31.2H88c-4.8,0-8-3.2-8-8V152c0-4.8,3.2-8,8-8h40
	c41.6,0,83.2,10.4,120,31.2c36.8-20,77.6-30.4,120-31.2h40c4.8,0,8,3.2,8,8v272c0,4.8-3.2,8-8,8h-40c-40,0-80,10.4-115.2,30.4
	C251.2,463.2,249.6,464,248,464z M96,416h32c41.6,0,83.2,10.4,120,31.2c36.8-20,77.6-30.4,120-31.2h32V160h-32
	c-40,0-80,10.4-115.2,30.4c-2.4,1.6-5.6,1.6-8.8,0c-35.2-20-75.2-30.4-116-30.4H96V416z"/>
<path d="M244.8,423.2L208,409.6c-16.8-6.4-35.2-9.6-53.6-9.6H112v-16h43.2c20,0,40,4,59.2,10.4l36.8,13.6L244.8,423.2z"/>
<path d="M251.2,423.2l-5.6-15.2l36.8-13.6c19.2-7.2,39.2-10.4,59.2-10.4H384v16h-43.2c-18.4,0-36,3.2-53.6,9.6L251.2,423.2z"/>
<path d="M244.8,391.2L208,377.6c-16.8-6.4-35.2-9.6-53.6-9.6H112v-16h43.2c20,0,40,4,59.2,10.4l36.8,13.6L244.8,391.2z"/>
<path d="M251.2,391.2l-5.6-15.2l36.8-13.6c19.2-7.2,39.2-10.4,59.2-10.4H384v16h-43.2c-18.4,0-36,3.2-53.6,9.6L251.2,391.2z"/>
<path d="M244.8,359.2L208,345.6c-16.8-6.4-35.2-9.6-53.6-9.6H112v-16h43.2c20,0,40,4,59.2,10.4l36.8,13.6L244.8,359.2z"/>
<path d="M251.2,359.2l-5.6-15.2l36.8-13.6c19.2-7.2,39.2-10.4,59.2-10.4H384v16h-43.2c-18.4,0-36,3.2-53.6,9.6L251.2,359.2z"/>
<path d="M244.8,231.2L208,217.6c-16.8-6.4-35.2-9.6-53.6-9.6H112v-16h43.2c20,0,40,4,59.2,10.4l36.8,13.6L244.8,231.2z"/>
<path d="M251.2,231.2l-5.6-15.2l36.8-13.6c19.2-7.2,39.2-10.4,59.2-10.4H384v16h-43.2c-18.4,0-36,3.2-53.6,9.6L251.2,231.2z"/>
<rect x="49.48" y="431.714" transform="matrix(-0.7071 0.7071 -0.7071 -0.7071 434.3138 699.5292)" width="45.6" height="16"/>
<rect x="416.275" y="417.517" transform="matrix(-0.7071 0.7071 -0.7071 -0.7071 1035.6332 451.6596)" width="16" height="45.6"/>
<rect x="240" y="176" width="16" height="272"/>
<rect x="383.994" y="2.382" transform="matrix(-0.4472 0.8944 -0.8944 -0.4472 617.3692 -269.5936)" width="16" height="107.197"/>
<rect x="48.28" y="22.275" transform="matrix(-0.7071 0.7071 -0.7071 -0.7071 135.8677 56.2715)" width="16" height="67.999"/>
<g>
</g>
<g>
</g>
<g>
</g>
<g>
</g>
<g>
</g>
<g>
</g>
<g>
</g>
<g>
</g>
<g>
</g>
<g>
</g>
<g>
</g>
<g>
</g>
<g>
</g>
<g>
</g>
<g>
</g>
</svg>
