<?xml version="1.0" encoding="iso-8859-1"?>
<!-- Generator: Adobe Illustrator 19.0.0, SVG Export Plug-In . SVG Version: 6.00 Build 0)  -->
<svg version="1.1" id="Capa_1" xmlns="http://www.w3.org/2000/svg" xmlns:xlink="http://www.w3.org/1999/xlink" x="0px" y="0px"
	 viewBox="0 0 496 496" style="enable-background:new 0 0 496 496;" xml:space="preserve">
<rect x="192" y="248" style="fill:#BFBD9F;" width="112" height="128"/>
<path d="M304,384H192c-4.8,0-8-3.2-8-8V248c0-4.8,3.2-8,8-8h112c4.8,0,8,3.2,8,8v128C312,380.8,308.8,384,304,384z M200,368h96V256
	h-96V368z"/>
<rect x="64" y="120" style="fill:#778C7A;" width="128" height="160"/>
<path d="M192,288H64c-4.8,0-8-3.2-8-8V120c0-4.8,3.2-8,8-8h128c4.8,0,8,3.2,8,8v160C200,284.8,196.8,288,192,288z M72,272h112V128
	H72V272z"/>
<rect x="304" y="120" style="fill:#778C7A;" width="128" height="160"/>
<path d="M432,288H304c-4.8,0-8-3.2-8-8V120c0-4.8,3.2-8,8-8h128c4.8,0,8,3.2,8,8v160C440,284.8,436.8,288,432,288z M312,272h112V128
	H312V272z"/>
<rect x="48" y="72" style="fill:#BFBD9F;" width="160" height="48"/>
<path d="M208,128H48c-4.8,0-8-3.2-8-8V72c0-4.8,3.2-8,8-8h160c4.8,0,8,3.2,8,8v48C216,124.8,212.8,128,208,128z M56,112h144V80H56
	V112z"/>
<rect x="184" y="120" width="16" height="160"/>
<rect x="96" y="456" style="fill:#BFBD9F;" width="112" height="32"/>
<path d="M208,496H96c-4.8,0-8-3.2-8-8v-32c0-4.8,3.2-8,8-8h112c4.8,0,8,3.2,8,8v32C216,492.8,212.8,496,208,496z M104,480h96v-16
	h-96V480z"/>
<rect x="64" y="144" width="128" height="16"/>
<rect x="56" y="120" width="16" height="160"/>
<rect x="48" y="280" style="fill:#BFBD9F;" width="160" height="32"/>
<path d="M208,320H48c-4.8,0-8-3.2-8-8v-32c0-4.8,3.2-8,8-8h160c4.8,0,8,3.2,8,8v32C216,316.8,212.8,320,208,320z M56,304h144v-16H56
	V304z"/>
<rect x="64" y="312" style="fill:#BFBD9F;" width="128" height="32"/>
<path d="M192,352H64c-4.8,0-8-3.2-8-8v-32c0-4.8,3.2-8,8-8h128c4.8,0,8,3.2,8,8v32C200,348.8,196.8,352,192,352z M72,336h112v-16H72
	V336z"/>
<rect x="112" y="424" style="fill:#778C7A;" width="80" height="32"/>
<path d="M192,464h-80c-4.8,0-8-3.2-8-8v-32c0-4.8,3.2-8,8-8h80c4.8,0,8,3.2,8,8v32C200,460.8,196.8,464,192,464z M120,448h64v-16
	h-64V448z"/>
<rect x="184" y="344" width="16" height="80"/>
<rect x="95.994" y="343.207" transform="matrix(-0.9806 0.1961 -0.1961 -0.9806 281.2725 740.1674)" width="16" height="81.601"/>
<rect x="80" y="8" style="fill:#778C7A;" width="96" height="64"/>
<path d="M176,80H80c-4.8,0-8-3.2-8-8V8c0-4.8,3.2-8,8-8h96c4.8,0,8,3.2,8,8v64C184,76.8,180.8,80,176,80z M88,64h80V16H88V64z"/>
<rect x="80" y="32" width="96" height="16"/>
<rect x="288" y="72" style="fill:#BFBD9F;" width="160" height="48"/>
<path d="M448,128H288c-4.8,0-8-3.2-8-8V72c0-4.8,3.2-8,8-8h160c4.8,0,8,3.2,8,8v48C456,124.8,452.8,128,448,128z M296,112h144V80
	H296V112z"/>
<rect x="296" y="120" width="16" height="160"/>
<rect x="288" y="456" style="fill:#BFBD9F;" width="112" height="32"/>
<path d="M400,496H288c-4.8,0-8-3.2-8-8v-32c0-4.8,3.2-8,8-8h112c4.8,0,8,3.2,8,8v32C408,492.8,404.8,496,400,496z M296,480h96v-16
	h-96V480z"/>
<rect x="304" y="144" width="128" height="16"/>
<rect x="424" y="120" width="16" height="160"/>
<rect x="288" y="280" style="fill:#BFBD9F;" width="160" height="32"/>
<path d="M448,320H288c-4.8,0-8-3.2-8-8v-32c0-4.8,3.2-8,8-8h160c4.8,0,8,3.2,8,8v32C456,316.8,452.8,320,448,320z M296,304h144v-16
	H296V304z"/>
<rect x="304" y="312" style="fill:#BFBD9F;" width="128" height="32"/>
<path d="M432,352H304c-4.8,0-8-3.2-8-8v-32c0-4.8,3.2-8,8-8h128c4.8,0,8,3.2,8,8v32C440,348.8,436.8,352,432,352z M312,336h112v-16
	H312V336z"/>
<rect x="304" y="424" style="fill:#778C7A;" width="80" height="32"/>
<path d="M384,464h-80c-4.8,0-8-3.2-8-8v-32c0-4.8,3.2-8,8-8h80c4.8,0,8,3.2,8,8v32C392,460.8,388.8,464,384,464z M312,448h64v-16
	h-64V448z"/>
<rect x="296" y="344" width="16" height="80"/>
<rect x="351.182" y="376.03" transform="matrix(-0.1963 0.9805 -0.9805 -0.1963 845.4862 75.065)" width="81.596" height="15.999"/>
<rect x="320" y="8" style="fill:#778C7A;" width="96" height="64"/>
<path d="M416,80h-96c-4.8,0-8-3.2-8-8V8c0-4.8,3.2-8,8-8h96c4.8,0,8,3.2,8,8v64C424,76.8,420.8,80,416,80z M328,64h80V16h-80V64z"/>
<rect x="320" y="32" width="96" height="16"/>
<rect x="192" y="200" style="fill:#778C7A;" width="112" height="48"/>
<path d="M304,256H192c-4.8,0-8-3.2-8-8v-48c0-4.8,3.2-8,8-8h112c4.8,0,8,3.2,8,8v48C312,252.8,308.8,256,304,256z M200,240h96v-32
	h-96V240z"/>
<rect x="192" y="376" style="fill:#778C7A;" width="112" height="32"/>
<path d="M304,416H192c-4.8,0-8-3.2-8-8v-32c0-4.8,3.2-8,8-8h112c4.8,0,8,3.2,8,8v32C312,412.8,308.8,416,304,416z M200,400h96v-16
	h-96V400z"/>
<rect x="240" y="248" width="16" height="128"/>
<rect x="88" y="152" width="16" height="128"/>
<rect x="392" y="152" width="16" height="128"/>
<polygon style="fill:#778C7A;" points="384,424 304,424 304,344 400,344 "/>
<path d="M384,432h-80c-4.8,0-8-3.2-8-8v-80c0-4.8,3.2-8,8-8h96c4.8,0,8,3.2,8,8c0,0.8,0,0.8,0,1.6l-16,80
	C391.2,429.6,388,432,384,432z M312,416h65.6l12.8-64H312V416z"/>
<polygon style="fill:#778C7A;" points="96,344 192,344 192,424 112,424 "/>
<path d="M192,432h-80c-4,0-7.2-2.4-8-6.4l-16-80c-0.8-4,1.6-8.8,6.4-9.6c0.8,0,0.8,0,1.6,0h96c4.8,0,8,3.2,8,8v80
	C200,428.8,196.8,432,192,432z M118.4,416H184v-64h-78.4L118.4,416z"/>
<g>
</g>
<g>
</g>
<g>
</g>
<g>
</g>
<g>
</g>
<g>
</g>
<g>
</g>
<g>
</g>
<g>
</g>
<g>
</g>
<g>
</g>
<g>
</g>
<g>
</g>
<g>
</g>
<g>
</g>
</svg>
