<?xml version="1.0" encoding="iso-8859-1"?>
<!-- Generator: Adobe Illustrator 19.0.0, SVG Export Plug-In . SVG Version: 6.00 Build 0)  -->
<svg version="1.1" id="Capa_1" xmlns="http://www.w3.org/2000/svg" xmlns:xlink="http://www.w3.org/1999/xlink" x="0px" y="0px"
	 viewBox="0 0 496 496" style="enable-background:new 0 0 496 496;" xml:space="preserve">
<path style="fill:#789DC3;" d="M456,440V208c0-13.6-10.4-24-24-24H64c-13.6,0-24,10.4-24,24v232"/>
<path d="M464,440h-16V208c0-8.8-7.2-16-16-16H64c-8.8,0-16,7.2-16,16v232H32V208c0-17.6,14.4-32,32-32h368c17.6,0,32,14.4,32,32V440
	z"/>
<polygon style="fill:#46709C;" points="456,488 40,488 8,472 8,440 488,440 488,472 "/>
<path d="M456,496H40c-1.6,0-2.4,0-3.2-0.8l-32-16c-3.2-1.6-4.8-4-4.8-7.2v-32c0-4.8,3.2-8,8-8h480c4.8,0,8,3.2,8,8v32
	c0,3.2-1.6,5.6-4.8,7.2l-32,16C458.4,496,457.6,496,456,496z M41.6,480h412l25.6-12.8V448H16v19.2L41.6,480z"/>
<rect x="72" y="216" style="fill:#FFFFFF;" width="352" height="192"/>
<path d="M424,416H72c-4.8,0-8-3.2-8-8V216c0-4.8,3.2-8,8-8h352c4.8,0,8,3.2,8,8v192C432,412.8,428.8,416,424,416z M80,400h336V224
	H80V400z"/>
<circle style="fill:#F48827;" cx="456" cy="40" r="32"/>
<path d="M456,80c-22.4,0-40-17.6-40-40s17.6-40,40-40s40,17.6,40,40S478.4,80,456,80z M456,16c-13.6,0-24,10.4-24,24s10.4,24,24,24
	s24-10.4,24-24S469.6,16,456,16z"/>
<circle style="fill:#42A24F;" cx="352" cy="32" r="24"/>
<path d="M352,64c-17.6,0-32-14.4-32-32s14.4-32,32-32s32,14.4,32,32S369.6,64,352,64z M352,16c-8.8,0-16,7.2-16,16s7.2,16,16,16
	s16-7.2,16-16S360.8,16,352,16z"/>
<circle style="fill:#D94A56;" cx="360" cy="296" r="32"/>
<path d="M360,336c-22.4,0-40-17.6-40-40s17.6-40,40-40s40,17.6,40,40S382.4,336,360,336z M360,272c-13.6,0-24,10.4-24,24
	s10.4,24,24,24s24-10.4,24-24S373.6,272,360,272z"/>
<circle style="fill:#D94A56;" cx="136" cy="280" r="32"/>
<path d="M136,320c-22.4,0-40-17.6-40-40s17.6-40,40-40s40,17.6,40,40S158.4,320,136,320z M136,256c-13.6,0-24,10.4-24,24
	s10.4,24,24,24s24-10.4,24-24S149.6,256,136,256z"/>
<circle style="fill:#F48827;" cx="240" cy="120" r="32"/>
<path d="M240,160c-22.4,0-40-17.6-40-40s17.6-40,40-40s40,17.6,40,40S262.4,160,240,160z M240,96c-13.6,0-24,10.4-24,24
	s10.4,24,24,24s24-10.4,24-24S253.6,96,240,96z"/>
<circle style="fill:#789DC3;" cx="32" cy="32" r="24"/>
<path d="M32,64C14.4,64,0,49.6,0,32S14.4,0,32,0s32,14.4,32,32S49.6,64,32,64z M32,16c-8.8,0-16,7.2-16,16s7.2,16,16,16
	s16-7.2,16-16S40.8,16,32,16z"/>
<circle style="fill:#42A24F;" cx="160" cy="32" r="24"/>
<path d="M160,64c-17.6,0-32-14.4-32-32s14.4-32,32-32s32,14.4,32,32S177.6,64,160,64z M160,16c-8.8,0-16,7.2-16,16s7.2,16,16,16
	s16-7.2,16-16S168.8,16,160,16z"/>
<rect x="88.002" y="-8.803" transform="matrix(-0.1961 0.9806 -0.9806 -0.1961 146.2045 -55.8662)" width="16" height="81.601"/>
<rect x="51.198" y="143.993" transform="matrix(-0.124 0.9923 -0.9923 -0.124 317.1719 23.9822)" width="193.603" height="16"/>
<rect x="63.857" y="48.028" transform="matrix(-0.9285 0.3714 -0.3714 -0.9285 196.3744 273.443)" width="16" height="215.205"/>
<rect x="119.394" y="192.346" transform="matrix(-0.4961 0.8682 -0.8682 -0.4961 448.9239 140.167)" width="128.793" height="15.999"/>
<rect x="240.393" y="207.658" transform="matrix(-0.0995 0.995 -0.995 -0.0995 559.736 69.5606)" width="15.999" height="160.794"/>
<rect x="348.011" y="56.006" transform="matrix(-0.9993 0.0384 -0.0384 -0.9993 717.9097 306.2177)" width="16.001" height="208.008"/>
<rect x="313.588" y="164.002" transform="matrix(-0.3388 0.9409 -0.9409 -0.3388 724.1083 -164.8623)" width="212.788" height="15.999"/>
<rect x="253.591" y="59.986" transform="matrix(-0.7524 0.6587 -0.6587 -0.7524 563.4775 -75.8318)" width="84.8" height="16"/>
<rect x="392.391" y="11.664" transform="matrix(-0.1644 0.9864 -0.9864 -0.1644 501.7888 -352.9505)" width="16" height="48.8"/>
<path style="fill:#42A24F;" d="M328,408c0-44-36-80-80-80s-80,36-80,80H328z"/>
<path d="M328,416H168c-4.8,0-8-3.2-8-8c0-48.8,39.2-88,88-88s88,39.2,88,88C336,412.8,332.8,416,328,416z M176.8,400H320
	c-4-39.2-40-68-79.2-64C206.4,340,180,366.4,176.8,400z"/>
<path d="M264,408c0-22.4-5.6-44-16-64c-10.4,20-16,41.6-16,64h-16l0,0c0-27.2,7.2-54.4,21.6-78.4l3.2-5.6c2.4-4,8-4.8,11.2-2.4
	c0.8,0.8,1.6,1.6,2.4,2.4l3.2,5.6c14.4,24,21.6,50.4,21.6,78.4H264z"/>
<rect x="176" y="368" width="48" height="16"/>
<rect x="272" y="368" width="48" height="16"/>
<rect x="164.279" y="303.883" transform="matrix(-0.7071 0.7071 -0.7071 -0.7071 529.0578 445.4228)" width="16" height="56.799"/>
<rect x="298.399" y="327.958" transform="matrix(-0.7811 0.6244 -0.6244 -0.7811 786.8479 396.0694)" width="51.2" height="16"/>
<g>
</g>
<g>
</g>
<g>
</g>
<g>
</g>
<g>
</g>
<g>
</g>
<g>
</g>
<g>
</g>
<g>
</g>
<g>
</g>
<g>
</g>
<g>
</g>
<g>
</g>
<g>
</g>
<g>
</g>
</svg>
