<?xml version="1.0" encoding="iso-8859-1"?>
<!-- Generator: Adobe Illustrator 19.0.0, SVG Export Plug-In . SVG Version: 6.00 Build 0)  -->
<svg version="1.1" id="Capa_1" xmlns="http://www.w3.org/2000/svg" xmlns:xlink="http://www.w3.org/1999/xlink" x="0px" y="0px"
	 viewBox="0 0 496 496" style="enable-background:new 0 0 496 496;" xml:space="preserve">
<path style="fill:#7D828C;" d="M312,424l148-148c18.4-18.4,28-42.4,28-68l0,0l0,0c-25.6,0-49.6,10.4-68,28L312,344"/>
<path d="M317.6,429.6l-11.2-11.2l148-148c14.4-14.4,23.2-33.6,25.6-54.4c-20.8,1.6-40,11.2-54.4,25.6l-108,108l-11.2-11.2l108-108
	C433.6,211.2,460,200,488,200c4.8,0,8,3.2,8,8c0,28-11.2,54.4-30.4,73.6L317.6,429.6z"/>
<polyline style="fill:#7D828C;" points="184,72 8,248 8,304 48,264 64,264 64,248 80,248 80,232 96,232 96,216 112,216 112,200 
	128,200 128,184 184,128 "/>
<path d="M8,312c-4.8,0-8-3.2-8-8v-56c0-2.4,0.8-4,2.4-5.6l176-176l11.2,11.2L16,251.2v33.6l26.4-26.4c1.6-1.6,3.2-2.4,5.6-2.4h8v-8
	c0-4.8,3.2-8,8-8h8v-8c0-4.8,3.2-8,8-8h8v-8c0-4.8,3.2-8,8-8h8v-8c0-4.8,3.2-8,8-8h8v-8c0-2.4,0.8-4,2.4-5.6l56-56l11.2,11.2
	L136,187.2V200c0,4.8-3.2,8-8,8h-8v8c0,4.8-3.2,8-8,8h-8v8c0,4.8-3.2,8-8,8h-8v8c0,4.8-3.2,8-8,8h-8v8c0,4.8-3.2,8-8,8H51.2
	l-37.6,37.6C12,311.2,10.4,312,8,312z"/>
<path style="fill:#A4A5A6;" d="M248,8L248,8c35.2,0,64,28.8,64,64v352c0,35.2-28.8,64-64,64l0,0c-35.2,0-64-28.8-64-64V72
	C184,36.8,212.8,8,248,8z"/>
<path d="M248,496c-40,0-72-32-72-72V72c0-40,32-72,72-72s72,32,72,72v352C320,464,288,496,248,496z M248,16c-31.2,0-56,24.8-56,56
	v352c0,31.2,24.8,56,56,56s56-24.8,56-56l0,0V72C304,40.8,279.2,16,248,16z"/>
<circle style="fill:#7D828C;" cx="248" cy="72" r="32"/>
<path d="M248,112c-22.4,0-40-17.6-40-40s17.6-40,40-40s40,17.6,40,40S270.4,112,248,112z M248,48c-13.6,0-24,10.4-24,24
	s10.4,24,24,24s24-10.4,24-24S261.6,48,248,48z"/>
<circle style="fill:#7D828C;" cx="248" cy="424" r="32"/>
<path d="M248,464c-22.4,0-40-17.6-40-40s17.6-40,40-40s40,17.6,40,40S270.4,464,248,464z M248,400c-13.6,0-24,10.4-24,24
	s10.4,24,24,24s24-10.4,24-24S261.6,400,248,400z"/>
<rect x="224" y="96" width="16" height="304"/>
<rect x="256" y="96" width="16" height="304"/>
<g>
</g>
<g>
</g>
<g>
</g>
<g>
</g>
<g>
</g>
<g>
</g>
<g>
</g>
<g>
</g>
<g>
</g>
<g>
</g>
<g>
</g>
<g>
</g>
<g>
</g>
<g>
</g>
<g>
</g>
</svg>
