<?xml version="1.0" encoding="iso-8859-1"?>
<!-- Generator: Adobe Illustrator 19.0.0, SVG Export Plug-In . SVG Version: 6.00 Build 0)  -->
<svg version="1.1" id="Capa_1" xmlns="http://www.w3.org/2000/svg" xmlns:xlink="http://www.w3.org/1999/xlink" x="0px" y="0px"
	 viewBox="0 0 496 496" style="enable-background:new 0 0 496 496;" xml:space="preserve">
<polyline style="fill:#BABDBF;" points="200,336 200,288 168,288 168,320 "/>
<path d="M208,336h-16v-40h-16v24h-16v-32c0-4.8,3.2-8,8-8h32c4.8,0,8,3.2,8,8V336z"/>
<path style="fill:#737272;" d="M456,160h8c13.6,0,24,10.4,24,24l0,0c0,13.6-10.4,24-24,24h-8"/>
<path d="M464,216h-8v-16h8c8.8,0,16-7.2,16-16s-7.2-16-16-16h-8v-16h8c17.6,0,32,14.4,32,32S481.6,216,464,216z"/>
<rect x="40" y="104" style="fill:#BF412C;" width="176" height="160"/>
<path d="M216,272H40c-4.8,0-8-3.2-8-8V104c0-4.8,3.2-8,8-8h176c4.8,0,8,3.2,8,8v160C224,268.8,220.8,272,216,272z M48,256h160V112
	H48V256z"/>
<rect x="8" y="128" style="fill:#BF412C;" width="32" height="120"/>
<path d="M40,256H8c-4.8,0-8-3.2-8-8V128c0-4.8,3.2-8,8-8h32c4.8,0,8,3.2,8,8v120C48,252.8,44.8,256,40,256z M16,240h16V136H16V240z"
	/>
<rect x="424" y="8" style="fill:#7F2B1D;" width="32" height="352"/>
<path d="M456,368h-32c-4.8,0-8-3.2-8-8V8c0-4.8,3.2-8,8-8h32c4.8,0,8,3.2,8,8v352C464,364.8,460.8,368,456,368z M432,352h16V16h-16
	V352z"/>
<polygon style="fill:#BF412C;" points="424,344 216,264 216,104 424,24 "/>
<path d="M424,352c-0.8,0-1.6,0-3.2-0.8l-208-80c-2.4-0.8-4.8-4-4.8-7.2V104c0-3.2,2.4-6.4,4.8-7.2l208-80c4-1.6,8.8,0.8,10.4,4.8
	c0.8,0.8,0.8,1.6,0.8,2.4v320C432,348.8,428.8,352,424,352z M224,258.4L416,332V36l-192,73.6V258.4z"/>
<rect x="40" y="104" style="fill:#7F2B1D;" width="32" height="160"/>
<path d="M72,272H40c-4.8,0-8-3.2-8-8V104c0-4.8,3.2-8,8-8h32c4.8,0,8,3.2,8,8v160C80,268.8,76.8,272,72,272z M48,256h16V112H48V256z
	"/>
<rect x="184" y="104" style="fill:#7F2B1D;" width="32" height="160"/>
<path d="M216,272h-32c-4.8,0-8-3.2-8-8V104c0-4.8,3.2-8,8-8h32c4.8,0,8,3.2,8,8v160C224,268.8,220.8,272,216,272z M192,256h16V112
	h-16V256z"/>
<rect x="384" y="40" width="16" height="288"/>
<polygon style="fill:#737272;" points="216,344 216,488 8,488 8,344 112,296 "/>
<path d="M216,496H8c-4.8,0-8-3.2-8-8V344c0-3.2,1.6-5.6,4.8-7.2l104-48c2.4-0.8,4.8-0.8,6.4,0l104,48c3.2,1.6,4.8,4,4.8,7.2v144
	C224,492.8,220.8,496,216,496z M16,480h192V348.8l-96-44l-96,44V480z"/>
<rect x="72" y="360" style="fill:#BABDBF;" width="80" height="128"/>
<path d="M152,496H72c-4.8,0-8-3.2-8-8V360c0-4.8,3.2-8,8-8h80c4.8,0,8,3.2,8,8v128C160,492.8,156.8,496,152,496z M80,480h64V368H80
	V480z"/>
<rect x="8" y="456" style="fill:#BABDBF;" width="64" height="32"/>
<path d="M72,496H8c-4.8,0-8-3.2-8-8v-32c0-4.8,3.2-8,8-8h64c4.8,0,8,3.2,8,8v32C80,492.8,76.8,496,72,496z M16,480h48v-16H16V480z"
	/>
<rect x="152" y="456" style="fill:#BABDBF;" width="64" height="32"/>
<path d="M216,496h-64c-4.8,0-8-3.2-8-8v-32c0-4.8,3.2-8,8-8h64c4.8,0,8,3.2,8,8v32C224,492.8,220.8,496,216,496z M160,480h48v-16
	h-48V480z"/>
<rect x="72" y="360" style="fill:#D9D9D9;" width="80" height="32"/>
<path d="M152,400H72c-4.8,0-8-3.2-8-8v-32c0-4.8,3.2-8,8-8h80c4.8,0,8,3.2,8,8v32C160,396.8,156.8,400,152,400z M80,384h64v-16H80
	V384z"/>
<rect x="243.213" y="376.019" transform="matrix(-0.8321 0.5547 -0.5547 -0.8321 711.3549 552.6682)" width="57.602" height="16.001"/>
<rect x="264.016" y="411.196" transform="matrix(-0.5547 0.8321 -0.8321 -0.5547 789.0052 457.7184)" width="16.001" height="57.602"/>
<g>
</g>
<g>
</g>
<g>
</g>
<g>
</g>
<g>
</g>
<g>
</g>
<g>
</g>
<g>
</g>
<g>
</g>
<g>
</g>
<g>
</g>
<g>
</g>
<g>
</g>
<g>
</g>
<g>
</g>
</svg>
