<?xml version="1.0" encoding="iso-8859-1"?>
<!-- Generator: Adobe Illustrator 19.0.0, SVG Export Plug-In . SVG Version: 6.00 Build 0)  -->
<svg version="1.1" id="Capa_1" xmlns="http://www.w3.org/2000/svg" xmlns:xlink="http://www.w3.org/1999/xlink" x="0px" y="0px"
	 viewBox="0 0 496 496" style="enable-background:new 0 0 496 496;" xml:space="preserve">
<polyline style="fill:#6B5936;" points="248,346.4 336,296 408,296 282.4,368 "/>
<path d="M285.6,375.2l-8-13.6l100-57.6h-40l-86.4,49.6l-8-13.6l88-50.4c2.4-1.6,3.2-1.6,4.8-1.6h72c4.8,0,8,3.2,8,8
	c0,3.2-1.6,5.6-4,7.2L285.6,375.2z"/>
<polyline style="fill:#6B5936;" points="248,387.2 72,488 56,456 210.4,368 "/>
<path d="M72,496c-0.8,0-1.6,0-2.4,0c-2.4-0.8-4-2.4-4.8-4l-16-32c-1.6-4-0.8-8.8,3.2-11.2l154.4-88l8,13.6l-148,84.8l8.8,17.6
	l168.8-96l8,13.6L76,495.2C74.4,496,73.6,496,72,496z"/>
<polyline style="fill:#A88C55;" points="88,296 424,488 440,456 160,296 "/>
<path d="M424,496c-1.6,0-2.4,0-4-0.8l-336-192l8-13.6l328.8,188l8.8-17.6L156,303.2l8-13.6l280,160c4,2.4,4.8,6.4,3.2,10.4l-16,32
	c-0.8,1.6-2.4,3.2-4.8,4C425.6,496,424.8,496,424,496z"/>
<path style="fill:#6B5936;" d="M112,152V62.4C112,32,133.6,8,160,8h176c26.4,0,48,24,48,54.4V152"/>
<path d="M392,152h-16V62.4c0-25.6-17.6-46.4-40-46.4H160c-22.4,0-40,20.8-40,46.4V152h-16V62.4C104,28,128.8,0,160,0h176
	c31.2,0,56,28,56,62.4V152z"/>
<path style="fill:#A88C55;" d="M88,136h32c13.6,0,24,10.4,24,24v24l0,0H64l0,0v-24C64,146.4,74.4,136,88,136z"/>
<path d="M144,192H64c-4.8,0-8-3.2-8-8v-24c0-17.6,14.4-32,32-32h32c17.6,0,32,14.4,32,32v24C152,188.8,148.8,192,144,192z M72,176
	h64v-16c0-8.8-7.2-16-16-16H88c-8.8,0-16,7.2-16,16V176z"/>
<path style="fill:#A88C55;" d="M376,136h32c13.6,0,24,10.4,24,24v24l0,0h-80l0,0v-24C352,146.4,362.4,136,376,136z"/>
<path d="M432,192h-80c-4.8,0-8-3.2-8-8v-24c0-17.6,14.4-32,32-32h32c17.6,0,32,14.4,32,32v24C440,188.8,436.8,192,432,192z M360,176
	h64v-16c0-8.8-7.2-16-16-16h-32c-8.8,0-16,7.2-16,16V176z"/>
<rect x="144" y="144" width="208" height="16"/>
<rect x="80" y="184" style="fill:#6B5936;" width="48" height="64"/>
<path d="M128,256H80c-4.8,0-8-3.2-8-8v-64c0-4.8,3.2-8,8-8h48c4.8,0,8,3.2,8,8v64C136,252.8,132.8,256,128,256z M88,240h32v-48H88
	V240z"/>
<rect x="368" y="184" style="fill:#6B5936;" width="48" height="64"/>
<path d="M416,256h-48c-4.8,0-8-3.2-8-8v-64c0-4.8,3.2-8,8-8h48c4.8,0,8,3.2,8,8v64C424,252.8,420.8,256,416,256z M376,240h32v-48
	h-32V240z"/>
<path style="fill:#A88C55;" d="M88,248h320c13.6,0,24,10.4,24,24l0,0c0,13.6-10.4,24-24,24H88c-13.6,0-24-10.4-24-24l0,0
	C64,258.4,74.4,248,88,248z"/>
<path d="M408,304H88c-17.6,0-32-14.4-32-32s14.4-32,32-32h320c17.6,0,32,14.4,32,32S425.6,304,408,304z M88,256c-8.8,0-16,7.2-16,16
	s7.2,16,16,16h320c8.8,0,16-7.2,16-16s-7.2-16-16-16H88z"/>
<rect x="382.167" y="447.668" transform="matrix(-0.4472 0.8944 -0.8944 -0.4472 986.6875 301.5293)" width="35.999" height="16"/>
<rect x="88.17" y="438.347" transform="matrix(-0.8944 0.4472 -0.4472 -0.8944 386.2701 821.5071)" width="16" height="35.999"/>
<rect x="112" y="32" width="272" height="16"/>
<rect x="112" y="64" width="272" height="16"/>
<rect x="80" y="208" width="40" height="16"/>
<rect x="368" y="208" width="48" height="16"/>
<g>
</g>
<g>
</g>
<g>
</g>
<g>
</g>
<g>
</g>
<g>
</g>
<g>
</g>
<g>
</g>
<g>
</g>
<g>
</g>
<g>
</g>
<g>
</g>
<g>
</g>
<g>
</g>
<g>
</g>
</svg>
