<?xml version="1.0" encoding="iso-8859-1"?>
<!-- Generator: Adobe Illustrator 19.0.0, SVG Export Plug-In . SVG Version: 6.00 Build 0)  -->
<svg version="1.1" id="Capa_1" xmlns="http://www.w3.org/2000/svg" xmlns:xlink="http://www.w3.org/1999/xlink" x="0px" y="0px"
	 viewBox="0 0 496.125 496.125" style="enable-background:new 0 0 496.125 496.125;" xml:space="preserve">
<path style="fill:#DFA738;" d="M320.062,72.125c13.6,0,24-10.4,24-24s-10.4-24-24-24s-24,10.4-24,24"/>
<path d="M320.062,80.125v-16c8.8,0,16-7.2,16-16s-7.2-16-16-16s-16,7.2-16,16h-16c0-17.6,14.4-32,32-32s32,14.4,32,32
	S337.662,80.125,320.062,80.125z"/>
<rect x="8.062" y="440.125" style="fill:#737272;" width="480" height="48"/>
<path d="M488.062,496.125h-480c-4.8,0-8-3.2-8-8v-48c0-4.8,3.2-8,8-8h480c4.8,0,8,3.2,8,8v48
	C496.062,492.925,492.862,496.125,488.062,496.125z M16.062,480.125h464v-32h-464V480.125z"/>
<polygon style="fill:#737272;" points="64.062,152.125 48.062,152.125 24.062,184.125 24.062,440.125 88.062,440.125 
	88.062,184.125 "/>
<path d="M88.062,448.125h-64c-4.8,0-8-3.2-8-8v-256c0-1.6,0.8-3.2,1.6-4.8l24-32c1.6-2.4,4-3.2,6.4-3.2h16c2.4,0,4.8,0.8,6.4,3.2
	l24,32c0.8,1.6,1.6,3.2,1.6,4.8v256C96.062,444.925,92.862,448.125,88.062,448.125z M32.062,432.125h48v-245.6l-20-26.4h-8l-20,26.4
	V432.125z"/>
<polygon style="fill:#BABDBF;" points="88.062,200.125 24.062,200.125 24.062,184.125 48.062,152.125 64.062,152.125 
	88.062,184.125 "/>
<path d="M88.062,208.125h-64c-4.8,0-8-3.2-8-8v-16c0-1.6,0.8-3.2,1.6-4.8l24-32c1.6-2.4,4-3.2,6.4-3.2h16c2.4,0,4.8,0.8,6.4,3.2
	l24,32c0.8,1.6,1.6,3.2,1.6,4.8v16C96.062,204.925,92.862,208.125,88.062,208.125z M32.062,192.125h48v-5.6l-20-26.4h-8l-20,26.4
	V192.125z"/>
<rect x="24.062" y="408.125" style="fill:#BABDBF;" width="64" height="32"/>
<path d="M88.062,448.125h-64c-4.8,0-8-3.2-8-8v-32c0-4.8,3.2-8,8-8h64c4.8,0,8,3.2,8,8v32
	C96.062,444.925,92.862,448.125,88.062,448.125z M32.062,432.125h48v-16h-48V432.125z"/>
<polygon style="fill:#737272;" points="256.062,152.125 240.062,152.125 216.062,184.125 216.062,440.125 280.062,440.125 
	280.062,184.125 "/>
<path d="M280.062,448.125h-64c-4.8,0-8-3.2-8-8v-256c0-1.6,0.8-3.2,1.6-4.8l24-32c1.6-2.4,4-3.2,6.4-3.2h16c2.4,0,4.8,0.8,6.4,3.2
	l24,32c0.8,1.6,1.6,3.2,1.6,4.8v256C288.062,444.925,284.862,448.125,280.062,448.125z M224.062,432.125h48v-245.6l-20-26.4h-8
	l-20,26.4V432.125z"/>
<polygon style="fill:#737272;" points="160.062,152.125 144.062,152.125 120.062,184.125 120.062,440.125 184.062,440.125 
	184.062,184.125 "/>
<path d="M184.062,448.125h-64c-4.8,0-8-3.2-8-8v-256c0-1.6,0.8-3.2,1.6-4.8l24-32c1.6-2.4,4-3.2,6.4-3.2h16c2.4,0,4.8,0.8,6.4,3.2
	l24,32c0.8,1.6,1.6,3.2,1.6,4.8v256C192.062,444.925,188.862,448.125,184.062,448.125z M128.062,432.125h48v-245.6l-20-26.4h-8
	l-20,26.4V432.125z"/>
<polygon style="fill:#737272;" points="352.062,152.125 336.062,152.125 312.062,184.125 312.062,440.125 376.062,440.125 
	376.062,184.125 "/>
<path d="M376.062,448.125h-64c-4.8,0-8-3.2-8-8v-256c0-1.6,0.8-3.2,1.6-4.8l24-32c1.6-2.4,4-3.2,6.4-3.2h16c2.4,0,4.8,0.8,6.4,3.2
	l24,32c0.8,1.6,1.6,3.2,1.6,4.8v256C384.062,444.925,380.862,448.125,376.062,448.125z M320.062,432.125h48v-245.6l-20-26.4h-8
	l-20,26.4V432.125z"/>
<polygon style="fill:#737272;" points="448.062,152.125 432.062,152.125 408.062,184.125 408.062,440.125 472.062,440.125 
	472.062,184.125 "/>
<path d="M472.062,448.125h-64c-4.8,0-8-3.2-8-8v-256c0-1.6,0.8-3.2,1.6-4.8l24-32c1.6-2.4,4-3.2,6.4-3.2h16c2.4,0,4.8,0.8,6.4,3.2
	l24,32c0.8,1.6,1.6,3.2,1.6,4.8v256C480.062,444.925,476.862,448.125,472.062,448.125z M416.062,432.125h48v-245.6l-20-26.4h-8
	l-20,26.4V432.125z"/>
<rect x="88.062" y="232.125" style="fill:#BABDBF;" width="32" height="32"/>
<path d="M120.062,272.125h-32c-4.8,0-8-3.2-8-8v-32c0-4.8,3.2-8,8-8h32c4.8,0,8,3.2,8,8v32
	C128.062,268.925,124.862,272.125,120.062,272.125z M96.062,256.125h16v-16h-16V256.125z"/>
<rect x="184.062" y="232.125" style="fill:#BABDBF;" width="32" height="32"/>
<path d="M216.062,272.125h-32c-4.8,0-8-3.2-8-8v-32c0-4.8,3.2-8,8-8h32c4.8,0,8,3.2,8,8v32
	C224.062,268.925,220.862,272.125,216.062,272.125z M192.062,256.125h16v-16h-16V256.125z"/>
<rect x="280.062" y="232.125" style="fill:#BABDBF;" width="32" height="32"/>
<path d="M312.062,272.125h-32c-4.8,0-8-3.2-8-8v-32c0-4.8,3.2-8,8-8h32c4.8,0,8,3.2,8,8v32
	C320.062,268.925,316.862,272.125,312.062,272.125z M288.062,256.125h16v-16h-16V256.125z"/>
<rect x="376.062" y="232.125" style="fill:#BABDBF;" width="32" height="32"/>
<path d="M408.062,272.125h-32c-4.8,0-8-3.2-8-8v-32c0-4.8,3.2-8,8-8h32c4.8,0,8,3.2,8,8v32
	C416.062,268.925,412.862,272.125,408.062,272.125z M384.062,256.125h16v-16h-16V256.125z"/>
<rect x="88.062" y="344.125" style="fill:#BABDBF;" width="32" height="32"/>
<path d="M120.062,384.125h-32c-4.8,0-8-3.2-8-8v-32c0-4.8,3.2-8,8-8h32c4.8,0,8,3.2,8,8v32
	C128.062,380.925,124.862,384.125,120.062,384.125z M96.062,368.125h16v-16h-16V368.125z"/>
<rect x="184.062" y="344.125" style="fill:#BABDBF;" width="32" height="32"/>
<path d="M216.062,384.125h-32c-4.8,0-8-3.2-8-8v-32c0-4.8,3.2-8,8-8h32c4.8,0,8,3.2,8,8v32
	C224.062,380.925,220.862,384.125,216.062,384.125z M192.062,368.125h16v-16h-16V368.125z"/>
<rect x="280.062" y="344.125" style="fill:#BABDBF;" width="32" height="32"/>
<path d="M312.062,384.125h-32c-4.8,0-8-3.2-8-8v-32c0-4.8,3.2-8,8-8h32c4.8,0,8,3.2,8,8v32
	C320.062,380.925,316.862,384.125,312.062,384.125z M288.062,368.125h16v-16h-16V368.125z"/>
<rect x="376.062" y="344.125" style="fill:#BABDBF;" width="32" height="32"/>
<path d="M408.062,384.125h-32c-4.8,0-8-3.2-8-8v-32c0-4.8,3.2-8,8-8h32c4.8,0,8,3.2,8,8v32
	C416.062,380.925,412.862,384.125,408.062,384.125z M384.062,368.125h16v-16h-16V368.125z"/>
<path style="fill:#BABDBF;" d="M312.062,88.125c8.8,0,16-7.2,16-16s-7.2-16-16-16c-3.2,0-6.4,0.8-8.8,2.4
	c-2.4-10.4-12-18.4-23.2-18.4c0-17.6-14.4-32-32-32s-32,14.4-32,32c0,0.8,0,0.8,0,1.6c-2.4-0.8-5.6-1.6-8-1.6c-13.6,0-24,10.4-24,24
	s10.4,24,24,24H312.062z"/>
<path d="M312.062,96.125h-104c-17.6,0-32-14.4-32-32s14.4-32,32-32h0.8c4-21.6,25.6-36,47.2-31.2c16,3.2,28.8,16,31.2,32
	c8.8,2.4,16,8,20.8,15.2c1.6,0,2.4,0,4,0c13.6,0,24,10.4,24,24S325.662,96.125,312.062,96.125z M208.062,48.125c-8.8,0-16,7.2-16,16
	s7.2,16,16,16h104c4.8,0,8-3.2,8-8s-3.2-8-8-8c-1.6,0-3.2,0.8-4,1.6c-4,2.4-8.8,1.6-11.2-2.4c-0.8-0.8-0.8-1.6-1.6-3.2
	c-1.6-7.2-8-12-15.2-12c-4.8,0-8-3.2-8-8c0-13.6-10.4-24-24-24s-24,10.4-24,24v0.8c0,4.8-3.2,8-7.2,8.8c-0.8,0-2.4,0-3.2-0.8
	C212.062,48.125,209.662,48.125,208.062,48.125z"/>
<path style="fill:#BABDBF;" d="M136.062,120.125c8.8,0,16-7.2,16-16s-7.2-16-16-16c-3.2,0-6.4,0.8-8.8,2.4
	c-2.4-10.4-12-18.4-23.2-18.4c0-17.6-14.4-32-32-32s-32,14.4-32,32c0,0.8,0,0.8,0,1.6c-2.4-0.8-5.6-1.6-8-1.6c-13.6,0-24,10.4-24,24
	s10.4,24,24,24H136.062z"/>
<path d="M136.062,128.125h-104c-17.6,0-32-14.4-32-32s14.4-32,32-32h0.8c4-21.6,25.6-36,47.2-31.2c16,3.2,28.8,16,31.2,32
	c8.8,2.4,16,8,20.8,15.2c1.6,0,2.4,0,4,0c13.6,0,24,10.4,24,24S149.662,128.125,136.062,128.125z M32.062,80.125
	c-8.8,0-16,7.2-16,16s7.2,16,16,16h104c4.8,0,8-3.2,8-8s-4-8-8.8-8c-1.6,0-2.4,0.8-4,0.8c-4,2.4-8.8,1.6-11.2-2.4
	c-0.8-0.8-0.8-1.6-0.8-2.4c-1.6-7.2-8-12.8-15.2-12c-4.8,0-8-3.2-8-8c0-13.6-10.4-24-24-24s-24,10.4-24,24v0.8c0,4.8-3.2,8-7.2,8.8
	c-0.8,0-2.4,0-3.2-0.8C36.062,80.125,33.662,80.125,32.062,80.125z"/>
<polygon style="fill:#BABDBF;" points="184.062,200.125 120.062,200.125 120.062,184.125 144.062,152.125 160.062,152.125 
	184.062,184.125 "/>
<path d="M184.062,208.125h-64c-4.8,0-8-3.2-8-8v-16c0-1.6,0.8-3.2,1.6-4.8l24-32c1.6-2.4,4-3.2,6.4-3.2h16c2.4,0,4.8,0.8,6.4,3.2
	l24,32c0.8,1.6,1.6,3.2,1.6,4.8v16C192.062,204.925,188.862,208.125,184.062,208.125z M128.062,192.125h48v-5.6l-20-26.4h-8
	l-20,26.4V192.125z"/>
<polygon style="fill:#BABDBF;" points="280.062,200.125 216.062,200.125 216.062,184.125 240.062,152.125 256.062,152.125 
	280.062,184.125 "/>
<path d="M280.062,208.125h-64c-4.8,0-8-3.2-8-8v-16c0-1.6,0.8-3.2,1.6-4.8l24-32c1.6-2.4,4-3.2,6.4-3.2h16c2.4,0,4.8,0.8,6.4,3.2
	l24,32c0.8,1.6,1.6,3.2,1.6,4.8v16C288.062,204.925,284.862,208.125,280.062,208.125z M224.062,192.125h48v-5.6l-20-26.4h-8
	l-20,26.4V192.125z"/>
<polygon style="fill:#BABDBF;" points="376.062,200.125 312.062,200.125 312.062,184.125 336.062,152.125 352.062,152.125 
	376.062,184.125 "/>
<path d="M376.062,208.125h-64c-4.8,0-8-3.2-8-8v-16c0-1.6,0.8-3.2,1.6-4.8l24-32c1.6-2.4,4-3.2,6.4-3.2h16c2.4,0,4.8,0.8,6.4,3.2
	l24,32c0.8,1.6,1.6,3.2,1.6,4.8v16C384.062,204.925,380.862,208.125,376.062,208.125z M320.062,192.125h48v-5.6l-20-26.4h-8
	l-20,26.4V192.125z"/>
<polygon style="fill:#BABDBF;" points="472.062,200.125 408.062,200.125 408.062,184.125 432.062,152.125 448.062,152.125 
	472.062,184.125 "/>
<path d="M472.062,208.125h-64c-4.8,0-8-3.2-8-8v-16c0-1.6,0.8-3.2,1.6-4.8l24-32c1.6-2.4,4-3.2,6.4-3.2h16c2.4,0,4.8,0.8,6.4,3.2
	l24,32c0.8,1.6,1.6,3.2,1.6,4.8v16C480.062,204.925,476.862,208.125,472.062,208.125z M416.062,192.125h48v-5.6l-20-26.4h-8
	l-20,26.4V192.125z"/>
<rect x="120.062" y="408.125" style="fill:#BABDBF;" width="64" height="32"/>
<path d="M184.062,448.125h-64c-4.8,0-8-3.2-8-8v-32c0-4.8,3.2-8,8-8h64c4.8,0,8,3.2,8,8v32
	C192.062,444.925,188.862,448.125,184.062,448.125z M128.062,432.125h48v-16h-48V432.125z"/>
<rect x="216.062" y="408.125" style="fill:#BABDBF;" width="64" height="32"/>
<path d="M280.062,448.125h-64c-4.8,0-8-3.2-8-8v-32c0-4.8,3.2-8,8-8h64c4.8,0,8,3.2,8,8v32
	C288.062,444.925,284.862,448.125,280.062,448.125z M224.062,432.125h48v-16h-48V432.125z"/>
<rect x="312.062" y="408.125" style="fill:#BABDBF;" width="64" height="32"/>
<path d="M376.062,448.125h-64c-4.8,0-8-3.2-8-8v-32c0-4.8,3.2-8,8-8h64c4.8,0,8,3.2,8,8v32
	C384.062,444.925,380.862,448.125,376.062,448.125z M320.062,432.125h48v-16h-48V432.125z"/>
<rect x="408.062" y="408.125" style="fill:#BABDBF;" width="64" height="32"/>
<path d="M472.062,448.125h-64c-4.8,0-8-3.2-8-8v-32c0-4.8,3.2-8,8-8h64c4.8,0,8,3.2,8,8v32
	C480.062,444.925,476.862,448.125,472.062,448.125z M416.062,432.125h48v-16h-48V432.125z"/>
<g>
</g>
<g>
</g>
<g>
</g>
<g>
</g>
<g>
</g>
<g>
</g>
<g>
</g>
<g>
</g>
<g>
</g>
<g>
</g>
<g>
</g>
<g>
</g>
<g>
</g>
<g>
</g>
<g>
</g>
</svg>
