<?xml version="1.0" encoding="iso-8859-1"?>
<!-- Generator: Adobe Illustrator 19.0.0, SVG Export Plug-In . SVG Version: 6.00 Build 0)  -->
<svg version="1.1" id="Capa_1" xmlns="http://www.w3.org/2000/svg" xmlns:xlink="http://www.w3.org/1999/xlink" x="0px" y="0px"
	 viewBox="0 0 496 496" style="enable-background:new 0 0 496 496;" xml:space="preserve">
<polyline style="fill:#9E2625;" points="152,391.851 120,391.851 120,335.851 152,335.851 "/>
<path d="M152,399.851h-32c-4.8,0-8-3.2-8-8v-56c0-4.8,3.2-8,8-8h32v16h-24v40h24V399.851z"/>
<polyline style="fill:#9E2625;" points="456,391.851 488,391.851 488,335.851 456,335.851 "/>
<path d="M488,399.851h-32v-16h24v-40h-24v-16h32c4.8,0,8,3.2,8,8v56C496,396.651,492.8,399.851,488,399.851z"/>
<path style="fill:#E53933;" d="M200,431.851h-32c-8.8,0-16-7.2-16-16v-96c0-8.8,7.2-16,16-16h32"/>
<path d="M200,439.851h-32c-13.6,0-24-10.4-24-24v-96c0-13.6,10.4-24,24-24h32v16h-32c-4.8,0-8,3.2-8,8v96c0,4.8,3.2,8,8,8h32
	V439.851z"/>
<path style="fill:#E53933;" d="M408,431.851h32c8.8,0,16-7.2,16-16v-96c0-8.8-7.2-16-16-16h-32"/>
<path d="M440,439.851h-32v-16h32c4.8,0,8-3.2,8-8v-96c0-4.8-3.2-8-8-8h-32v-16h32c13.6,0,24,10.4,24,24v96
	C464,429.451,453.6,439.851,440,439.851z"/>
<circle style="fill:#F2AB27;" cx="304" cy="367.851" r="120"/>
<path d="M304,495.851c-70.4,0-128-57.6-128-128s57.6-128,128-128s128,57.6,128,128S374.4,495.851,304,495.851z M304,255.851
	c-61.6,0-112,50.4-112,112s50.4,112,112,112s112-50.4,112-112S365.6,255.851,304,255.851z"/>
<rect x="252.28" y="311.734" transform="matrix(-0.7071 0.7071 -0.7071 -0.7071 684.8371 396.598)" width="16" height="56.799"/>
<rect x="319.874" y="331.591" transform="matrix(-0.7071 0.7071 -0.7071 -0.7071 834.6666 333.4517)" width="56.799" height="16"/>
<path d="M304,439.851c-28,0-54.4-11.2-74.4-30.4l-4-4l11.2-11.2l4,4c34.4,34.4,90.4,34.4,124.8,0l4-4l11.2,11.2l-4,4
	C358.4,428.651,332,439.851,304,439.851z"/>
<path d="M440,303.851h-16c0-44-36-80-80-80h-88c-44,0-80,36-80,80h-16c0-52.8,43.2-96,96-96h88
	C396.8,207.851,440,251.051,440,303.851z"/>
<circle style="fill:#39B54A;" cx="40" cy="111.851" r="16"/>
<path d="M40,135.851c-13.6,0-24-10.4-24-24s10.4-24,24-24s24,10.4,24,24S53.6,135.851,40,135.851z M40,103.851c-4.8,0-8,3.2-8,8
	s3.2,8,8,8s8-3.2,8-8S44.8,103.851,40,103.851z"/>
<circle style="fill:#009245;" cx="104" cy="95.851" r="16"/>
<path d="M104,119.851c-13.6,0-24-10.4-24-24s10.4-24,24-24s24,10.4,24,24S117.6,119.851,104,119.851z M104,87.851c-4.8,0-8,3.2-8,8
	s3.2,8,8,8s8-3.2,8-8S108.8,87.851,104,87.851z"/>
<path d="M64,111.851H48v-80c0-3.2,2.4-6.4,4.8-7.2l64-24c4-1.6,8.8,0.8,10.4,4.8c0.8,0.8,0.8,1.6,0.8,2.4v88h-16v-76.8l-48,18.4
	V111.851z"/>
<circle style="fill:#46709C;" cx="168" cy="143.851" r="16"/>
<path d="M168,167.851c-13.6,0-24-10.4-24-24s10.4-24,24-24s24,10.4,24,24S181.6,167.851,168,167.851z M168,135.851c-4.8,0-8,3.2-8,8
	s3.2,8,8,8s8-3.2,8-8S172.8,135.851,168,135.851z"/>
<circle style="fill:#789DC3;" cx="232" cy="127.851" r="16"/>
<path d="M232,151.851c-13.6,0-24-10.4-24-24s10.4-24,24-24s24,10.4,24,24S245.6,151.851,232,151.851z M232,119.851c-4.8,0-8,3.2-8,8
	s3.2,8,8,8s8-3.2,8-8S236.8,119.851,232,119.851z"/>
<path d="M192,143.851h-16v-80c0-3.2,2.4-6.4,4.8-7.2l64-24c4-1.6,8.8,0.8,10.4,4.8c0.8,0.8,0.8,1.6,0.8,2.4v88h-16v-76.8l-48,18.4
	V143.851z"/>
<rect x="181.616" y="76" transform="matrix(-0.9362 0.3514 -0.3514 -0.9362 446.9971 86.8736)" width="67.998" height="16"/>
<path d="M120,383.851H80.8c-23.2,0-45.6-9.6-62.4-25.6c-12-12-18.4-28.8-18.4-45.6v-1.6c0-16.8,6.4-33.6,18.4-45.6l23.2-23.2
	c9.6-8.8,14.4-20.8,14.4-33.6v-1.6c0-12.8-4.8-24.8-14.4-33.6l-15.2-16l11.2-11.2l16,16c12,12,18.4,28,18.4,45.6v1.6
	c0,16.8-6.4,33.6-18.4,45.6l-23.2,23.2c-9.6,8-14.4,20-14.4,32.8v1.6c0,12.8,4.8,24.8,14.4,33.6c13.6,13.6,32,21.6,51.2,21.6H120
	V383.851z"/>
<path d="M48,367.851H32v-1.6c0-32,12.8-62.4,35.2-84.8l38.4-38.4c8.8-8.8,14.4-21.6,14.4-33.6v-1.6c0-12.8-4.8-24.8-14.4-33.6
	l-15.2-16l11.2-11.2l15.2,16c12,12,18.4,28,18.4,45.6v1.6c0,16.8-6.4,33.6-18.4,45.6l-38.4,38.4c-19.2,17.6-30.4,44-30.4,72V367.851
	z"/>
<g>
</g>
<g>
</g>
<g>
</g>
<g>
</g>
<g>
</g>
<g>
</g>
<g>
</g>
<g>
</g>
<g>
</g>
<g>
</g>
<g>
</g>
<g>
</g>
<g>
</g>
<g>
</g>
<g>
</g>
</svg>
