<svg height="496pt" viewBox="0 0 496 496" width="496pt" xmlns="http://www.w3.org/2000/svg"><path d="m8 24h368v464h-368zm0 0" fill="#e4725f"/><path d="m40 56h304v400h-304zm0 0" fill="#fff"/><path d="m440 88 24-80 24 80v400h-48zm0 0" fill="#f0d365"/><path d="m440 456h48v32h-48zm0 0" fill="#976947"/><path d="m376 496h-368c-4.414062 0-8-3.574219-8-8v-464c0-4.414062 3.585938-8 8-8h368c4.414062 0 8 3.585938 8 8v464c0 4.425781-3.585938 8-8 8zm-360-16h352v-448h-352zm0 0"/><path d="m344 464h-304c-4.414062 0-8-3.574219-8-8v-400c0-4.414062 3.585938-8 8-8h304c4.414062 0 8 3.585938 8 8v400c0 4.425781-3.585938 8-8 8zm-296-16h288v-384h-288zm0 0"/><path d="m64 352h256v16h-256zm0 0"/><path d="m64 384h256v16h-256zm0 0"/><path d="m64 416h256v16h-256zm0 0"/><path d="m64 256h256v16h-256zm0 0"/><path d="m64 288h256v16h-256zm0 0"/><path d="m64 320h256v16h-256zm0 0"/><path d="m216 0h16v96h-16zm0 0"/><path d="m280 0h16v96h-16zm0 0"/><path d="m88 0h16v96h-16zm0 0"/><path d="m152 0h16v96h-16zm0 0"/><path d="m312 192h-240c-4.414062 0-8-3.585938-8-8v-64c0-4.414062 3.585938-8 8-8h240c4.414062 0 8 3.585938 8 8v64c0 4.414062-3.585938 8-8 8zm-232-16h224v-48h-224zm0 0"/><path d="m488 496h-48c-4.414062 0-8-3.574219-8-8v-400c0-.777344.113281-1.550781.335938-2.296875l24-80c1.015624-3.382813 4.136718-5.703125 7.664062-5.703125s6.648438 2.320312 7.664062 5.703125l24 80c.222657.746094.335938 1.519531.335938 2.296875v400c0 4.425781-3.585938 8-8 8zm-40-16h32v-390.824219l-16-53.335937-16 53.335937zm0 0"/><path d="m488 464h-80c-4.414062 0-8-3.574219-8-8v-104h16v96h72zm0 0"/></svg>