<svg height="496pt" viewBox="0 0 496 496" width="496pt" xmlns="http://www.w3.org/2000/svg"><path d="m112 104h-104v-96h128v112zm0 0" fill="#eebc5a"/><path d="m384 104h104v-96h-128v112zm0 0" fill="#eebc5a"/><path d="m8 8v96h104v-96zm0 0" fill="#f8cf6a"/><path d="m360 8v112l24-16h80v-96zm0 0" fill="#f8cf6a"/><path d="m168 120v-24h18.097656c1.421875-5.527344 3.535156-10.769531 6.292969-15.609375l-16.390625-16.390625 24-24 16.390625 16.390625c4.839844-2.757813 10.082031-4.871094 15.609375-6.292969v-18.097656h32v18.097656c5.527344 1.421875 10.769531 3.535156 15.609375 6.292969l16.390625-16.390625 24 24-16.390625 16.390625c2.757813 4.839844 4.871094 10.082031 6.292969 15.609375h18.097656v24" fill="#dc6068"/><path d="m216 120v-8c0-17.671875 14.328125-32 32-32s32 14.328125 32 32v8" fill="#fff"/><path d="m160 344 48.585938 8.832031c22.820312 4.152344 39.414062 24.03125 39.414062 47.222657v87.945312h-240v-87.945312c0-23.199219 16.59375-43.078126 39.414062-47.222657l48.585938-8.832031" fill="#599072"/><path d="m176.585938 352.832031-48.585938-8.832031h-32l-48.585938 8.832031c-22.820312 4.152344-39.414062 24.03125-39.414062 47.222657v87.945312h208v-87.945312c0-23.191407-16.59375-43.070313-39.414062-47.222657zm0 0" fill="#70b48f"/><path d="m152 328 8 32-32 32-32-32 8-32" fill="#dcb29c"/><path d="m116 380 20-20-8-32h-24l-8 32zm0 0" fill="#f3c6b0"/><path d="m72 256-32-32v-48h40v-16h104l24-24v64l-24 24" fill="#7e4e4d"/><path d="m184 200v-40h-104v16h-40v48l26.664062 26.664062" fill="#8d5655"/><path d="m128 336c-30.929688 0-56-25.070312-56-56v-72h112v72c0 30.929688-25.070312 56-56 56zm0 0" fill="#dcb29c"/><path d="m116 334.679688c25.152344-5.496094 44-27.871094 44-54.679688v-72h-88v72c0 26.808594 18.847656 49.183594 44 54.679688zm0 0" fill="#f3c6b0"/><path d="m400 344 48.585938 8.832031c22.820312 4.152344 39.414062 24.03125 39.414062 47.222657v87.945312h-240v-87.945312c0-23.199219 16.59375-43.078126 39.414062-47.222657l48.585938-8.832031" fill="#5789d6"/><path d="m416.585938 352.832031-48.585938-8.832031h-32l-48.585938 8.832031c-22.820312 4.152344-39.414062 24.03125-39.414062 47.222657v87.945312h208v-87.945312c0-23.191407-16.59375-43.070313-39.414062-47.222657zm0 0" fill="#699ce6"/><path d="m392 328 8 32-32 32-32-32 8-32" fill="#dcb29c"/><path d="m356 380 20-20-8-32h-24l-8 32zm0 0" fill="#f3c6b0"/><path d="m424 256 32-32v-48h-40v-16h-104l-24-24v64l24 24" fill="#7e4e4d"/><path d="m405.335938 250.664062 26.664062-26.664062v-48h-40v-16h-104v40" fill="#8d5655"/><path d="m368 336c-30.929688 0-56-25.070312-56-56v-72h112v72c0 30.929688-25.070312 56-56 56zm0 0" fill="#dcb29c"/><path d="m356 334.679688c25.152344-5.496094 44-27.871094 44-54.679688v-72h-88v72c0 26.808594 18.847656 49.183594 44 54.679688zm0 0" fill="#f3c6b0"/><path d="m336 120h-16v-16h-10.097656c-3.644532 0-6.832032-2.472656-7.742188-5.992188-1.257812-4.855468-3.113281-9.457031-5.503906-13.65625-1.785156-3.136718-1.25-7.070312 1.296875-9.617187l10.734375-10.734375-12.6875-12.6875-10.734375 10.734375c-2.554687 2.546875-6.488281 3.066406-9.617187 1.296875-4.207032-2.398438-8.808594-4.246094-13.640626-5.496094-3.535156-.910156-6.007812-4.09375-6.007812-7.742187v-10.105469h-16v10.105469c0 3.648437-2.472656 6.832031-6.007812 7.75-4.832032 1.242187-9.433594 3.097656-13.640626 5.496093-3.144531 1.769532-7.070312 1.25-9.617187-1.296874l-10.734375-10.742188-12.6875 12.6875 10.734375 10.734375c2.546875 2.546875 3.082031 6.488281 1.296875 9.617187-2.398438 4.207032-4.246094 8.808594-5.496094 13.640626-.910156 3.535156-4.09375 6.007812-7.742187 6.007812h-10.105469v16h-16v-24c0-4.425781 3.574219-8 8-8h12.175781c.71875-2.0625 1.535157-4.097656 2.449219-6.0625l-12.28125-12.28125c-3.128906-3.128906-3.128906-8.183594 0-11.3125l24-24c3.128906-3.128906 8.183594-3.128906 11.3125 0l12.28125 12.28125c1.964844-.90625 4-1.730469 6.0625-2.449219v-12.175781c0-4.425781 3.574219-8 8-8h32c4.425781 0 8 3.574219 8 8v12.175781c2.0625.71875 4.097656 1.535157 6.0625 2.449219l12.28125-12.28125c3.128906-3.128906 8.183594-3.128906 11.3125 0l24 24c3.128906 3.128906 3.128906 8.183594 0 11.3125l-12.28125 12.28125c.90625 1.964844 1.730469 3.992188 2.457031 6.0625h12.167969c4.425781 0 8 3.574219 8 8zm0 0"/><path d="m288 120h-16v-8c0-13.230469-10.769531-24-24-24s-24 10.769531-24 24v8h-16v-8c0-22.054688 17.945312-40 40-40s40 17.945312 40 40zm0 0"/><path d="m128 344c-35.289062 0-64-28.710938-64-64v-72c0-4.425781 3.574219-8 8-8h112c4.425781 0 8 3.574219 8 8v72c0 35.289062-28.710938 64-64 64zm-48-128v64c0 26.472656 21.527344 48 48 48s48-21.527344 48-48v-64zm0 0"/><path d="m128 312c-17.648438 0-32-14.351562-32-32h16c0 8.824219 7.175781 16 16 16s16-7.175781 16-16h16c0 17.648438-14.351562 32-32 32zm0 0"/><path d="m108 256c-6.617188 0-12-5.382812-12-12s5.382812-12 12-12 12 5.382812 12 12-5.382812 12-12 12zm0-16c-2.199219 0-4 1.800781-4 4s1.800781 4 4 4 4-1.800781 4-4-1.800781-4-4-4zm0 0"/><path d="m148 256c-6.617188 0-12-5.382812-12-12s5.382812-12 12-12 12 5.382812 12 12-5.382812 12-12 12zm0-16c-2.199219 0-4 1.800781-4 4s1.800781 4 4 4 4-1.800781 4-4-1.800781-4-4-4zm0 0"/><path d="m66.34375 261.65625-32-32c-1.503906-1.496094-2.34375-3.527344-2.34375-5.65625v-48c0-4.425781 3.574219-8 8-8h32v-8c0-4.425781 3.574219-8 8-8h100.6875l21.65625-21.65625c2.296875-2.296875 5.726562-2.984375 8.71875-1.734375 2.992188 1.230469 4.9375 4.160156 4.9375 7.390625v64c0 2.128906-.839844 4.160156-2.34375 5.65625l-24 24-11.3125-11.3125 21.65625-21.65625v-41.375l-10.34375 10.34375c-1.496094 1.503906-3.527344 2.34375-5.65625 2.34375h-96v8c0 4.425781-3.574219 8-8 8h-32v36.6875l29.65625 29.65625zm0 0"/><path d="m128 400c-2.046875 0-4.097656-.785156-5.65625-2.34375l-32-32c-1.984375-1.984375-2.792969-4.863281-2.105469-7.59375l8-32 15.515625 3.875-6.898437 27.605469 23.144531 23.144531 23.144531-23.144531-6.898437-27.605469 15.515625-3.875 8 32c.6875 2.730469-.121094 5.609375-2.105469 7.59375l-32 32c-1.558594 1.558594-3.609375 2.34375-5.65625 2.34375zm0 0"/><path d="m248 496h-240c-4.425781 0-8-3.574219-8-8v-87.9375c0-27.085938 19.335938-50.253906 45.984375-55.09375l48.582031-8.832031 2.859375 15.734375-48.585937 8.832031c-19.023438 3.464844-32.839844 20.015625-32.839844 39.359375v79.9375h224v-79.9375c0-19.34375-13.816406-35.894531-32.839844-39.359375l-48.585937-8.832031 2.859375-15.734375 48.582031 8.832031c26.648437 4.839844 45.984375 28.007812 45.984375 55.09375v87.9375c0 4.425781-3.574219 8-8 8zm0 0"/><path d="m48 416h16v72h-16zm0 0"/><path d="m192 416h16v72h-16zm0 0"/><path d="m120 416h16v16h-16zm0 0"/><path d="m120 448h16v16h-16zm0 0"/><path d="m8 448h48v16h-48zm0 0"/><path d="m200 448h48v16h-48zm0 0"/><path d="m368 344c-35.289062 0-64-28.710938-64-64v-72c0-4.425781 3.574219-8 8-8h112c4.425781 0 8 3.574219 8 8v72c0 35.289062-28.710938 64-64 64zm-48-128v64c0 26.472656 21.527344 48 48 48s48-21.527344 48-48v-64zm0 0"/><path d="m368 312c-17.648438 0-32-14.351562-32-32h16c0 8.824219 7.175781 16 16 16s16-7.175781 16-16h16c0 17.648438-14.351562 32-32 32zm0 0"/><path d="m388 256c-6.617188 0-12-5.382812-12-12s5.382812-12 12-12 12 5.382812 12 12-5.382812 12-12 12zm0-16c-2.199219 0-4 1.800781-4 4s1.800781 4 4 4 4-1.800781 4-4-1.800781-4-4-4zm0 0"/><path d="m348 256c-6.617188 0-12-5.382812-12-12s5.382812-12 12-12 12 5.382812 12 12-5.382812 12-12 12zm0-16c-2.199219 0-4 1.800781-4 4s1.800781 4 4 4 4-1.800781 4-4-1.800781-4-4-4zm0 0"/><path d="m429.65625 261.65625-11.3125-11.3125 29.65625-29.65625v-36.6875h-32c-4.425781 0-8-3.574219-8-8v-8h-96c-2.128906 0-4.160156-.839844-5.65625-2.34375l-10.34375-10.34375v41.375l21.65625 21.65625-11.3125 11.3125-24-24c-1.503906-1.496094-2.34375-3.527344-2.34375-5.65625v-64c0-3.230469 1.945312-6.160156 4.9375-7.390625 2.992188-1.25 6.429688-.554687 8.71875 1.734375l21.65625 21.65625h100.6875c4.425781 0 8 3.574219 8 8v8h32c4.425781 0 8 3.574219 8 8v48c0 2.128906-.839844 4.160156-2.34375 5.65625zm0 0"/><path d="m368 400c-2.046875 0-4.097656-.785156-5.65625-2.34375l-32-32c-1.984375-1.984375-2.792969-4.863281-2.105469-7.59375l8-32 15.515625 3.875-6.898437 27.605469 23.144531 23.144531 23.144531-23.144531-6.898437-27.605469 15.515625-3.875 8 32c.6875 2.730469-.121094 5.609375-2.105469 7.59375l-32 32c-1.558594 1.558594-3.609375 2.34375-5.65625 2.34375zm0 0"/><path d="m488 496h-240c-4.425781 0-8-3.574219-8-8v-87.9375c0-27.085938 19.335938-50.253906 45.984375-55.09375l48.582031-8.832031 2.859375 15.734375-48.585937 8.832031c-19.023438 3.464844-32.839844 20.015625-32.839844 39.359375v79.9375h224v-79.9375c0-19.34375-13.816406-35.894531-32.839844-39.359375l-48.585937-8.832031 2.859375-15.734375 48.582031 8.832031c26.648437 4.839844 45.984375 28.007812 45.984375 55.09375v87.9375c0 4.425781-3.574219 8-8 8zm0 0"/><path d="m432 416h16v72h-16zm0 0"/><path d="m288 416h16v72h-16zm0 0"/><path d="m360 416h16v16h-16zm0 0"/><path d="m360 448h16v16h-16zm0 0"/><path d="m440 448h48v16h-48zm0 0"/><path d="m248 448h48v16h-48zm0 0"/><path d="m136 128c-1.550781 0-3.105469-.457031-4.441406-1.34375l-21.984375-14.65625h-101.574219c-4.425781 0-8-3.574219-8-8v-96c0-4.425781 3.574219-8 8-8h128c4.425781 0 8 3.574219 8 8v112c0 2.953125-1.625 5.664062-4.222656 7.054688-1.183594.632812-2.480469.945312-3.777344.945312zm-120-32h96c1.574219 0 3.128906.472656 4.441406 1.34375l11.558594 7.710938v-89.054688h-112zm0 0"/><path d="m32 48h16v16h-16zm0 0"/><path d="m64 48h16v16h-16zm0 0"/><path d="m96 48h16v16h-16zm0 0"/><path d="m360 128c-1.296875 0-2.59375-.3125-3.777344-.945312-2.597656-1.390626-4.222656-4.101563-4.222656-7.054688v-112c0-4.425781 3.574219-8 8-8h128c4.425781 0 8 3.574219 8 8v96c0 4.425781-3.574219 8-8 8h-101.574219l-21.984375 14.65625c-1.335937.886719-2.890625 1.34375-4.441406 1.34375zm8-112v89.054688l11.558594-7.710938c1.3125-.871094 2.867187-1.34375 4.441406-1.34375h96v-80zm0 0"/><path d="m448 48h16v16h-16zm0 0"/><path d="m416 48h16v16h-16zm0 0"/><path d="m384 48h16v16h-16zm0 0"/></svg>